<?xml version="1.0" encoding="UTF-8"?>
<svg viewBox="0 0 512 512" xmlns="http://www.w3.org/2000/svg">
  <defs>
    <!-- Sky/ceiling gradient: deep indigo-midnight -->
    <linearGradient id="dl-skyGrad" x1="0" y1="0" x2="0" y2="1">
      <stop offset="0%" stop-color="#0d0a2a" stop-opacity="1"/>
      <stop offset="35%" stop-color="#1a1445" stop-opacity="1"/>
      <stop offset="70%" stop-color="#221a55" stop-opacity="1"/>
      <stop offset="100%" stop-color="#2a1e60" stop-opacity="1"/>
    </linearGradient>

    <!-- Lantern glow: blue-white radial -->
    <radialGradient id="dl-lanternGlow" cx="50%" cy="50%">
      <stop offset="0%" stop-color="#88ccff" stop-opacity="0.7"/>
      <stop offset="30%" stop-color="#4488ff" stop-opacity="0.3"/>
      <stop offset="70%" stop-color="#2266cc" stop-opacity="0.1"/>
      <stop offset="100%" stop-color="#2266cc" stop-opacity="0"/>
    </radialGradient>

    <!-- First Dream book glow: warm gold-silver shimmer -->
    <radialGradient id="dl-firstDreamGlow" cx="50%" cy="50%">
      <stop offset="0%" stop-color="#ffe8a0" stop-opacity="0.6"/>
      <stop offset="40%" stop-color="#ffd700" stop-opacity="0.25"/>
      <stop offset="100%" stop-color="#ffd700" stop-opacity="0"/>
    </radialGradient>

    <!-- Floating book glows (different colors) -->
    <radialGradient id="dl-bookGlow1" cx="50%" cy="50%">
      <stop offset="0%" stop-color="#66aaff" stop-opacity="0.5"/>
      <stop offset="100%" stop-color="#66aaff" stop-opacity="0"/>
    </radialGradient>
    <radialGradient id="dl-bookGlow2" cx="50%" cy="50%">
      <stop offset="0%" stop-color="#66ffaa" stop-opacity="0.5"/>
      <stop offset="100%" stop-color="#66ffaa" stop-opacity="0"/>
    </radialGradient>
    <radialGradient id="dl-bookGlow3" cx="50%" cy="50%">
      <stop offset="0%" stop-color="#ffaa44" stop-opacity="0.5"/>
      <stop offset="100%" stop-color="#ffaa44" stop-opacity="0"/>
    </radialGradient>
    <radialGradient id="dl-bookGlow4" cx="50%" cy="50%">
      <stop offset="0%" stop-color="#dd88ff" stop-opacity="0.45"/>
      <stop offset="100%" stop-color="#dd88ff" stop-opacity="0"/>
    </radialGradient>

    <!-- Mist gradient: pearl white with fade -->
    <linearGradient id="dl-mistGrad" x1="0" y1="0" x2="1" y2="0">
      <stop offset="0%" stop-color="#e8e0ff" stop-opacity="0"/>
      <stop offset="30%" stop-color="#e8e0ff" stop-opacity="0.12"/>
      <stop offset="70%" stop-color="#d8d0f0" stop-opacity="0.12"/>
      <stop offset="100%" stop-color="#d8d0f0" stop-opacity="0"/>
    </linearGradient>

    <!-- Character skin gradient -->
    <radialGradient id="dl-charGlow" cx="50%" cy="50%">
      <stop offset="0%" stop-color="#88bbff" stop-opacity="0.15"/>
      <stop offset="100%" stop-color="#88bbff" stop-opacity="0"/>
    </radialGradient>

    <!-- Shelf book spine gradient -->
    <linearGradient id="dl-shelfBooks" x1="0" y1="0" x2="0" y2="1">
      <stop offset="0%" stop-color="#3a2a5a" stop-opacity="0.6"/>
      <stop offset="100%" stop-color="#2a1a4a" stop-opacity="0.4"/>
    </linearGradient>

    <!-- Floor gradient -->
    <linearGradient id="dl-floorGrad" x1="0" y1="0" x2="0" y2="1">
      <stop offset="0%" stop-color="#2a1e55" stop-opacity="0.5"/>
      <stop offset="100%" stop-color="#1a1040" stop-opacity="0.8"/>
    </linearGradient>

    <!-- Iris gradient for eyes -->
    <radialGradient id="dl-irisGrad" cx="45%" cy="40%">
      <stop offset="0%" stop-color="#6a8ab0"/>
      <stop offset="100%" stop-color="#3a5a80"/>
    </radialGradient>

    <!-- Vignette -->
    <radialGradient id="dl-vignette">
      <stop offset="45%" stop-color="#000000" stop-opacity="0"/>
      <stop offset="100%" stop-color="#000000" stop-opacity="0.55"/>
    </radialGradient>

    <!-- Filters -->
    <filter id="dl-softGlow">
      <feGaussianBlur stdDeviation="2" result="blur"/>
      <feMerge>
        <feMergeNode in="blur"/>
        <feMergeNode in="SourceGraphic"/>
      </feMerge>
    </filter>
    <filter id="dl-medGlow" x="-50%" y="-50%" width="200%" height="200%">
      <feGaussianBlur stdDeviation="4" result="blur"/>
      <feMerge>
        <feMergeNode in="blur"/>
        <feMergeNode in="SourceGraphic"/>
      </feMerge>
    </filter>
    <filter id="dl-strongGlow" x="-50%" y="-50%" width="200%" height="200%">
      <feGaussianBlur stdDeviation="6" result="blur"/>
      <feMerge>
        <feMergeNode in="blur"/>
        <feMergeNode in="SourceGraphic"/>
      </feMerge>
    </filter>
    <filter id="dl-mistBlur" x="-20%" y="-20%" width="140%" height="140%">
      <feGaussianBlur stdDeviation="8" result="blur"/>
      <feMerge>
        <feMergeNode in="blur"/>
        <feMergeNode in="SourceGraphic"/>
      </feMerge>
    </filter>
  </defs>

  <style>
    /* Star twinkling */
    @keyframes dl-twinkle1 {
      0%, 100% { opacity: 0.2; }
      50% { opacity: 0.9; }
    }
    @keyframes dl-twinkle2 {
      0%, 100% { opacity: 0.35; }
      50% { opacity: 0.85; }
    }

    /* Floating book bob */
    @keyframes dl-bookFloat1 {
      0%, 100% { transform: translateY(0px) rotate(0deg); }
      50% { transform: translateY(-8px) rotate(2deg); }
    }
    @keyframes dl-bookFloat2 {
      0%, 100% { transform: translateY(0px) rotate(0deg); }
      50% { transform: translateY(-6px) rotate(-3deg); }
    }
    @keyframes dl-bookFloat3 {
      0%, 100% { transform: translateY(0px) rotate(0deg); }
      50% { transform: translateY(-10px) rotate(1.5deg); }
    }
    @keyframes dl-bookFloat4 {
      0%, 100% { transform: translateY(0px) rotate(0deg); }
      50% { transform: translateY(-7px) rotate(-2deg); }
    }

    /* Lantern pulse */
    @keyframes dl-lanternPulse {
      0%, 100% { opacity: 0.55; }
      50% { opacity: 0.85; }
    }

    /* Mira breathing */
    @keyframes dl-miraBreathe {
      0%, 100% { transform: scale(1); }
      50% { transform: scale(1.02); }
    }

    /* Mira eye blink */
    @keyframes dl-miraBlink {
      0%, 40%, 46%, 100% { transform: scaleY(1); }
      43% { transform: scaleY(0.05); }
    }

    /* First Dream book shimmer */
    @keyframes dl-firstDreamShimmer {
      0%, 100% { opacity: 0.5; }
      50% { opacity: 0.85; }
    }

    /* Mist drift (slow horizontal) */
    @keyframes dl-mistDrift {
      0%, 100% { transform: translateX(0px); }
      50% { transform: translateX(20px); }
    }

    /* Sparkle particles */
    @keyframes dl-sparkle1 {
      0%, 100% { opacity: 0.2; transform: translateY(0px); }
      50% { opacity: 0.8; transform: translateY(-5px); }
    }
    @keyframes dl-sparkle2 {
      0%, 100% { opacity: 0.3; transform: translateY(0px); }
      50% { opacity: 0.9; transform: translateY(-4px); }
    }

    /* Shelf book glow pulse */
    @keyframes dl-shelfGlow {
      0%, 100% { opacity: 0.15; }
      50% { opacity: 0.4; }
    }

    /* Assignments */
    .dl-star1 { animation: dl-twinkle1 3s ease-in-out infinite; }
    .dl-star2 { animation: dl-twinkle2 3.5s ease-in-out infinite 0.5s; }
    .dl-star3 { animation: dl-twinkle1 2.8s ease-in-out infinite 1.1s; }
    .dl-star4 { animation: dl-twinkle2 4s ease-in-out infinite 0.3s; }
    .dl-star5 { animation: dl-twinkle1 3.3s ease-in-out infinite 1.6s; }
    .dl-star6 { animation: dl-twinkle2 3.8s ease-in-out infinite 0.8s; }
    .dl-star7 { animation: dl-twinkle1 4.2s ease-in-out infinite 1.3s; }
    .dl-star8 { animation: dl-twinkle2 3.1s ease-in-out infinite 2s; }
    .dl-star9 { animation: dl-twinkle1 3.6s ease-in-out infinite 0.6s; }
    .dl-star10 { animation: dl-twinkle2 4.5s ease-in-out infinite 1.8s; }

    .dl-floatBook1 { animation: dl-bookFloat1 7s ease-in-out infinite; }
    .dl-floatBook2 { animation: dl-bookFloat2 6.5s ease-in-out infinite 0.8s; }
    .dl-floatBook3 { animation: dl-bookFloat3 7.5s ease-in-out infinite 1.5s; }
    .dl-floatBook4 { animation: dl-bookFloat4 6s ease-in-out infinite 2.2s; }

    .dl-lantern {
      animation: dl-lanternPulse 3.5s ease-in-out infinite;
    }

    .dl-mira {
      transform-origin: 256px 310px;
      animation: dl-miraBreathe 5s ease-in-out infinite;
    }

    .dl-eyelid {
      transform-origin: center;
      animation: dl-miraBlink 5s ease-in-out infinite;
    }

    .dl-firstDream {
      animation: dl-firstDreamShimmer 4.5s ease-in-out infinite;
    }

    .dl-mist1 {
      animation: dl-mistDrift 15s ease-in-out infinite;
    }
    .dl-mist2 {
      animation: dl-mistDrift 18s ease-in-out infinite 3s;
    }

    .dl-sparkleA { animation: dl-sparkle1 5.5s ease-in-out infinite; }
    .dl-sparkleB { animation: dl-sparkle2 6s ease-in-out infinite 0.7s; }
    .dl-sparkleC { animation: dl-sparkle1 5s ease-in-out infinite 1.4s; }
    .dl-sparkleD { animation: dl-sparkle2 6.5s ease-in-out infinite 2s; }
    .dl-sparkleE { animation: dl-sparkle1 5.8s ease-in-out infinite 0.3s; }
    .dl-sparkleF { animation: dl-sparkle2 7s ease-in-out infinite 1.2s; }

    .dl-shelfPulse1 { animation: dl-shelfGlow 6s ease-in-out infinite; }
    .dl-shelfPulse2 { animation: dl-shelfGlow 5.5s ease-in-out infinite 1s; }
    .dl-shelfPulse3 { animation: dl-shelfGlow 6.5s ease-in-out infinite 2s; }
  </style>

  <!-- LAYER 1: Background — Deep indigo ceiling/atmosphere -->
  <rect width="512" height="512" fill="url(#dl-skyGrad)"/>

  <!-- Subtle ceiling arches (faint architectural detail) -->
  <path d="M 0 80 Q 128 30 256 80 Q 384 30 512 80" fill="none" stroke="#2a2060" stroke-width="2" opacity="0.3"/>
  <path d="M 0 60 Q 128 15 256 60 Q 384 15 512 60" fill="none" stroke="#221855" stroke-width="1.5" opacity="0.2"/>

  <!-- Stars on the ceiling -->
  <circle class="dl-star1" cx="45" cy="30" r="1.2" fill="#ffffff"/>
  <circle class="dl-star2" cx="130" cy="18" r="1" fill="#e8e0ff"/>
  <circle class="dl-star3" cx="210" cy="42" r="0.9" fill="#ffffff"/>
  <circle class="dl-star4" cx="300" cy="25" r="1.1" fill="#e8e0ff"/>
  <circle class="dl-star5" cx="380" cy="38" r="0.8" fill="#ffffff"/>
  <circle class="dl-star6" cx="460" cy="22" r="1" fill="#e8e0ff"/>
  <circle class="dl-star7" cx="85" cy="55" r="0.7" fill="#ffffff"/>
  <circle class="dl-star8" cx="350" cy="50" r="0.9" fill="#ffffff"/>
  <circle class="dl-star9" cx="175" cy="65" r="1" fill="#e8e0ff"/>
  <circle class="dl-star10" cx="430" cy="48" r="0.8" fill="#ffffff"/>

  <!-- LAYER 2: Far background — Distant tall bookshelves fading into mist -->
  <!-- Left far shelf -->
  <g opacity="0.2">
    <rect x="10" y="70" width="50" height="370" fill="#3a2860" rx="2"/>
    <!-- Book spines (simple vertical lines) -->
    <rect x="14" y="80" width="5" height="340" fill="#4a3a6a" rx="1"/>
    <rect x="22" y="75" width="6" height="350" fill="#5a4a7a" rx="1"/>
    <rect x="31" y="82" width="4" height="335" fill="#3a2a5a" rx="1"/>
    <rect x="38" y="78" width="7" height="340" fill="#4a3870" rx="1"/>
    <rect x="48" y="85" width="5" height="330" fill="#5a4880" rx="1"/>
  </g>

  <!-- Right far shelf -->
  <g opacity="0.2">
    <rect x="452" y="70" width="50" height="370" fill="#3a2860" rx="2"/>
    <rect x="456" y="78" width="6" height="340" fill="#4a3a6a" rx="1"/>
    <rect x="465" y="75" width="5" height="345" fill="#5a4a7a" rx="1"/>
    <rect x="473" y="82" width="7" height="335" fill="#3a2a5a" rx="1"/>
    <rect x="483" y="80" width="5" height="338" fill="#4a3870" rx="1"/>
    <rect x="492" y="76" width="4" height="342" fill="#5a4880" rx="1"/>
  </g>

  <!-- Center-left far shelf -->
  <g opacity="0.15">
    <rect x="75" y="60" width="45" height="390" fill="#3a2860" rx="2"/>
    <rect x="79" y="68" width="5" height="370" fill="#4a3a6a" rx="1"/>
    <rect x="87" y="65" width="6" height="375" fill="#5a4a7a" rx="1"/>
    <rect x="96" y="72" width="4" height="365" fill="#3a2a5a" rx="1"/>
    <rect x="103" y="66" width="6" height="372" fill="#4a3870" rx="1"/>
    <rect x="112" y="70" width="4" height="368" fill="#5a4880" rx="1"/>
  </g>

  <!-- Center-right far shelf -->
  <g opacity="0.15">
    <rect x="392" y="60" width="45" height="390" fill="#3a2860" rx="2"/>
    <rect x="396" y="66" width="5" height="375" fill="#4a3a6a" rx="1"/>
    <rect x="404" y="70" width="6" height="370" fill="#5a4a7a" rx="1"/>
    <rect x="413" y="65" width="4" height="376" fill="#3a2a5a" rx="1"/>
    <rect x="420" y="68" width="7" height="372" fill="#4a3870" rx="1"/>
    <rect x="430" y="72" width="4" height="368" fill="#5a4880" rx="1"/>
  </g>

  <!-- LAYER 3: Mid bookshelves — more detail, shelf dividers, visible spines -->
  <!-- Left mid shelf -->
  <g opacity="0.55">
    <rect x="55" y="90" width="70" height="350" fill="#2a1a4a" rx="3"/>
    <!-- Shelf dividers -->
    <rect x="55" y="160" width="70" height="3" fill="#3a2a5a"/>
    <rect x="55" y="230" width="70" height="3" fill="#3a2a5a"/>
    <rect x="55" y="300" width="70" height="3" fill="#3a2a5a"/>
    <rect x="55" y="370" width="70" height="3" fill="#3a2a5a"/>
    <!-- Book spines row 1 -->
    <rect x="59" y="95" width="7" height="62" fill="#6a4a5a" rx="1"/>
    <rect x="68" y="93" width="9" height="64" fill="#5a6a8a" rx="1"/>
    <rect x="79" y="96" width="6" height="61" fill="#8a5a6a" rx="1"/>
    <rect x="87" y="94" width="8" height="63" fill="#5a7a6a" rx="1"/>
    <rect x="97" y="97" width="7" height="60" fill="#7a5a8a" rx="1"/>
    <rect x="106" y="93" width="6" height="64" fill="#6a6a5a" rx="1"/>
    <rect x="114" y="95" width="7" height="62" fill="#5a5a7a" rx="1"/>
    <!-- Book spines row 2 -->
    <rect x="59" y="166" width="8" height="61" fill="#7a5a6a" rx="1"/>
    <rect x="69" y="164" width="6" height="63" fill="#5a8a7a" rx="1"/>
    <rect x="77" y="167" width="9" height="60" fill="#6a5a8a" rx="1"/>
    <rect x="88" y="165" width="7" height="62" fill="#8a6a5a" rx="1"/>
    <rect x="97" y="163" width="6" height="64" fill="#5a6a7a" rx="1"/>
    <rect x="105" y="166" width="8" height="61" fill="#6a8a6a" rx="1"/>
    <!-- Book spines row 3 -->
    <rect x="60" y="236" width="7" height="61" fill="#5a6a5a" rx="1"/>
    <rect x="69" y="234" width="9" height="63" fill="#7a5a7a" rx="1"/>
    <rect x="80" y="237" width="6" height="60" fill="#6a7a5a" rx="1"/>
    <rect x="88" y="235" width="8" height="62" fill="#5a5a8a" rx="1"/>
    <rect x="98" y="233" width="7" height="64" fill="#8a5a7a" rx="1"/>
    <rect x="107" y="236" width="8" height="61" fill="#6a6a6a" rx="1"/>
    <!-- Glowing books on shelves -->
    <circle class="dl-shelfPulse1" cx="75" cy="127" r="8" fill="#66aaff" opacity="0.2" filter="url(#dl-softGlow)"/>
    <circle class="dl-shelfPulse2" cx="100" cy="197" r="7" fill="#66ffaa" opacity="0.15" filter="url(#dl-softGlow)"/>
  </g>

  <!-- Right mid shelf -->
  <g opacity="0.55">
    <rect x="387" y="90" width="70" height="350" fill="#2a1a4a" rx="3"/>
    <!-- Shelf dividers -->
    <rect x="387" y="160" width="70" height="3" fill="#3a2a5a"/>
    <rect x="387" y="230" width="70" height="3" fill="#3a2a5a"/>
    <rect x="387" y="300" width="70" height="3" fill="#3a2a5a"/>
    <rect x="387" y="370" width="70" height="3" fill="#3a2a5a"/>
    <!-- Book spines row 1 -->
    <rect x="391" y="95" width="8" height="62" fill="#6a5a7a" rx="1"/>
    <rect x="401" y="93" width="6" height="64" fill="#5a7a6a" rx="1"/>
    <rect x="409" y="96" width="9" height="61" fill="#7a6a5a" rx="1"/>
    <rect x="420" y="94" width="7" height="63" fill="#5a6a8a" rx="1"/>
    <rect x="429" y="97" width="8" height="60" fill="#8a5a6a" rx="1"/>
    <rect x="439" y="93" width="6" height="64" fill="#6a8a5a" rx="1"/>
    <rect x="447" y="95" width="7" height="62" fill="#5a5a6a" rx="1"/>
    <!-- Book spines row 2 -->
    <rect x="391" y="166" width="7" height="61" fill="#8a5a7a" rx="1"/>
    <rect x="400" y="164" width="9" height="63" fill="#5a7a8a" rx="1"/>
    <rect x="411" y="167" width="6" height="60" fill="#7a8a5a" rx="1"/>
    <rect x="419" y="165" width="8" height="62" fill="#6a5a6a" rx="1"/>
    <rect x="429" y="163" width="7" height="64" fill="#5a8a6a" rx="1"/>
    <rect x="438" y="166" width="9" height="61" fill="#7a6a8a" rx="1"/>
    <!-- Book spines row 3 -->
    <rect x="392" y="236" width="8" height="61" fill="#6a7a6a" rx="1"/>
    <rect x="402" y="234" width="6" height="63" fill="#5a6a7a" rx="1"/>
    <rect x="410" y="237" width="9" height="60" fill="#8a6a6a" rx="1"/>
    <rect x="421" y="235" width="7" height="62" fill="#6a5a8a" rx="1"/>
    <rect x="430" y="233" width="8" height="64" fill="#7a7a5a" rx="1"/>
    <rect x="440" y="236" width="7" height="61" fill="#5a6a6a" rx="1"/>
    <!-- Glowing books on shelves -->
    <circle class="dl-shelfPulse3" cx="420" cy="127" r="8" fill="#ffaa44" opacity="0.2" filter="url(#dl-softGlow)"/>
    <circle class="dl-shelfPulse1" cx="440" cy="268" r="7" fill="#dd88ff" opacity="0.15" filter="url(#dl-softGlow)"/>
  </g>

  <!-- Cloud-stone floor -->
  <ellipse cx="256" cy="430" rx="220" ry="60" fill="url(#dl-floorGrad)" opacity="0.5"/>
  <ellipse cx="256" cy="440" rx="190" ry="40" fill="#2a1e50" opacity="0.3"/>

  <!-- LAYER 4: Pedestal with the First Dream book -->
  <!-- Stone pedestal -->
  <g opacity="0.85">
    <rect x="216" y="195" width="80" height="8" fill="#4a3a6a" rx="2"/>
    <path d="M 226 203 L 222 250 L 290 250 L 286 203 Z" fill="#3a2a5a"/>
    <rect x="218" y="248" width="76" height="6" fill="#4a3a6a" rx="1"/>
    <!-- Pedestal detail lines -->
    <line x1="232" y1="210" x2="230" y2="245" stroke="#5a4a7a" stroke-width="0.8" opacity="0.4"/>
    <line x1="280" y1="210" x2="282" y2="245" stroke="#5a4a7a" stroke-width="0.8" opacity="0.4"/>
  </g>

  <!-- The First Dream — great shimmering book -->
  <g>
    <!-- Book glow -->
    <circle class="dl-firstDream" cx="256" cy="180" r="40" fill="url(#dl-firstDreamGlow)"/>
    <!-- Book body -->
    <rect x="230" y="165" width="52" height="36" fill="#3a2a5a" rx="3" stroke="#8a7aaa" stroke-width="1"/>
    <!-- Book spine -->
    <line x1="256" y1="165" x2="256" y2="201" stroke="#6a5a8a" stroke-width="2"/>
    <!-- Book cover shimmer -->
    <rect class="dl-firstDream" x="233" y="168" width="20" height="30" fill="#ffd700" opacity="0.15" rx="2"/>
    <rect class="dl-firstDream" x="259" y="168" width="20" height="30" fill="#ffe8a0" opacity="0.12" rx="2"/>
    <!-- Title shimmer lines -->
    <line x1="238" y1="178" x2="250" y2="178" stroke="#ffd700" stroke-width="0.8" opacity="0.5"/>
    <line x1="239" y1="182" x2="248" y2="182" stroke="#ffd700" stroke-width="0.6" opacity="0.4"/>
    <line x1="263" y1="178" x2="275" y2="178" stroke="#ffe8a0" stroke-width="0.8" opacity="0.5"/>
    <line x1="264" y1="182" x2="273" y2="182" stroke="#ffe8a0" stroke-width="0.6" opacity="0.4"/>
  </g>

  <!-- LAYER 5: Primary character — Mira -->
  <!-- Mira: seated cross-legged, holding blue lantern -->
  <g transform="translate(256, 310)">
    <g class="dl-mira">
      <!-- Character ambient glow from lantern -->
      <circle cx="0" cy="-20" r="60" fill="url(#dl-charGlow)"/>

      <!-- Body / dress (seated, muted purple-blue) -->
      <path d="M -18 -10 Q -22 10 -25 35 Q -20 42 0 44 Q 20 42 25 35 Q 22 10 18 -10 Z" fill="#5a4a8a" stroke="#4a3a7a" stroke-width="0.8"/>
      <!-- Dress fold detail -->
      <path d="M -10 5 Q 0 10 10 5" fill="none" stroke="#6a5a9a" stroke-width="0.6" opacity="0.4"/>
      <path d="M -15 20 Q 0 25 15 20" fill="none" stroke="#6a5a9a" stroke-width="0.5" opacity="0.3"/>

      <!-- Crossed legs (visible below dress) -->
      <ellipse cx="-10" cy="38" rx="14" ry="6" fill="#5a4a8a" opacity="0.8"/>
      <ellipse cx="10" cy="38" rx="14" ry="6" fill="#4a3a7a" opacity="0.8"/>

      <!-- Arms reaching forward to hold lantern -->
      <!-- Left arm -->
      <path d="M -16 -2 Q -18 8 -8 18" stroke="#d4a574" stroke-width="5" fill="none" stroke-linecap="round"/>
      <!-- Right arm -->
      <path d="M 16 -2 Q 18 8 8 18" stroke="#d4a574" stroke-width="5" fill="none" stroke-linecap="round"/>
      <!-- Hands cupping lantern -->
      <circle cx="-6" cy="20" r="4" fill="#d4a574"/>
      <circle cx="6" cy="20" r="4" fill="#d4a574"/>

      <!-- Lantern (glass body with blue glow) -->
      <!-- Lantern frame -->
      <rect x="-6" y="12" width="12" height="16" fill="none" stroke="#8a9ab0" stroke-width="1.5" rx="2"/>
      <!-- Lantern top cap -->
      <rect x="-4" y="10" width="8" height="3" fill="#8a9ab0" rx="1"/>
      <!-- Lantern handle -->
      <path d="M -3 10 Q 0 6 3 10" fill="none" stroke="#8a9ab0" stroke-width="1"/>
      <!-- Lantern inner glow -->
      <rect x="-4" y="14" width="8" height="12" fill="#88ccff" opacity="0.6" rx="1" filter="url(#dl-softGlow)"/>
      <!-- Lantern radial glow -->
      <circle class="dl-lantern" cx="0" cy="20" r="25" fill="url(#dl-lanternGlow)"/>

      <!-- Neck -->
      <rect x="-4" y="-18" width="8" height="8" fill="#d4a574" rx="2"/>

      <!-- Head -->
      <circle cx="0" cy="-30" r="18" fill="#d4a574" filter="url(#dl-softGlow)"/>

      <!-- Hair (dark brown, slightly messy/adventurous) -->
      <ellipse cx="0" cy="-40" rx="20" ry="9" fill="#2a1a0a"/>
      <ellipse cx="-14" cy="-30" rx="7" ry="14" fill="#2a1a0a"/>
      <ellipse cx="14" cy="-30" rx="7" ry="14" fill="#2a1a0a"/>
      <!-- Hair wisps -->
      <path d="M -14 -22 Q -20 -15 -18 -8" stroke="#2a1a0a" stroke-width="3" fill="none" stroke-linecap="round"/>
      <path d="M 14 -22 Q 20 -15 18 -8" stroke="#2a1a0a" stroke-width="3" fill="none" stroke-linecap="round"/>
      <!-- Bangs -->
      <path d="M -12 -40 Q -6 -35 0 -37 Q 6 -35 12 -40" fill="#2a1a0a"/>

      <!-- Eyes (content/wonder expression — slightly wide, looking at lantern) -->
      <!-- Left eye -->
      <circle cx="-6" cy="-32" r="4" fill="#ffffff"/>
      <circle cx="-6" cy="-31" r="3" fill="url(#dl-irisGrad)"/>
      <circle cx="-6" cy="-30.5" r="1.8" fill="#1a2a4a"/>
      <circle cx="-4.5" cy="-33" r="1.2" fill="#ffffff" opacity="0.9"/>
      <circle cx="-7.5" cy="-30" r="0.7" fill="#ffffff" opacity="0.5"/>
      <!-- Left eyelid (half-closed, content) -->
      <g transform="translate(-6, -34)">
        <ellipse class="dl-eyelid" cx="0" cy="0" rx="5" ry="3" fill="#d4a574"/>
      </g>

      <!-- Right eye -->
      <circle cx="6" cy="-32" r="4" fill="#ffffff"/>
      <circle cx="6" cy="-31" r="3" fill="url(#dl-irisGrad)"/>
      <circle cx="6" cy="-30.5" r="1.8" fill="#1a2a4a"/>
      <circle cx="7.5" cy="-33" r="1.2" fill="#ffffff" opacity="0.9"/>
      <circle cx="4.5" cy="-30" r="0.7" fill="#ffffff" opacity="0.5"/>
      <!-- Right eyelid (half-closed, content) -->
      <g transform="translate(6, -34)">
        <ellipse class="dl-eyelid" cx="0" cy="0" rx="5" ry="3" fill="#d4a574"/>
      </g>

      <!-- Gentle smile (content, at peace) -->
      <path d="M -5 -24 Q 0 -21 5 -24" stroke="#8a6a5a" stroke-width="0.8" fill="none" stroke-linecap="round"/>

      <!-- Rosy cheeks (warm from lantern glow) -->
      <circle cx="-10" cy="-27" r="3" fill="#ffb6c1" opacity="0.4"/>
      <circle cx="10" cy="-27" r="3" fill="#ffb6c1" opacity="0.4"/>

      <!-- Blue lantern reflection on face -->
      <circle cx="0" cy="-28" r="8" fill="#88ccff" opacity="0.06"/>
    </g>
  </g>

  <!-- LAYER 6: Floating dream-books + sparkles + mist -->

  <!-- Floating book 1 (blue glow — The Singing Whale) -->
  <g transform="translate(150, 160)">
    <g class="dl-floatBook1">
      <circle cx="0" cy="0" r="15" fill="url(#dl-bookGlow1)" filter="url(#dl-medGlow)"/>
      <rect x="-10" y="-7" width="20" height="14" fill="#3a4a6a" rx="2" stroke="#66aaff" stroke-width="0.8" opacity="0.85"/>
      <line x1="0" y1="-7" x2="0" y2="7" stroke="#5a6a8a" stroke-width="1" opacity="0.6"/>
    </g>
  </g>

  <!-- Floating book 2 (green glow — The Firefly Forest) -->
  <g transform="translate(360, 140)">
    <g class="dl-floatBook2">
      <circle cx="0" cy="0" r="14" fill="url(#dl-bookGlow2)" filter="url(#dl-medGlow)"/>
      <rect x="-9" y="-6" width="18" height="12" fill="#3a5a4a" rx="2" stroke="#66ffaa" stroke-width="0.8" opacity="0.85"/>
      <line x1="0" y1="-6" x2="0" y2="6" stroke="#4a6a5a" stroke-width="1" opacity="0.6"/>
    </g>
  </g>

  <!-- Floating book 3 (amber glow — The Chocolate River) -->
  <g transform="translate(170, 260)">
    <g class="dl-floatBook3">
      <circle cx="0" cy="0" r="12" fill="url(#dl-bookGlow3)" filter="url(#dl-medGlow)"/>
      <rect x="-8" y="-5" width="16" height="10" fill="#5a4a3a" rx="2" stroke="#ffaa44" stroke-width="0.8" opacity="0.85"/>
      <line x1="0" y1="-5" x2="0" y2="5" stroke="#6a5a4a" stroke-width="1" opacity="0.6"/>
    </g>
  </g>

  <!-- Floating book 4 (purple glow — The Laughing Stars) -->
  <g transform="translate(345, 240)">
    <g class="dl-floatBook4">
      <circle cx="0" cy="0" r="13" fill="url(#dl-bookGlow4)" filter="url(#dl-medGlow)"/>
      <rect x="-9" y="-6" width="18" height="12" fill="#4a3a5a" rx="2" stroke="#dd88ff" stroke-width="0.8" opacity="0.85"/>
      <line x1="0" y1="-6" x2="0" y2="6" stroke="#5a4a6a" stroke-width="1" opacity="0.6"/>
    </g>
  </g>

  <!-- Mist wisps -->
  <g transform="translate(0, 0)">
    <g class="dl-mist1">
      <ellipse cx="180" cy="380" rx="120" ry="18" fill="#e8e0ff" opacity="0.08" filter="url(#dl-mistBlur)"/>
    </g>
  </g>
  <g transform="translate(0, 0)">
    <g class="dl-mist2">
      <ellipse cx="340" cy="360" rx="100" ry="15" fill="#d8d0f0" opacity="0.07" filter="url(#dl-mistBlur)"/>
    </g>
  </g>
  <!-- Static mist layer (floor) -->
  <ellipse cx="256" cy="400" rx="200" ry="30" fill="#e8e0ff" opacity="0.06" filter="url(#dl-mistBlur)"/>

  <!-- Sparkle particles near floating books -->
  <circle class="dl-sparkleA" cx="140" cy="145" r="1.5" fill="#ffd700" opacity="0.5" filter="url(#dl-softGlow)"/>
  <circle class="dl-sparkleB" cx="165" cy="175" r="1" fill="#ffe4b5" opacity="0.4"/>
  <circle class="dl-sparkleC" cx="370" cy="125" r="1.2" fill="#ffd700" opacity="0.5" filter="url(#dl-softGlow)"/>
  <circle class="dl-sparkleD" cx="350" cy="155" r="1" fill="#ffe4b5" opacity="0.4"/>
  <circle class="dl-sparkleE" cx="180" cy="245" r="1" fill="#ffd700" opacity="0.4"/>
  <circle class="dl-sparkleF" cx="335" cy="225" r="1.3" fill="#ffe4b5" opacity="0.5" filter="url(#dl-softGlow)"/>

  <!-- Extra sparkles scattered in the air -->
  <circle class="dl-sparkleA" cx="220" cy="120" r="0.8" fill="#88ccff" opacity="0.3"/>
  <circle class="dl-sparkleC" cx="290" cy="110" r="0.9" fill="#88ccff" opacity="0.25"/>
  <circle class="dl-sparkleE" cx="256" cy="260" r="1" fill="#ffd700" opacity="0.35"/>
  <circle class="dl-sparkleB" cx="200" cy="330" r="0.7" fill="#ffe4b5" opacity="0.3"/>
  <circle class="dl-sparkleD" cx="310" cy="340" r="0.8" fill="#ffe4b5" opacity="0.25"/>

  <!-- LAYER 7: Vignette overlay -->
  <rect width="512" height="512" fill="url(#dl-vignette)" opacity="0.45"/>
</svg>