<svg viewBox="0 0 512 512" xmlns="http://www.w3.org/2000/svg">
  <defs>
    <!-- Sky Gradient (deep futuristic night) -->
    <linearGradient id="fr-skyGradient" x1="0" y1="0" x2="0" y2="1">
      <stop offset="0%" stop-color="#0a0a2e" stop-opacity="1"/>
      <stop offset="35%" stop-color="#0d1b4e" stop-opacity="1"/>
      <stop offset="70%" stop-color="#1a2d6e" stop-opacity="1"/>
      <stop offset="100%" stop-color="#0f1a3a" stop-opacity="1"/>
    </linearGradient>

    <!-- Robot body metallic gradient -->
    <linearGradient id="fr-robotBody" x1="0" y1="0" x2="1" y2="1">
      <stop offset="0%" stop-color="#5db8ff" stop-opacity="1"/>
      <stop offset="50%" stop-color="#4da6ff" stop-opacity="1"/>
      <stop offset="100%" stop-color="#3a8ad4" stop-opacity="1"/>
    </linearGradient>

    <!-- Robot head gradient -->
    <radialGradient id="fr-robotHead" cx="40%" cy="35%">
      <stop offset="0%" stop-color="#6ec4ff" stop-opacity="1"/>
      <stop offset="100%" stop-color="#4da6ff" stop-opacity="1"/>
    </radialGradient>

    <!-- Robot eye glow -->
    <radialGradient id="fr-eyeGlow" cx="50%" cy="50%">
      <stop offset="0%" stop-color="#00ffff" stop-opacity="1"/>
      <stop offset="60%" stop-color="#00d4ff" stop-opacity="0.7"/>
      <stop offset="100%" stop-color="#00aaff" stop-opacity="0"/>
    </radialGradient>

    <!-- Robot chest light glow -->
    <radialGradient id="fr-chestGlow" cx="50%" cy="50%">
      <stop offset="0%" stop-color="#00ffff" stop-opacity="0.9"/>
      <stop offset="50%" stop-color="#00d4ff" stop-opacity="0.5"/>
      <stop offset="100%" stop-color="#0088cc" stop-opacity="0"/>
    </radialGradient>

    <!-- City window warm glow -->
    <radialGradient id="fr-windowGlow" cx="50%" cy="50%">
      <stop offset="0%" stop-color="#ffd700" stop-opacity="1"/>
      <stop offset="100%" stop-color="#ffb347" stop-opacity="0.4"/>
    </radialGradient>

    <!-- Friendship heart glow -->
    <radialGradient id="fr-heartGlow" cx="50%" cy="50%">
      <stop offset="0%" stop-color="#ff6b8a" stop-opacity="0.8"/>
      <stop offset="100%" stop-color="#ff6b8a" stop-opacity="0"/>
    </radialGradient>

    <!-- Sparkle trail gradient -->
    <radialGradient id="fr-sparkleGlow" cx="50%" cy="50%">
      <stop offset="0%" stop-color="#80ffff" stop-opacity="0.9"/>
      <stop offset="100%" stop-color="#00ffff" stop-opacity="0"/>
    </radialGradient>

    <!-- Vignette overlay -->
    <radialGradient id="fr-vignette">
      <stop offset="45%" stop-color="#000000" stop-opacity="0"/>
      <stop offset="100%" stop-color="#000000" stop-opacity="0.55"/>
    </radialGradient>

    <!-- City haze gradient -->
    <linearGradient id="fr-cityHaze" x1="0" y1="0" x2="0" y2="1">
      <stop offset="0%" stop-color="#1a2d6e" stop-opacity="0"/>
      <stop offset="100%" stop-color="#0d1b4e" stop-opacity="0.7"/>
    </linearGradient>

    <!-- Boy clothing gradient -->
    <linearGradient id="fr-boyShirt" x1="0" y1="0" x2="0" y2="1">
      <stop offset="0%" stop-color="#ff8c42" stop-opacity="1"/>
      <stop offset="100%" stop-color="#e06820" stop-opacity="1"/>
    </linearGradient>

    <!-- Standard Filters -->
    <filter id="fr-softGlow">
      <feGaussianBlur stdDeviation="2" result="blur"/>
      <feMerge>
        <feMergeNode in="blur"/>
        <feMergeNode in="SourceGraphic"/>
      </feMerge>
    </filter>

    <filter id="fr-mediumGlow">
      <feGaussianBlur stdDeviation="4" result="blur"/>
      <feMerge>
        <feMergeNode in="blur"/>
        <feMergeNode in="SourceGraphic"/>
      </feMerge>
    </filter>

    <filter id="fr-strongGlow">
      <feGaussianBlur stdDeviation="6" result="blur"/>
      <feMerge>
        <feMergeNode in="blur"/>
        <feMergeNode in="SourceGraphic"/>
      </feMerge>
    </filter>

    <filter id="fr-shadow">
      <feGaussianBlur in="SourceAlpha" stdDeviation="3" result="blur"/>
      <feOffset in="blur" dy="2" result="offset"/>
      <feMerge>
        <feMergeNode in="offset"/>
        <feMergeNode in="SourceGraphic"/>
      </feMerge>
    </filter>

    <filter id="fr-heavyBlur">
      <feGaussianBlur stdDeviation="10" result="blur"/>
      <feMerge>
        <feMergeNode in="blur"/>
        <feMergeNode in="SourceGraphic"/>
      </feMerge>
    </filter>
  </defs>

  <style>
    /* === ANIMATION KEYFRAMES === */

    /* 1. Robot bobbing float (character movement) */
    @keyframes fr-robotBob {
      0%, 100% { transform: translateY(0px); }
      25% { transform: translateY(-7px); }
      50% { transform: translateY(-10px); }
      75% { transform: translateY(-5px); }
    }

    /* 2. Robot LED blink - eyes and chest light (light effects) */
    @keyframes fr-ledBlink {
      0%, 40%, 48%, 100% { opacity: 1; }
      44% { opacity: 0.2; }
    }

    @keyframes fr-chestPulse {
      0%, 100% { opacity: 0.6; transform: scale(1); }
      50% { opacity: 1; transform: scale(1.15); }
    }

    /* 3. Boy character gentle sway (character movement) */
    @keyframes fr-boySway {
      0%, 100% { transform: translateY(0px) rotate(0deg); }
      25% { transform: translateY(-5px) rotate(1.5deg); }
      50% { transform: translateY(-8px) rotate(0deg); }
      75% { transform: translateY(-4px) rotate(-1.5deg); }
    }

    /* 4. City window lights flicker (light effects) */
    @keyframes fr-windowFlicker1 {
      0%, 100% { opacity: 0.7; }
      30% { opacity: 1; }
      60% { opacity: 0.5; }
      80% { opacity: 0.9; }
    }

    @keyframes fr-windowFlicker2 {
      0%, 100% { opacity: 0.6; }
      25% { opacity: 0.9; }
      50% { opacity: 0.4; }
      75% { opacity: 1; }
    }

    @keyframes fr-windowFlicker3 {
      0%, 100% { opacity: 0.8; }
      35% { opacity: 0.5; }
      65% { opacity: 1; }
      90% { opacity: 0.6; }
    }

    /* 5. Stars twinkle (light effects) */
    @keyframes fr-starTwinkle1 {
      0%, 100% { opacity: 0.3; }
      50% { opacity: 1; }
    }

    @keyframes fr-starTwinkle2 {
      0%, 100% { opacity: 0.4; }
      50% { opacity: 0.9; }
    }

    @keyframes fr-starTwinkle3 {
      0%, 100% { opacity: 0.2; }
      50% { opacity: 0.85; }
    }

    /* 6. Sparkle trail particles (particle movement) */
    @keyframes fr-sparkleDrift1 {
      0% { opacity: 0.9; transform: translate(0px, 0px); }
      50% { opacity: 0.4; transform: translate(-12px, 18px); }
      100% { opacity: 0; transform: translate(-25px, 40px); }
    }

    @keyframes fr-sparkleDrift2 {
      0% { opacity: 0.8; transform: translate(0px, 0px); }
      50% { opacity: 0.5; transform: translate(-8px, 22px); }
      100% { opacity: 0; transform: translate(-18px, 45px); }
    }

    @keyframes fr-sparkleDrift3 {
      0% { opacity: 0.7; transform: translate(0px, 0px); }
      50% { opacity: 0.3; transform: translate(-15px, 15px); }
      100% { opacity: 0; transform: translate(-30px, 35px); }
    }

    /* 7. Robot antenna blink (creature behavior) */
    @keyframes fr-antennaBlink {
      0%, 100% { opacity: 0.4; }
      50% { opacity: 1; }
    }

    /* 8. Friendship hearts float (particle movement) */
    @keyframes fr-heartFloat {
      0% { opacity: 0.8; transform: translateY(0px) scale(1); }
      50% { opacity: 0.5; transform: translateY(-15px) scale(0.8); }
      100% { opacity: 0; transform: translateY(-30px) scale(0.5); }
    }

    /* 9. City ambient glow (environmental) */
    @keyframes fr-cityGlow {
      0%, 100% { opacity: 0.15; }
      50% { opacity: 0.3; }
    }

    /* 10. Boy arm wave (character movement) */
    @keyframes fr-armWave {
      0%, 100% { transform: rotate(-5deg); }
      50% { transform: rotate(12deg); }
    }

    /* === ANIMATION CLASS ASSIGNMENTS === */

    .fr-robot-group {
      animation: fr-robotBob 3.5s ease-in-out infinite;
    }

    .fr-robot-eye-left,
    .fr-robot-eye-right {
      animation: fr-ledBlink 2s ease-in-out infinite;
    }

    .fr-robot-eye-right {
      animation-delay: 0.1s;
    }

    .fr-chest-light {
      animation: fr-chestPulse 2s ease-in-out infinite;
    }

    .fr-boy-group {
      animation: fr-boySway 5s ease-in-out infinite;
    }

    .fr-window-set1 {
      animation: fr-windowFlicker1 2.5s ease-in-out infinite;
    }

    .fr-window-set2 {
      animation: fr-windowFlicker2 2.8s ease-in-out infinite;
      animation-delay: 0.3s;
    }

    .fr-window-set3 {
      animation: fr-windowFlicker3 2.3s ease-in-out infinite;
      animation-delay: 0.7s;
    }

    .fr-window-set4 {
      animation: fr-windowFlicker1 2.6s ease-in-out infinite;
      animation-delay: 1.1s;
    }

    .fr-star-fast {
      animation: fr-starTwinkle1 2.2s ease-in-out infinite;
    }

    .fr-star-medium {
      animation: fr-starTwinkle2 2.8s ease-in-out infinite;
    }

    .fr-star-slow {
      animation: fr-starTwinkle3 3s ease-in-out infinite;
    }

    .fr-sparkle-1 {
      animation: fr-sparkleDrift1 7s ease-in-out infinite;
    }

    .fr-sparkle-2 {
      animation: fr-sparkleDrift2 8s ease-in-out infinite;
      animation-delay: 1.2s;
    }

    .fr-sparkle-3 {
      animation: fr-sparkleDrift3 7.5s ease-in-out infinite;
      animation-delay: 2.5s;
    }

    .fr-sparkle-4 {
      animation: fr-sparkleDrift1 9s ease-in-out infinite;
      animation-delay: 3.8s;
    }

    .fr-sparkle-5 {
      animation: fr-sparkleDrift2 8.5s ease-in-out infinite;
      animation-delay: 5s;
    }

    .fr-sparkle-6 {
      animation: fr-sparkleDrift3 7.8s ease-in-out infinite;
      animation-delay: 1.8s;
    }

    .fr-antenna-light {
      animation: fr-antennaBlink 1.8s ease-in-out infinite;
    }

    .fr-heart-1 {
      animation: fr-heartFloat 6.5s ease-in-out infinite;
    }

    .fr-heart-2 {
      animation: fr-heartFloat 7s ease-in-out infinite;
      animation-delay: 2s;
    }

    .fr-heart-3 {
      animation: fr-heartFloat 7.5s ease-in-out infinite;
      animation-delay: 4s;
    }

    .fr-city-ambient {
      animation: fr-cityGlow 5s ease-in-out infinite;
    }

    .fr-boy-arm {
      animation: fr-armWave 2.5s ease-in-out infinite;
      transform-origin: 50% 0%;
    }
  </style>

  <!-- ============================================ -->
  <!-- LAYER 1: Background Sky                      -->
  <!-- ============================================ -->
  <rect width="512" height="512" fill="url(#fr-skyGradient)"/>

  <!-- Subtle atmospheric nebula wisps -->
  <ellipse cx="130" cy="80" rx="120" ry="60" fill="#1a3a7e" opacity="0.12" filter="url(#fr-heavyBlur)"/>
  <ellipse cx="400" cy="120" rx="100" ry="50" fill="#2a3a8e" opacity="0.1" filter="url(#fr-heavyBlur)"/>

  <!-- ============================================ -->
  <!-- LAYER 2: Far Skyline (distant buildings)     -->
  <!-- ============================================ -->
  <g opacity="0.2">
    <!-- Very distant towers, barely visible -->
    <rect x="30" y="360" width="12" height="80" fill="#1a1a3e" rx="2"/>
    <rect x="50" y="340" width="16" height="100" fill="#1a1a3e" rx="2"/>
    <rect x="100" y="330" width="18" height="110" fill="#1a1a3e" rx="2"/>
    <rect x="150" y="345" width="11" height="95" fill="#1a1a3e" rx="2"/>
    <rect x="340" y="350" width="13" height="90" fill="#1a1a3e" rx="2"/>
    <rect x="360" y="335" width="17" height="105" fill="#1a1a3e" rx="2"/>
    <rect x="410" y="340" width="15" height="100" fill="#1a1a3e" rx="2"/>
    <rect x="465" y="360" width="14" height="80" fill="#1a1a3e" rx="2"/>
    <rect x="485" y="345" width="16" height="95" fill="#1a1a3e" rx="2"/>
  </g>

  <!-- ============================================ -->
  <!-- LAYER 3: Mid Buildings (secondary skyline)   -->
  <!-- ============================================ -->
  <g opacity="0.45">
    <!-- Mid-distance futuristic towers -->
    <rect x="15" y="380" width="22" height="132" fill="#1a1a3e" rx="3"/>
    <rect x="18" y="378" width="16" height="4" fill="#2a2a5e" rx="1"/>

    <rect x="45" y="365" width="28" height="147" fill="#222250" rx="3"/>
    <rect x="49" y="363" width="20" height="4" fill="#2a2a5e" rx="1"/>
    <!-- Antenna on top -->
    <line x1="59" y1="365" x2="59" y2="350" stroke="#3a3a6e" stroke-width="1.5"/>
    <circle cx="59" cy="348" r="2" fill="#ff4444" opacity="0.7" class="fr-antenna-light"/>

    <rect x="82" y="375" width="20" height="137" fill="#1e1e45" rx="3"/>

    <rect x="112" y="355" width="32" height="157" fill="#252555" rx="4"/>
    <rect x="115" y="352" width="26" height="5" fill="#2a2a5e" rx="2"/>
    <!-- Dome top -->
    <ellipse cx="128" cy="355" rx="14" ry="6" fill="#2a2a5e"/>

    <rect x="155" y="370" width="18" height="142" fill="#1a1a3e" rx="3"/>

    <!-- Right side mid buildings -->
    <rect x="330" y="375" width="24" height="137" fill="#1e1e45" rx="3"/>

    <rect x="362" y="358" width="30" height="154" fill="#252555" rx="4"/>
    <rect x="365" y="355" width="24" height="5" fill="#2a2a5e" rx="2"/>
    <line x1="377" y1="358" x2="377" y2="340" stroke="#3a3a6e" stroke-width="1.5"/>
    <circle cx="377" cy="338" r="2" fill="#00ffff" opacity="0.5" class="fr-antenna-light" style="animation-delay:0.5s"/>

    <rect x="400" y="370" width="22" height="142" fill="#1a1a3e" rx="3"/>

    <rect x="430" y="360" width="28" height="152" fill="#222250" rx="3"/>
    <ellipse cx="444" cy="360" rx="12" ry="5" fill="#2a2a5e"/>

    <rect x="468" y="375" width="20" height="137" fill="#1e1e45" rx="3"/>
    <rect x="494" y="368" width="18" height="144" fill="#1a1a3e" rx="3"/>

    <!-- Mid windows (warm glow) -->
    <g class="fr-window-set1">
      <rect x="49" y="375" width="4" height="3" fill="#ffd700" rx="0.5" opacity="0.8"/>
      <rect x="56" y="375" width="4" height="3" fill="#ffd700" rx="0.5" opacity="0.7"/>
      <rect x="49" y="385" width="4" height="3" fill="#ffb347" rx="0.5" opacity="0.6"/>
      <rect x="56" y="385" width="4" height="3" fill="#ffd700" rx="0.5" opacity="0.8"/>
    </g>

    <g class="fr-window-set2">
      <rect x="117" y="365" width="5" height="4" fill="#ffd700" rx="0.5" opacity="0.8"/>
      <rect x="126" y="365" width="5" height="4" fill="#ffb347" rx="0.5" opacity="0.7"/>
      <rect x="135" y="365" width="5" height="4" fill="#ffd700" rx="0.5" opacity="0.6"/>
      <rect x="117" y="375" width="5" height="4" fill="#ffb347" rx="0.5" opacity="0.7"/>
      <rect x="126" y="375" width="5" height="4" fill="#ffd700" rx="0.5" opacity="0.8"/>
      <rect x="135" y="375" width="5" height="4" fill="#ffb347" rx="0.5" opacity="0.6"/>
    </g>

    <g class="fr-window-set3">
      <rect x="366" y="368" width="5" height="4" fill="#ffd700" rx="0.5" opacity="0.8"/>
      <rect x="375" y="368" width="5" height="4" fill="#ffb347" rx="0.5" opacity="0.7"/>
      <rect x="384" y="368" width="5" height="4" fill="#ffd700" rx="0.5" opacity="0.6"/>
      <rect x="366" y="378" width="5" height="4" fill="#ffb347" rx="0.5" opacity="0.7"/>
      <rect x="375" y="378" width="5" height="4" fill="#ffd700" rx="0.5" opacity="0.8"/>
    </g>

    <g class="fr-window-set4">
      <rect x="434" y="370" width="4" height="3" fill="#ffd700" rx="0.5" opacity="0.7"/>
      <rect x="441" y="370" width="4" height="3" fill="#ffb347" rx="0.5" opacity="0.8"/>
      <rect x="448" y="370" width="4" height="3" fill="#ffd700" rx="0.5" opacity="0.6"/>
      <rect x="434" y="380" width="4" height="3" fill="#ffd700" rx="0.5" opacity="0.8"/>
      <rect x="441" y="380" width="4" height="3" fill="#ffb347" rx="0.5" opacity="0.7"/>
    </g>
  </g>

  <!-- ============================================ -->
  <!-- LAYER 4: Ground Buildings (closest skyline)  -->
  <!-- ============================================ -->
  <g opacity="0.7">
    <!-- Foreground city structures -->
    <rect x="0" y="410" width="35" height="102" fill="#1a1a3e" rx="4"/>
    <rect x="40" y="395" width="45" height="117" fill="#222250" rx="4"/>
    <!-- Stepped top -->
    <rect x="43" y="390" width="20" height="8" fill="#2a2a5e" rx="2"/>
    <rect x="48" y="384" width="10" height="8" fill="#2a2a5e" rx="2"/>

    <rect x="90" y="405" width="30" height="107" fill="#1e1e45" rx="3"/>
    <rect x="125" y="420" width="25" height="92" fill="#1a1a3e" rx="3"/>
    <rect x="155" y="400" width="40" height="112" fill="#252555" rx="4"/>
    <!-- Dome -->
    <ellipse cx="175" cy="400" rx="18" ry="8" fill="#2a2a5e"/>

    <rect x="200" y="415" width="20" height="97" fill="#1a1a3e" rx="3"/>

    <!-- Right side ground buildings -->
    <rect x="295" y="415" width="22" height="97" fill="#1a1a3e" rx="3"/>
    <rect x="322" y="398" width="38" height="114" fill="#252555" rx="4"/>
    <rect x="325" y="393" width="18" height="7" fill="#2a2a5e" rx="2"/>
    <rect x="330" y="387" width="8" height="8" fill="#2a2a5e" rx="2"/>

    <rect x="365" y="408" width="28" height="104" fill="#1e1e45" rx="3"/>
    <rect x="398" y="418" width="24" height="94" fill="#1a1a3e" rx="3"/>
    <rect x="428" y="395" width="42" height="117" fill="#222250" rx="4"/>
    <ellipse cx="449" cy="395" rx="19" ry="7" fill="#2a2a5e"/>
    <rect x="475" y="408" width="37" height="104" fill="#1e1e45" rx="3"/>

    <!-- Ground building windows -->
    <g class="fr-window-set2">
      <rect x="47" y="405" width="6" height="5" fill="#ffd700" rx="1" opacity="0.8"/>
      <rect x="58" y="405" width="6" height="5" fill="#ffb347" rx="1" opacity="0.7"/>
      <rect x="69" y="405" width="6" height="5" fill="#ffd700" rx="1" opacity="0.6"/>
      <rect x="47" y="418" width="6" height="5" fill="#ffb347" rx="1" opacity="0.7"/>
      <rect x="58" y="418" width="6" height="5" fill="#ffd700" rx="1" opacity="0.9"/>
      <rect x="69" y="418" width="6" height="5" fill="#ffd700" rx="1" opacity="0.5"/>
      <rect x="47" y="431" width="6" height="5" fill="#ffd700" rx="1" opacity="0.6"/>
      <rect x="58" y="431" width="6" height="5" fill="#ffb347" rx="1" opacity="0.8"/>
      <rect x="69" y="431" width="6" height="5" fill="#ffd700" rx="1" opacity="0.7"/>
    </g>

    <g class="fr-window-set3">
      <rect x="160" y="410" width="6" height="5" fill="#ffd700" rx="1" opacity="0.7"/>
      <rect x="172" y="410" width="6" height="5" fill="#ffb347" rx="1" opacity="0.8"/>
      <rect x="184" y="410" width="6" height="5" fill="#ffd700" rx="1" opacity="0.6"/>
      <rect x="160" y="423" width="6" height="5" fill="#ffd700" rx="1" opacity="0.8"/>
      <rect x="172" y="423" width="6" height="5" fill="#ffd700" rx="1" opacity="0.7"/>
      <rect x="184" y="423" width="6" height="5" fill="#ffb347" rx="1" opacity="0.5"/>
      <rect x="160" y="436" width="6" height="5" fill="#ffb347" rx="1" opacity="0.7"/>
      <rect x="172" y="436" width="6" height="5" fill="#ffd700" rx="1" opacity="0.6"/>
    </g>

    <g class="fr-window-set1">
      <rect x="328" y="408" width="6" height="5" fill="#ffd700" rx="1" opacity="0.8"/>
      <rect x="340" y="408" width="6" height="5" fill="#ffb347" rx="1" opacity="0.7"/>
      <rect x="352" y="408" width="6" height="5" fill="#ffd700" rx="1" opacity="0.6"/>
      <rect x="328" y="421" width="6" height="5" fill="#ffb347" rx="1" opacity="0.7"/>
      <rect x="340" y="421" width="6" height="5" fill="#ffd700" rx="1" opacity="0.9"/>
    </g>

    <g class="fr-window-set4">
      <rect x="434" y="406" width="6" height="5" fill="#ffd700" rx="1" opacity="0.7"/>
      <rect x="445" y="406" width="6" height="5" fill="#ffb347" rx="1" opacity="0.8"/>
      <rect x="456" y="406" width="6" height="5" fill="#ffd700" rx="1" opacity="0.6"/>
      <rect x="434" y="419" width="6" height="5" fill="#ffb347" rx="1" opacity="0.8"/>
      <rect x="445" y="419" width="6" height="5" fill="#ffd700" rx="1" opacity="0.7"/>
      <rect x="456" y="419" width="6" height="5" fill="#ffd700" rx="1" opacity="0.5"/>
    </g>
  </g>

  <!-- City ambient glow (light pollution haze) -->
  <rect x="0" y="380" width="512" height="132" fill="url(#fr-cityHaze)" class="fr-city-ambient"/>
  <ellipse cx="256" cy="440" rx="200" ry="40" fill="#1a3a7e" opacity="0.15" filter="url(#fr-heavyBlur)"/>

  <!-- ============================================ -->
  <!-- Stars (across sky area above city)           -->
  <!-- ============================================ -->

  <!-- Small white stars -->
  <circle cx="35" cy="30" r="1.3" fill="#ffffff" class="fr-star-fast" opacity="0.5"/>
  <circle cx="95" cy="55" r="1.1" fill="#ffffff" class="fr-star-medium" opacity="0.6"/>
  <circle cx="148" cy="25" r="1.4" fill="#ffffff" class="fr-star-slow" opacity="0.4"/>
  <circle cx="210" cy="40" r="1" fill="#ffffff" class="fr-star-fast" opacity="0.55" style="animation-delay:0.3s"/>
  <circle cx="270" cy="18" r="1.5" fill="#ffffff" class="fr-star-medium" opacity="0.5" style="animation-delay:0.6s"/>
  <circle cx="320" cy="50" r="1.2" fill="#ffffff" class="fr-star-slow" opacity="0.6" style="animation-delay:0.2s"/>
  <circle cx="380" cy="28" r="1.3" fill="#ffffff" class="fr-star-fast" opacity="0.45" style="animation-delay:0.8s"/>
  <circle cx="440" cy="45" r="1.1" fill="#ffffff" class="fr-star-medium" opacity="0.55" style="animation-delay:0.5s"/>
  <circle cx="490" cy="60" r="1.4" fill="#ffffff" class="fr-star-slow" opacity="0.5" style="animation-delay:1s"/>

  <!-- Blue-tinted stars -->
  <circle cx="60" cy="90" r="1.6" fill="#aaccff" class="fr-star-medium" opacity="0.65"/>
  <circle cx="175" cy="70" r="1.5" fill="#bbddff" class="fr-star-fast" opacity="0.6" style="animation-delay:0.4s"/>
  <circle cx="300" cy="80" r="1.7" fill="#ccddff" class="fr-star-slow" opacity="0.55" style="animation-delay:0.7s"/>
  <circle cx="460" cy="90" r="1.3" fill="#aaccff" class="fr-star-medium" opacity="0.6" style="animation-delay:1.2s"/>

  <!-- Cyan-tinted stars (matching robot theme) -->
  <circle cx="120" cy="110" r="1.4" fill="#80ffff" class="fr-star-fast" opacity="0.5" style="animation-delay:0.2s"/>
  <circle cx="240" cy="95" r="1.2" fill="#80ffff" class="fr-star-slow" opacity="0.4" style="animation-delay:0.9s"/>
  <circle cx="410" cy="105" r="1.5" fill="#80ffff" class="fr-star-medium" opacity="0.5" style="animation-delay:0.6s"/>

  <!-- 4-pointed sparkle stars -->
  <g opacity="0.7" class="fr-star-medium">
    <polygon points="75,140 78,148 86,151 78,154 75,162 72,154 64,151 72,148" fill="#80ffff"/>
  </g>
  <g opacity="0.6" class="fr-star-fast" style="animation-delay:0.5s">
    <polygon points="420,130 423,138 431,141 423,144 420,152 417,144 409,141 417,138" fill="#ccddff"/>
  </g>
  <g opacity="0.55" class="fr-star-slow" style="animation-delay:1s">
    <polygon points="256,60 258,66 264,68 258,70 256,76 254,70 248,68 254,66" fill="#ffffff"/>
  </g>
  <g opacity="0.65" class="fr-star-medium" style="animation-delay:0.3s">
    <polygon points="480,35 482,41 488,43 482,45 480,51 478,45 472,43 478,41" fill="#aaccff"/>
  </g>
  <g opacity="0.5" class="fr-star-fast" style="animation-delay:0.7s">
    <polygon points="30,160 32,166 38,168 32,170 30,176 28,170 22,168 28,166" fill="#80ffff"/>
  </g>

  <!-- Scattered small stars for density -->
  <circle cx="15" cy="70" r="0.9" fill="#ffffff" class="fr-star-fast" opacity="0.4" style="animation-delay:1.5s"/>
  <circle cx="340" cy="35" r="0.8" fill="#ccddff" class="fr-star-slow" opacity="0.45" style="animation-delay:0.4s"/>
  <circle cx="200" cy="115" r="1.1" fill="#ffffff" class="fr-star-fast" opacity="0.55" style="animation-delay:0.8s"/>
  <circle cx="470" cy="160" r="1" fill="#ffffff" class="fr-star-slow" opacity="0.45" style="animation-delay:0.6s"/>
  <circle cx="160" cy="150" r="1.2" fill="#ffffff" class="fr-star-medium" opacity="0.5" style="animation-delay:0.9s"/>

  <!-- ============================================ -->
  <!-- LAYER 5: Primary Characters                  -->
  <!-- ============================================ -->

  <!-- === ROBOT CHARACTER (left-center) === -->
  <g transform="translate(215, 230)">
  <g class="fr-robot-group">

    <!-- Robot thrust glow (under feet) -->
    <ellipse cx="0" cy="55" rx="12" ry="20" fill="#00d4ff" opacity="0.15" filter="url(#fr-strongGlow)"/>
    <ellipse cx="0" cy="50" rx="8" ry="14" fill="#00ffff" opacity="0.1" filter="url(#fr-mediumGlow)"/>

    <!-- Robot ambient glow -->
    <circle cx="0" cy="0" r="50" fill="url(#fr-eyeGlow)" opacity="0.08"/>

    <!-- Robot body (rounded rectangle torso) -->
    <rect x="-18" y="-8" width="36" height="42" rx="8" fill="url(#fr-robotBody)" stroke="#3a8ad4" stroke-width="1"/>
    <!-- Body panel lines -->
    <line x1="-10" y1="2" x2="10" y2="2" stroke="#80d0ff" stroke-width="0.8" opacity="0.5"/>
    <line x1="-10" y1="22" x2="10" y2="22" stroke="#80d0ff" stroke-width="0.8" opacity="0.5"/>

    <!-- Chest light -->
    <g class="fr-chest-light">
      <circle cx="0" cy="12" r="6" fill="url(#fr-chestGlow)" filter="url(#fr-softGlow)"/>
      <circle cx="0" cy="12" r="3.5" fill="#00ffff" opacity="0.9"/>
      <circle cx="0" cy="12" r="2" fill="#ffffff" opacity="0.7"/>
    </g>

    <!-- Robot arms -->
    <!-- Left arm (down, relaxed) -->
    <line x1="-18" y1="2" x2="-28" y2="18" stroke="#4da6ff" stroke-width="5" stroke-linecap="round"/>
    <circle cx="-29" cy="20" r="4" fill="#5db8ff" stroke="#3a8ad4" stroke-width="0.8"/>

    <!-- Right arm (reaching toward boy) -->
    <line x1="18" y1="2" x2="30" y2="-5" stroke="#4da6ff" stroke-width="5" stroke-linecap="round"/>
    <circle cx="32" cy="-6" r="4" fill="#5db8ff" stroke="#3a8ad4" stroke-width="0.8"/>

    <!-- Robot legs -->
    <line x1="-8" y1="34" x2="-10" y2="48" stroke="#4da6ff" stroke-width="4" stroke-linecap="round"/>
    <ellipse cx="-11" cy="50" rx="5" ry="3" fill="#3a8ad4"/>
    <line x1="8" y1="34" x2="10" y2="48" stroke="#4da6ff" stroke-width="4" stroke-linecap="round"/>
    <ellipse cx="11" cy="50" rx="5" ry="3" fill="#3a8ad4"/>

    <!-- Robot head (circular) -->
    <circle cx="0" cy="-22" r="18" fill="url(#fr-robotHead)" stroke="#3a8ad4" stroke-width="1.2"/>

    <!-- Helmet shine -->
    <ellipse cx="-6" cy="-30" rx="6" ry="4" fill="#ffffff" opacity="0.15"/>

    <!-- Robot eyes -->
    <!-- Left eye -->
    <g class="fr-robot-eye-left">
      <circle cx="-7" cy="-24" r="5" fill="#003355"/>
      <circle cx="-7" cy="-24" r="4" fill="#00d4ff"/>
      <circle cx="-7" cy="-24" r="2.5" fill="#00ffff" filter="url(#fr-softGlow)"/>
      <circle cx="-5.5" cy="-25.5" r="1.2" fill="#ffffff" opacity="0.9"/>
      <circle cx="-8.5" cy="-22.5" r="0.7" fill="#ffffff" opacity="0.5"/>
    </g>

    <!-- Right eye -->
    <g class="fr-robot-eye-right">
      <circle cx="7" cy="-24" r="5" fill="#003355"/>
      <circle cx="7" cy="-24" r="4" fill="#00d4ff"/>
      <circle cx="7" cy="-24" r="2.5" fill="#00ffff" filter="url(#fr-softGlow)"/>
      <circle cx="8.5" cy="-25.5" r="1.2" fill="#ffffff" opacity="0.9"/>
      <circle cx="5.5" cy="-22.5" r="0.7" fill="#ffffff" opacity="0.5"/>
    </g>

    <!-- Robot friendly mouth (happy arc) -->
    <path d="M -6 -15 Q 0 -11 6 -15" fill="none" stroke="#00ffff" stroke-width="1.5" stroke-linecap="round" opacity="0.8"/>

    <!-- Robot cheek blush (cyan tinted) -->
    <ellipse cx="-12" cy="-18" rx="3" ry="2" fill="#00ffff" opacity="0.15"/>
    <ellipse cx="12" cy="-18" rx="3" ry="2" fill="#00ffff" opacity="0.15"/>

    <!-- Robot antenna -->
    <line x1="0" y1="-40" x2="0" y2="-48" stroke="#3a8ad4" stroke-width="2" stroke-linecap="round"/>
    <circle cx="0" cy="-50" r="3" fill="#00ffff" class="fr-antenna-light" filter="url(#fr-softGlow)"/>
    <circle cx="0" cy="-50" r="1.5" fill="#ffffff" opacity="0.8" class="fr-antenna-light"/>

    <!-- Small ear antennae -->
    <line x1="-15" y1="-35" x2="-20" y2="-42" stroke="#3a8ad4" stroke-width="1.5" stroke-linecap="round"/>
    <circle cx="-21" cy="-43" r="2" fill="#00d4ff" opacity="0.6"/>
    <line x1="15" y1="-35" x2="20" y2="-42" stroke="#3a8ad4" stroke-width="1.5" stroke-linecap="round"/>
    <circle cx="21" cy="-43" r="2" fill="#00d4ff" opacity="0.6"/>
  </g>
  </g>

  <!-- === BOY CHARACTER (right-center, floating alongside) === -->
  <g transform="translate(310, 235)">
  <g class="fr-boy-group">

    <!-- Boy ambient warmth glow -->
    <circle cx="0" cy="-5" r="40" fill="#ffb347" opacity="0.05" filter="url(#fr-strongGlow)"/>

    <!-- Boy body (simple torso) -->
    <ellipse cx="0" cy="8" rx="14" ry="18" fill="url(#fr-boyShirt)"/>
    <!-- Shirt detail -->
    <circle cx="0" cy="4" r="2" fill="#ffd700" opacity="0.6"/>

    <!-- Boy legs -->
    <line x1="-5" y1="24" x2="-7" y2="40" stroke="#3a5a8a" stroke-width="5" stroke-linecap="round"/>
    <line x1="5" y1="24" x2="7" y2="40" stroke="#3a5a8a" stroke-width="5" stroke-linecap="round"/>
    <!-- Shoes -->
    <ellipse cx="-8" cy="42" rx="5" ry="3" fill="#2a2a5e"/>
    <ellipse cx="8" cy="42" rx="5" ry="3" fill="#2a2a5e"/>

    <!-- Boy left arm (down) -->
    <line x1="-12" y1="0" x2="-20" y2="14" stroke="url(#fr-boyShirt)" stroke-width="5" stroke-linecap="round"/>
    <circle cx="-21" cy="16" r="3.5" fill="#d4a574"/>

    <!-- Boy right arm (waving / reaching to robot) -->
    <g transform="translate(12, -2)">
    <g class="fr-boy-arm">
      <line x1="0" y1="0" x2="10" y2="-14" stroke="url(#fr-boyShirt)" stroke-width="5" stroke-linecap="round"/>
      <circle cx="12" cy="-16" r="3.5" fill="#d4a574"/>
    </g>
    </g>

    <!-- Boy head -->
    <circle cx="0" cy="-18" r="15" fill="#d4a574"/>

    <!-- Hair (dark, slightly messy) -->
    <ellipse cx="0" cy="-28" rx="16" ry="10" fill="#1a1a2e"/>
    <ellipse cx="-8" cy="-24" rx="8" ry="7" fill="#1a1a2e"/>
    <ellipse cx="8" cy="-24" rx="8" ry="7" fill="#1a1a2e"/>
    <!-- Hair tuft -->
    <path d="M -3 -36 Q 0 -42 5 -37" fill="#1a1a2e" stroke="none"/>

    <!-- Boy eyes (expressive, looking at robot) -->
    <!-- Left eye (sclera) -->
    <circle cx="-5" cy="-20" r="4" fill="#ffffff"/>
    <!-- Iris -->
    <circle cx="-6" cy="-20" r="2.8" fill="#3a2510"/>
    <!-- Pupil -->
    <circle cx="-6.5" cy="-20.5" r="1.5" fill="#1a0f08"/>
    <!-- Highlight -->
    <circle cx="-5" cy="-21.5" r="1" fill="#ffffff" opacity="0.9"/>
    <circle cx="-7.5" cy="-19" r="0.5" fill="#ffffff" opacity="0.5"/>

    <!-- Right eye -->
    <circle cx="5" cy="-20" r="4" fill="#ffffff"/>
    <circle cx="4" cy="-20" r="2.8" fill="#3a2510"/>
    <circle cx="3.5" cy="-20.5" r="1.5" fill="#1a0f08"/>
    <circle cx="5" cy="-21.5" r="1" fill="#ffffff" opacity="0.9"/>
    <circle cx="2.5" cy="-19" r="0.5" fill="#ffffff" opacity="0.5"/>

    <!-- Eyebrows (excited, slightly raised) -->
    <path d="M -9 -26 Q -5 -28 -2 -26" fill="none" stroke="#1a1a2e" stroke-width="1" stroke-linecap="round"/>
    <path d="M 2 -26 Q 5 -28 9 -26" fill="none" stroke="#1a1a2e" stroke-width="1" stroke-linecap="round"/>

    <!-- Nose -->
    <ellipse cx="0" cy="-16" rx="1.5" ry="1" fill="#c49060"/>

    <!-- Happy smile -->
    <path d="M -4 -12 Q 0 -8 4 -12" fill="none" stroke="#a06030" stroke-width="1.2" stroke-linecap="round"/>

    <!-- Rosy cheeks -->
    <ellipse cx="-9" cy="-15" rx="3" ry="2" fill="#ffb6c1" opacity="0.4"/>
    <ellipse cx="9" cy="-15" rx="3" ry="2" fill="#ffb6c1" opacity="0.4"/>
  </g>
  </g>

  <!-- Connection glow between characters -->
  <ellipse cx="263" cy="240" rx="60" ry="25" fill="#00ffff" opacity="0.04" filter="url(#fr-strongGlow)"/>

  <!-- ============================================ -->
  <!-- LAYER 6: Foreground Sparkles & Particles     -->
  <!-- ============================================ -->

  <!-- Sparkle trail from robot (falling behind as they fly) -->
  <g transform="translate(195, 280)">
  <g class="fr-sparkle-1">
    <circle cx="0" cy="0" r="2.5" fill="#00ffff" filter="url(#fr-softGlow)"/>
    <circle cx="0" cy="0" r="5" fill="url(#fr-sparkleGlow)" opacity="0.4"/>
  </g>
  </g>

  <g transform="translate(210, 275)">
  <g class="fr-sparkle-2">
    <circle cx="0" cy="0" r="2" fill="#80ffff" filter="url(#fr-softGlow)"/>
    <circle cx="0" cy="0" r="4.5" fill="url(#fr-sparkleGlow)" opacity="0.35"/>
  </g>
  </g>

  <g transform="translate(225, 285)">
  <g class="fr-sparkle-3">
    <circle cx="0" cy="0" r="1.8" fill="#00ffff" filter="url(#fr-softGlow)"/>
    <circle cx="0" cy="0" r="4" fill="url(#fr-sparkleGlow)" opacity="0.3"/>
  </g>
  </g>

  <g transform="translate(200, 270)">
  <g class="fr-sparkle-4">
    <circle cx="0" cy="0" r="2.2" fill="#80ffff" filter="url(#fr-softGlow)"/>
    <circle cx="0" cy="0" r="5" fill="url(#fr-sparkleGlow)" opacity="0.35"/>
  </g>
  </g>

  <g transform="translate(215, 290)">
  <g class="fr-sparkle-5">
    <circle cx="0" cy="0" r="1.5" fill="#00ffff" filter="url(#fr-softGlow)"/>
    <circle cx="0" cy="0" r="3.5" fill="url(#fr-sparkleGlow)" opacity="0.3"/>
  </g>
  </g>

  <g transform="translate(230, 278)">
  <g class="fr-sparkle-6">
    <circle cx="0" cy="0" r="1.8" fill="#80ffff" filter="url(#fr-softGlow)"/>
    <circle cx="0" cy="0" r="4" fill="url(#fr-sparkleGlow)" opacity="0.35"/>
  </g>
  </g>

  <!-- Friendship hearts floating between characters -->
  <g transform="translate(260, 210)">
  <g class="fr-heart-1">
    <path d="M 0 3 C 0 0 -4 -2 -4 1 C -4 4 0 6 0 8 C 0 6 4 4 4 1 C 4 -2 0 0 0 3 Z" fill="#ff6b8a" opacity="0.7" filter="url(#fr-softGlow)"/>
  </g>
  </g>

  <g transform="translate(275, 215)">
  <g class="fr-heart-2">
    <path d="M 0 2 C 0 0 -3 -1.5 -3 0.5 C -3 3 0 4.5 0 6 C 0 4.5 3 3 3 0.5 C 3 -1.5 0 0 0 2 Z" fill="#ff6b8a" opacity="0.6" filter="url(#fr-softGlow)"/>
  </g>
  </g>

  <g transform="translate(252, 220)">
  <g class="fr-heart-3">
    <path d="M 0 2.5 C 0 0 -3.5 -1.5 -3.5 1 C -3.5 3 0 5 0 7 C 0 5 3.5 3 3.5 1 C 3.5 -1.5 0 0 0 2.5 Z" fill="#ff6b8a" opacity="0.5" filter="url(#fr-softGlow)"/>
  </g>
  </g>

  <!-- Large foreground sparkles (depth) -->
  <g opacity="0.7" class="fr-star-fast" style="animation-delay:0.3s">
    <polygon points="60,200 63,210 73,213 63,216 60,226 57,216 47,213 57,210" fill="#80ffff" filter="url(#fr-mediumGlow)"/>
  </g>

  <g opacity="0.6" class="fr-star-medium" style="animation-delay:0.8s">
    <polygon points="450,180 453,190 463,193 453,196 450,206 447,196 437,193 447,190" fill="#ccddff" filter="url(#fr-softGlow)"/>
  </g>

  <g opacity="0.55" class="fr-star-slow" style="animation-delay:1.2s">
    <polygon points="380,250 382,257 389,259 382,261 380,268 378,261 371,259 378,257" fill="#80ffff" filter="url(#fr-softGlow)"/>
  </g>

  <g opacity="0.5" class="fr-star-fast" style="animation-delay:0.5s">
    <polygon points="130,240 132,247 139,249 132,251 130,258 128,251 121,249 128,247" fill="#00ffff" filter="url(#fr-softGlow)"/>
  </g>

  <!-- ============================================ -->
  <!-- LAYER 7: Vignette Overlay                    -->
  <!-- ============================================ -->
  <rect width="512" height="512" fill="url(#fr-vignette)" opacity="0.4"/>
</svg>