<svg viewBox="0 0 512 512" xmlns="http://www.w3.org/2000/svg">
  <defs>
    <!-- === GRADIENTS === -->
    <!-- Sky gradient: deep arctic night -->
    <linearGradient id="fm-skyGrad" x1="0%" y1="0%" x2="0%" y2="100%">
      <stop offset="0%" style="stop-color:#040812;stop-opacity:1" />
      <stop offset="35%" style="stop-color:#0a1628;stop-opacity:1" />
      <stop offset="70%" style="stop-color:#0d2040;stop-opacity:1" />
      <stop offset="100%" style="stop-color:#122a48;stop-opacity:1" />
    </linearGradient>

    <!-- Aurora gradient (green-purple) -->
    <linearGradient id="fm-auroraGrad1" x1="0%" y1="0%" x2="100%" y2="0%">
      <stop offset="0%" style="stop-color:#00ff88;stop-opacity:0" />
      <stop offset="20%" style="stop-color:#00ff88;stop-opacity:0.25" />
      <stop offset="50%" style="stop-color:#44ffaa;stop-opacity:0.35" />
      <stop offset="80%" style="stop-color:#aa44ff;stop-opacity:0.2" />
      <stop offset="100%" style="stop-color:#aa44ff;stop-opacity:0" />
    </linearGradient>

    <linearGradient id="fm-auroraGrad2" x1="0%" y1="0%" x2="100%" y2="0%">
      <stop offset="0%" style="stop-color:#44ffaa;stop-opacity:0" />
      <stop offset="30%" style="stop-color:#22ddaa;stop-opacity:0.2" />
      <stop offset="60%" style="stop-color:#66bbff;stop-opacity:0.25" />
      <stop offset="100%" style="stop-color:#8844ee;stop-opacity:0" />
    </linearGradient>

    <!-- Ocean gradient -->
    <linearGradient id="fm-oceanGrad" x1="0%" y1="0%" x2="0%" y2="100%">
      <stop offset="0%" style="stop-color:#0a2040;stop-opacity:1" />
      <stop offset="50%" style="stop-color:#0d2a4a;stop-opacity:1" />
      <stop offset="100%" style="stop-color:#081830;stop-opacity:1" />
    </linearGradient>

    <!-- Ice/snow gradient -->
    <linearGradient id="fm-iceGrad" x1="0%" y1="0%" x2="0%" y2="100%">
      <stop offset="0%" style="stop-color:#c8e8ff;stop-opacity:0.6" />
      <stop offset="100%" style="stop-color:#8ab8d8;stop-opacity:0.4" />
    </linearGradient>

    <!-- Moon glow -->
    <radialGradient id="fm-moonGlow" cx="50%" cy="50%" r="50%">
      <stop offset="0%" style="stop-color:#eef8ff;stop-opacity:0.9" />
      <stop offset="40%" style="stop-color:#c8e0ff;stop-opacity:0.3" />
      <stop offset="100%" style="stop-color:#c8e0ff;stop-opacity:0" />
    </radialGradient>

    <!-- Dolphin body gradient -->
    <linearGradient id="fm-dolphinGrad" x1="0%" y1="0%" x2="0%" y2="100%">
      <stop offset="0%" style="stop-color:#6688aa;stop-opacity:1" />
      <stop offset="60%" style="stop-color:#8aaac8;stop-opacity:1" />
      <stop offset="100%" style="stop-color:#b0d0e0;stop-opacity:1" />
    </linearGradient>

    <!-- Narwhal body gradient -->
    <linearGradient id="fm-narwhalGrad" x1="0%" y1="0%" x2="0%" y2="100%">
      <stop offset="0%" style="stop-color:#5a7a90;stop-opacity:1" />
      <stop offset="60%" style="stop-color:#7a9ab0;stop-opacity:1" />
      <stop offset="100%" style="stop-color:#a0c0d0;stop-opacity:1" />
    </linearGradient>

    <!-- Music note glow -->
    <radialGradient id="fm-noteGlow" cx="50%" cy="50%" r="50%">
      <stop offset="0%" style="stop-color:#ffd700;stop-opacity:0.8" />
      <stop offset="60%" style="stop-color:#ffd700;stop-opacity:0.3" />
      <stop offset="100%" style="stop-color:#ffd700;stop-opacity:0" />
    </radialGradient>

    <!-- Vignette -->
    <radialGradient id="fm-vignette">
      <stop offset="50%" stop-color="#000000" stop-opacity="0" />
      <stop offset="100%" stop-color="#000000" stop-opacity="0.5" />
    </radialGradient>

    <!-- === FILTERS === -->
    <filter id="fm-softGlow" x="-50%" y="-50%" width="200%" height="200%">
      <feGaussianBlur stdDeviation="2" result="coloredBlur" />
      <feMerge>
        <feMergeNode in="coloredBlur" />
        <feMergeNode in="SourceGraphic" />
      </feMerge>
    </filter>

    <filter id="fm-mediumGlow" x="-50%" y="-50%" width="200%" height="200%">
      <feGaussianBlur stdDeviation="4" result="coloredBlur" />
      <feMerge>
        <feMergeNode in="coloredBlur" />
        <feMergeNode in="SourceGraphic" />
      </feMerge>
    </filter>

    <filter id="fm-strongGlow" x="-50%" y="-50%" width="200%" height="200%">
      <feGaussianBlur stdDeviation="6" result="coloredBlur" />
      <feMerge>
        <feMergeNode in="coloredBlur" />
        <feMergeNode in="SourceGraphic" />
      </feMerge>
    </filter>

    <filter id="fm-auroraBlur" x="-20%" y="-20%" width="140%" height="140%">
      <feGaussianBlur stdDeviation="8" />
    </filter>
  </defs>

  <style>
    /* === AURORA ANIMATIONS === */
    @keyframes fm-auroraSway1 {
      0%, 100% { transform: translateX(0) scaleY(1); opacity: 0.35; }
      25% { transform: translateX(15px) scaleY(1.1); opacity: 0.5; }
      50% { transform: translateX(-10px) scaleY(0.9); opacity: 0.3; }
      75% { transform: translateX(8px) scaleY(1.05); opacity: 0.45; }
    }

    @keyframes fm-auroraSway2 {
      0%, 100% { transform: translateX(0) scaleY(1); opacity: 0.25; }
      30% { transform: translateX(-12px) scaleY(1.15); opacity: 0.4; }
      60% { transform: translateX(10px) scaleY(0.85); opacity: 0.2; }
      85% { transform: translateX(-5px) scaleY(1.08); opacity: 0.35; }
    }

    @keyframes fm-auroraShimmer {
      0%, 100% { opacity: 0.15; }
      50% { opacity: 0.4; }
    }

    /* === WAVE ANIMATIONS === */
    @keyframes fm-waveRoll1 {
      0%, 100% { transform: translateX(0) translateY(0); }
      25% { transform: translateX(6px) translateY(-2px); }
      50% { transform: translateX(-4px) translateY(1px); }
      75% { transform: translateX(5px) translateY(-1px); }
    }

    @keyframes fm-waveRoll2 {
      0%, 100% { transform: translateX(0) translateY(0); }
      30% { transform: translateX(-5px) translateY(-2px); }
      60% { transform: translateX(4px) translateY(1px); }
      85% { transform: translateX(-3px) translateY(-1px); }
    }

    /* === STAR ANIMATIONS === */
    @keyframes fm-starTwinkle {
      0%, 100% { opacity: 0.3; }
      50% { opacity: 1; }
    }

    @keyframes fm-starTwinkle2 {
      0%, 100% { opacity: 0.5; }
      40% { opacity: 0.15; }
      80% { opacity: 0.9; }
    }

    /* === DOLPHIN ANIMATIONS === */
    @keyframes fm-dolphinBob {
      0%, 100% { transform: translateY(0) rotate(0deg); }
      30% { transform: translateY(-6px) rotate(-2deg); }
      60% { transform: translateY(-2px) rotate(1deg); }
      80% { transform: translateY(-5px) rotate(-1deg); }
    }

    @keyframes fm-dolphinTail {
      0%, 100% { transform: rotate(0deg); }
      30% { transform: rotate(8deg); }
      60% { transform: rotate(-5deg); }
      85% { transform: rotate(3deg); }
    }

    /* === NARWHAL ANIMATIONS === */
    @keyframes fm-narwhalBob {
      0%, 100% { transform: translateY(0) rotate(0deg); }
      25% { transform: translateY(-4px) rotate(1.5deg); }
      55% { transform: translateY(-7px) rotate(-1deg); }
      80% { transform: translateY(-2px) rotate(0.5deg); }
    }

    @keyframes fm-hornGlow {
      0%, 100% { opacity: 0.4; }
      50% { opacity: 0.9; }
    }

    /* === MUSIC NOTE ANIMATIONS === */
    @keyframes fm-noteFloat1 {
      0%, 100% { transform: translateY(0) translateX(0); opacity: 0.7; }
      25% { transform: translateY(-8px) translateX(3px); opacity: 1; }
      50% { transform: translateY(-14px) translateX(-2px); opacity: 0.8; }
      75% { transform: translateY(-20px) translateX(4px); opacity: 0.4; }
    }

    @keyframes fm-noteFloat2 {
      0%, 100% { transform: translateY(0) translateX(0); opacity: 0.5; }
      30% { transform: translateY(-10px) translateX(-4px); opacity: 0.9; }
      60% { transform: translateY(-18px) translateX(2px); opacity: 0.6; }
      85% { transform: translateY(-24px) translateX(-3px); opacity: 0.3; }
    }

    @keyframes fm-noteFloat3 {
      0%, 100% { transform: translateY(0) translateX(0); opacity: 0.6; }
      20% { transform: translateY(-6px) translateX(5px); opacity: 0.85; }
      50% { transform: translateY(-16px) translateX(-3px); opacity: 0.9; }
      80% { transform: translateY(-22px) translateX(2px); opacity: 0.35; }
    }

    /* === SNOWFLAKE / ICE PARTICLE ANIMATIONS === */
    @keyframes fm-snowDrift {
      0% { transform: translateY(0) translateX(0); opacity: 0.6; }
      25% { transform: translateY(8px) translateX(4px); opacity: 0.4; }
      50% { transform: translateY(16px) translateX(-2px); opacity: 0.7; }
      75% { transform: translateY(24px) translateX(5px); opacity: 0.3; }
      100% { transform: translateY(32px) translateX(0); opacity: 0.6; }
    }

    @keyframes fm-snowDrift2 {
      0% { transform: translateY(0) translateX(0); opacity: 0.4; }
      30% { transform: translateY(10px) translateX(-3px); opacity: 0.7; }
      60% { transform: translateY(20px) translateX(4px); opacity: 0.3; }
      100% { transform: translateY(30px) translateX(-1px); opacity: 0.5; }
    }

    /* === MOON ANIMATION === */
    @keyframes fm-moonPulse {
      0%, 100% { opacity: 0.8; transform: scale(1); }
      50% { opacity: 1; transform: scale(1.03); }
    }

    /* === ICE SPARKLE === */
    @keyframes fm-iceSpark {
      0%, 100% { opacity: 0.2; transform: scale(1); }
      50% { opacity: 0.8; transform: scale(1.3); }
    }

    /* === ANIMATION CLASSES === */
    .fm-aurora1 { animation: fm-auroraSway1 12s ease-in-out infinite; }
    .fm-aurora2 { animation: fm-auroraSway2 14s ease-in-out infinite 2s; }
    .fm-auroraShim { animation: fm-auroraShimmer 6s ease-in-out infinite; }

    .fm-wave1 { animation: fm-waveRoll1 7s ease-in-out infinite; }
    .fm-wave2 { animation: fm-waveRoll2 6s ease-in-out infinite; }

    .fm-star1 { animation: fm-starTwinkle 2.5s ease-in-out infinite; }
    .fm-star2 { animation: fm-starTwinkle2 2.8s ease-in-out infinite 0.4s; }
    .fm-star3 { animation: fm-starTwinkle 3s ease-in-out infinite 0.8s; }
    .fm-star4 { animation: fm-starTwinkle2 2.3s ease-in-out infinite 1.2s; }
    .fm-star5 { animation: fm-starTwinkle 2.7s ease-in-out infinite 0.2s; }

    .fm-dolphin { animation: fm-dolphinBob 5s ease-in-out infinite; }
    .fm-dolphinTailAnim { animation: fm-dolphinTail 3s ease-in-out infinite; transform-origin: 200px 280px; }

    .fm-narwhal { animation: fm-narwhalBob 5.5s ease-in-out infinite 1s; }
    .fm-hornGlowAnim { animation: fm-hornGlow 3s ease-in-out infinite; }

    .fm-note1 { animation: fm-noteFloat1 4s ease-in-out infinite; }
    .fm-note2 { animation: fm-noteFloat2 4.5s ease-in-out infinite 0.8s; }
    .fm-note3 { animation: fm-noteFloat3 5s ease-in-out infinite 1.5s; }

    .fm-snow1 { animation: fm-snowDrift 8s ease-in-out infinite; }
    .fm-snow2 { animation: fm-snowDrift2 7s ease-in-out infinite 1s; }
    .fm-snow3 { animation: fm-snowDrift 9s ease-in-out infinite 2s; }
    .fm-snow4 { animation: fm-snowDrift2 7.5s ease-in-out infinite 3s; }

    .fm-moonGlowAnim { animation: fm-moonPulse 5s ease-in-out infinite; }

    .fm-iceSpark1 { animation: fm-iceSpark 2.5s ease-in-out infinite; }
    .fm-iceSpark2 { animation: fm-iceSpark 3s ease-in-out infinite 0.6s; }
    .fm-iceSpark3 { animation: fm-iceSpark 2.8s ease-in-out infinite 1.2s; }
  </style>

  <!-- ========================= -->
  <!-- LAYER 1: SKY BACKGROUND   -->
  <!-- ========================= -->
  <rect x="0" y="0" width="512" height="512" fill="url(#fm-skyGrad)" />

  <!-- Moon -->
  <g class="fm-moonGlowAnim">
    <circle cx="100" cy="65" r="35" fill="url(#fm-moonGlow)" filter="url(#fm-strongGlow)" />
    <circle cx="100" cy="65" r="16" fill="#e8f0ff" opacity="0.9" />
    <circle cx="95" cy="60" r="2.5" fill="#d0dcea" opacity="0.4" />
    <circle cx="106" cy="68" r="1.8" fill="#d0dcea" opacity="0.3" />
    <circle cx="98" cy="72" r="1.2" fill="#d0dcea" opacity="0.3" />
  </g>

  <!-- ============= -->
  <!-- LAYER 2: STARS & AURORA -->
  <!-- ============= -->
  <!-- Stars -->
  <g>
    <circle cx="40" cy="25" r="1.1" fill="#ffd700" class="fm-star1" />
    <circle cx="145" cy="40" r="0.8" fill="#ffffff" class="fm-star2" />
    <circle cx="200" cy="18" r="1" fill="#ffd700" class="fm-star3" />
    <circle cx="280" cy="35" r="0.7" fill="#ffffff" class="fm-star4" />
    <circle cx="340" cy="22" r="1.2" fill="#ffd700" class="fm-star5" />
    <circle cx="390" cy="50" r="0.9" fill="#ffffff" class="fm-star1" />
    <circle cx="430" cy="28" r="0.8" fill="#ffd700" class="fm-star3" />
    <circle cx="475" cy="45" r="1" fill="#ffffff" class="fm-star2" />
    <circle cx="60" cy="88" r="0.7" fill="#ffd700" class="fm-star4" />
    <circle cx="170" cy="72" r="0.9" fill="#ffffff" class="fm-star5" />
    <circle cx="310" cy="58" r="0.6" fill="#ffd700" class="fm-star1" />
    <circle cx="460" cy="70" r="0.8" fill="#ffffff" class="fm-star3" />
    <circle cx="500" cy="30" r="0.7" fill="#ffd700" class="fm-star5" />
    <g class="fm-star2" filter="url(#fm-softGlow)">
      <circle cx="240" cy="42" r="1.4" fill="#ffd700" />
    </g>
    <g class="fm-star4" filter="url(#fm-softGlow)">
      <circle cx="420" cy="38" r="1.3" fill="#ffd700" />
    </g>
  </g>

  <!-- Aurora Borealis -->
  <g class="fm-aurora1" filter="url(#fm-auroraBlur)">
    <path d="M0,60 Q80,30 160,70 Q240,40 320,80 Q400,50 512,90 L512,180 Q400,140 320,170 Q240,130 160,160 Q80,120 0,150 Z"
          fill="url(#fm-auroraGrad1)" />
  </g>
  <g class="fm-aurora2" filter="url(#fm-auroraBlur)">
    <path d="M0,80 Q100,50 200,90 Q300,60 400,100 Q450,70 512,110 L512,190 Q450,150 400,180 Q300,140 200,170 Q100,130 0,160 Z"
          fill="url(#fm-auroraGrad2)" />
  </g>
  <!-- Aurora reflection shimmer -->
  <g class="fm-auroraShim" filter="url(#fm-mediumGlow)">
    <path d="M50,100 Q150,80 250,105 Q350,85 450,110"
          fill="none" stroke="#44ffaa" stroke-width="1.5" opacity="0.2" />
  </g>

  <!-- ========================== -->
  <!-- LAYER 3: ICEBERGS & OCEAN  -->
  <!-- ========================== -->
  <!-- Ocean base -->
  <rect x="0" y="280" width="512" height="232" fill="url(#fm-oceanGrad)" />

  <!-- Far iceberg (left) -->
  <g opacity="0.3">
    <path d="M0,250 L20,220 L50,235 L70,215 L100,245 L110,265 L0,265 Z" fill="#8ab8d8" />
    <path d="M0,265 L110,265 L105,280 L5,280 Z" fill="#6090b0" opacity="0.5" />
  </g>

  <!-- Far iceberg (right) -->
  <g opacity="0.25">
    <path d="M400,240 L420,210 L445,225 L470,205 L500,230 L512,250 L512,270 L395,270 Z" fill="#8ab8d8" />
    <path d="M395,270 L512,270 L512,285 L390,285 Z" fill="#6090b0" opacity="0.5" />
  </g>

  <!-- Mid iceberg (center-right background) -->
  <g opacity="0.4">
    <path d="M340,255 L360,228 L375,240 L395,220 L415,245 L420,270 L335,270 Z" fill="#9ac0d8" />
    <path d="M335,270 L420,270 L415,285 L332,285 Z" fill="#7aa0b8" opacity="0.5" />
    <!-- Ice sparkle -->
    <circle cx="370" cy="238" r="2" fill="#ffffff" class="fm-iceSpark1" filter="url(#fm-softGlow)" />
  </g>

  <!-- Water waves -->
  <g class="fm-wave1" opacity="0.4">
    <path d="M0,300 Q40,293 80,300 T160,300 T240,300 T320,300 T400,300 T480,300 L512,300 L512,312 L0,312 Z"
          fill="#0d2a4a" />
    <!-- Aurora reflection on water -->
    <path d="M0,300 Q40,293 80,300 T160,300 T240,300 T320,300 T400,300 T480,300"
          fill="none" stroke="#44ffaa" stroke-width="1" opacity="0.2" filter="url(#fm-softGlow)" />
  </g>

  <g class="fm-wave2" opacity="0.35">
    <path d="M0,320 Q50,313 100,320 T200,320 T300,320 T400,320 T500,320 L512,320 L512,332 L0,332 Z"
          fill="#0a2040" />
    <path d="M0,320 Q50,313 100,320 T200,320 T300,320 T400,320 T500,320"
          fill="none" stroke="#22ddaa" stroke-width="0.8" opacity="0.15" filter="url(#fm-softGlow)" />
  </g>

  <!-- Moon reflection on water -->
  <ellipse cx="100" cy="295" rx="30" ry="3" fill="#c8e0ff" opacity="0.1" filter="url(#fm-mediumGlow)" />

  <!-- ================================= -->
  <!-- LAYER 4: FOREGROUND ICE & SNOW    -->
  <!-- ================================= -->
  <!-- Foreground ice shelf (left) -->
  <path d="M0,350 L0,280 L30,275 L60,285 L80,272 L100,282 L120,290 L130,340 L120,365 L80,375 L40,370 L0,365 Z"
        fill="url(#fm-iceGrad)" opacity="0.7" />
  <path d="M0,365 L40,370 L80,375 L120,365 L130,380 L0,380 Z" fill="#6090b0" opacity="0.3" />
  <!-- Ice sparkles on shelf -->
  <circle cx="50" cy="310" r="1.5" fill="#ffffff" class="fm-iceSpark2" filter="url(#fm-softGlow)" />
  <circle cx="85" cy="295" r="1.2" fill="#c8e8ff" class="fm-iceSpark3" filter="url(#fm-softGlow)" />

  <!-- Foreground ice shelf (right) -->
  <path d="M380,360 L390,290 L410,280 L435,288 L460,275 L485,285 L512,278 L512,370 L480,378 L440,382 L410,375 Z"
        fill="url(#fm-iceGrad)" opacity="0.65" />
  <path d="M380,360 L410,375 L440,382 L480,378 L512,370 L512,390 L380,390 Z" fill="#6090b0" opacity="0.3" />
  <!-- Ice sparkle -->
  <circle cx="440" cy="300" r="1.3" fill="#ffffff" class="fm-iceSpark1" filter="url(#fm-softGlow)" />

  <!-- ====================================== -->
  <!-- LAYER 5: DOLPHIN (FINN) & NARWHAL      -->
  <!-- ====================================== -->
  <!-- Narwhal (left, slightly behind) -->
  <g transform="translate(160, 290)">
    <g class="fm-narwhal">
    <!-- Body -->
    <ellipse cx="0" cy="0" rx="42" ry="18" fill="url(#fm-narwhalGrad)" />
    <!-- Belly -->
    <ellipse cx="0" cy="5" rx="34" ry="10" fill="#b0d0e0" opacity="0.5" />
    <!-- Spots -->
    <circle cx="-15" cy="-5" r="3" fill="#5a7a90" opacity="0.4" />
    <circle cx="5" cy="-8" r="2.5" fill="#5a7a90" opacity="0.35" />
    <circle cx="-5" cy="2" r="2" fill="#5a7a90" opacity="0.3" />
    <!-- Head -->
    <ellipse cx="38" cy="-2" rx="12" ry="10" fill="#7a9ab0" />
    <!-- Eye -->
    <circle cx="42" cy="-4" r="3.5" fill="#ffffff" />
    <circle cx="43" cy="-3.5" r="2.2" fill="#2a4a6a" />
    <circle cx="44" cy="-4.5" r="0.8" fill="#ffffff" opacity="0.8" />
    <!-- Smile -->
    <path d="M46,-1 Q48,2 45,3" fill="none" stroke="#5a7a90" stroke-width="0.8" stroke-linecap="round" />
    <!-- Horn (the tusk!) with glow -->
    <g class="fm-hornGlowAnim">
      <line x1="50" y1="-5" x2="95" y2="-30" stroke="#e8d8c0" stroke-width="3" stroke-linecap="round" />
      <line x1="50" y1="-5" x2="95" y2="-30" stroke="#ffd700" stroke-width="1.5" opacity="0.5" filter="url(#fm-softGlow)" />
      <!-- Horn spiral lines -->
      <path d="M55,-8 Q58,-12 60,-10 Q63,-14 65,-12 Q68,-17 70,-14 Q73,-19 75,-16 Q78,-22 80,-19 Q83,-25 85,-22 Q88,-28 90,-25"
            fill="none" stroke="#d0c0a0" stroke-width="0.5" opacity="0.6" />
      <!-- Sparkle at tip -->
      <circle cx="95" cy="-30" r="4" fill="#ffd700" opacity="0.6" filter="url(#fm-mediumGlow)" />
      <circle cx="95" cy="-30" r="2" fill="#fffef0" opacity="0.8" />
    </g>
    <!-- Flipper -->
    <path d="M-10,12 Q-18,22 -8,18 Q-2,16 -5,12" fill="#6a8aa0" />
    <!-- Tail -->
    <path d="M-42,0 Q-55,-12 -62,-8 Q-56,-2 -48,0 Q-56,2 -62,8 Q-55,12 -42,0 Z" fill="#6a8aa0" />
    </g>
  </g>

  <!-- Dolphin (Finn, center-right, in front) -->
  <g transform="translate(290, 270)">
    <g class="fm-dolphin">
    <!-- Body -->
    <ellipse cx="0" cy="0" rx="38" ry="15" fill="url(#fm-dolphinGrad)" />
    <!-- Belly -->
    <ellipse cx="0" cy="4" rx="30" ry="8" fill="#c0dce8" opacity="0.6" />
    <!-- Dorsal fin -->
    <path d="M-5,-15 Q0,-28 8,-14" fill="#5a7a94" />
    <!-- Head / rostrum -->
    <path d="M38,0 Q48,-3 55,-2 Q52,2 38,3 Z" fill="#7a9ab4" />
    <!-- Eye -->
    <circle cx="36" cy="-4" r="4" fill="#ffffff" />
    <circle cx="37" cy="-3.5" r="2.5" fill="#1a3a5a" />
    <circle cx="38" cy="-4.5" r="0.9" fill="#ffffff" opacity="0.85" />
    <circle cx="35.5" cy="-2.5" r="0.5" fill="#ffffff" opacity="0.5" />
    <!-- Smile (happy dolphin!) -->
    <path d="M44,0 Q48,4 42,5" fill="none" stroke="#5a7a94" stroke-width="0.8" stroke-linecap="round" />
    <!-- Blowhole -->
    <ellipse cx="20" cy="-14" rx="2" ry="1" fill="#5a7a94" opacity="0.5" />
    <!-- Pectoral fin -->
    <path d="M5,10 Q-5,22 5,20 Q12,18 8,12" fill="#5a7a94" />
    <!-- Tail -->
    <g class="fm-dolphinTailAnim">
      <path d="M-38,0 Q-50,-10 -58,-6 Q-52,0 -45,2 Q-52,4 -58,10 Q-50,14 -38,4 Z" fill="#5a7a94" />
    </g>
    </g>
  </g>

  <!-- ======================================= -->
  <!-- LAYER 6: MUSIC NOTES & SPARKLES         -->
  <!-- ======================================= -->
  <!-- Music notes floating up from between them -->
  <g filter="url(#fm-mediumGlow)">
    <!-- Note 1 (eighth note shape) -->
    <g transform="translate(240, 240)">
      <g class="fm-note1">
      <circle cx="0" cy="0" r="5" fill="url(#fm-noteGlow)" />
      <circle cx="0" cy="0" r="3" fill="#ffd700" opacity="0.9" />
      <line x1="3" y1="0" x2="3" y2="-14" stroke="#ffd700" stroke-width="1" />
      <path d="M3,-14 Q8,-12 6,-8" fill="none" stroke="#ffd700" stroke-width="1" />
      </g>
    </g>

    <!-- Note 2 (quarter note) -->
    <g transform="translate(220, 225)">
      <g class="fm-note2">
      <circle cx="0" cy="0" r="4" fill="url(#fm-noteGlow)" />
      <circle cx="0" cy="0" r="2.5" fill="#ffd700" opacity="0.8" />
      <line x1="2.5" y1="0" x2="2.5" y2="-12" stroke="#ffd700" stroke-width="0.8" />
      </g>
    </g>

    <!-- Note 3 (double eighth) -->
    <g transform="translate(260, 235)">
      <g class="fm-note3">
      <circle cx="0" cy="0" r="3.5" fill="url(#fm-noteGlow)" />
      <circle cx="0" cy="0" r="2" fill="#ffd700" opacity="0.85" />
      <line x1="2" y1="0" x2="2" y2="-11" stroke="#ffd700" stroke-width="0.8" />
      <circle cx="8" cy="2" r="2" fill="#ffd700" opacity="0.7" />
      <line x1="10" y1="2" x2="10" y2="-9" stroke="#ffd700" stroke-width="0.8" />
      <line x1="2" y1="-11" x2="10" y2="-9" stroke="#ffd700" stroke-width="0.8" />
      </g>
    </g>
  </g>

  <!-- Golden sparkles around the music -->
  <g filter="url(#fm-softGlow)">
    <circle cx="230" cy="250" r="1.2" fill="#ffd700" class="fm-star1" opacity="0.7" />
    <circle cx="255" cy="245" r="0.9" fill="#ffe4b5" class="fm-star3" opacity="0.6" />
    <circle cx="245" cy="220" r="1" fill="#ffd700" class="fm-star5" opacity="0.5" />
    <circle cx="270" cy="230" r="0.8" fill="#ffe4b5" class="fm-star2" opacity="0.6" />
    <circle cx="215" cy="240" r="1.1" fill="#ffd700" class="fm-star4" opacity="0.5" />
  </g>

  <!-- Snowflake particles -->
  <g>
    <circle cx="30" cy="120" r="1.5" fill="#e0f0ff" class="fm-snow1" opacity="0.5" />
    <circle cx="90" cy="160" r="1" fill="#ffffff" class="fm-snow2" opacity="0.4" />
    <circle cx="150" cy="130" r="1.2" fill="#e0f0ff" class="fm-snow3" opacity="0.5" />
    <circle cx="350" cy="140" r="1.3" fill="#ffffff" class="fm-snow4" opacity="0.4" />
    <circle cx="420" cy="110" r="1" fill="#e0f0ff" class="fm-snow1" opacity="0.45" />
    <circle cx="480" cy="150" r="1.4" fill="#ffffff" class="fm-snow2" opacity="0.35" />
    <circle cx="260" cy="145" r="0.9" fill="#e0f0ff" class="fm-snow3" opacity="0.4" />
    <circle cx="190" cy="170" r="1.1" fill="#ffffff" class="fm-snow4" opacity="0.45" />
    <circle cx="70" cy="200" r="0.8" fill="#e0f0ff" class="fm-snow1" opacity="0.35" />
    <circle cx="330" cy="180" r="1" fill="#ffffff" class="fm-snow2" opacity="0.4" />
    <circle cx="460" cy="195" r="1.2" fill="#e0f0ff" class="fm-snow3" opacity="0.35" />
  </g>

  <!-- Aurora reflections on water surface -->
  <g class="fm-auroraShim" filter="url(#fm-mediumGlow)">
    <path d="M120,295 Q180,290 240,296 Q300,290 360,297"
          fill="none" stroke="#44ffaa" stroke-width="1.5" opacity="0.15" />
    <path d="M140,308 Q200,302 260,309 Q320,303 380,310"
          fill="none" stroke="#aa44ff" stroke-width="1" opacity="0.1" />
  </g>

  <!-- ======================== -->
  <!-- LAYER 7: VIGNETTE        -->
  <!-- ======================== -->
  <rect width="512" height="512" fill="url(#fm-vignette)" opacity="0.4" />

</svg>