<svg viewBox="0 0 512 512" xmlns="http://www.w3.org/2000/svg">
  <defs>
    <!-- Gradients -->
    <radialGradient id="twilightGradient" cx="50%" cy="70%" r="80%">
      <stop offset="0%" style="stop-color:#FFF4D9;stop-opacity:1" />
      <stop offset="30%" style="stop-color:#E8D4A8;stop-opacity:1" />
      <stop offset="60%" style="stop-color:#B8A89C;stop-opacity:1" />
      <stop offset="100%" style="stop-color:#2C3E5F;stop-opacity:1" />
    </radialGradient>

    <linearGradient id="skyGradient" x1="0%" y1="0%" x2="0%" y2="100%">
      <stop offset="0%" style="stop-color:#1A2E4A;stop-opacity:1" />
      <stop offset="40%" style="stop-color:#3B5998;stop-opacity:1" />
      <stop offset="70%" style="stop-color:#7BA8C8;stop-opacity:1" />
      <stop offset="100%" style="stop-color:#D4B896;stop-opacity:1" />
    </linearGradient>

    <radialGradient id="flowerGlow" cx="50%" cy="50%" r="50%">
      <stop offset="0%" style="stop-color:#FFD700;stop-opacity:0.6" />
      <stop offset="100%" style="stop-color:#FFD700;stop-opacity:0" />
    </radialGradient>

    <radialGradient id="pinkRoseGlow" cx="50%" cy="50%" r="50%">
      <stop offset="0%" style="stop-color:#FF69B4;stop-opacity:0.5" />
      <stop offset="100%" style="stop-color:#FF69B4;stop-opacity:0" />
    </radialGradient>

    <radialGradient id="purpleGlow" cx="50%" cy="50%" r="50%">
      <stop offset="0%" style="stop-color:#9370DB;stop-opacity:0.5" />
      <stop offset="100%" style="stop-color:#9370DB;stop-opacity:0" />
    </radialGradient>

    <radialGradient id="fireflyCoreGradient" cx="35%" cy="35%" r="65%">
      <stop offset="0%" style="stop-color:#FFFACD;stop-opacity:1" />
      <stop offset="100%" style="stop-color:#FFD700;stop-opacity:1" />
    </radialGradient>

    <!-- Filters -->
    <filter id="glowFilter">
      <feGaussianBlur stdDeviation="2" result="coloredBlur"/>
      <feMerge>
        <feMergeNode in="coloredBlur"/>
        <feMergeNode in="SourceGraphic"/>
      </feMerge>
    </filter>

    <filter id="softGlow">
      <feGaussianBlur stdDeviation="3" result="coloredBlur"/>
      <feMerge>
        <feMergeNode in="coloredBlur"/>
        <feMergeNode in="SourceGraphic"/>
      </feMerge>
    </filter>

    <filter id="strongGlow">
      <feGaussianBlur stdDeviation="4" result="coloredBlur"/>
      <feMerge>
        <feMergeNode in="coloredBlur"/>
        <feMergeNode in="SourceGraphic"/>
      </feMerge>
    </filter>

    <filter id="shadowFilter">
      <feDropShadow dx="0" dy="2" stdDeviation="2" flood-opacity="0.3"/>
    </filter>
  </defs>

  <!-- Animations -->
  <style>
    @keyframes twilightPulse {
      0%, 100% { opacity: 1; }
      50% { opacity: 0.95; }
    }

    @keyframes butterfly1Drift {
      0% { transform: translateX(0px) translateY(0px); }
      25% { transform: translateX(25px) translateY(-15px); }
      50% { transform: translateX(15px) translateY(-30px); }
      75% { transform: translateX(-10px) translateY(-15px); }
      100% { transform: translateX(0px) translateY(0px); }
    }

    @keyframes butterfly2Drift {
      0% { transform: translateX(0px) translateY(0px); }
      25% { transform: translateX(-20px) translateY(-25px); }
      50% { transform: translateX(-10px) translateY(-35px); }
      75% { transform: translateX(20px) translateY(-20px); }
      100% { transform: translateX(0px) translateY(0px); }
    }

    @keyframes butterfly3Drift {
      0% { transform: translateX(0px) translateY(0px); }
      25% { transform: translateX(15px) translateY(-20px); }
      50% { transform: translateX(25px) translateY(-25px); }
      75% { transform: translateX(5px) translateY(-10px); }
      100% { transform: translateX(0px) translateY(0px); }
    }

    @keyframes butterflyWingFlap1 {
      0%, 100% { transform: scaleX(1); }
      50% { transform: scaleX(0.6); }
    }

    @keyframes butterflyWingFlap2 {
      0%, 100% { transform: scaleX(1); }
      50% { transform: scaleX(0.65); }
    }

    @keyframes butterflyWingFlap3 {
      0%, 100% { transform: scaleX(1); }
      50% { transform: scaleX(0.62); }
    }

    @keyframes flowerPulse {
      0%, 100% { transform: scale(1); }
      50% { transform: scale(1.08); }
    }

    @keyframes flowerPulse2 {
      0%, 100% { transform: scale(1); }
      50% { transform: scale(1.07); }
    }

    @keyframes flowerPulse3 {
      0%, 100% { transform: scale(1); }
      50% { transform: scale(1.09); }
    }

    @keyframes glowBreathing {
      0%, 100% { opacity: 0.2; }
      50% { opacity: 0.5; }
    }

    @keyframes glowBreathing2 {
      0%, 100% { opacity: 0.25; }
      50% { opacity: 0.55; }
    }

    @keyframes glowBreathing3 {
      0%, 100% { opacity: 0.15; }
      50% { opacity: 0.45; }
    }

    @keyframes firefly1Circle {
      0% { transform: translateX(0px) translateY(0px); }
      25% { transform: translateX(8px) translateY(-8px); }
      50% { transform: translateX(0px) translateY(-12px); }
      75% { transform: translateX(-8px) translateY(-6px); }
      100% { transform: translateX(0px) translateY(0px); }
    }

    @keyframes firefly2Circle {
      0% { transform: translateX(0px) translateY(0px); }
      25% { transform: translateX(-7px) translateY(-10px); }
      50% { transform: translateX(-6px) translateY(-8px); }
      75% { transform: translateX(7px) translateY(-9px); }
      100% { transform: translateX(0px) translateY(0px); }
    }

    @keyframes firefly3Circle {
      0% { transform: translateX(0px) translateY(0px); }
      25% { transform: translateX(9px) translateY(-6px); }
      50% { transform: translateX(8px) translateY(-11px); }
      75% { transform: translateX(-6px) translateY(-7px); }
      100% { transform: translateX(0px) translateY(0px); }
    }

    @keyframes firefly4Circle {
      0% { transform: translateX(0px) translateY(0px); }
      25% { transform: translateX(-8px) translateY(-8px); }
      50% { transform: translateX(-5px) translateY(-9px); }
      75% { transform: translateX(8px) translateY(-5px); }
      100% { transform: translateX(0px) translateY(0px); }
    }

    @keyframes firefly5Circle {
      0% { transform: translateX(0px) translateY(0px); }
      25% { transform: translateX(6px) translateY(-9px); }
      50% { transform: translateX(7px) translateY(-10px); }
      75% { transform: translateX(-7px) translateY(-8px); }
      100% { transform: translateX(0px) translateY(0px); }
    }

    @keyframes firefly6Circle {
      0% { transform: translateX(0px) translateY(0px); }
      25% { transform: translateX(-7px) translateY(-7px); }
      50% { transform: translateX(6px) translateY(-9px); }
      75% { transform: translateX(8px) translateY(-6px); }
      100% { transform: translateX(0px) translateY(0px); }
    }

    @keyframes firefliesPulse1 {
      0%, 100% { opacity: 0.3; }
      50% { opacity: 1; }
    }

    @keyframes firefliesPulse2 {
      0%, 100% { opacity: 0.4; }
      50% { opacity: 0.95; }
    }

    @keyframes firefliesPulse3 {
      0%, 100% { opacity: 0.35; }
      50% { opacity: 1; }
    }

    @keyframes twinkle {
      0%, 100% { opacity: 0; }
      50% { opacity: 1; }
    }

    @keyframes twinkle2 {
      0%, 100% { opacity: 0; }
      50% { opacity: 0.9; }
    }

    @keyframes twinkle3 {
      0%, 100% { opacity: 0; }
      50% { opacity: 0.85; }
    }

    @keyframes hairSway {
      0%, 100% { transform: rotate(0deg); }
      50% { transform: rotate(3deg); }
    }

    @keyframes hairSway2 {
      0%, 100% { transform: rotate(0deg); }
      50% { transform: rotate(-3deg); }
    }

    @keyframes foliageRustle {
      0%, 100% { transform: skewX(0deg); }
      50% { transform: skewX(1.5deg); }
    }

    @keyframes foliageRustle2 {
      0%, 100% { transform: skewX(0deg); }
      50% { transform: skewX(-1.5deg); }
    }

    @keyframes pathGlow {
      0%, 100% { opacity: 0.3; }
      50% { opacity: 0.6; }
    }

    /* Class animations */
    .butterfly1-group { animation: butterfly1Drift 11s ease-in-out infinite; }
    .butterfly1-wings { animation: butterflyWingFlap1 0.8s ease-in-out infinite; transform-origin: center; }
    .butterfly2-group { animation: butterfly2Drift 12s ease-in-out infinite; }
    .butterfly2-wings { animation: butterflyWingFlap2 0.8s ease-in-out infinite 0.2s; transform-origin: center; }
    .butterfly3-group { animation: butterfly3Drift 10.5s ease-in-out infinite; }
    .butterfly3-wings { animation: butterflyWingFlap3 0.8s ease-in-out infinite 0.4s; transform-origin: center; }

    .rose-group-1 { animation: flowerPulse 5.5s ease-in-out infinite; }
    .rose-glow-1 { animation: glowBreathing 4s ease-in-out infinite; }
    .rose-group-2 { animation: flowerPulse2 5.8s ease-in-out infinite 0.3s; }
    .rose-glow-2 { animation: glowBreathing2 4s ease-in-out infinite 0.5s; }
    .rose-group-3 { animation: flowerPulse3 6s ease-in-out infinite 0.6s; }
    .rose-glow-3 { animation: glowBreathing3 4s ease-in-out infinite 1s; }

    .lily-group-1 { animation: flowerPulse 6s ease-in-out infinite 0.2s; }
    .lily-glow-1 { animation: glowBreathing 4s ease-in-out infinite 0.3s; }
    .lily-group-2 { animation: flowerPulse2 5.5s ease-in-out infinite 0.5s; }
    .lily-glow-2 { animation: glowBreathing2 4s ease-in-out infinite 0.8s; }
    .lily-group-3 { animation: flowerPulse3 6.2s ease-in-out infinite 0.7s; }
    .lily-glow-3 { animation: glowBreathing3 4s ease-in-out infinite 1.2s; }

    .daisy-group-1 { animation: flowerPulse 5.2s ease-in-out infinite 0.1s; }
    .daisy-glow-1 { animation: glowBreathing 4s ease-in-out infinite 0.2s; }
    .daisy-group-2 { animation: flowerPulse2 5.7s ease-in-out infinite 0.4s; }
    .daisy-glow-2 { animation: glowBreathing2 4s ease-in-out infinite 0.7s; }
    .daisy-group-3 { animation: flowerPulse3 5.9s ease-in-out infinite 0.5s; }
    .daisy-glow-3 { animation: glowBreathing3 4s ease-in-out infinite 0.9s; }

    .firefly-1 { animation: firefly1Circle 5.2s ease-in-out infinite; }
    .firefly-1-glow { animation: firefliesPulse1 2s ease-in-out infinite; }
    .firefly-2 { animation: firefly2Circle 5.8s ease-in-out infinite; }
    .firefly-2-glow { animation: firefliesPulse2 2s ease-in-out infinite 0.3s; }
    .firefly-3 { animation: firefly3Circle 5.5s ease-in-out infinite; }
    .firefly-3-glow { animation: firefliesPulse1 2s ease-in-out infinite 0.1s; }
    .firefly-4 { animation: firefly4Circle 6.2s ease-in-out infinite; }
    .firefly-4-glow { animation: firefliesPulse2 2s ease-in-out infinite 0.2s; }
    .firefly-5 { animation: firefly5Circle 5.9s ease-in-out infinite; }
    .firefly-5-glow { animation: firefliesPulse3 2s ease-in-out infinite 0.4s; }
    .firefly-6 { animation: firefly6Circle 6s ease-in-out infinite; }
    .firefly-6-glow { animation: firefliesPulse1 2s ease-in-out infinite 0.5s; }

    .sparkle-1 { animation: twinkle 2.5s ease-in-out infinite; }
    .sparkle-2 { animation: twinkle2 2.8s ease-in-out infinite 0.3s; }
    .sparkle-3 { animation: twinkle3 3s ease-in-out infinite 0.6s; }
    .sparkle-4 { animation: twinkle 2.7s ease-in-out infinite 0.2s; }
    .sparkle-5 { animation: twinkle2 2.9s ease-in-out infinite 0.5s; }
    .sparkle-6 { animation: twinkle3 2.6s ease-in-out infinite 0.8s; }
    .sparkle-7 { animation: twinkle 2.4s ease-in-out infinite 0.4s; }
    .sparkle-8 { animation: twinkle2 2.5s ease-in-out infinite 0.7s; }

    .braid-left { animation: hairSway 4s ease-in-out infinite; transform-origin: 120px 60px; }
    .braid-right { animation: hairSway2 4s ease-in-out infinite; transform-origin: 160px 60px; }

    .foliage-left { animation: foliageRustle 5s ease-in-out infinite; transform-origin: 50% 50%; }
    .foliage-right { animation: foliageRustle2 5.2s ease-in-out infinite; transform-origin: 50% 50%; }

    .path-stone-1 { animation: pathGlow 6s ease-in-out infinite; }
    .path-stone-2 { animation: pathGlow 6s ease-in-out infinite 1s; }
    .path-stone-3 { animation: pathGlow 6s ease-in-out infinite 2s; }
    .path-stone-4 { animation: pathGlow 6s ease-in-out infinite 0.5s; }
    .path-stone-5 { animation: pathGlow 6s ease-in-out infinite 1.5s; }
  </style>

  <!-- Background Sky -->
  <rect width="512" height="512" fill="url(#twilightGradient)"/>

  <!-- Soft sky overlay -->
  <ellipse cx="256" cy="380" rx="280" ry="180" fill="url(#skyGradient)" opacity="0.8"/>

  <!-- Far background trees silhouette -->
  <ellipse cx="80" cy="280" rx="100" ry="140" fill="#1a3d2a" opacity="0.4"/>
  <ellipse cx="430" cy="300" rx="120" ry="160" fill="#0f2818" opacity="0.35"/>

  <!-- Left foliage border -->
  <g class="foliage-left" opacity="0.7">
    <ellipse cx="25" cy="320" rx="45" ry="100" fill="#2d5a3d"/>
    <ellipse cx="45" cy="380" rx="35" ry="80" fill="#3a7a50"/>
    <path d="M 10 400 Q 30 380 50 400 T 80 420" fill="none" stroke="#4a9a60" stroke-width="8" opacity="0.6"/>
  </g>

  <!-- Right foliage border -->
  <g class="foliage-right" opacity="0.7">
    <ellipse cx="490" cy="310" rx="50" ry="110" fill="#2d5a3d"/>
    <ellipse cx="465" cy="380" rx="40" ry="85" fill="#3a7a50"/>
    <path d="M 510 400 Q 480 375 455 400 T 420 425" fill="none" stroke="#4a9a60" stroke-width="8" opacity="0.6"/>
  </g>

  <!-- Stepping stone path -->
  <g id="garden-path">
    <g class="path-stone-1">
      <ellipse cx="256" cy="440" rx="28" ry="22" fill="#8B7D6B" opacity="0.8"/>
      <ellipse cx="256" cy="440" rx="24" ry="18" fill="#A89968" opacity="0.6"/>
    </g>
    <g class="path-stone-2">
      <ellipse cx="240" cy="390" rx="26" ry="20" fill="#8B7D6B" opacity="0.8"/>
      <ellipse cx="240" cy="390" rx="22" ry="16" fill="#A89968" opacity="0.6"/>
    </g>
    <g class="path-stone-3">
      <ellipse cx="272" cy="340" rx="27" ry="21" fill="#8B7D6B" opacity="0.8"/>
      <ellipse cx="272" cy="340" rx="23" ry="17" fill="#A89968" opacity="0.6"/>
    </g>
    <g class="path-stone-4">
      <ellipse cx="245" cy="285" rx="25" ry="19" fill="#8B7D6B" opacity="0.8"/>
      <ellipse cx="245" cy="285" rx="21" ry="15" fill="#A89968" opacity="0.6"/>
    </g>
    <g class="path-stone-5">
      <ellipse cx="280" cy="240" rx="26" ry="20" fill="#8B7D6B" opacity="0.8"/>
      <ellipse cx="280" cy="240" rx="22" ry="16" fill="#A89968" opacity="0.6"/>
    </g>
  </g>

  <!-- Sparkles scattered throughout -->
  <g id="sparkles" fill="#FFE4B5" filter="url(#glowFilter)">
    <circle cx="120" cy="180" r="1.5" class="sparkle-1"/>
    <circle cx="380" cy="160" r="1.2" class="sparkle-2"/>
    <circle cx="90" cy="320" r="1" class="sparkle-3"/>
    <circle cx="420" cy="350" r="1.3" class="sparkle-4"/>
    <circle cx="200" cy="280" r="1.1" class="sparkle-5"/>
    <circle cx="350" cy="220" r="1.2" class="sparkle-6"/>
    <circle cx="150" cy="400" r="0.9" class="sparkle-7"/>
    <circle cx="380" cy="400" r="1.4" class="sparkle-8"/>
  </g>

  <!-- Fireflies -->
  <g id="fireflies">
    <g class="firefly-1">
      <circle cx="100" cy="200" r="2.5" fill="url(#fireflyCoreGradient)" filter="url(#strongGlow)"/>
      <circle cx="100" cy="200" r="4" fill="#FFD700" opacity="0" class="firefly-1-glow"/>
    </g>
    <g class="firefly-2">
      <circle cx="380" cy="240" r="2.5" fill="url(#fireflyCoreGradient)" filter="url(#strongGlow)"/>
      <circle cx="380" cy="240" r="4" fill="#FFD700" opacity="0" class="firefly-2-glow"/>
    </g>
    <g class="firefly-3">
      <circle cx="280" cy="180" r="2.2" fill="url(#fireflyCoreGradient)" filter="url(#strongGlow)"/>
      <circle cx="280" cy="180" r="4" fill="#FFD700" opacity="0" class="firefly-3-glow"/>
    </g>
    <g class="firefly-4">
      <circle cx="150" cy="260" r="2.3" fill="url(#fireflyCoreGradient)" filter="url(#strongGlow)"/>
      <circle cx="150" cy="260" r="4" fill="#FFD700" opacity="0" class="firefly-4-glow"/>
    </g>
    <g class="firefly-5">
      <circle cx="320" cy="320" r="2.4" fill="url(#fireflyCoreGradient)" filter="url(#strongGlow)"/>
      <circle cx="320" cy="320" r="4" fill="#FFD700" opacity="0" class="firefly-5-glow"/>
    </g>
    <g class="firefly-6">
      <circle cx="200" cy="150" r="2.3" fill="url(#fireflyCoreGradient)" filter="url(#strongGlow)"/>
      <circle cx="200" cy="150" r="4" fill="#FFD700" opacity="0" class="firefly-6-glow"/>
    </g>
  </g>

  <!-- Pink Roses -->
  <g class="rose-group-1" id="rose-1">
    <line x1="140" y1="430" x2="140" y2="360" stroke="#3d6b3d" stroke-width="3" opacity="0.8"/>
    <path d="M 135 380 Q 125 375 120 385" stroke="#3d6b3d" stroke-width="2" fill="none" opacity="0.6"/>
    <path d="M 145 400 Q 155 398 158 408" stroke="#3d6b3d" stroke-width="2" fill="none" opacity="0.6"/>
    <ellipse cx="125" cy="390" rx="8" ry="15" fill="#4a8a4a" opacity="0.8" transform="rotate(-40 125 390)"/>
    <ellipse cx="155" cy="410" rx="8" ry="15" fill="#5a9a5a" opacity="0.8" transform="rotate(35 155 410)"/>
    <circle cx="140" cy="330" r="22" fill="#FF69B4" opacity="0.8"/>
    <circle cx="163" cy="345" r="20" fill="#FF69B4" opacity="0.8"/>
    <circle cx="160" cy="310" r="20" fill="#FF69B4" opacity="0.85"/>
    <circle cx="117" cy="345" r="20" fill="#FF69B4" opacity="0.8"/>
    <circle cx="120" cy="310" r="20" fill="#FF69B4" opacity="0.85"/>
    <circle cx="140" cy="325" r="16" fill="#FF85C1" opacity="0.9"/>
    <circle cx="156" cy="338" r="15" fill="#FF85C1" opacity="0.9"/>
    <circle cx="154" cy="312" r="15" fill="#FF85C1" opacity="0.9"/>
    <circle cx="124" cy="338" r="15" fill="#FF85C1" opacity="0.9"/>
    <circle cx="126" cy="312" r="15" fill="#FF85C1" opacity="0.9"/>
    <circle cx="140" cy="328" r="10" fill="#FFB6D9" opacity="1"/>
    <circle cx="140" cy="328" r="6" fill="#FFC9E3" opacity="0.8"/>
    <circle cx="140" cy="328" r="25" fill="url(#pinkRoseGlow)" class="rose-glow-1"/>
  </g>

  <g class="rose-group-2" id="rose-2">
    <line x1="280" y1="430" x2="280" y2="350" stroke="#3d6b3d" stroke-width="3" opacity="0.8"/>
    <path d="M 275 370 Q 265 365 260 375" stroke="#3d6b3d" stroke-width="2" fill="none" opacity="0.6"/>
    <path d="M 285 390 Q 295 388 298 398" stroke="#3d6b3d" stroke-width="2" fill="none" opacity="0.6"/>
    <ellipse cx="265" cy="380" rx="8" ry="15" fill="#4a8a4a" opacity="0.8" transform="rotate(-40 265 380)"/>
    <ellipse cx="295" cy="400" rx="8" ry="15" fill="#5a9a5a" opacity="0.8" transform="rotate(35 295 400)"/>
    <circle cx="280" cy="320" r="22" fill="#FF69B4" opacity="0.8"/>
    <circle cx="303" cy="335" r="20" fill="#FF69B4" opacity="0.8"/>
    <circle cx="300" cy="300" r="20" fill="#FF69B4" opacity="0.85"/>
    <circle cx="257" cy="335" r="20" fill="#FF69B4" opacity="0.8"/>
    <circle cx="260" cy="300" r="20" fill="#FF69B4" opacity="0.85"/>
    <circle cx="280" cy="315" r="16" fill="#FF85C1" opacity="0.9"/>
    <circle cx="296" cy="328" r="15" fill="#FF85C1" opacity="0.9"/>
    <circle cx="294" cy="302" r="15" fill="#FF85C1" opacity="0.9"/>
    <circle cx="264" cy="328" r="15" fill="#FF85C1" opacity="0.9"/>
    <circle cx="266" cy="302" r="15" fill="#FF85C1" opacity="0.9"/>
    <circle cx="280" cy="318" r="10" fill="#FFB6D9" opacity="1"/>
    <circle cx="280" cy="318" r="6" fill="#FFC9E3" opacity="0.8"/>
    <circle cx="280" cy="318" r="25" fill="url(#pinkRoseGlow)" class="rose-glow-2"/>
  </g>

  <g class="rose-group-3" id="rose-3">
    <line x1="390" y1="430" x2="390" y2="365" stroke="#3d6b3d" stroke-width="3" opacity="0.8"/>
    <path d="M 385 385 Q 375 380 370 390" stroke="#3d6b3d" stroke-width="2" fill="none" opacity="0.6"/>
    <path d="M 395 405 Q 405 403 408 413" stroke="#3d6b3d" stroke-width="2" fill="none" opacity="0.6"/>
    <ellipse cx="375" cy="395" rx="8" ry="15" fill="#4a8a4a" opacity="0.8" transform="rotate(-40 375 395)"/>
    <ellipse cx="405" cy="415" rx="8" ry="15" fill="#5a9a5a" opacity="0.8" transform="rotate(35 405 415)"/>
    <circle cx="390" cy="335" r="22" fill="#FF69B4" opacity="0.8"/>
    <circle cx="413" cy="350" r="20" fill="#FF69B4" opacity="0.8"/>
    <circle cx="410" cy="315" r="20" fill="#FF69B4" opacity="0.85"/>
    <circle cx="367" cy="350" r="20" fill="#FF69B4" opacity="0.8"/>
    <circle cx="370" cy="315" r="20" fill="#FF69B4" opacity="0.85"/>
    <circle cx="390" cy="330" r="16" fill="#FF85C1" opacity="0.9"/>
    <circle cx="406" cy="343" r="15" fill="#FF85C1" opacity="0.9"/>
    <circle cx="404" cy="317" r="15" fill="#FF85C1" opacity="0.9"/>
    <circle cx="374" cy="343" r="15" fill="#FF85C1" opacity="0.9"/>
    <circle cx="376" cy="317" r="15" fill="#FF85C1" opacity="0.9"/>
    <circle cx="390" cy="333" r="10" fill="#FFB6D9" opacity="1"/>
    <circle cx="390" cy="333" r="6" fill="#FFC9E3" opacity="0.8"/>
    <circle cx="390" cy="333" r="25" fill="url(#pinkRoseGlow)" class="rose-glow-3"/>
  </g>

  <!-- Purple Lilies -->
  <g class="lily-group-1" id="lily-1">
    <line x1="110" y1="430" x2="110" y2="340" stroke="#3d6b3d" stroke-width="2.5" opacity="0.8"/>
    <path d="M 108 360 Q 100 355 95 365" stroke="#3d6b3d" stroke-width="1.5" fill="none" opacity="0.6"/>
    <path d="M 110 320 Q 100 310 95 295" stroke="#663399" stroke-width="6" fill="none" opacity="0.8" stroke-linecap="round"/>
    <path d="M 110 320 Q 125 310 130 295" stroke="#663399" stroke-width="6" fill="none" opacity="0.8" stroke-linecap="round"/>
    <path d="M 110 320 Q 110 300 110 280" stroke="#663399" stroke-width="6" fill="none" opacity="0.8" stroke-linecap="round"/>
    <path d="M 110 320 Q 120 312 135 310" stroke="#9370DB" stroke-width="5" fill="none" opacity="0.7" stroke-linecap="round"/>
    <path d="M 110 320 Q 100 312 85 310" stroke="#9370DB" stroke-width="5" fill="none" opacity="0.7" stroke-linecap="round"/>
    <path d="M 110 320 Q 110 305 110 290" stroke="#9370DB" stroke-width="5" fill="none" opacity="0.8" stroke-linecap="round"/>
    <circle cx="110" cy="320" r="6" fill="#FFD700" opacity="0.9"/>
    <circle cx="110" cy="320" r="3" fill="#FFFF00" opacity="0.8"/>
    <circle cx="110" cy="320" r="20" fill="url(#purpleGlow)" class="lily-glow-1"/>
  </g>

  <g class="lily-group-2" id="lily-2">
    <line x1="330" y1="430" x2="330" y2="345" stroke="#3d6b3d" stroke-width="2.5" opacity="0.8"/>
    <path d="M 332 365 Q 340 360 345 370" stroke="#3d6b3d" stroke-width="1.5" fill="none" opacity="0.6"/>
    <path d="M 330 325 Q 320 315 315 300" stroke="#663399" stroke-width="6" fill="none" opacity="0.8" stroke-linecap="round"/>
    <path d="M 330 325 Q 345 315 350 300" stroke="#663399" stroke-width="6" fill="none" opacity="0.8" stroke-linecap="round"/>
    <path d="M 330 325 Q 330 305 330 285" stroke="#663399" stroke-width="6" fill="none" opacity="0.8" stroke-linecap="round"/>
    <path d="M 330 325 Q 340 317 355 315" stroke="#9370DB" stroke-width="5" fill="none" opacity="0.7" stroke-linecap="round"/>
    <path d="M 330 325 Q 320 317 305 315" stroke="#9370DB" stroke-width="5" fill="none" opacity="0.7" stroke-linecap="round"/>
    <path d="M 330 325 Q 330 310 330 290" stroke="#9370DB" stroke-width="5" fill="none" opacity="0.8" stroke-linecap="round"/>
    <circle cx="330" cy="325" r="6" fill="#FFD700" opacity="0.9"/>
    <circle cx="330" cy="325" r="3" fill="#FFFF00" opacity="0.8"/>
    <circle cx="330" cy="325" r="20" fill="url(#purpleGlow)" class="lily-glow-2"/>
  </g>

  <g class="lily-group-3" id="lily-3">
    <line x1="420" y1="430" x2="420" y2="350" stroke="#3d6b3d" stroke-width="2.5" opacity="0.8"/>
    <path d="M 418 370 Q 410 365 405 375" stroke="#3d6b3d" stroke-width="1.5" fill="none" opacity="0.6"/>
    <path d="M 420 330 Q 410 320 405 305" stroke="#663399" stroke-width="6" fill="none" opacity="0.8" stroke-linecap="round"/>
    <path d="M 420 330 Q 435 320 440 305" stroke="#663399" stroke-width="6" fill="none" opacity="0.8" stroke-linecap="round"/>
    <path d="M 420 330 Q 420 310 420 290" stroke="#663399" stroke-width="6" fill="none" opacity="0.8" stroke-linecap="round"/>
    <path d="M 420 330 Q 430 322 445 320" stroke="#9370DB" stroke-width="5" fill="none" opacity="0.7" stroke-linecap="round"/>
    <path d="M 420 330 Q 410 322 395 320" stroke="#9370DB" stroke-width="5" fill="none" opacity="0.7" stroke-linecap="round"/>
    <path d="M 420 330 Q 420 315 420 295" stroke="#9370DB" stroke-width="5" fill="none" opacity="0.8" stroke-linecap="round"/>
    <circle cx="420" cy="330" r="6" fill="#FFD700" opacity="0.9"/>
    <circle cx="420" cy="330" r="3" fill="#FFFF00" opacity="0.8"/>
    <circle cx="420" cy="330" r="20" fill="url(#purpleGlow)" class="lily-glow-3"/>
  </g>

  <!-- Golden Daisies -->
  <g class="daisy-group-1" id="daisy-1">
    <line x1="200" y1="430" x2="200" y2="355" stroke="#3d6b3d" stroke-width="2" opacity="0.8"/>
    <circle cx="200" cy="320" r="4" fill="#FFE4B5" opacity="0.9"/>
    <circle cx="212" cy="325" r="4" fill="#FFE4B5" opacity="0.9"/>
    <circle cx="218" cy="337" r="4" fill="#FFE4B5" opacity="0.9"/>
    <circle cx="212" cy="349" r="4" fill="#FFE4B5" opacity="0.9"/>
    <circle cx="200" cy="354" r="4" fill="#FFE4B5" opacity="0.9"/>
    <circle cx="188" cy="349" r="4" fill="#FFE4B5" opacity="0.9"/>
    <circle cx="182" cy="337" r="4" fill="#FFE4B5" opacity="0.9"/>
    <circle cx="188" cy="325" r="4" fill="#FFE4B5" opacity="0.9"/>
    <circle cx="200" cy="337" r="6" fill="#FFD700" opacity="1"/>
    <circle cx="200" cy="337" r="3" fill="#FFA500" opacity="0.8"/>
    <circle cx="200" cy="337" r="18" fill="url(#flowerGlow)" class="daisy-glow-1"/>
  </g>

  <g class="daisy-group-2" id="daisy-2">
    <line x1="360" y1="430" x2="360" y2="360" stroke="#3d6b3d" stroke-width="2" opacity="0.8"/>
    <circle cx="360" cy="325" r="4" fill="#FFE4B5" opacity="0.9"/>
    <circle cx="372" cy="330" r="4" fill="#FFE4B5" opacity="0.9"/>
    <circle cx="378" cy="342" r="4" fill="#FFE4B5" opacity="0.9"/>
    <circle cx="372" cy="354" r="4" fill="#FFE4B5" opacity="0.9"/>
    <circle cx="360" cy="359" r="4" fill="#FFE4B5" opacity="0.9"/>
    <circle cx="348" cy="354" r="4" fill="#FFE4B5" opacity="0.9"/>
    <circle cx="342" cy="342" r="4" fill="#FFE4B5" opacity="0.9"/>
    <circle cx="348" cy="330" r="4" fill="#FFE4B5" opacity="0.9"/>
    <circle cx="360" cy="342" r="6" fill="#FFD700" opacity="1"/>
    <circle cx="360" cy="342" r="3" fill="#FFA500" opacity="0.8"/>
    <circle cx="360" cy="342" r="18" fill="url(#flowerGlow)" class="daisy-glow-2"/>
  </g>

  <g class="daisy-group-3" id="daisy-3">
    <line x1="310" y1="430" x2="310" y2="365" stroke="#3d6b3d" stroke-width="2" opacity="0.8"/>
    <circle cx="310" cy="330" r="4" fill="#FFE4B5" opacity="0.9"/>
    <circle cx="322" cy="335" r="4" fill="#FFE4B5" opacity="0.9"/>
    <circle cx="328" cy="347" r="4" fill="#FFE4B5" opacity="0.9"/>
    <circle cx="322" cy="359" r="4" fill="#FFE4B5" opacity="0.9"/>
    <circle cx="310" cy="364" r="4" fill="#FFE4B5" opacity="0.9"/>
    <circle cx="298" cy="359" r="4" fill="#FFE4B5" opacity="0.9"/>
    <circle cx="292" cy="347" r="4" fill="#FFE4B5" opacity="0.9"/>
    <circle cx="298" cy="335" r="4" fill="#FFE4B5" opacity="0.9"/>
    <circle cx="310" cy="347" r="6" fill="#FFD700" opacity="1"/>
    <circle cx="310" cy="347" r="3" fill="#FFA500" opacity="0.8"/>
    <circle cx="310" cy="347" r="18" fill="url(#flowerGlow)" class="daisy-glow-3"/>
  </g>

  <!-- MAYA CHARACTER -->
  <g id="maya-group">
    <ellipse cx="180" cy="360" rx="22" ry="35" fill="#4BA07D" opacity="0.9"/>
    <line x1="165" y1="345" x2="140" y2="310" stroke="#D4A574" stroke-width="7" stroke-linecap="round" opacity="0.9"/>
    <line x1="195" y1="350" x2="200" y2="380" stroke="#D4A574" stroke-width="7" stroke-linecap="round" opacity="0.9"/>
    <line x1="172" y1="393" x2="168" y2="425" stroke="#D4A574" stroke-width="6" stroke-linecap="round" opacity="0.85"/>
    <line x1="188" y1="393" x2="192" y2="425" stroke="#D4A574" stroke-width="6" stroke-linecap="round" opacity="0.85"/>
    <circle cx="180" cy="305" r="28" fill="#D4A574" filter="url(#shadowFilter)"/>
    <circle cx="180" cy="285" r="30" fill="#4A3728" opacity="0.9"/>
    <path d="M 160 290 Q 150 280 155 265" stroke="#6B5A45" stroke-width="2" fill="none" opacity="0.6"/>
    <path d="M 200 290 Q 210 280 205 265" stroke="#6B5A45" stroke-width="2" fill="none" opacity="0.6"/>
    <g class="braid-left">
      <path d="M 155 295 Q 145 310 140 330" stroke="#4A3728" stroke-width="5" fill="none" stroke-linecap="round" opacity="0.85"/>
      <circle cx="138" cy="340" r="3.5" fill="#8B6914" opacity="0.8"/>
    </g>
    <g class="braid-right">
      <path d="M 205 295 Q 215 310 220 330" stroke="#4A3728" stroke-width="5" fill="none" stroke-linecap="round" opacity="0.85"/>
      <circle cx="222" cy="340" r="3.5" fill="#8B6914" opacity="0.8"/>
    </g>
    <ellipse cx="170" cy="300" rx="4" ry="5" fill="#FFFFFF" opacity="0.95"/>
    <circle cx="170" cy="302" r="2.5" fill="#1A1A1A" opacity="0.9"/>
    <circle cx="172" cy="300" r="1" fill="#FFFFFF" opacity="0.9"/>
    <ellipse cx="190" cy="300" rx="4" ry="5" fill="#FFFFFF" opacity="0.95"/>
    <circle cx="190" cy="302" r="2.5" fill="#1A1A1A" opacity="0.9"/>
    <circle cx="192" cy="300" r="1" fill="#FFFFFF" opacity="0.9"/>
    <path d="M 180 310 L 177 318 L 183 318 Z" fill="#C09060" opacity="0.7"/>
    <path d="M 172 322 Q 180 326 188 322" stroke="#A0704D" stroke-width="1.5" fill="none" stroke-linecap="round" opacity="0.8"/>
    <path d="M 172 322 Q 180 325 188 322" fill="#FFB6C6" opacity="0.3"/>
    <circle cx="158" cy="315" r="5" fill="#FFB6C6" opacity="0.4"/>
    <circle cx="202" cy="315" r="5" fill="#FFB6C6" opacity="0.4"/>
    <circle cx="175" cy="355" r="3" fill="#FFB6D9" opacity="0.6"/>
    <circle cx="185" cy="360" r="3" fill="#FFB6D9" opacity="0.6"/>
    <circle cx="180" cy="370" r="3" fill="#FFB6D9" opacity="0.6"/>
    <g id="reaching-hand">
      <circle cx="135" cy="305" r="5.5" fill="#D4A574" opacity="0.9"/>
      <line x1="133" y1="300" x2="130" y2="295" stroke="#D4A574" stroke-width="1.5" stroke-linecap="round" opacity="0.8"/>
      <line x1="135" y1="299" x2="135" y2="293" stroke="#D4A574" stroke-width="1.5" stroke-linecap="round" opacity="0.8"/>
      <line x1="137" y1="300" x2="140" y2="295" stroke="#D4A574" stroke-width="1.5" stroke-linecap="round" opacity="0.8"/>
    </g>
  </g>

  <!-- Magical Butterflies -->
  <g class="butterfly1-group" id="butterfly-1">
    <ellipse cx="80" cy="160" rx="1.5" ry="4" fill="#4A3728" opacity="0.9"/>
    <path d="M 80 156 Q 76 150 74 145" stroke="#4A3728" stroke-width="1" fill="none" opacity="0.8" stroke-linecap="round"/>
    <path d="M 80 156 Q 84 150 86 145" stroke="#4A3728" stroke-width="1" fill="none" opacity="0.8" stroke-linecap="round"/>
    <g class="butterfly1-wings">
      <ellipse cx="70" cy="160" rx="10" ry="16" fill="#9370DB" opacity="0.8"/>
      <circle cx="68" cy="155" r="3" fill="#6A5ACD" opacity="0.7"/>
      <circle cx="72" cy="165" r="2.5" fill="#6A5ACD" opacity="0.7"/>
      <circle cx="70" cy="172" r="2" fill="#BA9FD9" opacity="0.6"/>
      <ellipse cx="90" cy="160" rx="10" ry="16" fill="#9370DB" opacity="0.8"/>
      <circle cx="92" cy="155" r="3" fill="#6A5ACD" opacity="0.7"/>
      <circle cx="88" cy="165" r="2.5" fill="#6A5ACD" opacity="0.7"/>
      <circle cx="90" cy="172" r="2" fill="#BA9FD9" opacity="0.6"/>
    </g>
  </g>

  <g class="butterfly2-group" id="butterfly-2">
    <ellipse cx="350" cy="220" rx="1.5" ry="4" fill="#4A3728" opacity="0.9"/>
    <path d="M 350 216 Q 346 210 344 205" stroke="#4A3728" stroke-width="1" fill="none" opacity="0.8" stroke-linecap="round"/>
    <path d="M 350 216 Q 354 210 356 205" stroke="#4A3728" stroke-width="1" fill="none" opacity="0.8" stroke-linecap="round"/>
    <g class="butterfly2-wings">
      <ellipse cx="340" cy="220" rx="10" ry="16" fill="#FF69B4" opacity="0.8"/>
      <circle cx="338" cy="215" r="3" fill="#FF1493" opacity="0.7"/>
      <circle cx="342" cy="225" r="2.5" fill="#FF1493" opacity="0.7"/>
      <circle cx="340" cy="232" r="2" fill="#FFB6D9" opacity="0.6"/>
      <ellipse cx="360" cy="220" rx="10" ry="16" fill="#FF69B4" opacity="0.8"/>
      <circle cx="362" cy="215" r="3" fill="#FF1493" opacity="0.7"/>
      <circle cx="358" cy="225" r="2.5" fill="#FF1493" opacity="0.7"/>
      <circle cx="360" cy="232" r="2" fill="#FFB6D9" opacity="0.6"/>
    </g>
  </g>

  <g class="butterfly3-group" id="butterfly-3">
    <ellipse cx="130" cy="280" rx="1.5" ry="4" fill="#4A3728" opacity="0.9"/>
    <path d="M 130 276 Q 126 270 124 265" stroke="#4A3728" stroke-width="1" fill="none" opacity="0.8" stroke-linecap="round"/>
    <path d="M 130 276 Q 134 270 136 265" stroke="#4A3728" stroke-width="1" fill="none" opacity="0.8" stroke-linecap="round"/>
    <g class="butterfly3-wings">
      <ellipse cx="120" cy="280" rx="10" ry="16" fill="#FFD700" opacity="0.85"/>
      <circle cx="118" cy="275" r="3" fill="#FFA500" opacity="0.75"/>
      <circle cx="122" cy="285" r="2.5" fill="#FFA500" opacity="0.75"/>
      <circle cx="120" cy="292" r="2" fill="#FFED4E" opacity="0.65"/>
      <ellipse cx="140" cy="280" rx="10" ry="16" fill="#FFD700" opacity="0.85"/>
      <circle cx="142" cy="275" r="3" fill="#FFA500" opacity="0.75"/>
      <circle cx="138" cy="285" r="2.5" fill="#FFA500" opacity="0.75"/>
      <circle cx="140" cy="292" r="2" fill="#FFED4E" opacity="0.65"/>
    </g>
  </g>

  <!-- Glowing flower near Maya's hand -->
  <g id="special-flower">
    <circle cx="110" cy="280" r="32" fill="url(#flowerGlow)" opacity="0.4"/>
    <line x1="110" y1="310" x2="110" y2="245" stroke="#3d6b3d" stroke-width="2.5" opacity="0.8"/>
    <path d="M 108 270 Q 100 268 98 278" stroke="#3d6b3d" stroke-width="1.5" fill="none" opacity="0.6"/>
    <ellipse cx="98" cy="275" rx="7" ry="12" fill="#5a9a5a" opacity="0.8" transform="rotate(-35 98 275)"/>
    <circle cx="110" cy="245" r="6" fill="#FFD700" opacity="0.9"/>
    <circle cx="125" cy="255" r="6" fill="#FFD700" opacity="0.9"/>
    <circle cx="130" cy="272" r="6" fill="#FFD700" opacity="0.9"/>
    <circle cx="125" cy="289" r="6" fill="#FFD700" opacity="0.9"/>
    <circle cx="110" cy="299" r="6" fill="#FFD700" opacity="0.9"/>
    <circle cx="95" cy="289" r="6" fill="#FFD700" opacity="0.9"/>
    <circle cx="90" cy="272" r="6" fill="#FFD700" opacity="0.9"/>
    <circle cx="95" cy="255" r="6" fill="#FFD700" opacity="0.9"/>
    <circle cx="110" cy="250" r="4.5" fill="#FF69B4" opacity="0.8"/>
    <circle cx="122" cy="260" r="4.5" fill="#FF69B4" opacity="0.8"/>
    <circle cx="127" cy="272" r="4.5" fill="#FF69B4" opacity="0.8"/>
    <circle cx="122" cy="284" r="4.5" fill="#FF69B4" opacity="0.8"/>
    <circle cx="110" cy="294" r="4.5" fill="#FF69B4" opacity="0.8"/>
    <circle cx="98" cy="284" r="4.5" fill="#FF69B4" opacity="0.8"/>
    <circle cx="93" cy="272" r="4.5" fill="#FF69B4" opacity="0.8"/>
    <circle cx="98" cy="260" r="4.5" fill="#FF69B4" opacity="0.8"/>
    <circle cx="110" cy="272" r="8" fill="#FFF4D9" opacity="0.95"/>
    <circle cx="110" cy="272" r="4" fill="#FFD700" opacity="0.9"/>
  </g>

</svg>
