<svg viewBox="0 0 512 512" xmlns="http://www.w3.org/2000/svg">
  <defs>
    <!-- Sky gradient: deep midnight blue-purple -->
    <linearGradient id="ig-skyGradient" x1="0%" y1="0%" x2="0%" y2="100%">
      <stop offset="0%" stop-color="#0a0a28" stop-opacity="1"/>
      <stop offset="40%" stop-color="#151540" stop-opacity="1"/>
      <stop offset="75%" stop-color="#202060" stop-opacity="1"/>
      <stop offset="100%" stop-color="#1a1a50" stop-opacity="1"/>
    </linearGradient>

    <!-- Moon glow gradient -->
    <radialGradient id="ig-moonGlow" cx="50%" cy="50%" r="50%">
      <stop offset="0%" stop-color="#e0f4ff" stop-opacity="0.9"/>
      <stop offset="40%" stop-color="#a0d8f0" stop-opacity="0.4"/>
      <stop offset="100%" stop-color="#6644aa" stop-opacity="0"/>
    </radialGradient>

    <!-- Moon surface gradient -->
    <radialGradient id="ig-moonSurface" cx="35%" cy="35%" r="65%">
      <stop offset="0%" stop-color="#ffffff" stop-opacity="1"/>
      <stop offset="50%" stop-color="#e0f4ff" stop-opacity="1"/>
      <stop offset="100%" stop-color="#c0e8ff" stop-opacity="1"/>
    </radialGradient>

    <!-- Crystal flower glow -->
    <radialGradient id="ig-crystalGlow" cx="50%" cy="50%" r="50%">
      <stop offset="0%" stop-color="#aaddff" stop-opacity="0.8"/>
      <stop offset="60%" stop-color="#88ccff" stop-opacity="0.3"/>
      <stop offset="100%" stop-color="#88ccff" stop-opacity="0"/>
    </radialGradient>

    <!-- Ice ground gradient -->
    <linearGradient id="ig-groundGradient" x1="0%" y1="0%" x2="0%" y2="100%">
      <stop offset="0%" stop-color="#1a2060" stop-opacity="1"/>
      <stop offset="40%" stop-color="#151845" stop-opacity="1"/>
      <stop offset="100%" stop-color="#0e0e30" stop-opacity="1"/>
    </linearGradient>

    <!-- Frozen tree gradient -->
    <linearGradient id="ig-treeGradient" x1="0%" y1="0%" x2="100%" y2="100%">
      <stop offset="0%" stop-color="#6644aa" stop-opacity="0.7"/>
      <stop offset="50%" stop-color="#8866cc" stop-opacity="0.5"/>
      <stop offset="100%" stop-color="#a0d8f0" stop-opacity="0.3"/>
    </linearGradient>

    <!-- Ice tree foliage -->
    <radialGradient id="ig-iceFoliage" cx="50%" cy="50%" r="50%">
      <stop offset="0%" stop-color="#c0e8ff" stop-opacity="0.6"/>
      <stop offset="60%" stop-color="#88ccff" stop-opacity="0.4"/>
      <stop offset="100%" stop-color="#6644aa" stop-opacity="0.2"/>
    </radialGradient>

    <!-- Rainbow beam gradient -->
    <linearGradient id="ig-rainbowBeam" x1="0%" y1="0%" x2="100%" y2="100%">
      <stop offset="0%" stop-color="#ff6b8a" stop-opacity="0.15"/>
      <stop offset="25%" stop-color="#ffaa44" stop-opacity="0.12"/>
      <stop offset="50%" stop-color="#44ff88" stop-opacity="0.12"/>
      <stop offset="75%" stop-color="#4488ff" stop-opacity="0.15"/>
      <stop offset="100%" stop-color="#8866cc" stop-opacity="0.1"/>
    </linearGradient>

    <!-- Character warmth glow -->
    <radialGradient id="ig-charGlow" cx="50%" cy="50%" r="50%">
      <stop offset="0%" stop-color="#c0e8ff" stop-opacity="0.25"/>
      <stop offset="100%" stop-color="#6644aa" stop-opacity="0"/>
    </radialGradient>

    <!-- Vignette -->
    <radialGradient id="ig-vignette">
      <stop offset="45%" stop-color="#000000" stop-opacity="0"/>
      <stop offset="100%" stop-color="#000000" stop-opacity="0.55"/>
    </radialGradient>

    <!-- Skin tone gradient -->
    <radialGradient id="ig-skinTone" cx="45%" cy="40%" r="55%">
      <stop offset="0%" stop-color="#f4b5a0" stop-opacity="1"/>
      <stop offset="100%" stop-color="#d4a574" stop-opacity="1"/>
    </radialGradient>

    <!-- Jacket gradient -->
    <linearGradient id="ig-jacketGrad" x1="0%" y1="0%" x2="0%" y2="100%">
      <stop offset="0%" stop-color="#4466aa" stop-opacity="1"/>
      <stop offset="100%" stop-color="#334488" stop-opacity="1"/>
    </linearGradient>

    <!-- Iris gradient -->
    <radialGradient id="ig-irisGradient" cx="45%" cy="40%" r="55%">
      <stop offset="0%" stop-color="#6b4f2a" stop-opacity="1"/>
      <stop offset="100%" stop-color="#3d2817" stop-opacity="1"/>
    </radialGradient>

    <!-- Soft glow filter -->
    <filter id="ig-softGlow">
      <feGaussianBlur stdDeviation="2" result="blur"/>
      <feMerge>
        <feMergeNode in="blur"/>
        <feMergeNode in="SourceGraphic"/>
      </feMerge>
    </filter>

    <!-- Medium glow filter -->
    <filter id="ig-mediumGlow">
      <feGaussianBlur stdDeviation="4" result="blur"/>
      <feMerge>
        <feMergeNode in="blur"/>
        <feMergeNode in="SourceGraphic"/>
      </feMerge>
    </filter>

    <!-- Strong glow filter -->
    <filter id="ig-strongGlow">
      <feGaussianBlur stdDeviation="6" result="blur"/>
      <feMerge>
        <feMergeNode in="blur"/>
        <feMergeNode in="SourceGraphic"/>
      </feMerge>
    </filter>
  </defs>

  <style>
    /* 1) Crystal flower pulse/refraction */
    @keyframes ig-crystalPulse {
      0%, 100% { transform: scale(1); opacity: 0.85; }
      50% { transform: scale(1.08); opacity: 1; }
    }
    @keyframes ig-crystalRefract {
      0%, 100% { opacity: 0.3; }
      30% { opacity: 0.7; }
      60% { opacity: 0.4; }
      80% { opacity: 0.9; }
    }

    /* 2) Ice sparkle twinkle */
    @keyframes ig-sparkleTwinkle {
      0%, 100% { opacity: 0.2; transform: scale(0.8); }
      50% { opacity: 1; transform: scale(1.2); }
    }

    /* 3) Moon glow pulse */
    @keyframes ig-moonPulse {
      0%, 100% { opacity: 0.6; }
      50% { opacity: 0.85; }
    }

    /* 4) Boy breathing sway */
    @keyframes ig-boySway {
      0%, 100% { transform: translateY(0px) scale(1); }
      50% { transform: translateY(-2px) scale(1.015); }
    }

    /* 5) Frozen tree shimmer */
    @keyframes ig-treeShimmer {
      0%, 100% { opacity: 0.5; filter: brightness(1); }
      33% { opacity: 0.7; filter: brightness(1.15); }
      66% { opacity: 0.55; filter: brightness(1.05); }
    }

    /* 6) Rainbow light beam sweep */
    @keyframes ig-rainbowSweep {
      0% { transform: translateX(-60px) rotate(-5deg); opacity: 0; }
      15% { opacity: 0.6; }
      50% { transform: translateX(30px) rotate(2deg); opacity: 0.5; }
      85% { opacity: 0.6; }
      100% { transform: translateX(-60px) rotate(-5deg); opacity: 0; }
    }

    /* 7) Distant star twinkle */
    @keyframes ig-starTwinkle {
      0%, 100% { opacity: 0.3; }
      50% { opacity: 0.9; }
    }

    /* 8) Ice crystal float */
    @keyframes ig-crystalFloat {
      0%, 100% { transform: translateY(0px); }
      50% { transform: translateY(-6px); }
    }

    /* 9) Scarf flutter */
    @keyframes ig-scarfFlutter {
      0%, 100% { transform: rotate(0deg); }
      25% { transform: rotate(2deg); }
      75% { transform: rotate(-2deg); }
    }

    /* 10) Eye blink */
    @keyframes ig-eyeBlink {
      0%, 42%, 48%, 100% { transform: scaleY(1); }
      45% { transform: scaleY(0.05); }
    }

    /* 11) Ground ice shimmer */
    @keyframes ig-groundShimmer {
      0%, 100% { opacity: 0.15; }
      50% { opacity: 0.35; }
    }

    /* Animation assignments */

    /* Crystal flowers - staggered pulse */
    .ig-crystal-flower-1 {
      animation: ig-crystalPulse 3s ease-in-out infinite;
      transform-origin: center bottom;
    }
    .ig-crystal-flower-2 {
      animation: ig-crystalPulse 3.2s ease-in-out infinite 0.5s;
      transform-origin: center bottom;
    }
    .ig-crystal-flower-3 {
      animation: ig-crystalPulse 2.8s ease-in-out infinite 1.0s;
      transform-origin: center bottom;
    }
    .ig-crystal-flower-4 {
      animation: ig-crystalPulse 3.4s ease-in-out infinite 1.5s;
      transform-origin: center bottom;
    }
    .ig-crystal-flower-5 {
      animation: ig-crystalPulse 3.1s ease-in-out infinite 0.8s;
      transform-origin: center bottom;
    }

    /* Crystal refraction colors on flowers */
    .ig-refract-1 { animation: ig-crystalRefract 2.5s ease-in-out infinite; }
    .ig-refract-2 { animation: ig-crystalRefract 2.8s ease-in-out infinite 0.6s; }
    .ig-refract-3 { animation: ig-crystalRefract 2.3s ease-in-out infinite 1.2s; }
    .ig-refract-4 { animation: ig-crystalRefract 2.6s ease-in-out infinite 0.3s; }

    /* Ice sparkles - 10 sparkles staggered */
    .ig-sparkle-1 { animation: ig-sparkleTwinkle 2s ease-in-out infinite; }
    .ig-sparkle-2 { animation: ig-sparkleTwinkle 1.8s ease-in-out infinite 0.3s; }
    .ig-sparkle-3 { animation: ig-sparkleTwinkle 2.2s ease-in-out infinite 0.7s; }
    .ig-sparkle-4 { animation: ig-sparkleTwinkle 1.9s ease-in-out infinite 1.1s; }
    .ig-sparkle-5 { animation: ig-sparkleTwinkle 2.1s ease-in-out infinite 0.5s; }
    .ig-sparkle-6 { animation: ig-sparkleTwinkle 1.7s ease-in-out infinite 1.4s; }
    .ig-sparkle-7 { animation: ig-sparkleTwinkle 2.3s ease-in-out infinite 0.2s; }
    .ig-sparkle-8 { animation: ig-sparkleTwinkle 2.0s ease-in-out infinite 0.9s; }
    .ig-sparkle-9 { animation: ig-sparkleTwinkle 1.6s ease-in-out infinite 1.6s; }
    .ig-sparkle-10 { animation: ig-sparkleTwinkle 2.4s ease-in-out infinite 1.8s; }

    /* Moon glow */
    .ig-moon-glow { animation: ig-moonPulse 4s ease-in-out infinite; }

    /* Boy character */
    .ig-boy-group {
      animation: ig-boySway 5s ease-in-out infinite;
      transform-origin: 256px 380px;
    }

    /* Boy eyelids */
    .ig-eyelid {
      animation: ig-eyeBlink 5s ease-in-out infinite;
      transform-origin: center center;
    }

    /* Scarf */
    .ig-scarf {
      animation: ig-scarfFlutter 4.5s ease-in-out infinite;
      transform-origin: 256px 340px;
    }

    /* Frozen trees shimmer */
    .ig-tree-left {
      animation: ig-treeShimmer 6s ease-in-out infinite;
    }
    .ig-tree-right {
      animation: ig-treeShimmer 6.5s ease-in-out infinite 1s;
    }
    .ig-tree-far {
      animation: ig-treeShimmer 7s ease-in-out infinite 2s;
    }

    /* Rainbow beam sweep */
    .ig-rainbow-beam {
      animation: ig-rainbowSweep 9s ease-in-out infinite;
      transform-origin: 380px 80px;
    }

    /* Stars */
    .ig-star-1 { animation: ig-starTwinkle 3s ease-in-out infinite; }
    .ig-star-2 { animation: ig-starTwinkle 3.5s ease-in-out infinite 0.5s; }
    .ig-star-3 { animation: ig-starTwinkle 2.8s ease-in-out infinite 1.2s; }
    .ig-star-4 { animation: ig-starTwinkle 3.2s ease-in-out infinite 0.8s; }
    .ig-star-5 { animation: ig-starTwinkle 2.6s ease-in-out infinite 1.5s; }
    .ig-star-6 { animation: ig-starTwinkle 3.3s ease-in-out infinite 0.3s; }

    /* Floating ice crystals */
    .ig-float-crystal-1 {
      animation: ig-crystalFloat 4s ease-in-out infinite;
    }
    .ig-float-crystal-2 {
      animation: ig-crystalFloat 4.5s ease-in-out infinite 1s;
    }
    .ig-float-crystal-3 {
      animation: ig-crystalFloat 3.8s ease-in-out infinite 2s;
    }

    /* Ground shimmer patches */
    .ig-ground-shimmer-1 { animation: ig-groundShimmer 3.5s ease-in-out infinite; }
    .ig-ground-shimmer-2 { animation: ig-groundShimmer 4s ease-in-out infinite 0.8s; }
    .ig-ground-shimmer-3 { animation: ig-groundShimmer 3.2s ease-in-out infinite 1.5s; }
  </style>

  <!-- ============================================ -->
  <!-- LAYER 1: Background sky/atmosphere           -->
  <!-- ============================================ -->
  <rect width="512" height="512" fill="url(#ig-skyGradient)"/>

  <!-- Subtle aurora/atmospheric glow at top -->
  <ellipse cx="256" cy="60" rx="280" ry="120" fill="#6644aa" opacity="0.08"/>
  <ellipse cx="180" cy="40" rx="200" ry="80" fill="#8866cc" opacity="0.06"/>

  <!-- Stars -->
  <circle cx="60" cy="45" r="1.2" fill="#ffffff" class="ig-star-1"/>
  <circle cx="145" cy="28" r="1" fill="#e0f4ff" class="ig-star-2"/>
  <circle cx="310" cy="55" r="1.3" fill="#ffffff" class="ig-star-3"/>
  <circle cx="420" cy="30" r="0.9" fill="#c0e8ff" class="ig-star-4"/>
  <circle cx="470" cy="72" r="1.1" fill="#ffffff" class="ig-star-5"/>
  <circle cx="35" cy="100" r="1" fill="#aaddff" class="ig-star-6"/>
  <circle cx="200" cy="15" r="0.8" fill="#ffffff" opacity="0.5"/>
  <circle cx="350" cy="20" r="0.7" fill="#c0e8ff" opacity="0.4"/>
  <circle cx="90" cy="75" r="0.6" fill="#ffffff" opacity="0.45"/>
  <circle cx="480" cy="50" r="0.7" fill="#e0f4ff" opacity="0.5"/>

  <!-- ============================================ -->
  <!-- LAYER 2: Moon and moonlight                  -->
  <!-- ============================================ -->

  <!-- Moon outer glow -->
  <circle cx="385" cy="85" r="70" fill="url(#ig-moonGlow)" filter="url(#ig-strongGlow)" class="ig-moon-glow"/>

  <!-- Moon body -->
  <circle cx="385" cy="85" r="32" fill="url(#ig-moonSurface)" filter="url(#ig-softGlow)"/>
  <!-- Moon craters -->
  <circle cx="375" cy="78" r="4" fill="#c0e8ff" opacity="0.3"/>
  <circle cx="392" cy="92" r="3" fill="#c0e8ff" opacity="0.25"/>
  <circle cx="380" cy="96" r="2.5" fill="#c0e8ff" opacity="0.2"/>

  <!-- Moonlight beam cone -->
  <polygon points="385,117 180,440 490,440" fill="#c0e8ff" opacity="0.04"/>
  <polygon points="385,117 220,440 450,440" fill="#e0f4ff" opacity="0.03"/>

  <!-- ============================================ -->
  <!-- LAYER 3: Far background frozen trees         -->
  <!-- ============================================ -->

  <!-- Far left frozen tree silhouette -->
  <g class="ig-tree-far" opacity="0.25">
    <rect x="55" y="180" width="8" height="150" rx="3" fill="#6644aa"/>
    <ellipse cx="59" cy="175" rx="30" ry="45" fill="url(#ig-iceFoliage)"/>
    <ellipse cx="59" cy="160" rx="22" ry="35" fill="#88ccff" opacity="0.2"/>
    <!-- Ice crystals on far tree -->
    <polygon points="59,130 55,148 63,148" fill="#c0e8ff" opacity="0.3"/>
    <polygon points="45,165 42,178 48,178" fill="#aaddff" opacity="0.25"/>
  </g>

  <!-- Far right frozen tree silhouette -->
  <g opacity="0.2">
    <rect x="440" y="200" width="7" height="130" rx="3" fill="#6644aa"/>
    <ellipse cx="443" cy="195" rx="25" ry="40" fill="url(#ig-iceFoliage)"/>
    <ellipse cx="443" cy="182" rx="18" ry="28" fill="#88ccff" opacity="0.2"/>
  </g>

  <!-- Far center-right tree -->
  <g opacity="0.18">
    <rect x="380" y="210" width="6" height="110" rx="3" fill="#8866cc"/>
    <ellipse cx="383" cy="205" rx="20" ry="35" fill="url(#ig-iceFoliage)"/>
  </g>

  <!-- ============================================ -->
  <!-- LAYER 4: Mid-ground ice garden elements      -->
  <!-- ============================================ -->

  <!-- Frozen ground / ice garden floor -->
  <ellipse cx="256" cy="430" rx="280" ry="100" fill="url(#ig-groundGradient)"/>
  <!-- Ice surface reflections -->
  <ellipse cx="200" cy="420" rx="80" ry="12" fill="#88ccff" opacity="0.08" class="ig-ground-shimmer-1"/>
  <ellipse cx="340" cy="435" rx="60" ry="10" fill="#a0d8f0" opacity="0.07" class="ig-ground-shimmer-2"/>
  <ellipse cx="130" cy="445" rx="50" ry="8" fill="#aaddff" opacity="0.06" class="ig-ground-shimmer-3"/>

  <!-- Left frozen tree - mid-ground -->
  <g class="ig-tree-left">
    <rect x="80" y="260" width="12" height="170" rx="4" fill="url(#ig-treeGradient)"/>
    <!-- Ice coating on trunk -->
    <rect x="82" y="260" width="4" height="170" rx="2" fill="#c0e8ff" opacity="0.15"/>
    <!-- Branches -->
    <line x1="86" y1="290" x2="55" y2="265" stroke="#8866cc" stroke-width="4" stroke-linecap="round" opacity="0.6"/>
    <line x1="86" y1="310" x2="115" y2="280" stroke="#8866cc" stroke-width="3.5" stroke-linecap="round" opacity="0.6"/>
    <line x1="86" y1="335" x2="50" y2="315" stroke="#8866cc" stroke-width="3" stroke-linecap="round" opacity="0.5"/>
    <!-- Ice foliage -->
    <ellipse cx="86" cy="255" rx="40" ry="55" fill="url(#ig-iceFoliage)" opacity="0.7"/>
    <ellipse cx="86" cy="240" rx="30" ry="40" fill="#a0d8f0" opacity="0.15"/>
    <!-- Ice crystals hanging from branches -->
    <polygon points="58,268 55,280 61,280" fill="#e0f4ff" opacity="0.5"/>
    <polygon points="112,283 109,294 115,294" fill="#c0e8ff" opacity="0.45"/>
    <polygon points="52,318 49,328 55,328" fill="#aaddff" opacity="0.4"/>
  </g>

  <!-- Right frozen tree - mid-ground -->
  <g class="ig-tree-right">
    <rect x="400" y="280" width="11" height="150" rx="4" fill="url(#ig-treeGradient)"/>
    <rect x="402" y="280" width="3.5" height="150" rx="2" fill="#c0e8ff" opacity="0.15"/>
    <!-- Branches -->
    <line x1="405" y1="305" x2="435" y2="280" stroke="#8866cc" stroke-width="3.5" stroke-linecap="round" opacity="0.6"/>
    <line x1="405" y1="325" x2="375" y2="300" stroke="#8866cc" stroke-width="3" stroke-linecap="round" opacity="0.55"/>
    <line x1="405" y1="350" x2="430" y2="335" stroke="#8866cc" stroke-width="2.5" stroke-linecap="round" opacity="0.5"/>
    <!-- Ice foliage -->
    <ellipse cx="405" cy="275" rx="35" ry="48" fill="url(#ig-iceFoliage)" opacity="0.65"/>
    <ellipse cx="405" cy="262" rx="25" ry="35" fill="#a0d8f0" opacity="0.15"/>
    <!-- Hanging crystals -->
    <polygon points="433,283 430,295 436,295" fill="#e0f4ff" opacity="0.45"/>
    <polygon points="377,303 374,313 380,313" fill="#c0e8ff" opacity="0.4"/>
  </g>

  <!-- Rainbow light beam from moon -->
  <g class="ig-rainbow-beam">
    <rect x="300" y="100" width="90" height="350" rx="20" fill="url(#ig-rainbowBeam)" transform="rotate(-12, 345, 275)"/>
  </g>

  <!-- Ice sculpture 1 - frozen bird on left -->
  <g opacity="0.55">
    <ellipse cx="155" cy="370" rx="14" ry="10" fill="#c0e8ff" opacity="0.5"/>
    <circle cx="150" cy="362" r="8" fill="#e0f4ff" opacity="0.45"/>
    <polygon points="150,354 148,348 152,348" fill="#aaddff" opacity="0.5"/>
    <!-- Wing shape -->
    <path d="M158,365 Q170,355 165,370" fill="#c0e8ff" opacity="0.4" stroke="#e0f4ff" stroke-width="0.5"/>
  </g>

  <!-- Ice sculpture 2 - frozen deer silhouette on right -->
  <g opacity="0.45">
    <ellipse cx="370" cy="378" rx="16" ry="11" fill="#c0e8ff" opacity="0.4"/>
    <ellipse cx="363" cy="368" rx="7" ry="9" fill="#e0f4ff" opacity="0.4"/>
    <!-- Antlers -->
    <line x1="361" y1="360" x2="355" y2="345" stroke="#aaddff" stroke-width="1.5" stroke-linecap="round" opacity="0.5"/>
    <line x1="355" y1="349" x2="348" y2="342" stroke="#aaddff" stroke-width="1" stroke-linecap="round" opacity="0.4"/>
    <line x1="355" y1="352" x2="360" y2="343" stroke="#aaddff" stroke-width="1" stroke-linecap="round" opacity="0.4"/>
    <!-- Legs -->
    <line x1="362" y1="388" x2="360" y2="400" stroke="#c0e8ff" stroke-width="1.5" stroke-linecap="round" opacity="0.4"/>
    <line x1="378" y1="388" x2="380" y2="400" stroke="#c0e8ff" stroke-width="1.5" stroke-linecap="round" opacity="0.4"/>
  </g>

  <!-- Crystal flowers cluster left -->
  <g class="ig-crystal-flower-1">
    <line x1="185" y1="420" x2="185" y2="390" stroke="#88ccff" stroke-width="2" stroke-linecap="round" opacity="0.6"/>
    <polygon points="185,390 178,380 185,370 192,380" fill="#aaddff" opacity="0.7"/>
    <polygon points="185,390 180,382 185,374 190,382" fill="#e0f4ff" opacity="0.5"/>
    <circle cx="185" cy="378" r="6" fill="url(#ig-crystalGlow)" filter="url(#ig-softGlow)"/>
    <!-- Refraction color -->
    <circle cx="183" cy="376" r="2" fill="#ff6b8a" opacity="0.3" class="ig-refract-1"/>
  </g>

  <g class="ig-crystal-flower-2">
    <line x1="210" y1="425" x2="210" y2="398" stroke="#88ccff" stroke-width="1.8" stroke-linecap="round" opacity="0.55"/>
    <polygon points="210,398 204,389 210,380 216,389" fill="#c0e8ff" opacity="0.65"/>
    <polygon points="210,398 206,391 210,383 214,391" fill="#e0f4ff" opacity="0.45"/>
    <circle cx="210" cy="387" r="5.5" fill="url(#ig-crystalGlow)" filter="url(#ig-softGlow)"/>
    <circle cx="212" cy="385" r="1.8" fill="#44ff88" opacity="0.3" class="ig-refract-2"/>
  </g>

  <!-- Crystal flowers cluster right -->
  <g class="ig-crystal-flower-3">
    <line x1="320" y1="418" x2="320" y2="385" stroke="#88ccff" stroke-width="2" stroke-linecap="round" opacity="0.6"/>
    <polygon points="320,385 313,375 320,365 327,375" fill="#aaddff" opacity="0.7"/>
    <polygon points="320,385 315,377 320,369 325,377" fill="#e0f4ff" opacity="0.5"/>
    <circle cx="320" cy="373" r="6" fill="url(#ig-crystalGlow)" filter="url(#ig-softGlow)"/>
    <circle cx="318" cy="371" r="2" fill="#4488ff" opacity="0.3" class="ig-refract-3"/>
  </g>

  <g class="ig-crystal-flower-4">
    <line x1="345" y1="422" x2="345" y2="395" stroke="#88ccff" stroke-width="1.8" stroke-linecap="round" opacity="0.55"/>
    <polygon points="345,395 339,387 345,378 351,387" fill="#c0e8ff" opacity="0.65"/>
    <polygon points="345,395 341,389 345,381 349,389" fill="#e0f4ff" opacity="0.45"/>
    <circle cx="345" cy="384" r="5.5" fill="url(#ig-crystalGlow)" filter="url(#ig-softGlow)"/>
    <circle cx="347" cy="382" r="1.8" fill="#ffaa44" opacity="0.3" class="ig-refract-4"/>
  </g>

  <!-- Center crystal flower (larger, prominent) -->
  <g class="ig-crystal-flower-5">
    <line x1="265" y1="430" x2="265" y2="392" stroke="#88ccff" stroke-width="2.2" stroke-linecap="round" opacity="0.65"/>
    <polygon points="265,392 256,380 265,367 274,380" fill="#aaddff" opacity="0.75"/>
    <polygon points="265,392 259,382 265,372 271,382" fill="#e0f4ff" opacity="0.55"/>
    <polygon points="265,392 262,385 265,377 268,385" fill="#ffffff" opacity="0.3"/>
    <circle cx="265" cy="376" r="7" fill="url(#ig-crystalGlow)" filter="url(#ig-mediumGlow)"/>
    <circle cx="263" cy="374" r="2.5" fill="#ff6b8a" opacity="0.25" class="ig-refract-1"/>
    <circle cx="267" cy="378" r="1.5" fill="#44ff88" opacity="0.25" class="ig-refract-3"/>
  </g>

  <!-- Small ice flower clusters (background) -->
  <g opacity="0.4">
    <line x1="140" y1="440" x2="140" y2="425" stroke="#88ccff" stroke-width="1.2" stroke-linecap="round"/>
    <polygon points="140,425 136,419 140,413 144,419" fill="#c0e8ff" opacity="0.5"/>
  </g>
  <g opacity="0.35">
    <line x1="390" y1="438" x2="390" y2="422" stroke="#88ccff" stroke-width="1.2" stroke-linecap="round"/>
    <polygon points="390,422 387,417 390,411 393,417" fill="#c0e8ff" opacity="0.5"/>
  </g>
  <g opacity="0.3">
    <line x1="290" y1="442" x2="290" y2="430" stroke="#88ccff" stroke-width="1" stroke-linecap="round"/>
    <polygon points="290,430 287,425 290,420 293,425" fill="#aaddff" opacity="0.45"/>
  </g>

  <!-- Frozen garden archway/ice formation -->
  <path d="M160,350 Q256,230 352,350" fill="none" stroke="#c0e8ff" stroke-width="3" opacity="0.2"/>
  <path d="M165,350 Q256,240 347,350" fill="none" stroke="#e0f4ff" stroke-width="1.5" opacity="0.12"/>

  <!-- ============================================ -->
  <!-- LAYER 5: Primary character - Nayak           -->
  <!-- ============================================ -->

  <!-- Character warm glow aura -->
  <circle cx="256" cy="365" r="55" fill="url(#ig-charGlow)"/>

  <g class="ig-boy-group">
    <!-- Shadow under character -->
    <ellipse cx="256" cy="430" rx="25" ry="5" fill="#0a0a28" opacity="0.4"/>

    <!-- Legs -->
    <rect x="245" y="405" width="8" height="25" rx="3" fill="#334466"/>
    <rect x="259" y="405" width="8" height="25" rx="3" fill="#334466"/>
    <!-- Boots -->
    <ellipse cx="249" cy="430" rx="7" ry="4" fill="#2a2a44"/>
    <ellipse cx="263" cy="430" rx="7" ry="4" fill="#2a2a44"/>
    <!-- Boot ice/snow detail -->
    <ellipse cx="249" cy="429" rx="5" ry="2" fill="#c0e8ff" opacity="0.15"/>
    <ellipse cx="263" cy="429" rx="5" ry="2" fill="#c0e8ff" opacity="0.15"/>

    <!-- Body / jacket -->
    <rect x="238" y="355" width="36" height="55" rx="12" fill="url(#ig-jacketGrad)"/>
    <!-- Jacket zipper line -->
    <line x1="256" y1="360" x2="256" y2="408" stroke="#2a3a66" stroke-width="1" opacity="0.5"/>
    <!-- Jacket collar -->
    <path d="M242,358 Q256,350 270,358" fill="#5577bb" opacity="0.8"/>

    <!-- Arms -->
    <!-- Left arm (slightly out in wonder) -->
    <path d="M238,370 Q225,380 220,395" stroke="url(#ig-jacketGrad)" stroke-width="8" stroke-linecap="round" fill="none"/>
    <!-- Right arm (slightly raised) -->
    <path d="M274,370 Q288,375 293,388" stroke="url(#ig-jacketGrad)" stroke-width="8" stroke-linecap="round" fill="none"/>
    <!-- Mittens -->
    <circle cx="218" cy="397" r="5" fill="#cc4444"/>
    <circle cx="295" cy="390" r="5" fill="#cc4444"/>

    <!-- Scarf -->
    <g class="ig-scarf">
      <path d="M244,348 Q256,355 268,348" fill="#cc4444" stroke="#aa3333" stroke-width="0.5"/>
      <path d="M246,348 L242,370 L248,370 L250,350" fill="#cc4444" opacity="0.9"/>
      <line x1="244" y1="354" x2="248" y2="354" stroke="#dd5555" stroke-width="1.5" opacity="0.6"/>
      <line x1="243" y1="360" x2="247" y2="360" stroke="#dd5555" stroke-width="1.5" opacity="0.6"/>
    </g>

    <!-- Head -->
    <circle cx="256" cy="330" r="22" fill="url(#ig-skinTone)"/>

    <!-- Hair (dark brown, tousled) -->
    <ellipse cx="256" cy="315" rx="24" ry="14" fill="#3a2215"/>
    <ellipse cx="248" cy="318" rx="10" ry="8" fill="#3a2215"/>
    <ellipse cx="264" cy="318" rx="10" ry="8" fill="#3a2215"/>
    <ellipse cx="270" cy="322" rx="8" ry="6" fill="#3a2215"/>
    <ellipse cx="242" cy="322" rx="8" ry="6" fill="#3a2215"/>
    <!-- Hair highlight from moonlight -->
    <ellipse cx="262" cy="313" rx="8" ry="4" fill="#c0e8ff" opacity="0.12"/>

    <!-- Ears -->
    <circle cx="234" cy="332" r="4" fill="url(#ig-skinTone)"/>
    <circle cx="278" cy="332" r="4" fill="url(#ig-skinTone)"/>

    <!-- Winter hat (beanie) -->
    <path d="M234,318 Q256,298 278,318" fill="#cc4444"/>
    <ellipse cx="256" cy="318" rx="24" ry="5" fill="#dd5555"/>
    <!-- Hat pom-pom -->
    <circle cx="256" cy="301" r="5" fill="#dd5555"/>
    <circle cx="256" cy="301" r="3" fill="#ee6666" opacity="0.7"/>

    <!-- Eyes (looking up in wonder) -->
    <!-- Left eye -->
    <circle cx="248" cy="333" r="5" fill="#ffffff"/>
    <circle cx="248" cy="332" r="3.5" fill="url(#ig-irisGradient)"/>
    <circle cx="248" cy="331" r="2" fill="#1a0f08"/>
    <circle cx="250" cy="330" r="1.2" fill="#ffffff" opacity="0.9"/>
    <circle cx="247" cy="333" r="0.7" fill="#ffffff" opacity="0.5"/>
    <!-- Left eyelid -->
    <ellipse cx="248" cy="329" rx="5.5" ry="3" fill="url(#ig-skinTone)" class="ig-eyelid"/>

    <!-- Right eye -->
    <circle cx="264" cy="333" r="5" fill="#ffffff"/>
    <circle cx="264" cy="332" r="3.5" fill="url(#ig-irisGradient)"/>
    <circle cx="264" cy="331" r="2" fill="#1a0f08"/>
    <circle cx="266" cy="330" r="1.2" fill="#ffffff" opacity="0.9"/>
    <circle cx="263" cy="333" r="0.7" fill="#ffffff" opacity="0.5"/>
    <!-- Right eyelid -->
    <ellipse cx="264" cy="329" rx="5.5" ry="3" fill="url(#ig-skinTone)" class="ig-eyelid"/>

    <!-- Eyebrows (raised in wonder) -->
    <path d="M243,325 Q248,322 253,324" stroke="#3a2215" stroke-width="1.2" fill="none" stroke-linecap="round"/>
    <path d="M259,324 Q264,322 269,325" stroke="#3a2215" stroke-width="1.2" fill="none" stroke-linecap="round"/>

    <!-- Nose -->
    <ellipse cx="256" cy="338" rx="2" ry="1.5" fill="#d4a080" opacity="0.6"/>

    <!-- Mouth (open in wonder, small O) -->
    <ellipse cx="256" cy="343" rx="3" ry="2.5" fill="#c47060" opacity="0.7"/>
    <ellipse cx="256" cy="342.5" rx="2" ry="1.5" fill="#1a0f08" opacity="0.3"/>

    <!-- Cheek blush -->
    <circle cx="242" cy="338" r="3.5" fill="#FFB6C1" opacity="0.35"/>
    <circle cx="270" cy="338" r="3.5" fill="#FFB6C1" opacity="0.35"/>

    <!-- Moonlight reflection on face -->
    <circle cx="265" cy="328" r="6" fill="#c0e8ff" opacity="0.06"/>
  </g>

  <!-- ============================================ -->
  <!-- LAYER 6: Foreground sparkles & ice particles -->
  <!-- ============================================ -->

  <!-- Floating ice crystal particles -->
  <g class="ig-float-crystal-1">
    <polygon points="130,300 127,308 133,308" fill="#e0f4ff" opacity="0.6" filter="url(#ig-softGlow)"/>
  </g>
  <g class="ig-float-crystal-2">
    <polygon points="350,280 347,288 353,288" fill="#c0e8ff" opacity="0.5" filter="url(#ig-softGlow)"/>
  </g>
  <g class="ig-float-crystal-3">
    <polygon points="200,320 197,327 203,327" fill="#aaddff" opacity="0.55" filter="url(#ig-softGlow)"/>
  </g>

  <!-- Ice sparkles scattered across the scene -->
  <g filter="url(#ig-softGlow)">
    <!-- Sparkle crosses -->
    <g class="ig-sparkle-1">
      <line x1="100" y1="355" x2="100" y2="361" stroke="#ffffff" stroke-width="1.2" stroke-linecap="round"/>
      <line x1="97" y1="358" x2="103" y2="358" stroke="#ffffff" stroke-width="1.2" stroke-linecap="round"/>
    </g>
    <g class="ig-sparkle-2">
      <line x1="175" y1="310" x2="175" y2="316" stroke="#e0f4ff" stroke-width="1" stroke-linecap="round"/>
      <line x1="172" y1="313" x2="178" y2="313" stroke="#e0f4ff" stroke-width="1" stroke-linecap="round"/>
    </g>
    <g class="ig-sparkle-3">
      <line x1="330" y1="340" x2="330" y2="346" stroke="#ffffff" stroke-width="1.2" stroke-linecap="round"/>
      <line x1="327" y1="343" x2="333" y2="343" stroke="#ffffff" stroke-width="1.2" stroke-linecap="round"/>
    </g>
    <g class="ig-sparkle-4">
      <line x1="420" y1="320" x2="420" y2="325" stroke="#c0e8ff" stroke-width="1" stroke-linecap="round"/>
      <line x1="417.5" y1="322.5" x2="422.5" y2="322.5" stroke="#c0e8ff" stroke-width="1" stroke-linecap="round"/>
    </g>
    <g class="ig-sparkle-5">
      <line x1="220" y1="360" x2="220" y2="365" stroke="#ffffff" stroke-width="1" stroke-linecap="round"/>
      <line x1="217.5" y1="362.5" x2="222.5" y2="362.5" stroke="#ffffff" stroke-width="1" stroke-linecap="round"/>
    </g>
    <g class="ig-sparkle-6">
      <line x1="445" y1="370" x2="445" y2="375" stroke="#e0f4ff" stroke-width="0.9" stroke-linecap="round"/>
      <line x1="442.5" y1="372.5" x2="447.5" y2="372.5" stroke="#e0f4ff" stroke-width="0.9" stroke-linecap="round"/>
    </g>
    <g class="ig-sparkle-7">
      <line x1="60" y1="390" x2="60" y2="395" stroke="#aaddff" stroke-width="1" stroke-linecap="round"/>
      <line x1="57.5" y1="392.5" x2="62.5" y2="392.5" stroke="#aaddff" stroke-width="1" stroke-linecap="round"/>
    </g>
    <g class="ig-sparkle-8">
      <line x1="300" y1="290" x2="300" y2="295" stroke="#ffffff" stroke-width="1.1" stroke-linecap="round"/>
      <line x1="297.5" y1="292.5" x2="302.5" y2="292.5" stroke="#ffffff" stroke-width="1.1" stroke-linecap="round"/>
    </g>
    <g class="ig-sparkle-9">
      <line x1="475" y1="260" x2="475" y2="265" stroke="#c0e8ff" stroke-width="0.9" stroke-linecap="round"/>
      <line x1="472.5" y1="262.5" x2="477.5" y2="262.5" stroke="#c0e8ff" stroke-width="0.9" stroke-linecap="round"/>
    </g>
    <g class="ig-sparkle-10">
      <line x1="40" y1="280" x2="40" y2="285" stroke="#ffffff" stroke-width="1" stroke-linecap="round"/>
      <line x1="37.5" y1="282.5" x2="42.5" y2="282.5" stroke="#ffffff" stroke-width="1" stroke-linecap="round"/>
    </g>
  </g>

  <!-- Foreground frost/ice crystals at bottom edges -->
  <g opacity="0.35">
    <polygon points="0,480 15,460 30,480" fill="#c0e8ff"/>
    <polygon points="20,485 35,468 50,485" fill="#aaddff"/>
    <polygon points="462,480 477,462 492,480" fill="#c0e8ff"/>
    <polygon points="480,485 492,470 504,485" fill="#aaddff"/>
    <polygon points="10,495 22,478 34,495" fill="#88ccff" opacity="0.5"/>
    <polygon points="475,495 487,480 499,495" fill="#88ccff" opacity="0.5"/>
  </g>

  <!-- Bottom ground frost texture -->
  <g opacity="0.2">
    <ellipse cx="80" cy="470" rx="40" ry="4" fill="#a0d8f0"/>
    <ellipse cx="180" cy="465" rx="30" ry="3" fill="#c0e8ff"/>
    <ellipse cx="350" cy="468" rx="35" ry="3.5" fill="#a0d8f0"/>
    <ellipse cx="450" cy="472" rx="28" ry="3" fill="#c0e8ff"/>
  </g>

  <!-- ============================================ -->
  <!-- LAYER 7: Vignette overlay                    -->
  <!-- ============================================ -->
  <rect width="512" height="512" fill="url(#ig-vignette)" opacity="0.45"/>
</svg>