<svg viewBox="0 0 512 512" xmlns="http://www.w3.org/2000/svg">
  <defs>
    <!-- Sky gradient: dusk tropical sky -->
    <linearGradient id="mk-skyGradient" x1="0" y1="0" x2="0" y2="1">
      <stop offset="0%" stop-color="#1a1040"/>
      <stop offset="35%" stop-color="#2a1a50"/>
      <stop offset="65%" stop-color="#4a2a60"/>
      <stop offset="100%" stop-color="#ff6b35" stop-opacity="0.7"/>
    </linearGradient>

    <!-- Sunset glow behind treehouse -->
    <radialGradient id="mk-sunsetGlow" cx="55%" cy="45%" r="40%">
      <stop offset="0%" stop-color="#ffaa44" stop-opacity="0.5"/>
      <stop offset="50%" stop-color="#ff6b35" stop-opacity="0.25"/>
      <stop offset="100%" stop-color="#ff6b35" stop-opacity="0"/>
    </radialGradient>

    <!-- Jungle canopy gradient -->
    <radialGradient id="mk-canopy1" cx="40%" cy="40%" r="60%">
      <stop offset="0%" stop-color="#2d7a3a"/>
      <stop offset="100%" stop-color="#0d3a1a" stop-opacity="0.9"/>
    </radialGradient>

    <radialGradient id="mk-canopy2" cx="50%" cy="45%" r="55%">
      <stop offset="0%" stop-color="#1a5a2a"/>
      <stop offset="100%" stop-color="#0d3a1a" stop-opacity="0.85"/>
    </radialGradient>

    <radialGradient id="mk-canopy3" cx="45%" cy="40%" r="60%">
      <stop offset="0%" stop-color="#3a8a4a"/>
      <stop offset="100%" stop-color="#1a5a2a" stop-opacity="0.9"/>
    </radialGradient>

    <!-- Monkey fur gradient -->
    <radialGradient id="mk-monkeyFur" cx="40%" cy="35%" r="60%">
      <stop offset="0%" stop-color="#c4884a"/>
      <stop offset="60%" stop-color="#a06840"/>
      <stop offset="100%" stop-color="#8b5a3c"/>
    </radialGradient>

    <!-- Monkey belly lighter -->
    <radialGradient id="mk-monkeyBelly" cx="50%" cy="40%" r="50%">
      <stop offset="0%" stop-color="#d4a574"/>
      <stop offset="100%" stop-color="#c4884a"/>
    </radialGradient>

    <!-- Monkey face lighter -->
    <radialGradient id="mk-monkeyFace" cx="45%" cy="40%" r="55%">
      <stop offset="0%" stop-color="#dbb88a"/>
      <stop offset="100%" stop-color="#c4884a"/>
    </radialGradient>

    <!-- Iris gradient for monkey eyes -->
    <radialGradient id="mk-irisGradient" cx="45%" cy="40%" r="55%">
      <stop offset="0%" stop-color="#5a3520"/>
      <stop offset="100%" stop-color="#3a1a10"/>
    </radialGradient>

    <!-- Treehouse wood gradient -->
    <linearGradient id="mk-woodGradient" x1="0" y1="0" x2="1" y2="0">
      <stop offset="0%" stop-color="#6b4a2a"/>
      <stop offset="50%" stop-color="#8b6a3a"/>
      <stop offset="100%" stop-color="#6b4a2a"/>
    </linearGradient>

    <!-- Treehouse roof -->
    <linearGradient id="mk-roofGradient" x1="0" y1="0" x2="0" y2="1">
      <stop offset="0%" stop-color="#5a3a1a"/>
      <stop offset="100%" stop-color="#4a2a10"/>
    </linearGradient>

    <!-- Treehouse window glow -->
    <radialGradient id="mk-windowGlow" cx="50%" cy="50%" r="50%">
      <stop offset="0%" stop-color="#ffd700" stop-opacity="0.9"/>
      <stop offset="60%" stop-color="#ffaa44" stop-opacity="0.5"/>
      <stop offset="100%" stop-color="#ff6b35" stop-opacity="0"/>
    </radialGradient>

    <!-- Magic sparkle glow -->
    <radialGradient id="mk-sparkleGlow" cx="50%" cy="50%" r="50%">
      <stop offset="0%" stop-color="#ffd700" stop-opacity="0.8"/>
      <stop offset="70%" stop-color="#ff69b4" stop-opacity="0.3"/>
      <stop offset="100%" stop-color="#00ffcc" stop-opacity="0"/>
    </radialGradient>

    <!-- Flower gradient pink -->
    <radialGradient id="mk-flowerPink" cx="40%" cy="40%" r="60%">
      <stop offset="0%" stop-color="#ff69b4"/>
      <stop offset="100%" stop-color="#cc3388"/>
    </radialGradient>

    <!-- Flower gradient orange -->
    <radialGradient id="mk-flowerOrange" cx="40%" cy="40%" r="60%">
      <stop offset="0%" stop-color="#ffaa44"/>
      <stop offset="100%" stop-color="#dd7722"/>
    </radialGradient>

    <!-- Parrot body gradient -->
    <linearGradient id="mk-parrotBody" x1="0" y1="0" x2="0" y2="1">
      <stop offset="0%" stop-color="#22cc44"/>
      <stop offset="50%" stop-color="#11aa33"/>
      <stop offset="100%" stop-color="#008822"/>
    </linearGradient>

    <!-- Parrot wing gradient -->
    <linearGradient id="mk-parrotWing" x1="0" y1="0" x2="1" y2="1">
      <stop offset="0%" stop-color="#1199dd"/>
      <stop offset="50%" stop-color="#0077bb"/>
      <stop offset="100%" stop-color="#005599"/>
    </linearGradient>

    <!-- Vignette -->
    <radialGradient id="mk-vignette">
      <stop offset="50%" stop-color="#000000" stop-opacity="0"/>
      <stop offset="100%" stop-color="#000000" stop-opacity="0.5"/>
    </radialGradient>

    <!-- Soft glow filter -->
    <filter id="mk-softGlow">
      <feGaussianBlur stdDeviation="2" result="blur"/>
      <feMerge>
        <feMergeNode in="blur"/>
        <feMergeNode in="SourceGraphic"/>
      </feMerge>
    </filter>

    <!-- Medium glow filter -->
    <filter id="mk-mediumGlow">
      <feGaussianBlur stdDeviation="4" result="blur"/>
      <feMerge>
        <feMergeNode in="blur"/>
        <feMergeNode in="SourceGraphic"/>
      </feMerge>
    </filter>

    <!-- Strong glow filter -->
    <filter id="mk-strongGlow">
      <feGaussianBlur stdDeviation="6" result="blur"/>
      <feMerge>
        <feMergeNode in="blur"/>
        <feMergeNode in="SourceGraphic"/>
      </feMerge>
    </filter>
  </defs>

  <style>
    /* === ANIMATION KEYFRAMES === */

    /* 1) Monkey swinging on vine - pendulum arc */
    @keyframes mk-monkeySwing {
      0%, 100% { transform: rotate(-12deg); }
      50% { transform: rotate(12deg); }
    }

    /* Monkey tail curl */
    @keyframes mk-tailCurl {
      0%, 100% { transform: rotate(0deg); }
      30% { transform: rotate(15deg); }
      70% { transform: rotate(-10deg); }
    }

    /* 2) Tropical flower sway */
    @keyframes mk-flowerSway {
      0%, 100% { transform: rotate(0deg); }
      25% { transform: rotate(-4deg); }
      75% { transform: rotate(4deg); }
    }

    /* Flower pulse */
    @keyframes mk-flowerPulse {
      0%, 100% { transform: scale(1); }
      50% { transform: scale(1.08); }
    }

    /* 3) Magic sparkle cascade - float upward and fade */
    @keyframes mk-sparkleCascade {
      0% { transform: translateY(0px) scale(0.3); opacity: 0; }
      15% { opacity: 0.9; transform: translateY(-10px) scale(1); }
      50% { opacity: 0.7; transform: translateY(-40px) scale(0.8); }
      85% { opacity: 0.3; transform: translateY(-70px) scale(0.4); }
      100% { opacity: 0; transform: translateY(-90px) scale(0.2); }
    }

    /* Sparkle twinkle */
    @keyframes mk-sparkleTwinkle {
      0%, 100% { opacity: 0.3; }
      50% { opacity: 1; }
    }

    /* 4) Parrot wing flutter */
    @keyframes mk-wingFlutter {
      0%, 100% { transform: scaleX(1) rotate(0deg); }
      25% { transform: scaleX(0.6) rotate(-5deg); }
      50% { transform: scaleX(0.5) rotate(0deg); }
      75% { transform: scaleX(0.65) rotate(5deg); }
    }

    /* Parrot bob */
    @keyframes mk-parrotBob {
      0%, 100% { transform: translateY(0px); }
      50% { transform: translateY(-4px); }
    }

    /* 5) Treehouse window glow pulse */
    @keyframes mk-windowPulse {
      0%, 100% { opacity: 0.6; }
      50% { opacity: 1; }
    }

    /* 6) Firefly drift with gentle wandering */
    @keyframes mk-fireflyDrift1 {
      0%, 100% { transform: translate(0px, 0px); opacity: 0.4; }
      25% { transform: translate(12px, -8px); opacity: 0.9; }
      50% { transform: translate(-5px, -18px); opacity: 0.6; }
      75% { transform: translate(-15px, -6px); opacity: 0.85; }
    }

    @keyframes mk-fireflyDrift2 {
      0%, 100% { transform: translate(0px, 0px); opacity: 0.5; }
      25% { transform: translate(-10px, -12px); opacity: 0.85; }
      50% { transform: translate(8px, -20px); opacity: 0.5; }
      75% { transform: translate(15px, -5px); opacity: 0.9; }
    }

    @keyframes mk-fireflyDrift3 {
      0%, 100% { transform: translate(0px, 0px); opacity: 0.45; }
      25% { transform: translate(8px, -15px); opacity: 0.8; }
      50% { transform: translate(-12px, -10px); opacity: 0.55; }
      75% { transform: translate(-5px, -22px); opacity: 0.88; }
    }

    /* 7) Vine sway (gentle) */
    @keyframes mk-vineSway {
      0%, 100% { transform: rotate(0deg); }
      50% { transform: rotate(2deg); }
    }

    /* 8) Canopy leaf rustle */
    @keyframes mk-leafRustle {
      0%, 100% { transform: translateX(0px); }
      25% { transform: translateX(-3px); }
      75% { transform: translateX(3px); }
    }

    /* 9) Eye blink */
    @keyframes mk-eyeBlink {
      0%, 42%, 48%, 100% { transform: scaleY(1); }
      45% { transform: scaleY(0.05); }
    }

    /* 10) Floating game piece bob */
    @keyframes mk-gamePieceBob {
      0%, 100% { transform: translateY(0px) rotate(0deg); }
      25% { transform: translateY(-6px) rotate(5deg); }
      50% { transform: translateY(-10px) rotate(0deg); }
      75% { transform: translateY(-6px) rotate(-5deg); }
    }

    /* === ANIMATION CLASSES === */

    .mk-monkey-group {
      animation: mk-monkeySwing 4.5s ease-in-out infinite;
      transform-origin: 260px 60px;
    }

    .mk-monkey-tail {
      animation: mk-tailCurl 3.5s ease-in-out infinite;
      transform-origin: 50% 0%;
    }

    .mk-flower-1 {
      animation: mk-flowerSway 5s ease-in-out infinite;
      transform-origin: 50% 100%;
    }
    .mk-flower-2 {
      animation: mk-flowerSway 5.4s ease-in-out infinite 0.6s;
      transform-origin: 50% 100%;
    }
    .mk-flower-3 {
      animation: mk-flowerPulse 4.8s ease-in-out infinite 0.3s;
      transform-origin: 50% 50%;
    }
    .mk-flower-4 {
      animation: mk-flowerSway 5.2s ease-in-out infinite 1.2s;
      transform-origin: 50% 100%;
    }

    .mk-sparkle-1 { animation: mk-sparkleCascade 7s ease-in-out infinite; }
    .mk-sparkle-2 { animation: mk-sparkleCascade 6.5s ease-in-out infinite 1s; }
    .mk-sparkle-3 { animation: mk-sparkleCascade 7.5s ease-in-out infinite 2s; }
    .mk-sparkle-4 { animation: mk-sparkleCascade 6s ease-in-out infinite 3s; }
    .mk-sparkle-5 { animation: mk-sparkleCascade 8s ease-in-out infinite 4s; }
    .mk-sparkle-6 { animation: mk-sparkleCascade 6.8s ease-in-out infinite 1.5s; }
    .mk-sparkle-7 { animation: mk-sparkleCascade 7.2s ease-in-out infinite 2.8s; }

    .mk-star-twinkle-1 { animation: mk-sparkleTwinkle 2.5s ease-in-out infinite; }
    .mk-star-twinkle-2 { animation: mk-sparkleTwinkle 2.8s ease-in-out infinite 0.5s; }
    .mk-star-twinkle-3 { animation: mk-sparkleTwinkle 3s ease-in-out infinite 1.2s; }
    .mk-star-twinkle-4 { animation: mk-sparkleTwinkle 2.6s ease-in-out infinite 0.8s; }
    .mk-star-twinkle-5 { animation: mk-sparkleTwinkle 3.2s ease-in-out infinite 1.6s; }

    .mk-parrot-wing {
      animation: mk-wingFlutter 0.6s ease-in-out infinite;
      transform-origin: 30% 50%;
    }

    .mk-parrot-group {
      animation: mk-parrotBob 3.5s ease-in-out infinite;
    }

    .mk-window-glow {
      animation: mk-windowPulse 3s ease-in-out infinite;
    }

    .mk-firefly-1 { animation: mk-fireflyDrift1 4.5s ease-in-out infinite; }
    .mk-firefly-2 { animation: mk-fireflyDrift2 5s ease-in-out infinite 0.8s; }
    .mk-firefly-3 { animation: mk-fireflyDrift3 4.2s ease-in-out infinite 1.5s; }
    .mk-firefly-4 { animation: mk-fireflyDrift1 4.8s ease-in-out infinite 2.2s; }
    .mk-firefly-5 { animation: mk-fireflyDrift2 4.3s ease-in-out infinite 3s; }
    .mk-firefly-6 { animation: mk-fireflyDrift3 5.2s ease-in-out infinite 0.4s; }

    .mk-vine-1 {
      animation: mk-vineSway 6s ease-in-out infinite;
      transform-origin: 50% 0%;
    }
    .mk-vine-2 {
      animation: mk-vineSway 6.5s ease-in-out infinite 1s;
      transform-origin: 50% 0%;
    }

    .mk-canopy-rustle-1 {
      animation: mk-leafRustle 5.5s ease-in-out infinite;
    }
    .mk-canopy-rustle-2 {
      animation: mk-leafRustle 6s ease-in-out infinite 0.8s;
    }

    .mk-eyelid {
      animation: mk-eyeBlink 5s ease-in-out infinite;
      transform-origin: 50% 50%;
    }

    .mk-game-piece-1 {
      animation: mk-gamePieceBob 5s ease-in-out infinite;
    }
    .mk-game-piece-2 {
      animation: mk-gamePieceBob 5.5s ease-in-out infinite 1s;
    }
    .mk-game-piece-3 {
      animation: mk-gamePieceBob 4.8s ease-in-out infinite 2s;
    }
  </style>

  <!-- ============================================ -->
  <!-- LAYER 1: Background sky/atmosphere           -->
  <!-- ============================================ -->
  <rect width="512" height="512" fill="url(#mk-skyGradient)"/>

  <!-- Sunset glow -->
  <rect width="512" height="512" fill="url(#mk-sunsetGlow)" opacity="0.6"/>

  <!-- Sunset horizon band -->
  <ellipse cx="256" cy="420" rx="300" ry="100" fill="#ff6b35" opacity="0.15"/>
  <ellipse cx="256" cy="440" rx="280" ry="80" fill="#ffaa44" opacity="0.1"/>

  <!-- Stars in upper sky -->
  <circle class="mk-star-twinkle-1" cx="60" cy="35" r="1.5" fill="#ffffff" opacity="0.7"/>
  <circle class="mk-star-twinkle-2" cx="150" cy="25" r="1" fill="#ffffff" opacity="0.6"/>
  <circle class="mk-star-twinkle-3" cx="380" cy="40" r="1.5" fill="#ffffff" opacity="0.65"/>
  <circle class="mk-star-twinkle-4" cx="440" cy="20" r="1" fill="#ffffff" opacity="0.55"/>
  <circle class="mk-star-twinkle-5" cx="310" cy="15" r="1.2" fill="#ffffff" opacity="0.6"/>
  <circle class="mk-star-twinkle-1" cx="95" cy="60" r="1" fill="#ffe4b5" opacity="0.5"/>
  <circle class="mk-star-twinkle-3" cx="470" cy="55" r="1.3" fill="#ffffff" opacity="0.55"/>
  <circle class="mk-star-twinkle-2" cx="220" cy="45" r="0.8" fill="#ffe4b5" opacity="0.5"/>

  <!-- ============================================ -->
  <!-- LAYER 2: Far background (distant jungle)     -->
  <!-- ============================================ -->
  <g opacity="0.2">
    <!-- Distant mountain/hill silhouettes -->
    <ellipse cx="130" cy="320" rx="120" ry="80" fill="#0d3a1a"/>
    <ellipse cx="380" cy="310" rx="130" ry="90" fill="#0d3a1a"/>
    <ellipse cx="256" cy="330" rx="100" ry="70" fill="#1a4a22"/>
  </g>

  <!-- Distant trees -->
  <g opacity="0.25">
    <ellipse cx="80" cy="280" rx="40" ry="70" fill="#1a5a2a"/>
    <ellipse cx="180" cy="270" rx="35" ry="65" fill="#0d3a1a"/>
    <ellipse cx="350" cy="260" rx="42" ry="72" fill="#1a5a2a"/>
    <ellipse cx="450" cy="275" rx="38" ry="68" fill="#0d3a1a"/>
  </g>

  <!-- ============================================ -->
  <!-- LAYER 3: Mid background (main tree + treehouse) -->
  <!-- ============================================ -->

  <!-- Main large tree trunk (center-right) -->
  <rect x="295" y="150" width="40" height="320" rx="5" fill="url(#mk-woodGradient)" opacity="0.9"/>
  <!-- Bark detail lines -->
  <line x1="305" y1="180" x2="305" y2="460" stroke="#5a3a1a" stroke-width="1" opacity="0.3"/>
  <line x1="320" y1="160" x2="320" y2="470" stroke="#5a3a1a" stroke-width="1" opacity="0.25"/>
  <line x1="310" y1="200" x2="312" y2="350" stroke="#5a3a1a" stroke-width="0.8" opacity="0.2"/>

  <!-- Large branch extending left (monkey will swing from this) -->
  <path d="M 310 180 Q 270 160 230 170 Q 200 178 180 190" stroke="#8b6a3a" stroke-width="14" fill="none" stroke-linecap="round" opacity="0.9"/>
  <path d="M 310 180 Q 270 160 230 170 Q 200 178 180 190" stroke="#6b4a2a" stroke-width="8" fill="none" stroke-linecap="round" opacity="0.5"/>

  <!-- Branch extending right -->
  <path d="M 325 200 Q 370 185 400 195 Q 430 205 450 200" stroke="#8b6a3a" stroke-width="10" fill="none" stroke-linecap="round" opacity="0.85"/>

  <!-- Treehouse structure on main tree -->
  <g transform="translate(315, 140)">
    <!-- Platform base -->
    <rect x="-45" y="0" width="90" height="8" rx="2" fill="#6b4a2a"/>
    <!-- Walls -->
    <rect x="-40" y="-55" width="80" height="58" rx="3" fill="url(#mk-woodGradient)"/>
    <!-- Roof (triangle) -->
    <path d="M -50 -55 L 0 -90 L 50 -55 Z" fill="url(#mk-roofGradient)"/>
    <!-- Roof trim -->
    <path d="M -50 -55 L 0 -90 L 50 -55" stroke="#4a2a10" stroke-width="2" fill="none"/>
    <!-- Window (round) with glow -->
    <circle cx="0" cy="-30" r="12" fill="#2a1a10"/>
    <circle class="mk-window-glow" cx="0" cy="-30" r="11" fill="url(#mk-windowGlow)" filter="url(#mk-mediumGlow)"/>
    <!-- Window frame cross -->
    <line x1="-11" y1="-30" x2="11" y2="-30" stroke="#5a3a1a" stroke-width="1.5"/>
    <line x1="0" y1="-41" x2="0" y2="-19" stroke="#5a3a1a" stroke-width="1.5"/>
    <!-- Door opening -->
    <rect x="-8" y="-15" width="16" height="18" rx="2" fill="#3a2010" opacity="0.8"/>
    <!-- Small railing -->
    <line x1="-45" y1="-3" x2="-45" y2="0" stroke="#5a3a1a" stroke-width="2"/>
    <line x1="45" y1="-3" x2="45" y2="0" stroke="#5a3a1a" stroke-width="2"/>
    <!-- Window glow spill -->
    <circle cx="0" cy="-30" r="25" fill="#ffd700" opacity="0.08" filter="url(#mk-strongGlow)"/>
  </g>

  <!-- Mid-ground canopy clusters -->
  <g class="mk-canopy-rustle-1" opacity="0.7">
    <ellipse cx="420" cy="170" rx="55" ry="50" fill="url(#mk-canopy1)"/>
    <ellipse cx="450" cy="190" rx="48" ry="45" fill="url(#mk-canopy2)"/>
    <ellipse cx="395" cy="195" rx="42" ry="38" fill="url(#mk-canopy3)"/>
  </g>

  <g class="mk-canopy-rustle-2" opacity="0.65">
    <ellipse cx="110" cy="200" rx="50" ry="48" fill="url(#mk-canopy2)"/>
    <ellipse cx="70" cy="220" rx="45" ry="42" fill="url(#mk-canopy1)"/>
    <ellipse cx="140" cy="215" rx="40" ry="38" fill="url(#mk-canopy3)"/>
  </g>

  <!-- Canopy atop the main tree -->
  <ellipse cx="315" cy="110" rx="65" ry="55" fill="url(#mk-canopy1)" opacity="0.8"/>
  <ellipse cx="340" cy="100" rx="50" ry="48" fill="url(#mk-canopy2)" opacity="0.75"/>
  <ellipse cx="290" cy="120" rx="45" ry="40" fill="url(#mk-canopy3)" opacity="0.7"/>

  <!-- ============================================ -->
  <!-- LAYER 4: Middle ground (vines, flowers, parrot) -->
  <!-- ============================================ -->

  <!-- Hanging vines from branches -->
  <g class="mk-vine-1">
    <path d="M 200 190 Q 195 230 205 270 Q 210 290 200 310" stroke="#1a5a2a" stroke-width="3" fill="none" stroke-linecap="round"/>
    <!-- Vine leaves -->
    <ellipse cx="198" cy="220" rx="6" ry="3" fill="#2d7a3a" transform="rotate(-20 198 220)"/>
    <ellipse cx="206" cy="255" rx="5" ry="3" fill="#3a8a4a" transform="rotate(15 206 255)"/>
    <ellipse cx="202" cy="290" rx="6" ry="3" fill="#2d7a3a" transform="rotate(-10 202 290)"/>
  </g>

  <g class="mk-vine-2">
    <path d="M 400 200 Q 405 240 395 275 Q 390 295 400 320" stroke="#1a5a2a" stroke-width="2.5" fill="none" stroke-linecap="round"/>
    <ellipse cx="402" cy="230" rx="5" ry="3" fill="#2d7a3a" transform="rotate(15 402 230)"/>
    <ellipse cx="394" cy="260" rx="5" ry="3" fill="#3a8a4a" transform="rotate(-20 394 260)"/>
  </g>

  <!-- Tropical flowers (bottom area) -->
  <g transform="translate(75, 420)">
    <g class="mk-flower-1">
      <line x1="0" y1="0" x2="0" y2="30" stroke="#1a5a2a" stroke-width="2"/>
      <ellipse cx="-6" cy="-3" rx="7" ry="5" fill="url(#mk-flowerPink)"/>
      <ellipse cx="6" cy="-3" rx="7" ry="5" fill="url(#mk-flowerPink)"/>
      <ellipse cx="0" cy="-8" rx="7" ry="5" fill="url(#mk-flowerPink)"/>
      <ellipse cx="-5" cy="4" rx="6" ry="4" fill="#ff69b4" opacity="0.8"/>
      <ellipse cx="5" cy="4" rx="6" ry="4" fill="#ff69b4" opacity="0.8"/>
      <circle cx="0" cy="0" r="4" fill="#ffd700"/>
    </g>
  </g>

  <g transform="translate(440, 415)">
    <g class="mk-flower-2">
      <line x1="0" y1="0" x2="0" y2="35" stroke="#1a5a2a" stroke-width="2"/>
      <ellipse cx="-7" cy="-2" rx="8" ry="5" fill="url(#mk-flowerOrange)"/>
      <ellipse cx="7" cy="-2" rx="8" ry="5" fill="url(#mk-flowerOrange)"/>
      <ellipse cx="0" cy="-8" rx="7" ry="5" fill="url(#mk-flowerOrange)"/>
      <ellipse cx="-5" cy="5" rx="7" ry="4" fill="#ffaa44" opacity="0.8"/>
      <ellipse cx="5" cy="5" rx="7" ry="4" fill="#ffaa44" opacity="0.8"/>
      <circle cx="0" cy="0" r="4" fill="#ffd700"/>
    </g>
  </g>

  <g transform="translate(160, 440)">
    <g class="mk-flower-3">
      <line x1="0" y1="5" x2="0" y2="25" stroke="#1a5a2a" stroke-width="1.5"/>
      <ellipse cx="-5" cy="-1" rx="5" ry="4" fill="#ff69b4"/>
      <ellipse cx="5" cy="-1" rx="5" ry="4" fill="#ff69b4"/>
      <ellipse cx="0" cy="-5" rx="5" ry="4" fill="#ff69b4"/>
      <circle cx="0" cy="0" r="3" fill="#ffe4b5"/>
    </g>
  </g>

  <g transform="translate(370, 445)">
    <g class="mk-flower-4">
      <line x1="0" y1="5" x2="0" y2="28" stroke="#1a5a2a" stroke-width="1.5"/>
      <ellipse cx="-5" cy="-1" rx="6" ry="4" fill="#ff69b4" opacity="0.9"/>
      <ellipse cx="5" cy="-1" rx="6" ry="4" fill="#ff69b4" opacity="0.9"/>
      <ellipse cx="0" cy="-6" rx="5" ry="4" fill="#ff69b4" opacity="0.9"/>
      <circle cx="0" cy="0" r="3" fill="#ffd700"/>
    </g>
  </g>

  <!-- Ground / jungle floor -->
  <ellipse cx="256" cy="485" rx="280" ry="45" fill="#0d3a1a" opacity="0.85"/>
  <ellipse cx="200" cy="490" rx="200" ry="35" fill="#1a5a2a" opacity="0.6"/>
  <ellipse cx="330" cy="492" rx="190" ry="30" fill="#0d3a1a" opacity="0.5"/>

  <!-- Small ground ferns -->
  <g opacity="0.7">
    <ellipse cx="120" cy="460" rx="12" ry="5" fill="#2d7a3a" transform="rotate(-15 120 460)"/>
    <ellipse cx="135" cy="462" rx="10" ry="4" fill="#3a8a4a" transform="rotate(10 135 462)"/>
    <ellipse cx="340" cy="458" rx="11" ry="5" fill="#2d7a3a" transform="rotate(12 340 458)"/>
    <ellipse cx="355" cy="460" rx="9" ry="4" fill="#3a8a4a" transform="rotate(-8 355 460)"/>
    <ellipse cx="230" cy="465" rx="10" ry="4" fill="#2d7a3a" transform="rotate(-5 230 465)"/>
  </g>

  <!-- Parrot (perched on right branch) -->
  <g transform="translate(425, 188)">
    <g class="mk-parrot-group">
      <!-- Tail feathers -->
      <path d="M -2 18 Q -8 35 -5 50" stroke="#dd2222" stroke-width="4" fill="none" stroke-linecap="round"/>
      <path d="M 0 18 Q 2 38 5 52" stroke="#ff4422" stroke-width="3" fill="none" stroke-linecap="round"/>
      <path d="M 2 18 Q 8 34 10 48" stroke="#ffaa00" stroke-width="3" fill="none" stroke-linecap="round"/>
      <!-- Body -->
      <ellipse cx="0" cy="5" rx="10" ry="16" fill="url(#mk-parrotBody)"/>
      <!-- Wing -->
      <g class="mk-parrot-wing">
        <ellipse cx="8" cy="5" rx="12" ry="8" fill="url(#mk-parrotWing)" transform="rotate(10 8 5)"/>
      </g>
      <!-- Breast -->
      <ellipse cx="-2" cy="8" rx="6" ry="8" fill="#ffdd22" opacity="0.7"/>
      <!-- Head -->
      <circle cx="0" cy="-12" r="8" fill="#22cc44"/>
      <!-- Beak -->
      <path d="M -3 -12 Q -8 -10 -4 -7" fill="#444444" stroke="#333333" stroke-width="0.5"/>
      <!-- Eye -->
      <circle cx="2" cy="-13" r="3" fill="#ffffff"/>
      <circle cx="2" cy="-13" r="2" fill="#222222"/>
      <circle cx="3" cy="-14" r="0.8" fill="#ffffff" opacity="0.9"/>
      <!-- Eye ring -->
      <circle cx="2" cy="-13" r="4" fill="none" stroke="#ffffff" stroke-width="0.5" opacity="0.5"/>
      <!-- Feet gripping branch -->
      <path d="M -4 20 L -6 22 M -4 20 L -2 22" stroke="#666666" stroke-width="1" fill="none"/>
      <path d="M 4 20 L 2 22 M 4 20 L 6 22" stroke="#666666" stroke-width="1" fill="none"/>
    </g>
  </g>

  <!-- ============================================ -->
  <!-- LAYER 5: Primary character (monkey on vine)  -->
  <!-- ============================================ -->

  <!-- Vine the monkey hangs from -->
  <path d="M 260 60 Q 255 100 265 150 Q 270 180 260 210" stroke="#2d7a3a" stroke-width="4" fill="none" stroke-linecap="round"/>
  <!-- Vine attach point (to branch above) -->
  <path d="M 250 170 Q 240 160 230 170" stroke="#1a5a2a" stroke-width="2" fill="none"/>

  <!-- Monkey character - swinging group (pivot at vine top) -->
  <g class="mk-monkey-group">
    <!-- Vine segment that swings with monkey -->
    <path d="M 260 60 Q 258 90 262 130 Q 265 160 258 200" stroke="#2d7a3a" stroke-width="3.5" fill="none" stroke-linecap="round" opacity="0.9"/>

    <!-- Monkey body positioned at bottom of vine -->
    <g transform="translate(258, 210)">
      <!-- Arm reaching up to hold vine -->
      <path d="M -8 -25 Q -5 -45 2 -55" stroke="#a06840" stroke-width="5" fill="none" stroke-linecap="round"/>
      <path d="M 10 -25 Q 8 -40 2 -50" stroke="#a06840" stroke-width="5" fill="none" stroke-linecap="round"/>
      <!-- Hands gripping vine -->
      <circle cx="2" cy="-55" r="4" fill="#c4884a"/>
      <circle cx="2" cy="-50" r="3.5" fill="#c4884a"/>

      <!-- Body -->
      <ellipse cx="0" cy="0" rx="18" ry="24" fill="url(#mk-monkeyFur)"/>
      <!-- Belly -->
      <ellipse cx="0" cy="4" rx="12" ry="16" fill="url(#mk-monkeyBelly)" opacity="0.7"/>

      <!-- Legs dangling -->
      <path d="M -10 18 Q -14 32 -18 42" stroke="#a06840" stroke-width="5" fill="none" stroke-linecap="round"/>
      <path d="M 10 18 Q 14 32 18 42" stroke="#a06840" stroke-width="5" fill="none" stroke-linecap="round"/>
      <!-- Feet -->
      <ellipse cx="-20" cy="44" rx="5" ry="3" fill="#8b5a3c" transform="rotate(-10 -20 44)"/>
      <ellipse cx="20" cy="44" rx="5" ry="3" fill="#8b5a3c" transform="rotate(10 20 44)"/>

      <!-- Tail (curly, extending right) -->
      <g class="mk-monkey-tail">
        <path d="M 14 10 Q 30 5 38 -5 Q 45 -15 40 -25 Q 35 -32 28 -28" stroke="#a06840" stroke-width="4" fill="none" stroke-linecap="round"/>
      </g>

      <!-- Head -->
      <circle cx="0" cy="-22" r="18" fill="url(#mk-monkeyFur)"/>
      <!-- Face (lighter area) -->
      <ellipse cx="0" cy="-18" rx="13" ry="14" fill="url(#mk-monkeyFace)"/>

      <!-- Ears -->
      <circle cx="-16" cy="-25" r="6" fill="#a06840"/>
      <circle cx="-16" cy="-25" r="3.5" fill="#dbb88a"/>
      <circle cx="16" cy="-25" r="6" fill="#a06840"/>
      <circle cx="16" cy="-25" r="3.5" fill="#dbb88a"/>

      <!-- LEFT EYE (5-layer construction) -->
      <circle cx="-6" cy="-22" r="6" fill="#ffffff"/>
      <circle cx="-6" cy="-21" r="4.5" fill="url(#mk-irisGradient)"/>
      <circle cx="-6" cy="-20.5" r="2.8" fill="#1a0a05"/>
      <circle cx="-4.5" cy="-22.5" r="1.3" fill="#ffffff" opacity="0.9"/>
      <circle cx="-7" cy="-19.5" r="0.7" fill="#ffffff" opacity="0.5"/>
      <!-- Left eyelid -->
      <ellipse class="mk-eyelid" cx="-6" cy="-24.5" rx="6.5" ry="4" fill="#c4884a"/>

      <!-- RIGHT EYE (5-layer construction) -->
      <circle cx="6" cy="-22" r="6" fill="#ffffff"/>
      <circle cx="6" cy="-21" r="4.5" fill="url(#mk-irisGradient)"/>
      <circle cx="6" cy="-20.5" r="2.8" fill="#1a0a05"/>
      <circle cx="7.5" cy="-22.5" r="1.3" fill="#ffffff" opacity="0.9"/>
      <circle cx="5" cy="-19.5" r="0.7" fill="#ffffff" opacity="0.5"/>
      <!-- Right eyelid -->
      <ellipse class="mk-eyelid" cx="6" cy="-24.5" rx="6.5" ry="4" fill="#c4884a"/>

      <!-- Nose -->
      <ellipse cx="0" cy="-14" rx="3" ry="2" fill="#8b5a3c"/>
      <!-- Nostrils -->
      <circle cx="-1.2" cy="-13.5" r="0.8" fill="#5a3520"/>
      <circle cx="1.2" cy="-13.5" r="0.8" fill="#5a3520"/>

      <!-- Mouth (happy smile) -->
      <path d="M -5 -10 Q 0 -6 5 -10" stroke="#5a3520" stroke-width="1.2" fill="none" stroke-linecap="round"/>

      <!-- Cheek blush -->
      <circle cx="-10" cy="-16" r="3" fill="#ffb6c1" opacity="0.4"/>
      <circle cx="10" cy="-16" r="3" fill="#ffb6c1" opacity="0.4"/>

      <!-- Tuft of hair on top -->
      <ellipse cx="-3" cy="-38" rx="4" ry="3" fill="#8b5a3c" transform="rotate(-15 -3 -38)"/>
      <ellipse cx="3" cy="-39" rx="4" ry="3" fill="#a06840" transform="rotate(10 3 -39)"/>
      <ellipse cx="0" cy="-40" rx="3" ry="3" fill="#8b5a3c"/>
    </g>
  </g>

  <!-- ============================================ -->
  <!-- LAYER 6: Foreground (sparkles, fireflies, game pieces) -->
  <!-- ============================================ -->

  <!-- Floating magical game pieces -->
  <g class="mk-game-piece-1" filter="url(#mk-softGlow)">
    <!-- Floating die -->
    <g transform="translate(140, 280)">
      <rect x="-8" y="-8" width="16" height="16" rx="3" fill="#ff69b4" opacity="0.7"/>
      <circle cx="-3" cy="-3" r="1.5" fill="#ffffff" opacity="0.8"/>
      <circle cx="3" cy="3" r="1.5" fill="#ffffff" opacity="0.8"/>
      <circle cx="0" cy="0" r="1.5" fill="#ffffff" opacity="0.8"/>
    </g>
  </g>

  <g class="mk-game-piece-2" filter="url(#mk-softGlow)">
    <!-- Floating star token -->
    <g transform="translate(390, 310)">
      <path d="M 0 -10 L 3 -3 L 10 -3 L 5 2 L 7 10 L 0 6 L -7 10 L -5 2 L -10 -3 L -3 -3 Z" fill="#ffd700" opacity="0.7"/>
    </g>
  </g>

  <g class="mk-game-piece-3" filter="url(#mk-softGlow)">
    <!-- Floating heart token -->
    <g transform="translate(170, 340)">
      <path d="M 0 3 Q -8 -5 -5 -9 Q -2 -12 0 -7 Q 2 -12 5 -9 Q 8 -5 0 3 Z" fill="#00ffcc" opacity="0.65"/>
    </g>
  </g>

  <!-- Magic sparkle cascade -->
  <g class="mk-sparkle-1">
    <circle cx="280" cy="300" r="2.5" fill="#ffd700" filter="url(#mk-mediumGlow)"/>
  </g>
  <g class="mk-sparkle-2">
    <circle cx="240" cy="310" r="2" fill="#ff69b4" filter="url(#mk-mediumGlow)"/>
  </g>
  <g class="mk-sparkle-3">
    <circle cx="320" cy="290" r="1.8" fill="#00ffcc" filter="url(#mk-mediumGlow)"/>
  </g>
  <g class="mk-sparkle-4">
    <circle cx="200" cy="280" r="2.2" fill="#ffd700" filter="url(#mk-mediumGlow)"/>
  </g>
  <g class="mk-sparkle-5">
    <circle cx="350" cy="320" r="1.5" fill="#ff69b4" filter="url(#mk-mediumGlow)"/>
  </g>
  <g class="mk-sparkle-6">
    <circle cx="260" cy="270" r="2" fill="#00ffcc" filter="url(#mk-softGlow)"/>
  </g>
  <g class="mk-sparkle-7">
    <circle cx="310" cy="340" r="1.8" fill="#ffd700" filter="url(#mk-softGlow)"/>
  </g>

  <!-- Fireflies drifting around the scene -->
  <g class="mk-firefly-1">
    <circle cx="100" cy="300" r="3" fill="#ffd700" filter="url(#mk-strongGlow)"/>
    <circle cx="100" cy="300" r="8" fill="url(#mk-sparkleGlow)" opacity="0.3"/>
  </g>
  <g class="mk-firefly-2">
    <circle cx="420" cy="330" r="2.5" fill="#ffd700" filter="url(#mk-strongGlow)"/>
    <circle cx="420" cy="330" r="7" fill="url(#mk-sparkleGlow)" opacity="0.3"/>
  </g>
  <g class="mk-firefly-3">
    <circle cx="180" cy="360" r="2" fill="#ffaa44" filter="url(#mk-mediumGlow)"/>
    <circle cx="180" cy="360" r="6" fill="url(#mk-sparkleGlow)" opacity="0.25"/>
  </g>
  <g class="mk-firefly-4">
    <circle cx="350" cy="370" r="2.5" fill="#ffd700" filter="url(#mk-strongGlow)"/>
    <circle cx="350" cy="370" r="7" fill="url(#mk-sparkleGlow)" opacity="0.28"/>
  </g>
  <g class="mk-firefly-5">
    <circle cx="80" cy="380" r="2" fill="#ffaa44" filter="url(#mk-mediumGlow)"/>
    <circle cx="80" cy="380" r="6" fill="url(#mk-sparkleGlow)" opacity="0.25"/>
  </g>
  <g class="mk-firefly-6">
    <circle cx="460" cy="290" r="2.5" fill="#ffd700" filter="url(#mk-strongGlow)"/>
    <circle cx="460" cy="290" r="7" fill="url(#mk-sparkleGlow)" opacity="0.3"/>
  </g>

  <!-- Foreground foliage (framing) -->
  <g opacity="0.85">
    <!-- Left foreground canopy -->
    <ellipse cx="30" cy="350" rx="60" ry="55" fill="url(#mk-canopy1)"/>
    <ellipse cx="55" cy="370" rx="50" ry="48" fill="url(#mk-canopy2)"/>
    <ellipse cx="10" cy="380" rx="45" ry="40" fill="url(#mk-canopy3)"/>
    <!-- Right foreground canopy -->
    <ellipse cx="490" cy="360" rx="55" ry="52" fill="url(#mk-canopy2)"/>
    <ellipse cx="470" cy="380" rx="48" ry="45" fill="url(#mk-canopy1)"/>
    <ellipse cx="505" cy="385" rx="42" ry="38" fill="url(#mk-canopy3)"/>
  </g>

  <!-- ============================================ -->
  <!-- LAYER 7: Vignette/overlay                    -->
  <!-- ============================================ -->
  <rect width="512" height="512" fill="url(#mk-vignette)" opacity="0.4"/>
</svg>