<svg viewBox="0 0 512 512" xmlns="http://www.w3.org/2000/svg">
  <defs>
    <!-- Sky gradient: deep blue to indigo -->
    <radialGradient id="skyGradient" cx="50%" cy="30%" r="65%">
      <stop offset="0%" style="stop-color:#1a2a4a;stop-opacity:1" />
      <stop offset="50%" style="stop-color:#0f1f3f;stop-opacity:1" />
      <stop offset="100%" style="stop-color:#050d20;stop-opacity:1" />
    </radialGradient>

    <!-- Moon gradient: warm golden center to cool edges -->
    <radialGradient id="moonGradient" cx="40%" cy="40%" r="55%">
      <stop offset="0%" style="stop-color:#fef5d9;stop-opacity:1" />
      <stop offset="50%" style="stop-color:#f4e4b0;stop-opacity:1" />
      <stop offset="100%" style="stop-color:#d4b896;stop-opacity:1" />
    </radialGradient>

    <!-- Moon glow aura gradient -->
    <radialGradient id="moonGlowGradient" cx="50%" cy="50%" r="60%">
      <stop offset="0%" style="stop-color:#ffffff;stop-opacity:0.6" />
      <stop offset="50%" style="stop-color:#e8d5b7;stop-opacity:0.2" />
      <stop offset="100%" style="stop-color:#b8a89f;stop-opacity:0" />
    </radialGradient>

    <!-- Moonbeam gradient -->
    <linearGradient id="moonbeamGradient" x1="50%" y1="0%" x2="50%" y2="100%">
      <stop offset="0%" style="stop-color:#ffffff;stop-opacity:0.15" />
      <stop offset="100%" style="stop-color:#ffffff;stop-opacity:0" />
    </linearGradient>

    <!-- Fox fur gradient -->
    <linearGradient id="foxGradient" x1="0%" y1="0%" x2="100%" y2="100%">
      <stop offset="0%" style="stop-color:#c85a3a;stop-opacity:1" />
      <stop offset="100%" style="stop-color:#8b4423;stop-opacity:1" />
    </linearGradient>

    <!-- Owl gradient -->
    <radialGradient id="owlGradient" cx="45%" cy="45%" r="50%">
      <stop offset="0%" style="stop-color:#9b8b7a;stop-opacity:1" />
      <stop offset="100%" style="stop-color:#6b5b4a;stop-opacity:1" />
    </radialGradient>

    <!-- Meadow grass gradient -->
    <linearGradient id="meadowGradient" x1="0%" y1="0%" x2="0%" y2="100%">
      <stop offset="0%" style="stop-color:#3d5a3d;stop-opacity:1" />
      <stop offset="100%" style="stop-color:#2a3d2a;stop-opacity:1" />
    </linearGradient>

    <!-- Glow filter -->
    <filter id="softGlow">
      <feGaussianBlur stdDeviation="3" result="coloredBlur" />
      <feMerge>
        <feMergeNode in="coloredBlur" />
        <feMergeNode in="SourceGraphic" />
      </feMerge>
    </filter>

    <!-- Strong glow filter for moon -->
    <filter id="moonGlowFilter">
      <feGaussianBlur stdDeviation="6" result="coloredBlur" />
      <feMerge>
        <feMergeNode in="coloredBlur" />
        <feMergeNode in="SourceGraphic" />
      </feMerge>
    </filter>

    <!-- Subtle glow for flowers -->
    <filter id="flowerGlow">
      <feGaussianBlur stdDeviation="1.5" result="coloredBlur" />
      <feMerge>
        <feMergeNode in="coloredBlur" />
        <feMergeNode in="SourceGraphic" />
      </feMerge>
    </filter>

    <style>
      /* Moon swaying animation */
      @keyframes moonSway {
        0% { transform: rotate(-2deg); }
        50% { transform: rotate(2deg); }
        100% { transform: rotate(-2deg); }
      }

      /* Moon glow breathing */
      @keyframes moonGlowBreathe {
        0% { opacity: 0.2; }
        50% { opacity: 0.5; }
        100% { opacity: 0.2; }
      }

      /* Moonbeam pulsing */
      @keyframes moonbeamPulse {
        0% { opacity: 0.05; }
        50% { opacity: 0.15; }
        100% { opacity: 0.05; }
      }

      /* Musical note floating animation 1 */
      @keyframes noteFloat1 {
        0% { transform: translateY(0) translateX(0); opacity: 1; }
        100% { transform: translateY(-40px) translateX(8px); opacity: 0; }
      }

      /* Musical note floating animation 2 */
      @keyframes noteFloat2 {
        0% { transform: translateY(0) translateX(0); opacity: 1; }
        100% { transform: translateY(-45px) translateX(-10px); opacity: 0; }
      }

      /* Musical note floating animation 3 */
      @keyframes noteFloat3 {
        0% { transform: translateY(0) translateX(0); opacity: 1; }
        100% { transform: translateY(-50px) translateX(12px); opacity: 0; }
      }

      /* Musical note floating animation 4 */
      @keyframes noteFloat4 {
        0% { transform: translateY(0) translateX(0); opacity: 1; }
        100% { transform: translateY(-42px) translateX(-12px); opacity: 0; }
      }

      /* Musical note floating animation 5 */
      @keyframes noteFloat5 {
        0% { transform: translateY(0) translateX(0); opacity: 1; }
        100% { transform: translateY(-48px) translateX(6px); opacity: 0; }
      }

      /* Musical note floating animation 6 */
      @keyframes noteFloat6 {
        0% { transform: translateY(0) translateX(0); opacity: 1; }
        100% { transform: translateY(-44px) translateX(-8px); opacity: 0; }
      }

      /* Fox tail swishing */
      @keyframes foxTailSwish {
        0% { transform: rotate(-5deg); }
        50% { transform: rotate(5deg); }
        100% { transform: rotate(-5deg); }
      }

      /* Fox body breathing */
      @keyframes foxBreathe {
        0% { transform: scale(1); }
        50% { transform: scale(1.02); }
        100% { transform: scale(1); }
      }

      /* Owl subtle shifting */
      @keyframes owlShift {
        0% { transform: rotate(-1deg); }
        50% { transform: rotate(1deg); }
        100% { transform: rotate(-1deg); }
      }

      /* Flower swaying */
      @keyframes flowerSway1 {
        0% { transform: rotate(-3deg); }
        50% { transform: rotate(3deg); }
        100% { transform: rotate(-3deg); }
      }

      @keyframes flowerSway2 {
        0% { transform: rotate(-3deg); }
        50% { transform: rotate(3deg); }
        100% { transform: rotate(-3deg); }
      }

      @keyframes flowerSway3 {
        0% { transform: rotate(-3deg); }
        50% { transform: rotate(3deg); }
        100% { transform: rotate(-3deg); }
      }

      /* Star twinkling */
      @keyframes starTwinkle1 {
        0%, 100% { opacity: 0.4; }
        50% { opacity: 1; }
      }

      @keyframes starTwinkle2 {
        0%, 100% { opacity: 0.5; }
        50% { opacity: 0.9; }
      }

      @keyframes starTwinkle3 {
        0%, 100% { opacity: 0.3; }
        50% { opacity: 0.95; }
      }

      /* Grass swaying */
      @keyframes grassSway {
        0% { transform: skewX(-2deg); }
        50% { transform: skewX(2deg); }
        100% { transform: skewX(-2deg); }
      }

      /* Apply animations to classes */
      .moon-body {
        transform-origin: 256px 120px;
        animation: moonSway 6s ease-in-out infinite;
      }

      .moon-glow-aura {
        animation: moonGlowBreathe 4s ease-in-out infinite;
      }

      .moonbeam-1, .moonbeam-2, .moonbeam-3, .moonbeam-4, .moonbeam-5, .moonbeam-6 {
        animation: moonbeamPulse 5s ease-in-out infinite;
      }

      .musical-note-1 {
        animation: noteFloat1 9s ease-out infinite;
      }

      .musical-note-2 {
        animation: noteFloat2 10s ease-out 0.5s infinite;
      }

      .musical-note-3 {
        animation: noteFloat3 9.5s ease-out 1s infinite;
      }

      .musical-note-4 {
        animation: noteFloat4 10.5s ease-out 1.5s infinite;
      }

      .musical-note-5 {
        animation: noteFloat5 9s ease-out 2s infinite;
      }

      .musical-note-6 {
        animation: noteFloat6 10s ease-out 2.5s infinite;
      }

      .fox-tail {
        transform-origin: 140px 280px;
        animation: foxTailSwish 4s ease-in-out infinite;
      }

      .fox-body {
        transform-origin: 120px 270px;
        animation: foxBreathe 5s ease-in-out infinite;
      }

      .owl-body {
        transform-origin: 400px 280px;
        animation: owlShift 7s ease-in-out infinite;
      }

      .flower-1 {
        transform-origin: 80px 400px;
        animation: flowerSway1 5.5s ease-in-out infinite;
      }

      .flower-2 {
        transform-origin: 150px 410px;
        animation: flowerSway2 5.8s ease-in-out 0.3s infinite;
      }

      .flower-3 {
        transform-origin: 220px 400px;
        animation: flowerSway1 5.5s ease-in-out 0.6s infinite;
      }

      .flower-4 {
        transform-origin: 290px 410px;
        animation: flowerSway3 6s ease-in-out 0.9s infinite;
      }

      .flower-5 {
        transform-origin: 360px 400px;
        animation: flowerSway1 5.5s ease-in-out 1.2s infinite;
      }

      .flower-6 {
        transform-origin: 430px 410px;
        animation: flowerSway2 5.8s ease-in-out 1.5s infinite;
      }

      .flower-7 {
        transform-origin: 100px 450px;
        animation: flowerSway3 6s ease-in-out 1.8s infinite;
      }

      .flower-8 {
        transform-origin: 200px 450px;
        animation: flowerSway1 5.5s ease-in-out 2.1s infinite;
      }

      .flower-9 {
        transform-origin: 350px 450px;
        animation: flowerSway2 5.8s ease-in-out 2.4s infinite;
      }

      .flower-10 {
        transform-origin: 450px 450px;
        animation: flowerSway3 6s ease-in-out 2.7s infinite;
      }

      .star-1 { animation: starTwinkle1 3s ease-in-out infinite; }
      .star-2 { animation: starTwinkle2 4s ease-in-out 0.5s infinite; }
      .star-3 { animation: starTwinkle3 3.5s ease-in-out 1s infinite; }
      .star-4 { animation: starTwinkle1 4.5s ease-in-out 1.5s infinite; }
      .star-5 { animation: starTwinkle2 3.8s ease-in-out 2s infinite; }
      .star-6 { animation: starTwinkle3 4.2s ease-in-out 2.5s infinite; }
      .star-7 { animation: starTwinkle1 3.5s ease-in-out 3s infinite; }
      .star-8 { animation: starTwinkle2 4s ease-in-out 3.5s infinite; }
      .star-9 { animation: starTwinkle3 3.8s ease-in-out 4s infinite; }
      .star-10 { animation: starTwinkle1 4.5s ease-in-out 4.5s infinite; }
      .star-11 { animation: starTwinkle2 3.5s ease-in-out 5s infinite; }
      .star-12 { animation: starTwinkle3 4.2s ease-in-out 5.5s infinite; }
      .star-13 { animation: starTwinkle1 4s ease-in-out 6s infinite; }
      .star-14 { animation: starTwinkle2 3.8s ease-in-out 6.5s infinite; }
      .star-15 { animation: starTwinkle3 4.5s ease-in-out 7s infinite; }
      .star-16 { animation: starTwinkle1 3.5s ease-in-out 7.5s infinite; }

      .grass-tuft-1 {
        transform-origin: 60px 480px;
        animation: grassSway 4s ease-in-out infinite;
      }

      .grass-tuft-2 {
        transform-origin: 140px 490px;
        animation: grassSway 4.2s ease-in-out 0.3s infinite;
      }

      .grass-tuft-3 {
        transform-origin: 240px 485px;
        animation: grassSway 4s ease-in-out 0.6s infinite;
      }

      .grass-tuft-4 {
        transform-origin: 340px 490px;
        animation: grassSway 4.2s ease-in-out 0.9s infinite;
      }

      .grass-tuft-5 {
        transform-origin: 440px 485px;
        animation: grassSway 4s ease-in-out 1.2s infinite;
      }
    </style>
  </defs>

  <!-- Background sky -->
  <rect width="512" height="512" fill="url(#skyGradient)" />

  <!-- Subtle atmospheric layers -->
  <ellipse cx="256" cy="100" rx="200" ry="150" fill="#2a3a5a" opacity="0.3" />
  <ellipse cx="256" cy="150" rx="180" ry="120" fill="#3a4a6a" opacity="0.2" />

  <!-- Stars scattered across sky (16 stars) -->
  <circle class="star-1" cx="50" cy="60" r="1.5" fill="#ffffff" opacity="0.6" />
  <circle class="star-2" cx="120" cy="40" r="1" fill="#e8e0f5" opacity="0.5" />
  <circle class="star-3" cx="180" cy="50" r="1.2" fill="#ffffff" opacity="0.7" />
  <circle class="star-4" cx="280" cy="30" r="0.8" fill="#d9d0ff" opacity="0.4" />
  <circle class="star-5" cx="360" cy="45" r="1.3" fill="#ffffff" opacity="0.6" />
  <circle class="star-6" cx="450" cy="55" r="1" fill="#e8e0f5" opacity="0.5" />

  <!-- 4-pointed star sparkles -->
  <g class="star-7">
    <line x1="80" y1="100" x2="80" y2="108" stroke="#ffffff" stroke-width="0.6" opacity="0.5" />
    <line x1="76" y1="104" x2="84" y2="104" stroke="#ffffff" stroke-width="0.6" opacity="0.5" />
  </g>

  <g class="star-8">
    <line x1="200" y1="80" x2="200" y2="86" stroke="#ffffff" stroke-width="0.6" opacity="0.4" />
    <line x1="197" y1="83" x2="203" y2="83" stroke="#ffffff" stroke-width="0.6" opacity="0.4" />
  </g>

  <g class="star-9">
    <line x1="400" y1="70" x2="400" y2="78" stroke="#ffffff" stroke-width="0.6" opacity="0.5" />
    <line x1="396" y1="74" x2="404" y2="74" stroke="#ffffff" stroke-width="0.6" opacity="0.5" />
  </g>

  <circle class="star-10" cx="150" cy="130" r="1.2" fill="#ffffff" opacity="0.6" />
  <circle class="star-11" cx="330" cy="110" r="0.9" fill="#e8e0f5" opacity="0.5" />
  <circle class="star-12" cx="470" cy="90" r="1.1" fill="#ffffff" opacity="0.6" />

  <g class="star-13">
    <line x1="90" y1="160" x2="90" y2="168" stroke="#ffffff" stroke-width="0.6" opacity="0.4" />
    <line x1="86" y1="164" x2="94" y2="164" stroke="#ffffff" stroke-width="0.6" opacity="0.4" />
  </g>

  <circle class="star-14" cx="380" cy="140" r="1.1" fill="#e8e0f5" opacity="0.5" />
  <circle class="star-15" cx="250" cy="120" r="0.9" fill="#ffffff" opacity="0.5" />
  <circle class="star-16" cx="320" cy="180" r="1.2" fill="#ffffff" opacity="0.6" />

  <!-- Moonbeams (6 light rays) -->
  <g class="moonbeam-1">
    <path d="M 256 120 L 220 80 L 240 110 Z" fill="url(#moonbeamGradient)" />
  </g>
  <g class="moonbeam-2">
    <path d="M 256 120 L 292 80 L 272 110 Z" fill="url(#moonbeamGradient)" />
  </g>
  <g class="moonbeam-3">
    <path d="M 256 120 L 200 160 L 235 140 Z" fill="url(#moonbeamGradient)" />
  </g>
  <g class="moonbeam-4">
    <path d="M 256 120 L 312 160 L 277 140 Z" fill="url(#moonbeamGradient)" />
  </g>
  <g class="moonbeam-5">
    <path d="M 256 120 L 180 100 L 230 115 Z" fill="url(#moonbeamGradient)" />
  </g>
  <g class="moonbeam-6">
    <path d="M 256 120 L 332 100 L 282 115 Z" fill="url(#moonbeamGradient)" />
  </g>

  <!-- Moon glow aura (multiple concentric circles) -->
  <circle class="moon-glow-aura" cx="256" cy="120" r="75" fill="none" stroke="#ffffff" stroke-width="2" opacity="0.15" />
  <circle class="moon-glow-aura" cx="256" cy="120" r="60" fill="none" stroke="#e8d5b7" stroke-width="2" opacity="0.1" />
  <circle class="moon-glow-aura" cx="256" cy="120" r="85" fill="none" stroke="#ffffff" stroke-width="1" opacity="0.08" />

  <!-- Main moon body with glow -->
  <g class="moon-body">
    <!-- Glow effect circle -->
    <circle cx="256" cy="120" r="55" fill="url(#moonGlowGradient)" filter="url(#moonGlowFilter)" opacity="0.6" />

    <!-- Main moon circle -->
    <circle cx="256" cy="120" r="52" fill="url(#moonGradient)" filter="url(#softGlow)" />

    <!-- Moon craters (subtle darker patches) -->
    <circle cx="235" cy="100" r="8" fill="#9b8b7a" opacity="0.25" />
    <circle cx="270" cy="115" r="6" fill="#9b8b7a" opacity="0.2" />
    <circle cx="245" cy="135" r="5" fill="#8b7b6a" opacity="0.22" />
    <circle cx="275" cy="140" r="7" fill="#9b8b7a" opacity="0.18" />

    <!-- Moon face: happy singing expression -->
    <!-- Left eye (closed happy arc) -->
    <path d="M 240 105 Q 245 108 250 105" stroke="#6b5b4a" stroke-width="2" fill="none" stroke-linecap="round" />

    <!-- Right eye (closed happy arc) -->
    <path d="M 262 105 Q 267 108 272 105" stroke="#6b5b4a" stroke-width="2" fill="none" stroke-linecap="round" />

    <!-- Open O-shaped singing mouth -->
    <circle cx="256" cy="130" r="7" fill="none" stroke="#6b5b4a" stroke-width="1.5" />
    <circle cx="256" cy="130" r="5" fill="#d4a574" opacity="0.3" />

    <!-- Rosy cheeks (left) -->
    <ellipse cx="225" cy="120" rx="8" ry="6" fill="#f5a5a5" opacity="0.4" />

    <!-- Rosy cheeks (right) -->
    <ellipse cx="287" cy="120" rx="8" ry="6" fill="#f5a5a5" opacity="0.4" />
  </g>

  <!-- Musical notes floating around moon (6 notes) -->
  <!-- Note 1: Upper left -->
  <g class="musical-note-1">
    <circle cx="190" cy="180" r="4" fill="#ffffff" />
    <line x1="194" y1="180" x2="194" y2="160" stroke="#ffffff" stroke-width="1.5" />
    <path d="M 194 160 Q 200 162 205 158" stroke="#ffffff" stroke-width="1" fill="none" />
  </g>

  <!-- Note 2: Upper right -->
  <g class="musical-note-2">
    <circle cx="330" cy="170" r="3.5" fill="#f4e4b0" />
    <line x1="333.5" y1="170" x2="333.5" y2="152" stroke="#f4e4b0" stroke-width="1.3" />
    <path d="M 333.5 152 Q 338 154 343 150" stroke="#f4e4b0" stroke-width="0.9" fill="none" />
  </g>

  <!-- Note 3: Right side -->
  <g class="musical-note-3">
    <circle cx="360" cy="210" r="4" fill="#e8d5b7" />
    <line x1="364" y1="210" x2="364" y2="188" stroke="#e8d5b7" stroke-width="1.5" />
    <path d="M 364 188 Q 370 190 375 186" stroke="#e8d5b7" stroke-width="1" fill="none" />
  </g>

  <!-- Note 4: Left side -->
  <g class="musical-note-4">
    <circle cx="160" cy="220" r="3.8" fill="#ffffff" />
    <line x1="163.8" y1="220" x2="163.8" y2="200" stroke="#ffffff" stroke-width="1.4" />
    <path d="M 163.8 200 Q 168 202 173 198" stroke="#ffffff" stroke-width="0.9" fill="none" />
  </g>

  <!-- Note 5: Bottom right area -->
  <g class="musical-note-5">
    <circle cx="340" cy="250" r="3.5" fill="#f4e4b0" />
    <line x1="343.5" y1="250" x2="343.5" y2="232" stroke="#f4e4b0" stroke-width="1.3" />
    <path d="M 343.5 232 Q 348 234 353 230" stroke="#f4e4b0" stroke-width="0.9" fill="none" />
  </g>

  <!-- Note 6: Bottom left area -->
  <g class="musical-note-6">
    <circle cx="180" cy="260" r="4" fill="#e8d5b7" />
    <line x1="184" y1="260" x2="184" y2="238" stroke="#e8d5b7" stroke-width="1.5" />
    <path d="M 184 238 Q 190 240 195 236" stroke="#e8d5b7" stroke-width="1" fill="none" />
  </g>

  <!-- Meadow grass background -->
  <path d="M 0 380 Q 128 360 256 375 Q 384 390 512 380 L 512 512 L 0 512 Z" fill="url(#meadowGradient)" />
  <ellipse cx="256" cy="400" rx="200" ry="60" fill="#3d5a3d" opacity="0.3" />
  <ellipse cx="256" cy="420" rx="180" ry="50" fill="#2a4a2a" opacity="0.2" />

  <!-- Grass tufts (small animated elements) -->
  <g class="grass-tuft-1">
    <line x1="60" y1="485" x2="58" y2="475" stroke="#6b8b6b" stroke-width="1.2" stroke-linecap="round" />
    <line x1="62" y1="485" x2="64" y2="473" stroke="#5a7a5a" stroke-width="1" stroke-linecap="round" />
    <line x1="58" y1="485" x2="55" y2="478" stroke="#7a9a7a" stroke-width="1.1" stroke-linecap="round" />
  </g>

  <g class="grass-tuft-2">
    <line x1="140" y1="495" x2="138" y2="483" stroke="#6b8b6b" stroke-width="1.2" stroke-linecap="round" />
    <line x1="142" y1="495" x2="145" y2="481" stroke="#5a7a5a" stroke-width="1" stroke-linecap="round" />
    <line x1="138" y1="495" x2="135" y2="486" stroke="#7a9a7a" stroke-width="1.1" stroke-linecap="round" />
  </g>

  <g class="grass-tuft-3">
    <line x1="240" y1="490" x2="238" y2="478" stroke="#6b8b6b" stroke-width="1.2" stroke-linecap="round" />
    <line x1="242" y1="490" x2="245" y2="476" stroke="#5a7a5a" stroke-width="1" stroke-linecap="round" />
    <line x1="238" y1="490" x2="235" y2="481" stroke="#7a9a7a" stroke-width="1.1" stroke-linecap="round" />
  </g>

  <g class="grass-tuft-4">
    <line x1="340" y1="495" x2="338" y2="483" stroke="#6b8b6b" stroke-width="1.2" stroke-linecap="round" />
    <line x1="342" y1="495" x2="345" y2="481" stroke="#5a7a5a" stroke-width="1" stroke-linecap="round" />
    <line x1="338" y1="495" x2="335" y2="486" stroke="#7a9a7a" stroke-width="1.1" stroke-linecap="round" />
  </g>

  <g class="grass-tuft-5">
    <line x1="440" y1="490" x2="438" y2="478" stroke="#6b8b6b" stroke-width="1.2" stroke-linecap="round" />
    <line x1="442" y1="490" x2="445" y2="476" stroke="#5a7a5a" stroke-width="1" stroke-linecap="round" />
    <line x1="438" y1="490" x2="435" y2="481" stroke="#7a9a7a" stroke-width="1.1" stroke-linecap="round" />
  </g>

  <!-- Sleeping fox on left side -->
  <g class="fox-body">
    <!-- Fox body (orange-brown) -->
    <ellipse cx="110" cy="280" rx="35" ry="30" fill="url(#foxGradient)" filter="url(#softGlow)" />

    <!-- Fox head -->
    <circle cx="95" cy="250" r="22" fill="url(#foxGradient)" />

    <!-- Left ear -->
    <ellipse cx="75" cy="230" rx="10" ry="18" fill="url(#foxGradient)" />
    <ellipse cx="75" cy="235" rx="5" ry="10" fill="#f5c9a5" />

    <!-- Right ear -->
    <ellipse cx="115" cy="228" rx="10" ry="18" fill="url(#foxGradient)" />
    <ellipse cx="115" cy="233" rx="5" ry="10" fill="#f5c9a5" />

    <!-- Snout area -->
    <ellipse cx="88" cy="260" rx="10" ry="8" fill="#e8c4a0" />

    <!-- Black nose -->
    <circle cx="87" cy="262" r="2.5" fill="#1a1a1a" />

    <!-- Left closed eye (peaceful arc) -->
    <path d="M 92 245 Q 97 248 102 245" stroke="#1a1a1a" stroke-width="1.5" fill="none" stroke-linecap="round" />

    <!-- Right closed eye (peaceful arc) -->
    <path d="M 78 245 Q 83 248 88 245" stroke="#1a1a1a" stroke-width="1.5" fill="none" stroke-linecap="round" />

    <!-- Mouth (sleeping expression) -->
    <path d="M 87 265 Q 92 268 95 266" stroke="#1a1a1a" stroke-width="1" fill="none" stroke-linecap="round" opacity="0.6" />
  </g>

  <!-- Fox fluffy tail (curled) -->
  <g class="fox-tail">
    <path d="M 140 290 Q 160 280 170 260 Q 175 245 172 230"
          stroke="url(#foxGradient)" stroke-width="20" fill="none" stroke-linecap="round" opacity="0.9" />

    <!-- Fur texture bumps on tail -->
    <circle cx="145" cy="287" r="3" fill="#9b6633" opacity="0.3" />
    <circle cx="155" cy="278" r="2.8" fill="#9b6633" opacity="0.3" />
    <circle cx="165" cy="265" r="3.2" fill="#9b6633" opacity="0.3" />
    <circle cx="171" cy="250" r="2.5" fill="#9b6633" opacity="0.3" />
    <circle cx="170" cy="238" r="3" fill="#9b6633" opacity="0.3" />
  </g>

  <!-- Sleeping owl on right side -->
  <g class="owl-body">
    <!-- Main body -->
    <ellipse cx="400" cy="285" rx="28" ry="35" fill="url(#owlGradient)" filter="url(#softGlow)" />

    <!-- Head -->
    <circle cx="400" cy="255" r="24" fill="url(#owlGradient)" />

    <!-- Left ear tuft -->
    <ellipse cx="375" cy="235" rx="8" ry="16" fill="url(#owlGradient)" />
    <ellipse cx="375" cy="240" rx="4" ry="10" fill="#8b7b6a" opacity="0.6" />

    <!-- Right ear tuft -->
    <ellipse cx="425" cy="235" rx="8" ry="16" fill="url(#owlGradient)" />
    <ellipse cx="425" cy="240" rx="4" ry="10" fill="#8b7b6a" opacity="0.6" />

    <!-- Left closed eye (peaceful) -->
    <circle cx="388" cy="248" r="5" fill="#5a4a3a" />
    <path d="M 385 245 Q 388 242 391 245" stroke="#3a2a1a" stroke-width="1.2" fill="none" />

    <!-- Right closed eye (peaceful) -->
    <circle cx="412" cy="248" r="5" fill="#5a4a3a" />
    <path d="M 409 245 Q 412 242 415 245" stroke="#3a2a1a" stroke-width="1.2" fill="none" />

    <!-- Left eyebrow tuft -->
    <path d="M 382 242 Q 388 238 393 242" stroke="#6b5b4a" stroke-width="1.5" fill="none" stroke-linecap="round" opacity="0.7" />

    <!-- Right eyebrow tuft -->
    <path d="M 407 242 Q 412 238 417 242" stroke="#6b5b4a" stroke-width="1.5" fill="none" stroke-linecap="round" opacity="0.7" />

    <!-- Small beak -->
    <polygon points="400,268 406,265 400,272" fill="#d4a563" />

    <!-- Wing detail (left side, folded) -->
    <path d="M 375 275 Q 370 285 375 300 Q 378 295 378 280" fill="#5a4a3a" opacity="0.4" />

    <!-- Left foot gripping branch -->
    <g>
      <line x1="385" y1="315" x2="382" y2="325" stroke="#8b7b6a" stroke-width="2" stroke-linecap="round" />
      <line x1="395" y1="318" x2="395" y2="328" stroke="#8b7b6a" stroke-width="2" stroke-linecap="round" />
      <circle cx="382" cy="327" r="2" fill="#8b7b6a" />
      <circle cx="395" cy="330" r="2" fill="#8b7b6a" />
    </g>

    <!-- Right foot gripping branch -->
    <g>
      <line x1="415" y1="318" x2="415" y2="328" stroke="#8b7b6a" stroke-width="2" stroke-linecap="round" />
      <line x1="405" y1="315" x2="408" y2="325" stroke="#8b7b6a" stroke-width="2" stroke-linecap="round" />
      <circle cx="415" cy="330" r="2" fill="#8b7b6a" />
      <circle cx="408" cy="327" r="2" fill="#8b7b6a" />
    </g>
  </g>

  <!-- Small branch/perch for owl -->
  <ellipse cx="400" cy="332" rx="45" ry="8" fill="#8b7b6a" filter="url(#softGlow)" />
  <ellipse cx="400" cy="332" rx="45" ry="6" fill="#9b8b7a" opacity="0.6" />

  <!-- Flower meadow with 10 flowers -->
  <!-- Flower 1: Pink rose (left) -->
  <g class="flower-1">
    <ellipse cx="80" cy="400" rx="3" ry="6" fill="#4a6a4a" />
    <!-- Petals -->
    <circle cx="76" cy="395" r="4" fill="#f5a5c5" filter="url(#flowerGlow)" />
    <circle cx="80" cy="391" r="4" fill="#f5b5d5" filter="url(#flowerGlow)" />
    <circle cx="84" cy="395" r="4" fill="#f5a5c5" filter="url(#flowerGlow)" />
    <circle cx="80" cy="399" r="4" fill="#f5b5d5" filter="url(#flowerGlow)" />
    <circle cx="78" cy="393" r="3.5" fill="#f5a5c5" filter="url(#flowerGlow)" />
    <circle cx="82" cy="393" r="3.5" fill="#f5a5c5" filter="url(#flowerGlow)" />
    <circle cx="78" cy="397" r="3.5" fill="#f5b5d5" filter="url(#flowerGlow)" />
    <circle cx="82" cy="397" r="3.5" fill="#f5b5d5" filter="url(#flowerGlow)" />
    <circle cx="80" cy="395" r="2.5" fill="#f5d5e5" />
  </g>

  <!-- Flower 2: Purple lily (mid-left) -->
  <g class="flower-2">
    <ellipse cx="150" cy="410" rx="2.5" ry="5" fill="#4a6a4a" />
    <!-- Elongated petals radiating from center -->
    <ellipse cx="145" cy="403" rx="2" ry="5" fill="#c5a5d5" filter="url(#flowerGlow)" transform="rotate(-60 145 403)" />
    <ellipse cx="155" cy="403" rx="2" ry="5" fill="#c5a5d5" filter="url(#flowerGlow)" transform="rotate(60 155 403)" />
    <ellipse cx="150" cy="398" rx="2" ry="5" fill="#b595c5" filter="url(#flowerGlow)" />
    <ellipse cx="145" cy="410" rx="2" ry="5" fill="#c5a5d5" filter="url(#flowerGlow)" transform="rotate(-120 145 410)" />
    <ellipse cx="155" cy="410" rx="2" ry="5" fill="#b595c5" filter="url(#flowerGlow)" transform="rotate(120 155 410)" />
    <circle cx="150" cy="406" r="2" fill="#d5b5e5" />
  </g>

  <!-- Flower 3: Golden daisy (center-left) -->
  <g class="flower-3">
    <ellipse cx="220" cy="400" rx="2.5" ry="5" fill="#4a6a4a" />
    <!-- Small circle petals -->
    <circle cx="218" cy="393" r="2.5" fill="#f5d85a" filter="url(#flowerGlow)" />
    <circle cx="222" cy="393" r="2.5" fill="#f5d85a" filter="url(#flowerGlow)" />
    <circle cx="225" cy="397" r="2.5" fill="#f5d85a" filter="url(#flowerGlow)" />
    <circle cx="225" cy="403" r="2.5" fill="#f5c84a" filter="url(#flowerGlow)" />
    <circle cx="222" cy="407" r="2.5" fill="#f5d85a" filter="url(#flowerGlow)" />
    <circle cx="218" cy="407" r="2.5" fill="#f5c84a" filter="url(#flowerGlow)" />
    <circle cx="215" cy="403" r="2.5" fill="#f5d85a" filter="url(#flowerGlow)" />
    <circle cx="215" cy="397" r="2.5" fill="#f5c84a" filter="url(#flowerGlow)" />
    <circle cx="220" cy="400" r="3" fill="#ffeb99" />
  </g>

  <!-- Flower 4: Pink rose (center) -->
  <g class="flower-4">
    <ellipse cx="290" cy="410" rx="3" ry="6" fill="#4a6a4a" />
    <!-- Petals -->
    <circle cx="286" cy="405" r="4" fill="#f5a5c5" filter="url(#flowerGlow)" />
    <circle cx="290" cy="401" r="4" fill="#f5b5d5" filter="url(#flowerGlow)" />
    <circle cx="294" cy="405" r="4" fill="#f5a5c5" filter="url(#flowerGlow)" />
    <circle cx="290" cy="409" r="4" fill="#f5b5d5" filter="url(#flowerGlow)" />
    <circle cx="288" cy="403" r="3.5" fill="#f5a5c5" filter="url(#flowerGlow)" />
    <circle cx="292" cy="403" r="3.5" fill="#f5a5c5" filter="url(#flowerGlow)" />
    <circle cx="288" cy="407" r="3.5" fill="#f5b5d5" filter="url(#flowerGlow)" />
    <circle cx="292" cy="407" r="3.5" fill="#f5b5d5" filter="url(#flowerGlow)" />
    <circle cx="290" cy="405" r="2.5" fill="#f5d5e5" />
  </g>

  <!-- Flower 5: Purple lily (center-right) -->
  <g class="flower-5">
    <ellipse cx="360" cy="400" rx="2.5" ry="5" fill="#4a6a4a" />
    <!-- Elongated petals radiating from center -->
    <ellipse cx="355" cy="393" rx="2" ry="5" fill="#c5a5d5" filter="url(#flowerGlow)" transform="rotate(-60 355 393)" />
    <ellipse cx="365" cy="393" rx="2" ry="5" fill="#c5a5d5" filter="url(#flowerGlow)" transform="rotate(60 365 393)" />
    <ellipse cx="360" cy="388" rx="2" ry="5" fill="#b595c5" filter="url(#flowerGlow)" />
    <ellipse cx="355" cy="400" rx="2" ry="5" fill="#c5a5d5" filter="url(#flowerGlow)" transform="rotate(-120 355 400)" />
    <ellipse cx="365" cy="400" rx="2" ry="5" fill="#b595c5" filter="url(#flowerGlow)" transform="rotate(120 365 400)" />
    <circle cx="360" cy="396" r="2" fill="#d5b5e5" />
  </g>

  <!-- Flower 6: Golden daisy (right) -->
  <g class="flower-6">
    <ellipse cx="430" cy="410" rx="2.5" ry="5" fill="#4a6a4a" />
    <!-- Small circle petals -->
    <circle cx="428" cy="403" r="2.5" fill="#f5d85a" filter="url(#flowerGlow)" />
    <circle cx="432" cy="403" r="2.5" fill="#f5d85a" filter="url(#flowerGlow)" />
    <circle cx="435" cy="407" r="2.5" fill="#f5d85a" filter="url(#flowerGlow)" />
    <circle cx="435" cy="413" r="2.5" fill="#f5c84a" filter="url(#flowerGlow)" />
    <circle cx="432" cy="417" r="2.5" fill="#f5d85a" filter="url(#flowerGlow)" />
    <circle cx="428" cy="417" r="2.5" fill="#f5c84a" filter="url(#flowerGlow)" />
    <circle cx="425" cy="413" r="2.5" fill="#f5d85a" filter="url(#flowerGlow)" />
    <circle cx="425" cy="407" r="2.5" fill="#f5c84a" filter="url(#flowerGlow)" />
    <circle cx="430" cy="410" r="3" fill="#ffeb99" />
  </g>

  <!-- Flower 7: Pink rose (lower left) -->
  <g class="flower-7">
    <ellipse cx="100" cy="450" rx="3" ry="6" fill="#4a6a4a" />
    <!-- Petals -->
    <circle cx="96" cy="445" r="4" fill="#f5a5c5" filter="url(#flowerGlow)" />
    <circle cx="100" cy="441" r="4" fill="#f5b5d5" filter="url(#flowerGlow)" />
    <circle cx="104" cy="445" r="4" fill="#f5a5c5" filter="url(#flowerGlow)" />
    <circle cx="100" cy="449" r="4" fill="#f5b5d5" filter="url(#flowerGlow)" />
    <circle cx="98" cy="443" r="3.5" fill="#f5a5c5" filter="url(#flowerGlow)" />
    <circle cx="102" cy="443" r="3.5" fill="#f5a5c5" filter="url(#flowerGlow)" />
    <circle cx="98" cy="447" r="3.5" fill="#f5b5d5" filter="url(#flowerGlow)" />
    <circle cx="102" cy="447" r="3.5" fill="#f5b5d5" filter="url(#flowerGlow)" />
    <circle cx="100" cy="445" r="2.5" fill="#f5d5e5" />
  </g>

  <!-- Flower 8: Purple lily (lower center) -->
  <g class="flower-8">
    <ellipse cx="200" cy="450" rx="2.5" ry="5" fill="#4a6a4a" />
    <!-- Elongated petals radiating from center -->
    <ellipse cx="195" cy="443" rx="2" ry="5" fill="#c5a5d5" filter="url(#flowerGlow)" transform="rotate(-60 195 443)" />
    <ellipse cx="205" cy="443" rx="2" ry="5" fill="#c5a5d5" filter="url(#flowerGlow)" transform="rotate(60 205 443)" />
    <ellipse cx="200" cy="438" rx="2" ry="5" fill="#b595c5" filter="url(#flowerGlow)" />
    <ellipse cx="195" cy="450" rx="2" ry="5" fill="#c5a5d5" filter="url(#flowerGlow)" transform="rotate(-120 195 450)" />
    <ellipse cx="205" cy="450" rx="2" ry="5" fill="#b595c5" filter="url(#flowerGlow)" transform="rotate(120 205 450)" />
    <circle cx="200" cy="446" r="2" fill="#d5b5e5" />
  </g>

  <!-- Flower 9: Golden daisy (lower right) -->
  <g class="flower-9">
    <ellipse cx="350" cy="450" rx="2.5" ry="5" fill="#4a6a4a" />
    <!-- Small circle petals -->
    <circle cx="348" cy="443" r="2.5" fill="#f5d85a" filter="url(#flowerGlow)" />
    <circle cx="352" cy="443" r="2.5" fill="#f5d85a" filter="url(#flowerGlow)" />
    <circle cx="355" cy="447" r="2.5" fill="#f5d85a" filter="url(#flowerGlow)" />
    <circle cx="355" cy="453" r="2.5" fill="#f5c84a" filter="url(#flowerGlow)" />
    <circle cx="352" cy="457" r="2.5" fill="#f5d85a" filter="url(#flowerGlow)" />
    <circle cx="348" cy="457" r="2.5" fill="#f5c84a" filter="url(#flowerGlow)" />
    <circle cx="345" cy="453" r="2.5" fill="#f5d85a" filter="url(#flowerGlow)" />
    <circle cx="345" cy="447" r="2.5" fill="#f5c84a" filter="url(#flowerGlow)" />
    <circle cx="350" cy="450" r="3" fill="#ffeb99" />
  </g>

  <!-- Flower 10: Pink rose (lower right area) -->
  <g class="flower-10">
    <ellipse cx="450" cy="450" rx="3" ry="6" fill="#4a6a4a" />
    <!-- Petals -->
    <circle cx="446" cy="445" r="4" fill="#f5a5c5" filter="url(#flowerGlow)" />
    <circle cx="450" cy="441" r="4" fill="#f5b5d5" filter="url(#flowerGlow)" />
    <circle cx="454" cy="445" r="4" fill="#f5a5c5" filter="url(#flowerGlow)" />
    <circle cx="450" cy="449" r="4" fill="#f5b5d5" filter="url(#flowerGlow)" />
    <circle cx="448" cy="443" r="3.5" fill="#f5a5c5" filter="url(#flowerGlow)" />
    <circle cx="452" cy="443" r="3.5" fill="#f5a5c5" filter="url(#flowerGlow)" />
    <circle cx="448" cy="447" r="3.5" fill="#f5b5d5" filter="url(#flowerGlow)" />
    <circle cx="452" cy="447" r="3.5" fill="#f5b5d5" filter="url(#flowerGlow)" />
    <circle cx="450" cy="445" r="2.5" fill="#f5d5e5" />
  </g>

  <!-- Additional atmospheric layer for depth -->
  <ellipse cx="256" cy="480" rx="256" ry="40" fill="#1a1a1a" opacity="0.1" />
</svg>
