<svg viewBox="0 0 512 512" xmlns="http://www.w3.org/2000/svg">
  <defs>
    <!-- Sky gradient: deep warm purple night -->
    <linearGradient id="ns-skyGradient" x1="0" y1="0" x2="0" y2="1">
      <stop offset="0%" stop-color="#0f0a2e"/>
      <stop offset="45%" stop-color="#1a1550"/>
      <stop offset="100%" stop-color="#2a2070"/>
    </linearGradient>

    <!-- Moon glow gradient -->
    <radialGradient id="ns-moonGlow" cx="50%" cy="50%" r="55%">
      <stop offset="0%" stop-color="#fef5d9" stop-opacity="1"/>
      <stop offset="50%" stop-color="#f4e4b0" stop-opacity="0.4"/>
      <stop offset="100%" stop-color="#fef5d9" stop-opacity="0"/>
    </radialGradient>

    <!-- Star character glow -->
    <radialGradient id="ns-starGlow" cx="50%" cy="50%" r="60%">
      <stop offset="0%" stop-color="#ffd700" stop-opacity="0.8"/>
      <stop offset="40%" stop-color="#ffee88" stop-opacity="0.3"/>
      <stop offset="100%" stop-color="#fff5cc" stop-opacity="0"/>
    </radialGradient>

    <!-- Star body gradient -->
    <radialGradient id="ns-starBody" cx="40%" cy="35%" r="60%">
      <stop offset="0%" stop-color="#fff5cc"/>
      <stop offset="40%" stop-color="#ffee88"/>
      <stop offset="100%" stop-color="#ffd700"/>
    </radialGradient>

    <!-- Forest ground gradient -->
    <linearGradient id="ns-forestGround" x1="0" y1="0" x2="0" y2="1">
      <stop offset="0%" stop-color="#1a3a2a"/>
      <stop offset="100%" stop-color="#0d2a1a"/>
    </linearGradient>

    <!-- Tree gradient -->
    <linearGradient id="ns-treeGrad" x1="0" y1="0" x2="0" y2="1">
      <stop offset="0%" stop-color="#2d4a3a"/>
      <stop offset="100%" stop-color="#1a3a2a"/>
    </linearGradient>

    <!-- Distant tree gradient -->
    <linearGradient id="ns-distTreeGrad" x1="0" y1="0" x2="0" y2="1">
      <stop offset="0%" stop-color="#1a3a2a" stop-opacity="0.4"/>
      <stop offset="100%" stop-color="#0d2a1a" stop-opacity="0.3"/>
    </linearGradient>

    <!-- Musical note gradient warm -->
    <linearGradient id="ns-noteWarm" x1="0" y1="0" x2="0" y2="1">
      <stop offset="0%" stop-color="#ffb347"/>
      <stop offset="100%" stop-color="#ff69b4"/>
    </linearGradient>

    <!-- Musical note gradient pink -->
    <linearGradient id="ns-notePink" x1="0" y1="0" x2="0" y2="1">
      <stop offset="0%" stop-color="#ff69b4"/>
      <stop offset="100%" stop-color="#ffb6c1"/>
    </linearGradient>

    <!-- Moonbeam gradient -->
    <linearGradient id="ns-moonbeam" x1="50%" y1="0%" x2="50%" y2="100%">
      <stop offset="0%" stop-color="#fef5d9" stop-opacity="0.12"/>
      <stop offset="100%" stop-color="#fef5d9" stop-opacity="0"/>
    </linearGradient>

    <!-- Vignette -->
    <radialGradient id="ns-vignette">
      <stop offset="45%" stop-color="#000000" stop-opacity="0"/>
      <stop offset="100%" stop-color="#000000" stop-opacity="0.55"/>
    </radialGradient>

    <!-- Soft glow filter -->
    <filter id="ns-softGlow">
      <feGaussianBlur stdDeviation="2" result="blur"/>
      <feMerge>
        <feMergeNode in="blur"/>
        <feMergeNode in="SourceGraphic"/>
      </feMerge>
    </filter>

    <!-- Medium glow filter -->
    <filter id="ns-mediumGlow">
      <feGaussianBlur stdDeviation="4" result="blur"/>
      <feMerge>
        <feMergeNode in="blur"/>
        <feMergeNode in="SourceGraphic"/>
      </feMerge>
    </filter>

    <!-- Strong glow filter -->
    <filter id="ns-strongGlow">
      <feGaussianBlur stdDeviation="6" result="blur"/>
      <feMerge>
        <feMergeNode in="blur"/>
        <feMergeNode in="SourceGraphic"/>
      </feMerge>
    </filter>

    <!-- Shadow filter -->
    <filter id="ns-shadow">
      <feGaussianBlur in="SourceAlpha" stdDeviation="3" result="blur"/>
      <feOffset in="blur" dy="2" result="offset"/>
      <feMerge>
        <feMergeNode in="offset"/>
        <feMergeNode in="SourceGraphic"/>
      </feMerge>
    </filter>
  </defs>

  <style>
    /* Star character pulse glow */
    @keyframes ns-starPulse {
      0%, 100% { opacity: 0.6; transform: scale(1); }
      50% { opacity: 1; transform: scale(1.08); }
    }

    /* Star body gentle bob */
    @keyframes ns-starBob {
      0%, 100% { transform: translateY(0px); }
      50% { transform: translateY(-6px); }
    }

    /* Musical notes floating down */
    @keyframes ns-noteFloat1 {
      0% { opacity: 0; transform: translate(0px, 0px) rotate(0deg); }
      10% { opacity: 0.85; }
      80% { opacity: 0.6; }
      100% { opacity: 0; transform: translate(-20px, 80px) rotate(-15deg); }
    }
    @keyframes ns-noteFloat2 {
      0% { opacity: 0; transform: translate(0px, 0px) rotate(0deg); }
      10% { opacity: 0.8; }
      80% { opacity: 0.5; }
      100% { opacity: 0; transform: translate(15px, 90px) rotate(12deg); }
    }
    @keyframes ns-noteFloat3 {
      0% { opacity: 0; transform: translate(0px, 0px) rotate(0deg); }
      10% { opacity: 0.75; }
      80% { opacity: 0.5; }
      100% { opacity: 0; transform: translate(-10px, 75px) rotate(-10deg); }
    }

    /* Sleeping animal breathing */
    @keyframes ns-breathe {
      0%, 100% { transform: scaleY(1) scaleX(1); }
      50% { transform: scaleY(1.03) scaleX(1.01); }
    }
    @keyframes ns-breatheSlow {
      0%, 100% { transform: scaleY(1) scaleX(1); }
      50% { transform: scaleY(1.025) scaleX(1.015); }
    }

    /* Tree gentle sway */
    @keyframes ns-treeSway {
      0%, 100% { transform: rotate(0deg); }
      33% { transform: rotate(1.5deg); }
      66% { transform: rotate(-1.5deg); }
    }
    @keyframes ns-treeSwayAlt {
      0%, 100% { transform: rotate(0deg); }
      33% { transform: rotate(-1.2deg); }
      66% { transform: rotate(1.2deg); }
    }

    /* Smaller stars twinkle */
    @keyframes ns-twinkle {
      0%, 100% { opacity: 0.3; }
      50% { opacity: 1; }
    }

    /* Moonlight beam shimmer */
    @keyframes ns-moonShimmer {
      0%, 100% { opacity: 0.08; }
      50% { opacity: 0.18; }
    }

    /* Zzz floating animation */
    @keyframes ns-zzzFloat {
      0% { opacity: 0; transform: translate(0px, 0px) scale(0.5); }
      20% { opacity: 0.7; }
      100% { opacity: 0; transform: translate(8px, -18px) scale(1); }
    }

    /* Cheek blush pulse */
    @keyframes ns-blushPulse {
      0%, 100% { opacity: 0.35; }
      50% { opacity: 0.55; }
    }

    /* Animation assignments */
    .ns-star-glow { animation: ns-starPulse 3s ease-in-out infinite; }
    .ns-star-body { animation: ns-starBob 4.5s ease-in-out infinite; }

    .ns-note-1 { animation: ns-noteFloat1 7s ease-in-out infinite; }
    .ns-note-2 { animation: ns-noteFloat2 6.5s ease-in-out infinite 1.2s; }
    .ns-note-3 { animation: ns-noteFloat3 7.5s ease-in-out infinite 2.5s; }
    .ns-note-4 { animation: ns-noteFloat1 8s ease-in-out infinite 3.8s; }
    .ns-note-5 { animation: ns-noteFloat2 6.8s ease-in-out infinite 5s; }

    .ns-bunny-breathe { animation: ns-breathe 4.5s ease-in-out infinite; transform-origin: center bottom; }
    .ns-deer-breathe { animation: ns-breatheSlow 5s ease-in-out infinite 0.5s; transform-origin: center bottom; }
    .ns-owl-breathe { animation: ns-breathe 4s ease-in-out infinite 1s; transform-origin: center bottom; }

    .ns-tree-1 { animation: ns-treeSway 6s ease-in-out infinite; transform-origin: center bottom; }
    .ns-tree-2 { animation: ns-treeSwayAlt 6.5s ease-in-out infinite 0.8s; transform-origin: center bottom; }
    .ns-tree-3 { animation: ns-treeSway 5.5s ease-in-out infinite 1.5s; transform-origin: center bottom; }
    .ns-tree-4 { animation: ns-treeSwayAlt 6.2s ease-in-out infinite 0.3s; transform-origin: center bottom; }

    .ns-twinkle-1 { animation: ns-twinkle 2.5s ease-in-out infinite; }
    .ns-twinkle-2 { animation: ns-twinkle 2.3s ease-in-out infinite 0.4s; }
    .ns-twinkle-3 { animation: ns-twinkle 2.8s ease-in-out infinite 0.9s; }
    .ns-twinkle-4 { animation: ns-twinkle 2.6s ease-in-out infinite 1.4s; }
    .ns-twinkle-5 { animation: ns-twinkle 2.2s ease-in-out infinite 1.8s; }
    .ns-twinkle-6 { animation: ns-twinkle 2.7s ease-in-out infinite 0.6s; }
    .ns-twinkle-7 { animation: ns-twinkle 2.4s ease-in-out infinite 1.1s; }
    .ns-twinkle-8 { animation: ns-twinkle 3s ease-in-out infinite 0.2s; }

    .ns-moonbeam { animation: ns-moonShimmer 5s ease-in-out infinite; }
    .ns-moonbeam-2 { animation: ns-moonShimmer 5.5s ease-in-out infinite 1.5s; }

    .ns-zzz-1 { animation: ns-zzzFloat 3s ease-in-out infinite; }
    .ns-zzz-2 { animation: ns-zzzFloat 3.2s ease-in-out infinite 1s; }
    .ns-zzz-3 { animation: ns-zzzFloat 2.8s ease-in-out infinite 2s; }

    .ns-blush { animation: ns-blushPulse 3s ease-in-out infinite; }
  </style>

  <!-- ============================================ -->
  <!-- LAYER 1: Background sky / atmosphere         -->
  <!-- ============================================ -->
  <rect width="512" height="512" fill="url(#ns-skyGradient)"/>

  <!-- Subtle sky warmth near horizon -->
  <ellipse cx="256" cy="480" rx="320" ry="120" fill="#2a2070" opacity="0.3"/>
  <ellipse cx="256" cy="500" rx="280" ry="80" fill="#3a2880" opacity="0.2"/>

  <!-- ============================================ -->
  <!-- LAYER 2: Far background (moon, distant trees)-->
  <!-- ============================================ -->

  <!-- Moon -->
  <g transform="translate(390, 75)">
    <!-- Moon aura -->
    <circle cx="0" cy="0" r="55" fill="url(#ns-moonGlow)" filter="url(#ns-strongGlow)"/>
    <!-- Moon body -->
    <circle cx="0" cy="0" r="28" fill="#fef5d9" filter="url(#ns-softGlow)"/>
    <!-- Moon crescent shadow -->
    <circle cx="8" cy="-4" r="24" fill="#1a1550" opacity="0.15"/>
  </g>

  <!-- Moonlight beams -->
  <polygon points="390,103 320,420 340,420" fill="url(#ns-moonbeam)" class="ns-moonbeam" opacity="0.1"/>
  <polygon points="390,103 410,420 440,420" fill="url(#ns-moonbeam)" class="ns-moonbeam-2" opacity="0.08"/>
  <polygon points="390,103 250,420 280,420" fill="url(#ns-moonbeam)" class="ns-moonbeam" opacity="0.06"/>

  <!-- Background twinkle stars -->
  <circle cx="60" cy="45" r="1.5" fill="#fff5cc" class="ns-twinkle-1"/>
  <circle cx="145" cy="28" r="1" fill="#ffee88" class="ns-twinkle-2"/>
  <circle cx="210" cy="62" r="1.2" fill="#fff5cc" class="ns-twinkle-3"/>
  <circle cx="310" cy="38" r="1.3" fill="#ffee88" class="ns-twinkle-4"/>
  <circle cx="455" cy="52" r="1" fill="#fff5cc" class="ns-twinkle-5"/>
  <circle cx="480" cy="130" r="1.4" fill="#ffee88" class="ns-twinkle-6"/>
  <circle cx="42" cy="120" r="1.1" fill="#fff5cc" class="ns-twinkle-7"/>
  <circle cx="175" cy="105" r="0.9" fill="#ffee88" class="ns-twinkle-8"/>
  <circle cx="95" cy="80" r="1.3" fill="#fff5cc" class="ns-twinkle-1"/>
  <circle cx="440" cy="175" r="1" fill="#ffee88" class="ns-twinkle-3"/>
  <circle cx="28" cy="185" r="1.2" fill="#fff5cc" class="ns-twinkle-5"/>
  <circle cx="350" cy="120" r="0.8" fill="#fff5cc" class="ns-twinkle-7"/>

  <!-- Distant tree silhouettes -->
  <g opacity="0.25">
    <ellipse cx="50" cy="380" rx="35" ry="65" fill="#0d2a1a"/>
    <ellipse cx="110" cy="375" rx="28" ry="55" fill="#0d2a1a"/>
    <ellipse cx="160" cy="385" rx="32" ry="50" fill="#0d2a1a"/>
    <ellipse cx="350" cy="378" rx="30" ry="60" fill="#0d2a1a"/>
    <ellipse cx="420" cy="385" rx="35" ry="50" fill="#0d2a1a"/>
    <ellipse cx="470" cy="380" rx="28" ry="55" fill="#0d2a1a"/>
  </g>

  <!-- ============================================ -->
  <!-- LAYER 3: Mid background (main trees)         -->
  <!-- ============================================ -->

  <!-- Left tall tree -->
  <g class="ns-tree-1">
    <rect x="55" y="290" width="12" height="120" rx="3" fill="#1a3a2a" opacity="0.8"/>
    <ellipse cx="61" cy="280" rx="40" ry="60" fill="url(#ns-treeGrad)" opacity="0.75"/>
    <ellipse cx="55" cy="260" rx="30" ry="45" fill="#2d4a3a" opacity="0.6"/>
  </g>

  <!-- Left-center tree -->
  <g class="ns-tree-2">
    <rect x="130" y="310" width="10" height="100" rx="3" fill="#1a3a2a" opacity="0.7"/>
    <ellipse cx="135" cy="300" rx="35" ry="55" fill="url(#ns-treeGrad)" opacity="0.7"/>
    <ellipse cx="130" cy="283" rx="25" ry="38" fill="#2d4a3a" opacity="0.55"/>
  </g>

  <!-- Right-center tree -->
  <g class="ns-tree-3">
    <rect x="365" y="305" width="11" height="105" rx="3" fill="#1a3a2a" opacity="0.75"/>
    <ellipse cx="370" cy="295" rx="38" ry="58" fill="url(#ns-treeGrad)" opacity="0.72"/>
    <ellipse cx="367" cy="275" rx="28" ry="40" fill="#2d4a3a" opacity="0.58"/>
  </g>

  <!-- Right tall tree -->
  <g class="ns-tree-4">
    <rect x="445" y="285" width="13" height="125" rx="3" fill="#1a3a2a" opacity="0.8"/>
    <ellipse cx="451" cy="275" rx="42" ry="62" fill="url(#ns-treeGrad)" opacity="0.75"/>
    <ellipse cx="448" cy="253" rx="32" ry="45" fill="#2d4a3a" opacity="0.6"/>
  </g>

  <!-- Ground / forest floor -->
  <ellipse cx="256" cy="450" rx="290" ry="80" fill="url(#ns-forestGround)" opacity="0.9"/>
  <ellipse cx="256" cy="465" rx="310" ry="70" fill="#0d2a1a" opacity="0.85"/>

  <!-- Gentle rolling hills -->
  <ellipse cx="130" cy="420" rx="150" ry="40" fill="#1a3a2a" opacity="0.6"/>
  <ellipse cx="380" cy="425" rx="160" ry="35" fill="#1a3a2a" opacity="0.55"/>

  <!-- Grass tufts -->
  <g opacity="0.5">
    <ellipse cx="80" cy="415" rx="12" ry="6" fill="#2d4a3a"/>
    <ellipse cx="180" cy="422" rx="10" ry="5" fill="#2d4a3a"/>
    <ellipse cx="300" cy="418" rx="14" ry="6" fill="#2d4a3a"/>
    <ellipse cx="430" cy="420" rx="11" ry="5" fill="#2d4a3a"/>
    <ellipse cx="220" cy="430" rx="9" ry="4" fill="#2d4a3a"/>
    <ellipse cx="350" cy="432" rx="13" ry="5" fill="#2d4a3a"/>
  </g>

  <!-- Small flowers on ground -->
  <g opacity="0.4">
    <circle cx="155" cy="415" r="2.5" fill="#ffb6c1"/>
    <circle cx="200" cy="425" r="2" fill="#ffb347"/>
    <circle cx="320" cy="420" r="2.5" fill="#ffb6c1"/>
    <circle cx="400" cy="418" r="2" fill="#ffb347"/>
  </g>

  <!-- ============================================ -->
  <!-- LAYER 4: Middle ground (sleeping animals)    -->
  <!-- ============================================ -->

  <!-- Sleeping bunny (left foreground) -->
  <g class="ns-bunny-breathe" transform="translate(140, 390)">
    <!-- Body -->
    <ellipse cx="0" cy="0" rx="22" ry="14" fill="#d4c4b0" opacity="0.9"/>
    <!-- Head -->
    <circle cx="-16" cy="-8" r="11" fill="#d4c4b0"/>
    <!-- Ears -->
    <ellipse cx="-22" cy="-25" rx="4" ry="12" fill="#d4c4b0" transform="rotate(-10, -22, -25)"/>
    <ellipse cx="-22" cy="-25" rx="2.5" ry="9" fill="#ffb6c1" opacity="0.4" transform="rotate(-10, -22, -25)"/>
    <ellipse cx="-12" cy="-27" rx="4" ry="11" fill="#d4c4b0" transform="rotate(8, -12, -27)"/>
    <ellipse cx="-12" cy="-27" rx="2.5" ry="8" fill="#ffb6c1" opacity="0.4" transform="rotate(8, -12, -27)"/>
    <!-- Closed eyes (sleeping arcs) -->
    <path d="M-20,-9 Q-17,-11 -14,-9" stroke="#6b5b4a" stroke-width="1.2" fill="none" stroke-linecap="round"/>
    <!-- Nose -->
    <circle cx="-22" cy="-6" r="1.5" fill="#ffb6c1"/>
    <!-- Cheek blush -->
    <circle cx="-13" cy="-5" r="3" fill="#ffb6c1" opacity="0.35" class="ns-blush"/>
    <!-- Tail -->
    <circle cx="20" cy="-5" r="6" fill="#e8ddd0" opacity="0.8"/>
  </g>

  <!-- Sleeping bunny Zzz -->
  <g transform="translate(118, 358)">
    <text font-family="serif" font-size="8" fill="#ffb6c1" opacity="0" class="ns-zzz-1">z</text>
    <text font-family="serif" font-size="6" fill="#ffb6c1" opacity="0" class="ns-zzz-2" x="-5" y="-5">z</text>
  </g>

  <!-- Sleeping deer (right foreground) -->
  <g class="ns-deer-breathe" transform="translate(370, 395)">
    <!-- Body (curled up) -->
    <ellipse cx="0" cy="0" rx="26" ry="15" fill="#c89660" opacity="0.9"/>
    <!-- Spots on body -->
    <circle cx="-5" cy="-5" r="2" fill="#e8c88a" opacity="0.5"/>
    <circle cx="8" cy="-3" r="1.8" fill="#e8c88a" opacity="0.5"/>
    <circle cx="3" cy="2" r="1.5" fill="#e8c88a" opacity="0.4"/>
    <!-- Head -->
    <ellipse cx="20" cy="-10" rx="10" ry="9" fill="#c89660"/>
    <!-- Ear -->
    <ellipse cx="28" cy="-20" rx="4" ry="8" fill="#c89660" transform="rotate(15, 28, -20)"/>
    <ellipse cx="28" cy="-20" rx="2.5" ry="6" fill="#e8c88a" opacity="0.4" transform="rotate(15, 28, -20)"/>
    <!-- Antler nub (baby deer) -->
    <line x1="24" y1="-18" x2="22" y2="-24" stroke="#8b6b3c" stroke-width="1.5" stroke-linecap="round"/>
    <!-- Closed eyes -->
    <path d="M17,-10 Q20,-13 23,-10" stroke="#5a3a1a" stroke-width="1.2" fill="none" stroke-linecap="round"/>
    <!-- Nose -->
    <circle cx="28" cy="-8" r="1.8" fill="#5a3a1a" opacity="0.6"/>
    <!-- Cheek blush -->
    <circle cx="23" cy="-6" r="3" fill="#ffb6c1" opacity="0.3" class="ns-blush"/>
    <!-- Legs tucked -->
    <ellipse cx="-18" cy="8" rx="6" ry="3" fill="#b08050" opacity="0.6"/>
  </g>

  <!-- Sleeping deer Zzz -->
  <g transform="translate(396, 362)">
    <text font-family="serif" font-size="7" fill="#ffb6c1" opacity="0" class="ns-zzz-1">z</text>
    <text font-family="serif" font-size="5.5" fill="#ffb6c1" opacity="0" class="ns-zzz-3" x="-4" y="-4">z</text>
  </g>

  <!-- Sleeping owl on branch (center-left tree) -->
  <g class="ns-owl-breathe" transform="translate(95, 310)">
    <!-- Branch -->
    <line x1="-20" y1="18" x2="25" y2="15" stroke="#5a4a3a" stroke-width="3" stroke-linecap="round"/>
    <!-- Body -->
    <ellipse cx="0" cy="5" rx="12" ry="14" fill="#8b7b6a"/>
    <!-- Chest lighter area -->
    <ellipse cx="0" cy="8" rx="7" ry="9" fill="#a89880" opacity="0.6"/>
    <!-- Head -->
    <circle cx="0" cy="-8" r="10" fill="#8b7b6a"/>
    <!-- Ear tufts -->
    <path d="M-7,-16 L-5,-22 L-3,-15" fill="#6b5b4a"/>
    <path d="M3,-15 L5,-22 L7,-16" fill="#6b5b4a"/>
    <!-- Face disc -->
    <ellipse cx="0" cy="-6" rx="7" ry="6" fill="#a89880" opacity="0.5"/>
    <!-- Closed eyes (sleeping arcs) -->
    <path d="M-5,-8 Q-3,-10 -1,-8" stroke="#3a2a1a" stroke-width="1" fill="none" stroke-linecap="round"/>
    <path d="M1,-8 Q3,-10 5,-8" stroke="#3a2a1a" stroke-width="1" fill="none" stroke-linecap="round"/>
    <!-- Beak -->
    <path d="M-1.5,-5 L0,-2.5 L1.5,-5" fill="#d4a040" opacity="0.8"/>
    <!-- Cheek blush -->
    <circle cx="-5" cy="-4" r="2" fill="#ffb6c1" opacity="0.3" class="ns-blush"/>
    <circle cx="5" cy="-4" r="2" fill="#ffb6c1" opacity="0.3" class="ns-blush"/>
    <!-- Feet gripping branch -->
    <path d="M-4,17 L-5,19 M-3,17 L-3,19 M-2,17 L-1,19" stroke="#d4a040" stroke-width="0.8" fill="none"/>
    <path d="M2,17 L1,19 M3,17 L3,19 M4,17 L5,19" stroke="#d4a040" stroke-width="0.8" fill="none"/>
  </g>

  <!-- Owl Zzz -->
  <g transform="translate(110, 290)">
    <text font-family="serif" font-size="6" fill="#ffb6c1" opacity="0" class="ns-zzz-2">z</text>
  </g>

  <!-- ============================================ -->
  <!-- LAYER 5: Primary character (Nanha Sitara)    -->
  <!-- ============================================ -->

  <!-- Star character group -->
  <g class="ns-star-body" transform="translate(256, 185)">
    <!-- Outer glow aura -->
    <circle cx="0" cy="0" r="65" fill="url(#ns-starGlow)" class="ns-star-glow" filter="url(#ns-strongGlow)"/>

    <!-- Secondary warm glow ring -->
    <circle cx="0" cy="0" r="48" fill="#ffd700" opacity="0.08" filter="url(#ns-mediumGlow)"/>

    <!-- Star body (5-pointed) -->
    <polygon
      points="0,-38 9,-12 36,-12 15,4 22,30 0,16 -22,30 -15,4 -36,-12 -9,-12"
      fill="url(#ns-starBody)"
      filter="url(#ns-softGlow)"
    />

    <!-- Star highlight sheen -->
    <polygon
      points="0,-38 9,-12 36,-12 15,4 22,30 0,16 -22,30 -15,4 -36,-12 -9,-12"
      fill="#ffffff"
      opacity="0.1"
    />

    <!-- Face on star -->
    <!-- Left closed eye (sleepy arc) -->
    <path d="M-10,-5 Q-7,-9 -4,-5" stroke="#8b6b3c" stroke-width="1.8" fill="none" stroke-linecap="round"/>
    <!-- Left eyelash -->
    <line x1="-11" y1="-6" x2="-12" y2="-8" stroke="#8b6b3c" stroke-width="0.8" stroke-linecap="round"/>

    <!-- Right closed eye (sleepy arc) -->
    <path d="M4,-5 Q7,-9 10,-5" stroke="#8b6b3c" stroke-width="1.8" fill="none" stroke-linecap="round"/>
    <!-- Right eyelash -->
    <line x1="11" y1="-6" x2="12" y2="-8" stroke="#8b6b3c" stroke-width="0.8" stroke-linecap="round"/>

    <!-- Gentle smile -->
    <path d="M-6,3 Q0,9 6,3" stroke="#8b6b3c" stroke-width="1.5" fill="none" stroke-linecap="round"/>

    <!-- Rosy cheeks -->
    <circle cx="-12" cy="1" r="4" fill="#ffb6c1" opacity="0.4" class="ns-blush"/>
    <circle cx="12" cy="1" r="4" fill="#ffb6c1" opacity="0.4" class="ns-blush"/>

    <!-- Tiny sparkle near star -->
    <circle cx="28" cy="-28" r="1.5" fill="#ffffff" opacity="0.7" class="ns-twinkle-2"/>
    <circle cx="-30" cy="-25" r="1.2" fill="#ffffff" opacity="0.6" class="ns-twinkle-4"/>
    <circle cx="25" cy="20" r="1" fill="#ffffff" opacity="0.5" class="ns-twinkle-6"/>
  </g>

  <!-- ============================================ -->
  <!-- LAYER 6: Foreground (musical notes, sparkles)-->
  <!-- ============================================ -->

  <!-- Musical notes floating down from star -->
  <!-- Note 1: eighth note (warm) -->
  <g class="ns-note-1" transform="translate(230, 230)" filter="url(#ns-softGlow)">
    <ellipse cx="0" cy="0" rx="4" ry="3" fill="url(#ns-noteWarm)" transform="rotate(-20)"/>
    <line x1="3.5" y1="-1" x2="3.5" y2="-16" stroke="#ffb347" stroke-width="1.2"/>
    <path d="M3.5,-16 Q8,-14 6,-10" stroke="#ffb347" stroke-width="1.2" fill="none"/>
  </g>

  <!-- Note 2: quarter note (pink) -->
  <g class="ns-note-2" transform="translate(280, 240)" filter="url(#ns-softGlow)">
    <ellipse cx="0" cy="0" rx="3.5" ry="2.8" fill="url(#ns-notePink)" transform="rotate(-15)"/>
    <line x1="3" y1="-1" x2="3" y2="-14" stroke="#ff69b4" stroke-width="1.2"/>
  </g>

  <!-- Note 3: double eighth note (warm) -->
  <g class="ns-note-3" transform="translate(250, 250)" filter="url(#ns-softGlow)">
    <ellipse cx="0" cy="0" rx="3.5" ry="2.5" fill="url(#ns-noteWarm)" transform="rotate(-20)"/>
    <line x1="3" y1="-1" x2="3" y2="-13" stroke="#ffb347" stroke-width="1.2"/>
    <ellipse cx="10" cy="2" rx="3.5" ry="2.5" fill="url(#ns-noteWarm)" transform="rotate(-20)"/>
    <line x1="13" y1="1" x2="13" y2="-11" stroke="#ffb347" stroke-width="1.2"/>
    <line x1="3" y1="-13" x2="13" y2="-11" stroke="#ffb347" stroke-width="1.5"/>
  </g>

  <!-- Note 4: eighth note (pink) -->
  <g class="ns-note-4" transform="translate(270, 225)" filter="url(#ns-softGlow)">
    <ellipse cx="0" cy="0" rx="3" ry="2.5" fill="url(#ns-notePink)" transform="rotate(-18)"/>
    <line x1="2.5" y1="-1" x2="2.5" y2="-12" stroke="#ff69b4" stroke-width="1"/>
    <path d="M2.5,-12 Q6,-10 5,-7" stroke="#ff69b4" stroke-width="1" fill="none"/>
  </g>

  <!-- Note 5: quarter note (warm) -->
  <g class="ns-note-5" transform="translate(240, 260)" filter="url(#ns-softGlow)">
    <ellipse cx="0" cy="0" rx="3.5" ry="2.5" fill="url(#ns-noteWarm)" transform="rotate(-22)"/>
    <line x1="3" y1="-1" x2="3" y2="-14" stroke="#ffb347" stroke-width="1.2"/>
  </g>

  <!-- Foreground sparkle particles -->
  <circle cx="100" cy="250" r="1.5" fill="#ffee88" class="ns-twinkle-3" filter="url(#ns-softGlow)"/>
  <circle cx="420" cy="230" r="1.8" fill="#fff5cc" class="ns-twinkle-5" filter="url(#ns-softGlow)"/>
  <circle cx="200" cy="320" r="1.2" fill="#ffee88" class="ns-twinkle-1" filter="url(#ns-softGlow)"/>
  <circle cx="330" cy="280" r="1.4" fill="#fff5cc" class="ns-twinkle-7" filter="url(#ns-softGlow)"/>
  <circle cx="160" cy="180" r="1" fill="#ffb6c1" class="ns-twinkle-2"/>
  <circle cx="350" cy="170" r="1.3" fill="#ffb6c1" class="ns-twinkle-8"/>

  <!-- Warm floating dust particles near ground -->
  <circle cx="180" cy="400" r="0.8" fill="#ffd700" opacity="0.3" class="ns-twinkle-4"/>
  <circle cx="280" cy="405" r="0.7" fill="#ffd700" opacity="0.25" class="ns-twinkle-6"/>
  <circle cx="340" cy="398" r="0.9" fill="#ffd700" opacity="0.3" class="ns-twinkle-2"/>

  <!-- ============================================ -->
  <!-- LAYER 7: Vignette / overlay                  -->
  <!-- ============================================ -->
  <rect width="512" height="512" fill="url(#ns-vignette)" opacity="0.4"/>
</svg>