<svg viewBox="0 0 512 512" xmlns="http://www.w3.org/2000/svg">
  <defs>
    <!-- Sky gradient: deep night blues -->
    <linearGradient id="of-skyGradient" x1="0" y1="0" x2="0" y2="1">
      <stop offset="0%" stop-color="#0d1a3a"/>
      <stop offset="45%" stop-color="#1a2d5a"/>
      <stop offset="100%" stop-color="#2d4070"/>
    </linearGradient>

    <!-- Moon glow gradient -->
    <radialGradient id="of-moonGlow" cx="50%" cy="50%" r="60%">
      <stop offset="0%" stop-color="#fef5d9" stop-opacity="0.9"/>
      <stop offset="40%" stop-color="#ffd700" stop-opacity="0.3"/>
      <stop offset="100%" stop-color="#ffd700" stop-opacity="0"/>
    </radialGradient>

    <!-- Moon surface gradient -->
    <radialGradient id="of-moonSurface" cx="40%" cy="40%" r="55%">
      <stop offset="0%" stop-color="#fef5d9"/>
      <stop offset="60%" stop-color="#f4e4b0"/>
      <stop offset="100%" stop-color="#d4c090"/>
    </radialGradient>

    <!-- Lantern glow gradient (warm) -->
    <radialGradient id="of-lanternGlow" cx="50%" cy="50%" r="65%">
      <stop offset="0%" stop-color="#ffaa44" stop-opacity="0.6"/>
      <stop offset="50%" stop-color="#ff6b35" stop-opacity="0.2"/>
      <stop offset="100%" stop-color="#ff4400" stop-opacity="0"/>
    </radialGradient>

    <!-- Character warm glow -->
    <radialGradient id="of-charGlow" cx="50%" cy="60%" r="50%">
      <stop offset="0%" stop-color="#ffaa44" stop-opacity="0.35"/>
      <stop offset="100%" stop-color="#ffaa44" stop-opacity="0"/>
    </radialGradient>

    <!-- Sparkle trail gradient -->
    <radialGradient id="of-sparkleGlow" cx="50%" cy="50%" r="50%">
      <stop offset="0%" stop-color="#ffd700" stop-opacity="0.8"/>
      <stop offset="100%" stop-color="#ffd700" stop-opacity="0"/>
    </radialGradient>

    <!-- Vignette -->
    <radialGradient id="of-vignette">
      <stop offset="50%" stop-color="#000000" stop-opacity="0"/>
      <stop offset="100%" stop-color="#000000" stop-opacity="0.5"/>
    </radialGradient>

    <!-- Soft glow filter -->
    <filter id="of-softGlow">
      <feGaussianBlur stdDeviation="2" result="blur"/>
      <feMerge>
        <feMergeNode in="blur"/>
        <feMergeNode in="SourceGraphic"/>
      </feMerge>
    </filter>

    <!-- Medium glow filter -->
    <filter id="of-mediumGlow">
      <feGaussianBlur stdDeviation="4" result="blur"/>
      <feMerge>
        <feMergeNode in="blur"/>
        <feMergeNode in="SourceGraphic"/>
      </feMerge>
    </filter>

    <!-- Strong glow filter -->
    <filter id="of-strongGlow">
      <feGaussianBlur stdDeviation="6" result="blur"/>
      <feMerge>
        <feMergeNode in="blur"/>
        <feMergeNode in="SourceGraphic"/>
      </feMerge>
    </filter>
  </defs>

  <style>
    /* === ANIMATION 1: Origami crane flying paths (8-12s) === */
    @keyframes of-craneFly1 {
      0% { transform: translate(0px, 0px) rotate(0deg); }
      15% { transform: translate(20px, -25px) rotate(-5deg); }
      30% { transform: translate(45px, -15px) rotate(3deg); }
      50% { transform: translate(60px, -40px) rotate(-4deg); }
      70% { transform: translate(40px, -55px) rotate(2deg); }
      85% { transform: translate(15px, -30px) rotate(-3deg); }
      100% { transform: translate(0px, 0px) rotate(0deg); }
    }
    @keyframes of-craneFly2 {
      0% { transform: translate(0px, 0px) rotate(0deg); }
      20% { transform: translate(-30px, -20px) rotate(4deg); }
      40% { transform: translate(-15px, -45px) rotate(-3deg); }
      60% { transform: translate(-50px, -35px) rotate(5deg); }
      80% { transform: translate(-25px, -10px) rotate(-2deg); }
      100% { transform: translate(0px, 0px) rotate(0deg); }
    }
    @keyframes of-craneFly3 {
      0% { transform: translate(0px, 0px) rotate(0deg); }
      25% { transform: translate(15px, -35px) rotate(-6deg); }
      50% { transform: translate(-10px, -50px) rotate(4deg); }
      75% { transform: translate(20px, -25px) rotate(-3deg); }
      100% { transform: translate(0px, 0px) rotate(0deg); }
    }
    @keyframes of-craneFly4 {
      0% { transform: translate(0px, 0px) rotate(0deg); }
      20% { transform: translate(-20px, -30px) rotate(5deg); }
      45% { transform: translate(10px, -50px) rotate(-4deg); }
      70% { transform: translate(-15px, -20px) rotate(3deg); }
      100% { transform: translate(0px, 0px) rotate(0deg); }
    }

    /* Crane wing flap */
    @keyframes of-wingFlap {
      0%, 100% { transform: scaleY(1); }
      25% { transform: scaleY(0.6); }
      50% { transform: scaleY(1.1); }
      75% { transform: scaleY(0.7); }
    }

    /* === ANIMATION 2: Lantern sway (4-5s) === */
    @keyframes of-lanternSway1 {
      0% { transform: rotate(-3deg); }
      50% { transform: rotate(3deg); }
      100% { transform: rotate(-3deg); }
    }
    @keyframes of-lanternSway2 {
      0% { transform: rotate(2deg); }
      50% { transform: rotate(-2deg); }
      100% { transform: rotate(2deg); }
    }

    /* === ANIMATION 3: Lantern glow pulse (3s) === */
    @keyframes of-glowPulse {
      0%, 100% { opacity: 0.5; }
      50% { opacity: 0.85; }
    }

    /* === ANIMATION 4: Cherry blossom petal fall (7-9s) === */
    @keyframes of-petalFall1 {
      0% { transform: translate(0px, 0px) rotate(0deg); opacity: 0.9; }
      25% { transform: translate(15px, 60px) rotate(45deg); opacity: 0.8; }
      50% { transform: translate(-5px, 140px) rotate(120deg); opacity: 0.7; }
      75% { transform: translate(20px, 230px) rotate(200deg); opacity: 0.5; }
      100% { transform: translate(5px, 320px) rotate(300deg); opacity: 0; }
    }
    @keyframes of-petalFall2 {
      0% { transform: translate(0px, 0px) rotate(0deg); opacity: 0.85; }
      25% { transform: translate(-12px, 55px) rotate(-40deg); opacity: 0.75; }
      50% { transform: translate(8px, 130px) rotate(-110deg); opacity: 0.6; }
      75% { transform: translate(-15px, 220px) rotate(-190deg); opacity: 0.4; }
      100% { transform: translate(-5px, 310px) rotate(-280deg); opacity: 0; }
    }
    @keyframes of-petalFall3 {
      0% { transform: translate(0px, 0px) rotate(10deg); opacity: 0.9; }
      30% { transform: translate(18px, 70px) rotate(60deg); opacity: 0.7; }
      60% { transform: translate(-10px, 160px) rotate(150deg); opacity: 0.5; }
      100% { transform: translate(12px, 300px) rotate(270deg); opacity: 0; }
    }

    /* === ANIMATION 5: Moon glow (4s) === */
    @keyframes of-moonGlowPulse {
      0%, 100% { opacity: 0.6; transform: scale(1); }
      50% { opacity: 0.85; transform: scale(1.04); }
    }

    /* === ANIMATION 6: Star twinkle (2.5s) === */
    @keyframes of-starTwinkle1 {
      0%, 100% { opacity: 0.3; }
      50% { opacity: 1; }
    }
    @keyframes of-starTwinkle2 {
      0%, 100% { opacity: 0.4; }
      50% { opacity: 0.9; }
    }

    /* === ANIMATION 7: Girl breathing === */
    @keyframes of-girlBreathe {
      0%, 100% { transform: scale(1); }
      50% { transform: scale(1.015); }
    }

    /* === ANIMATION 8: Sparkle trail shimmer === */
    @keyframes of-sparkleShimmer {
      0%, 100% { opacity: 0.2; }
      50% { opacity: 0.8; }
    }

    /* ---- Class assignments ---- */

    /* Cranes */
    .of-crane1 {
      transform-origin: 310px 180px;
      animation: of-craneFly1 10s ease-in-out infinite;
    }
    .of-crane2 {
      transform-origin: 160px 140px;
      animation: of-craneFly2 11s ease-in-out infinite 1s;
    }
    .of-crane3 {
      transform-origin: 380px 120px;
      animation: of-craneFly3 9s ease-in-out infinite 0.5s;
    }
    .of-crane4 {
      transform-origin: 270px 260px;
      animation: of-craneFly4 12s ease-in-out infinite 2s;
    }

    .of-wing-l, .of-wing-r {
      transform-origin: center;
      animation: of-wingFlap 0.8s ease-in-out infinite;
    }
    .of-wing-r { animation-delay: 0.1s; }

    /* Lanterns */
    .of-lantern1 {
      transform-origin: 90px 50px;
      animation: of-lanternSway1 4.5s ease-in-out infinite;
    }
    .of-lantern2 {
      transform-origin: 420px 40px;
      animation: of-lanternSway2 4.8s ease-in-out infinite 0.4s;
    }
    .of-lantern3 {
      transform-origin: 55px 170px;
      animation: of-lanternSway1 5s ease-in-out infinite 0.8s;
    }
    .of-lantern4 {
      transform-origin: 460px 160px;
      animation: of-lanternSway2 4.6s ease-in-out infinite 1.2s;
    }
    .of-lantern5 {
      transform-origin: 250px 30px;
      animation: of-lanternSway1 4.3s ease-in-out infinite 0.6s;
    }

    /* Lantern glows */
    .of-lanternGlow1 { animation: of-glowPulse 3s ease-in-out infinite; }
    .of-lanternGlow2 { animation: of-glowPulse 3.2s ease-in-out infinite 0.5s; }
    .of-lanternGlow3 { animation: of-glowPulse 2.8s ease-in-out infinite 1s; }
    .of-lanternGlow4 { animation: of-glowPulse 3.1s ease-in-out infinite 1.5s; }
    .of-lanternGlow5 { animation: of-glowPulse 3.3s ease-in-out infinite 0.3s; }

    /* Petals */
    .of-petal1 { animation: of-petalFall1 8s ease-in-out infinite; }
    .of-petal2 { animation: of-petalFall2 7.5s ease-in-out infinite 1s; }
    .of-petal3 { animation: of-petalFall3 9s ease-in-out infinite 2s; }
    .of-petal4 { animation: of-petalFall1 8.5s ease-in-out infinite 3s; }
    .of-petal5 { animation: of-petalFall2 7s ease-in-out infinite 4s; }
    .of-petal6 { animation: of-petalFall3 8s ease-in-out infinite 1.5s; }
    .of-petal7 { animation: of-petalFall1 7.8s ease-in-out infinite 2.5s; }
    .of-petal8 { animation: of-petalFall2 8.2s ease-in-out infinite 3.5s; }

    /* Moon */
    .of-moonGlow {
      transform-origin: 400px 85px;
      animation: of-moonGlowPulse 4s ease-in-out infinite;
    }

    /* Stars */
    .of-star1 { animation: of-starTwinkle1 2.5s ease-in-out infinite; }
    .of-star2 { animation: of-starTwinkle2 2.8s ease-in-out infinite 0.3s; }
    .of-star3 { animation: of-starTwinkle1 2.3s ease-in-out infinite 0.7s; }
    .of-star4 { animation: of-starTwinkle2 2.6s ease-in-out infinite 1.1s; }
    .of-star5 { animation: of-starTwinkle1 2.9s ease-in-out infinite 1.5s; }
    .of-star6 { animation: of-starTwinkle2 2.4s ease-in-out infinite 1.9s; }
    .of-star7 { animation: of-starTwinkle1 2.7s ease-in-out infinite 2.3s; }
    .of-star8 { animation: of-starTwinkle2 2.5s ease-in-out infinite 2.7s; }
    .of-star9 { animation: of-starTwinkle1 2.6s ease-in-out infinite 0.5s; }
    .of-star10 { animation: of-starTwinkle2 2.8s ease-in-out infinite 1.8s; }
    .of-star11 { animation: of-starTwinkle1 2.4s ease-in-out infinite 3.2s; }
    .of-star12 { animation: of-starTwinkle2 2.7s ease-in-out infinite 0.9s; }

    /* Girl */
    .of-girlBody {
      transform-origin: 240px 370px;
      animation: of-girlBreathe 5s ease-in-out infinite;
    }

    /* Sparkle trails */
    .of-sparkle1 { animation: of-sparkleShimmer 2.5s ease-in-out infinite; }
    .of-sparkle2 { animation: of-sparkleShimmer 2.2s ease-in-out infinite 0.4s; }
    .of-sparkle3 { animation: of-sparkleShimmer 2.8s ease-in-out infinite 0.8s; }
    .of-sparkle4 { animation: of-sparkleShimmer 2.3s ease-in-out infinite 1.2s; }
    .of-sparkle5 { animation: of-sparkleShimmer 2.6s ease-in-out infinite 1.6s; }
    .of-sparkle6 { animation: of-sparkleShimmer 2.4s ease-in-out infinite 2s; }
  </style>

  <!-- ============ LAYER 1: Background sky ============ -->
  <rect width="512" height="512" fill="url(#of-skyGradient)"/>

  <!-- Atmospheric haze layers -->
  <ellipse cx="256" cy="480" rx="300" ry="80" fill="#2d4070" opacity="0.25"/>
  <ellipse cx="256" cy="500" rx="280" ry="60" fill="#3a5080" opacity="0.15"/>

  <!-- ============ LAYER 2: Far background (distant scenery) ============ -->
  <!-- Distant mountain/rooftop silhouettes (Japanese village) -->
  <path d="M 0 420 L 30 390 L 50 395 L 70 375 L 90 380 L 100 365 L 115 370 L 130 360 L 145 365 L 160 380 L 175 375 L 190 385 L 210 370 L 230 378 L 250 365 L 270 372 L 290 368 L 310 380 L 330 375 L 345 385 L 360 370 L 380 378 L 400 365 L 415 375 L 430 380 L 445 370 L 460 378 L 475 385 L 490 375 L 512 395 L 512 512 L 0 512 Z" fill="#162040" opacity="0.3"/>

  <!-- Pagoda silhouette left -->
  <g opacity="0.2">
    <rect x="60" y="370" width="40" height="50" fill="#1a2545"/>
    <path d="M 50 375 L 80 350 L 110 375 Z" fill="#1a2545"/>
    <path d="M 55 360 L 80 340 L 105 360 Z" fill="#1a2545"/>
  </g>

  <!-- Pagoda silhouette right -->
  <g opacity="0.18">
    <rect x="400" y="365" width="35" height="55" fill="#1a2545"/>
    <path d="M 392 370 L 417 348 L 442 370 Z" fill="#1a2545"/>
    <path d="M 396 355 L 417 336 L 438 355 Z" fill="#1a2545"/>
  </g>

  <!-- Stars scattered across sky -->
  <circle class="of-star1" cx="45" cy="40" r="1.2" fill="#ffffff"/>
  <circle class="of-star2" cx="120" cy="25" r="0.9" fill="#ffffff"/>
  <circle class="of-star3" cx="195" cy="55" r="1.1" fill="#ffffff"/>
  <circle class="of-star4" cx="290" cy="20" r="1.3" fill="#ffffff"/>
  <circle class="of-star5" cx="350" cy="50" r="0.8" fill="#ffffff"/>
  <circle class="of-star6" cx="480" cy="35" r="1.0" fill="#ffffff"/>
  <circle class="of-star7" cx="70" cy="100" r="1.1" fill="#ffffff"/>
  <circle class="of-star8" cx="170" cy="90" r="0.9" fill="#ffffff"/>
  <circle class="of-star9" cx="320" cy="95" r="1.2" fill="#ffffff"/>
  <circle class="of-star10" cx="450" cy="110" r="0.8" fill="#ffffff"/>
  <circle class="of-star11" cx="500" cy="70" r="1.0" fill="#ffffff"/>
  <circle class="of-star12" cx="15" cy="150" r="0.9" fill="#ffffff"/>

  <!-- 4-pointed star sparkles -->
  <g class="of-star3">
    <line x1="140" y1="65" x2="140" y2="73" stroke="#ffffff" stroke-width="0.6" opacity="0.6"/>
    <line x1="136" y1="69" x2="144" y2="69" stroke="#ffffff" stroke-width="0.6" opacity="0.6"/>
  </g>
  <g class="of-star6">
    <line x1="470" y1="55" x2="470" y2="63" stroke="#ffffff" stroke-width="0.6" opacity="0.5"/>
    <line x1="466" y1="59" x2="474" y2="59" stroke="#ffffff" stroke-width="0.6" opacity="0.5"/>
  </g>

  <!-- ============ LAYER 3: Mid background (moon, cherry trees) ============ -->
  <!-- Moon with glow -->
  <g class="of-moonGlow">
    <circle cx="400" cy="85" r="50" fill="url(#of-moonGlow)" filter="url(#of-strongGlow)"/>
  </g>
  <circle cx="400" cy="85" r="38" fill="url(#of-moonSurface)" filter="url(#of-softGlow)"/>
  <!-- Moon craters -->
  <circle cx="385" cy="72" r="6" fill="#d4c090" opacity="0.25"/>
  <circle cx="410" cy="80" r="4.5" fill="#d4c090" opacity="0.2"/>
  <circle cx="395" cy="96" r="5" fill="#c4b080" opacity="0.22"/>

  <!-- Cherry blossom tree (left side) -->
  <g opacity="0.6">
    <!-- Trunk -->
    <path d="M 30 512 L 35 440 Q 38 410 30 380 Q 25 360 40 340" stroke="#4a3028" stroke-width="8" fill="none" stroke-linecap="round"/>
    <!-- Branch left -->
    <path d="M 33 390 Q 10 370 -5 355" stroke="#4a3028" stroke-width="4" fill="none" stroke-linecap="round"/>
    <!-- Branch right -->
    <path d="M 36 370 Q 60 350 80 340" stroke="#4a3028" stroke-width="4" fill="none" stroke-linecap="round"/>
    <!-- Blossom clusters -->
    <circle cx="40" cy="335" r="15" fill="#ffb6c1" opacity="0.5"/>
    <circle cx="25" cy="345" r="12" fill="#ff69b4" opacity="0.35"/>
    <circle cx="55" cy="340" r="10" fill="#ffb6c1" opacity="0.4"/>
    <circle cx="80" cy="335" r="14" fill="#ffb6c1" opacity="0.45"/>
    <circle cx="-5" cy="350" r="12" fill="#ff69b4" opacity="0.3"/>
    <circle cx="10" cy="360" r="10" fill="#ffb6c1" opacity="0.35"/>
  </g>

  <!-- Cherry blossom tree (right side) -->
  <g opacity="0.5">
    <path d="M 490 512 L 485 450 Q 480 420 490 395 Q 495 375 485 355" stroke="#4a3028" stroke-width="7" fill="none" stroke-linecap="round"/>
    <path d="M 487 400 Q 510 385 520 370" stroke="#4a3028" stroke-width="3.5" fill="none" stroke-linecap="round"/>
    <path d="M 488 380 Q 465 365 450 355" stroke="#4a3028" stroke-width="3.5" fill="none" stroke-linecap="round"/>
    <circle cx="485" cy="350" r="13" fill="#ffb6c1" opacity="0.45"/>
    <circle cx="500" cy="360" r="10" fill="#ff69b4" opacity="0.3"/>
    <circle cx="450" cy="350" r="12" fill="#ffb6c1" opacity="0.4"/>
    <circle cx="470" cy="345" r="9" fill="#ff69b4" opacity="0.35"/>
  </g>

  <!-- ============ LAYER 4: Middle ground (lanterns, ground) ============ -->
  <!-- Ground plane (traditional Japanese stone path area) -->
  <path d="M 0 430 Q 128 420 256 425 Q 384 430 512 422 L 512 512 L 0 512 Z" fill="#1a2545" opacity="0.6"/>
  <path d="M 0 445 Q 128 435 256 440 Q 384 445 512 437 L 512 512 L 0 512 Z" fill="#15203d" opacity="0.5"/>

  <!-- String of lanterns (hanging line) -->
  <path d="M -10 55 Q 90 90 190 65 Q 256 50 320 70 Q 420 95 525 55" stroke="#3a2020" stroke-width="1" fill="none" opacity="0.5"/>

  <!-- Lantern 1 (left side, large) -->
  <g class="of-lantern1">
    <line x1="90" y1="55" x2="90" y2="75" stroke="#3a2020" stroke-width="0.8" opacity="0.5"/>
    <!-- Lantern glow aura -->
    <circle class="of-lanternGlow1" cx="90" cy="100" r="25" fill="url(#of-lanternGlow)" filter="url(#of-mediumGlow)"/>
    <!-- Lantern body -->
    <ellipse cx="90" cy="100" rx="12" ry="16" fill="#ff4400" opacity="0.85"/>
    <ellipse cx="90" cy="100" rx="10" ry="14" fill="#ff6b35" opacity="0.7"/>
    <!-- Lantern ribs -->
    <line x1="90" y1="84" x2="90" y2="116" stroke="#cc3300" stroke-width="0.5" opacity="0.4"/>
    <ellipse cx="90" cy="100" rx="10" ry="2" fill="none" stroke="#cc3300" stroke-width="0.4" opacity="0.3"/>
    <!-- Top and bottom caps -->
    <rect x="85" y="82" width="10" height="3" rx="1" fill="#3a2020" opacity="0.7"/>
    <rect x="85" y="115" width="10" height="3" rx="1" fill="#3a2020" opacity="0.7"/>
    <!-- Tassel -->
    <line x1="90" y1="118" x2="90" y2="128" stroke="#ff4400" stroke-width="0.8" opacity="0.6"/>
  </g>

  <!-- Lantern 2 (right side, large) -->
  <g class="of-lantern2">
    <line x1="420" y1="45" x2="420" y2="65" stroke="#3a2020" stroke-width="0.8" opacity="0.5"/>
    <circle class="of-lanternGlow2" cx="420" cy="90" r="25" fill="url(#of-lanternGlow)" filter="url(#of-mediumGlow)"/>
    <ellipse cx="420" cy="90" rx="12" ry="16" fill="#ff4400" opacity="0.85"/>
    <ellipse cx="420" cy="90" rx="10" ry="14" fill="#ff6b35" opacity="0.7"/>
    <line x1="420" y1="74" x2="420" y2="106" stroke="#cc3300" stroke-width="0.5" opacity="0.4"/>
    <ellipse cx="420" cy="90" rx="10" ry="2" fill="none" stroke="#cc3300" stroke-width="0.4" opacity="0.3"/>
    <rect x="415" y="72" width="10" height="3" rx="1" fill="#3a2020" opacity="0.7"/>
    <rect x="415" y="105" width="10" height="3" rx="1" fill="#3a2020" opacity="0.7"/>
    <line x1="420" y1="108" x2="420" y2="118" stroke="#ff4400" stroke-width="0.8" opacity="0.6"/>
  </g>

  <!-- Lantern 3 (far left, small) -->
  <g class="of-lantern3">
    <line x1="55" y1="170" x2="55" y2="185" stroke="#3a2020" stroke-width="0.6" opacity="0.4"/>
    <circle class="of-lanternGlow3" cx="55" cy="203" r="18" fill="url(#of-lanternGlow)" filter="url(#of-mediumGlow)"/>
    <ellipse cx="55" cy="203" rx="9" ry="12" fill="#ff6b35" opacity="0.8"/>
    <ellipse cx="55" cy="203" rx="7" ry="10" fill="#ffaa44" opacity="0.6"/>
    <rect x="51" y="190" width="8" height="2.5" rx="1" fill="#3a2020" opacity="0.6"/>
    <rect x="51" y="214" width="8" height="2.5" rx="1" fill="#3a2020" opacity="0.6"/>
    <line x1="55" y1="217" x2="55" y2="225" stroke="#ff6b35" stroke-width="0.6" opacity="0.5"/>
  </g>

  <!-- Lantern 4 (far right, small) -->
  <g class="of-lantern4">
    <line x1="460" y1="160" x2="460" y2="175" stroke="#3a2020" stroke-width="0.6" opacity="0.4"/>
    <circle class="of-lanternGlow4" cx="460" cy="193" r="18" fill="url(#of-lanternGlow)" filter="url(#of-mediumGlow)"/>
    <ellipse cx="460" cy="193" rx="9" ry="12" fill="#ff6b35" opacity="0.8"/>
    <ellipse cx="460" cy="193" rx="7" ry="10" fill="#ffaa44" opacity="0.6"/>
    <rect x="456" y="180" width="8" height="2.5" rx="1" fill="#3a2020" opacity="0.6"/>
    <rect x="456" y="204" width="8" height="2.5" rx="1" fill="#3a2020" opacity="0.6"/>
    <line x1="460" y1="207" x2="460" y2="215" stroke="#ff6b35" stroke-width="0.6" opacity="0.5"/>
  </g>

  <!-- Lantern 5 (center top, medium) -->
  <g class="of-lantern5">
    <line x1="250" y1="35" x2="250" y2="52" stroke="#3a2020" stroke-width="0.7" opacity="0.5"/>
    <circle class="of-lanternGlow5" cx="250" cy="72" r="20" fill="url(#of-lanternGlow)" filter="url(#of-mediumGlow)"/>
    <ellipse cx="250" cy="72" rx="10" ry="14" fill="#ff4400" opacity="0.82"/>
    <ellipse cx="250" cy="72" rx="8" ry="12" fill="#ff6b35" opacity="0.65"/>
    <rect x="246" y="57" width="8" height="2.5" rx="1" fill="#3a2020" opacity="0.65"/>
    <rect x="246" y="85" width="8" height="2.5" rx="1" fill="#3a2020" opacity="0.65"/>
    <line x1="250" y1="88" x2="250" y2="97" stroke="#ff4400" stroke-width="0.7" opacity="0.55"/>
  </g>

  <!-- ============ LAYER 5: Primary character (girl) ============ -->
  <!-- Warm glow around girl -->
  <ellipse cx="240" cy="360" rx="80" ry="70" fill="url(#of-charGlow)"/>

  <g class="of-girlBody">
    <!-- Girl's body / kimono -->
    <!-- Kimono body (simple trapezoid) -->
    <path d="M 225 340 L 218 430 L 262 430 L 255 340 Z" fill="#5b3a8a" opacity="0.9"/>
    <!-- Kimono sash (obi) -->
    <rect x="220" y="370" width="40" height="12" rx="2" fill="#ff6b35" opacity="0.8"/>
    <rect x="230" y="368" width="8" height="16" rx="2" fill="#ffaa44" opacity="0.7"/>

    <!-- Kimono pattern (small flower dots) -->
    <circle cx="228" cy="355" r="1.5" fill="#ffb6c1" opacity="0.5"/>
    <circle cx="248" cy="360" r="1.2" fill="#ffb6c1" opacity="0.4"/>
    <circle cx="235" cy="395" r="1.5" fill="#ffb6c1" opacity="0.5"/>
    <circle cx="250" cy="405" r="1.2" fill="#ffb6c1" opacity="0.4"/>
    <circle cx="225" cy="415" r="1.3" fill="#ffb6c1" opacity="0.45"/>

    <!-- Right arm (reaching up, releasing crane) -->
    <path d="M 252 345 Q 275 310 285 290 Q 290 280 288 275" stroke="#f4b5a0" stroke-width="7" fill="none" stroke-linecap="round"/>

    <!-- Right hand (open, releasing) -->
    <circle cx="287" cy="273" r="5" fill="#f4b5a0"/>
    <!-- Fingers spread open -->
    <line x1="285" y1="270" x2="282" y2="264" stroke="#f4b5a0" stroke-width="2" stroke-linecap="round"/>
    <line x1="287" y1="268" x2="286" y2="261" stroke="#f4b5a0" stroke-width="2" stroke-linecap="round"/>
    <line x1="289" y1="269" x2="290" y2="262" stroke="#f4b5a0" stroke-width="2" stroke-linecap="round"/>
    <line x1="291" y1="271" x2="294" y2="266" stroke="#f4b5a0" stroke-width="2" stroke-linecap="round"/>

    <!-- Sleeve (right arm) -->
    <path d="M 252 345 Q 260 330 270 320 Q 262 335 255 348" fill="#5b3a8a" opacity="0.6"/>

    <!-- Left arm (at side, slightly raised) -->
    <path d="M 228 345 Q 210 360 205 380" stroke="#f4b5a0" stroke-width="7" fill="none" stroke-linecap="round"/>
    <circle cx="205" cy="382" r="4.5" fill="#f4b5a0"/>

    <!-- Sleeve (left arm) -->
    <path d="M 228 345 Q 218 355 212 365 Q 220 358 228 350" fill="#5b3a8a" opacity="0.6"/>

    <!-- Neck -->
    <rect x="235" y="322" width="10" height="18" rx="3" fill="#f4b5a0"/>

    <!-- Head -->
    <circle cx="240" cy="310" r="22" fill="#f4b5a0"/>

    <!-- Hair (black, long with bangs) -->
    <ellipse cx="240" cy="302" rx="24" ry="18" fill="#1a1015"/>
    <!-- Side hair left -->
    <path d="M 218 308 Q 215 330 213 355" stroke="#1a1015" stroke-width="10" fill="none" stroke-linecap="round"/>
    <!-- Side hair right -->
    <path d="M 262 308 Q 265 325 263 345" stroke="#1a1015" stroke-width="10" fill="none" stroke-linecap="round"/>
    <!-- Bangs -->
    <path d="M 220 305 Q 225 295 230 300 Q 235 292 240 298 Q 245 290 250 296 Q 255 292 260 305" fill="#1a1015"/>

    <!-- Hair ornament (small flower) -->
    <circle cx="260" cy="298" r="4" fill="#ff69b4" filter="url(#of-softGlow)"/>
    <circle cx="260" cy="298" r="2" fill="#ffb6c1"/>

    <!-- Face details -->
    <!-- Left eye -->
    <circle cx="232" cy="312" r="4" fill="#ffffff"/>
    <circle cx="232" cy="313" r="2.8" fill="#2C3E6E"/>
    <circle cx="232" cy="313.5" r="1.8" fill="#1a1535"/>
    <circle cx="233.5" cy="311.5" r="1" fill="#ffffff" opacity="0.9"/>
    <circle cx="230.5" cy="314" r="0.6" fill="#ffffff" opacity="0.5"/>

    <!-- Right eye -->
    <circle cx="248" cy="312" r="4" fill="#ffffff"/>
    <circle cx="248" cy="313" r="2.8" fill="#2C3E6E"/>
    <circle cx="248" cy="313.5" r="1.8" fill="#1a1535"/>
    <circle cx="249.5" cy="311.5" r="1" fill="#ffffff" opacity="0.9"/>
    <circle cx="246.5" cy="314" r="0.6" fill="#ffffff" opacity="0.5"/>

    <!-- Eyebrows (gentle arcs) -->
    <path d="M 228 307 Q 232 305 236 307" stroke="#1a1015" stroke-width="1" fill="none" stroke-linecap="round" opacity="0.6"/>
    <path d="M 244 307 Q 248 305 252 307" stroke="#1a1015" stroke-width="1" fill="none" stroke-linecap="round" opacity="0.6"/>

    <!-- Small nose -->
    <path d="M 240 316 L 239 319" stroke="#d4a080" stroke-width="1" fill="none" stroke-linecap="round" opacity="0.5"/>

    <!-- Mouth (small happy smile looking up) -->
    <path d="M 236 322 Q 240 326 244 322" stroke="#c87060" stroke-width="1.2" fill="none" stroke-linecap="round"/>

    <!-- Rosy cheeks -->
    <ellipse cx="226" cy="318" rx="5" ry="3.5" fill="#FFB6C1" opacity="0.4"/>
    <ellipse cx="254" cy="318" rx="5" ry="3.5" fill="#FFB6C1" opacity="0.4"/>

    <!-- Simple feet / zori sandals -->
    <ellipse cx="230" cy="432" rx="8" ry="3" fill="#3a2020" opacity="0.7"/>
    <ellipse cx="250" cy="432" rx="8" ry="3" fill="#3a2020" opacity="0.7"/>
  </g>

  <!-- ============ LAYER 6: Foreground (cranes, petals, sparkles) ============ -->

  <!-- Origami Crane 1 (just released from hand, largest) -->
  <g class="of-crane1">
    <!-- Geometric origami crane - triangle/diamond shapes -->
    <g filter="url(#of-softGlow)">
      <!-- Body diamond -->
      <polygon points="310,180 320,170 330,180 320,188" fill="#ffffff" opacity="0.95"/>
      <!-- Left wing (triangle) -->
      <polygon points="310,180 295,168 310,175" fill="#f0e8d8" opacity="0.9" class="of-wing-l"/>
      <!-- Right wing (triangle) -->
      <polygon points="330,180 345,168 330,175" fill="#f0e8d8" opacity="0.9" class="of-wing-r"/>
      <!-- Tail -->
      <polygon points="310,183 300,192 312,185" fill="#ffffff" opacity="0.85"/>
      <!-- Head/beak -->
      <polygon points="330,178 340,175 332,180" fill="#ffffff" opacity="0.9"/>
      <!-- Fold line detail -->
      <line x1="310" y1="180" x2="330" y2="180" stroke="#d0d0d0" stroke-width="0.4" opacity="0.5"/>
    </g>
    <!-- Sparkle trail behind crane 1 -->
    <circle class="of-sparkle1" cx="298" cy="185" r="1.5" fill="#ffd700" opacity="0.6"/>
    <circle class="of-sparkle2" cx="290" cy="190" r="1" fill="#ffd700" opacity="0.4"/>
    <circle class="of-sparkle3" cx="295" cy="192" r="0.8" fill="#ffe4b5" opacity="0.5"/>
  </g>

  <!-- Origami Crane 2 (upper left, medium) -->
  <g class="of-crane2">
    <g filter="url(#of-softGlow)">
      <polygon points="160,140 168,132 176,140 168,146" fill="#f0e8d8" opacity="0.9"/>
      <polygon points="160,140 148,130 160,136" fill="#ffffff" opacity="0.85"/>
      <polygon points="176,140 188,130 176,136" fill="#ffffff" opacity="0.85"/>
      <polygon points="160,142 152,150 161,144" fill="#f0e8d8" opacity="0.8"/>
      <polygon points="176,139 184,136 177,141" fill="#f0e8d8" opacity="0.85"/>
      <line x1="160" y1="140" x2="176" y2="140" stroke="#d0d0d0" stroke-width="0.3" opacity="0.4"/>
    </g>
    <circle class="of-sparkle4" cx="150" cy="145" r="1.2" fill="#ffd700" opacity="0.5"/>
    <circle class="of-sparkle5" cx="145" cy="148" r="0.8" fill="#ffe4b5" opacity="0.4"/>
  </g>

  <!-- Origami Crane 3 (upper right near moon, small) -->
  <g class="of-crane3">
    <g filter="url(#of-softGlow)">
      <polygon points="380,120 386,114 392,120 386,125" fill="#ffffff" opacity="0.85"/>
      <polygon points="380,120 370,112 380,117" fill="#f0e8d8" opacity="0.8"/>
      <polygon points="392,120 402,112 392,117" fill="#f0e8d8" opacity="0.8"/>
      <polygon points="380,122 374,128 381,123" fill="#ffffff" opacity="0.75"/>
      <polygon points="392,119 398,117 393,121" fill="#ffffff" opacity="0.8"/>
      <line x1="380" y1="120" x2="392" y2="120" stroke="#d0d0d0" stroke-width="0.3" opacity="0.35"/>
    </g>
    <circle class="of-sparkle6" cx="372" cy="125" r="1" fill="#ffd700" opacity="0.45"/>
  </g>

  <!-- Origami Crane 4 (being released, close to hand) -->
  <g class="of-crane4">
    <g filter="url(#of-softGlow)">
      <polygon points="270,260 278,252 286,260 278,267" fill="#ffffff" opacity="0.95"/>
      <polygon points="270,260 258,250 270,256" fill="#f0e8d8" opacity="0.9"/>
      <polygon points="286,260 298,250 286,256" fill="#f0e8d8" opacity="0.9"/>
      <polygon points="270,262 263,270 271,264" fill="#ffffff" opacity="0.85"/>
      <polygon points="286,259 293,256 287,261" fill="#ffffff" opacity="0.9"/>
      <line x1="270" y1="260" x2="286" y2="260" stroke="#d0d0d0" stroke-width="0.3" opacity="0.45"/>
    </g>
    <circle class="of-sparkle1" cx="260" cy="265" r="1.3" fill="#ffd700" opacity="0.55"/>
    <circle class="of-sparkle3" cx="255" cy="268" r="0.9" fill="#ffe4b5" opacity="0.4"/>
  </g>

  <!-- Cherry blossom petals falling -->
  <g transform="rotate(15 120 80)">
    <ellipse class="of-petal1" cx="120" cy="80" rx="4" ry="2.5" fill="#ffb6c1" opacity="0.8"/>
  </g>
  <g transform="rotate(-20 200 60)">
    <ellipse class="of-petal2" cx="200" cy="60" rx="3.5" ry="2" fill="#ff69b4" opacity="0.7"/>
  </g>
  <g transform="rotate(30 340 90)">
    <ellipse class="of-petal3" cx="340" cy="90" rx="3" ry="2" fill="#ffb6c1" opacity="0.75"/>
  </g>
  <g transform="rotate(-10 80 150)">
    <ellipse class="of-petal4" cx="80" cy="150" rx="3.5" ry="2.2" fill="#ff69b4" opacity="0.7"/>
  </g>
  <g transform="rotate(25 430 130)">
    <ellipse class="of-petal5" cx="430" cy="130" rx="3" ry="1.8" fill="#ffb6c1" opacity="0.65"/>
  </g>
  <g transform="rotate(-35 280 110)">
    <ellipse class="of-petal6" cx="280" cy="110" rx="4" ry="2.3" fill="#ff69b4" opacity="0.7"/>
  </g>
  <g transform="rotate(20 170 170)">
    <ellipse class="of-petal7" cx="170" cy="170" rx="3.2" ry="2" fill="#ffb6c1" opacity="0.6"/>
  </g>
  <g transform="rotate(-15 380 200)">
    <ellipse class="of-petal8" cx="380" cy="200" rx="3.5" ry="2" fill="#ff69b4" opacity="0.65"/>
  </g>

  <!-- Additional golden sparkle dust in the air -->
  <circle class="of-sparkle1" cx="150" cy="200" r="1" fill="#ffd700" opacity="0.4"/>
  <circle class="of-sparkle2" cx="320" cy="150" r="0.8" fill="#ffe4b5" opacity="0.35"/>
  <circle class="of-sparkle3" cx="100" cy="250" r="1.1" fill="#ffd700" opacity="0.3"/>
  <circle class="of-sparkle4" cx="350" cy="240" r="0.9" fill="#ffe4b5" opacity="0.4"/>
  <circle class="of-sparkle5" cx="200" cy="180" r="1.2" fill="#ffd700" opacity="0.35"/>
  <circle class="of-sparkle6" cx="440" cy="220" r="0.7" fill="#ffd700" opacity="0.3"/>

  <!-- ============ LAYER 7: Vignette overlay ============ -->
  <rect width="512" height="512" fill="url(#of-vignette)" opacity="0.4"/>
</svg>