<?xml version="1.0" encoding="UTF-8"?>
<svg viewBox="0 0 512 512" xmlns="http://www.w3.org/2000/svg">
  <defs>
    <!-- Warm dusk gradient background -->
    <radialGradient id="duskGradient" cx="50%" cy="65%" r="65%">
      <stop offset="0%" style="stop-color:#f4a460;stop-opacity:1" />
      <stop offset="35%" style="stop-color:#d2691e;stop-opacity:1" />
      <stop offset="70%" style="stop-color:#8b5a2b;stop-opacity:1" />
      <stop offset="100%" style="stop-color:#2c2416;stop-opacity:1" />
    </radialGradient>

    <!-- Linear gradient for horizon warmth -->
    <linearGradient id="horizonGlow" x1="0%" y1="0%" x2="0%" y2="100%">
      <stop offset="0%" style="stop-color:#1a1410;stop-opacity:1" />
      <stop offset="40%" style="stop-color:#3a2817;stop-opacity:1" />
      <stop offset="70%" style="stop-color:#8b5a2b;stop-opacity:1" />
      <stop offset="100%" style="stop-color:#cd853f;stop-opacity:0.8" />
    </linearGradient>

    <!-- Owl eye iris gradient -->
    <radialGradient id="irisGradient" cx="40%" cy="40%">
      <stop offset="0%" style="stop-color:#ffd700;stop-opacity:1" />
      <stop offset="70%" style="stop-color:#daa520;stop-opacity:1" />
      <stop offset="100%" style="stop-color:#8b6914;stop-opacity:1" />
    </radialGradient>

    <!-- Subtle shadow filter -->
    <filter id="shadowFilter">
      <feGaussianBlur in="SourceAlpha" stdDeviation="2"/>
      <feOffset dx="1" dy="2" result="offsetblur"/>
      <feComponentTransfer>
        <feFuncA type="linear" slope="0.3"/>
      </feComponentTransfer>
      <feMerge>
        <feMergeNode/>
        <feMergeNode in="SourceGraphic"/>
      </feMerge>
    </filter>

    <!-- Glow filter for eyes -->
    <filter id="eyeGlow">
      <feGaussianBlur in="SourceGraphic" stdDeviation="1.5"/>
    </filter>

    <!-- Light ray pattern -->
    <linearGradient id="lightRay" x1="0%" y1="0%" x2="100%" y2="100%">
      <stop offset="0%" style="stop-color:#ffcc80;stop-opacity:0" />
      <stop offset="50%" style="stop-color:#ffcc80;stop-opacity:0.06" />
      <stop offset="100%" style="stop-color:#ffcc80;stop-opacity:0" />
    </linearGradient>

    <!-- Vignette gradient -->
    <radialGradient id="vignetteGradient" cx="50%" cy="50%" r="70%">
      <stop offset="0%" style="stop-color:#000000;stop-opacity:0" />
      <stop offset="100%" style="stop-color:#000000;stop-opacity:0.15" />
    </radialGradient>
  </defs>

  <style>
    @keyframes owlBlink {
      0%, 80%, 100% { opacity: 1; }
      5%, 12% { opacity: 0.05; }
    }

    @keyframes owlHeadRotate {
      0%, 100% { transform: rotate(-3deg); }
      50% { transform: rotate(3deg); }
    }

    @keyframes owlBreathing {
      0%, 100% { transform: scale(1); }
      50% { transform: scale(1.02); }
    }

    @keyframes foliageHigh {
      0%, 100% { transform: rotate(-4deg); }
      50% { transform: rotate(4deg); }
    }

    @keyframes foliageMid {
      0%, 100% { transform: rotate(3deg); }
      50% { transform: rotate(-3deg); }
    }

    @keyframes foliageLow {
      0%, 100% { transform: rotate(-2deg); }
      50% { transform: rotate(2deg); }
    }

    @keyframes animalBreathing1 {
      0%, 100% { transform: scale(1); }
      50% { transform: scale(1.03); }
    }

    @keyframes animalBreathing2 {
      0%, 100% { transform: scale(1); }
      50% { transform: scale(1.03); }
    }

    @keyframes animalBreathing3 {
      0%, 100% { transform: scale(1); }
      50% { transform: scale(1.03); }
    }

    @keyframes starTwinkle1 {
      0%, 100% { opacity: 0.3; }
      50% { opacity: 1; }
    }

    @keyframes starTwinkle2 {
      0%, 100% { opacity: 0.4; }
      50% { opacity: 0.9; }
    }

    @keyframes starTwinkle3 {
      0%, 100% { opacity: 0.2; }
      50% { opacity: 1; }
    }

    @keyframes starTwinkle4 {
      0%, 100% { opacity: 0.35; }
      50% { opacity: 0.95; }
    }

    @keyframes lightRayPulse {
      0%, 100% { opacity: 0.03; }
      50% { opacity: 0.1; }
    }

    @keyframes earTuftTwitch {
      0%, 100% { transform: rotate(-2deg); }
      50% { transform: rotate(2deg); }
    }

    @keyframes leafDrift1 {
      0%, 100% { transform: translate(0, 0) rotate(0deg); }
      50% { transform: translate(8px, -4px) rotate(15deg); }
    }

    @keyframes leafDrift2 {
      0%, 100% { transform: translate(0, 0) rotate(0deg); }
      50% { transform: translate(-6px, -3px) rotate(-12deg); }
    }

    @keyframes leafDrift3 {
      0%, 100% { transform: translate(0, 0) rotate(0deg); }
      50% { transform: translate(10px, -5px) rotate(20deg); }
    }

    @keyframes squirrelTailTwitch {
      0%, 100% { transform: rotate(-2deg); }
      50% { transform: rotate(2deg); }
    }

    /* Animation classes */
    .owl-eyelid-left {
      animation: owlBlink 5s infinite ease-in-out;
      transform-origin: 50% 50%;
    }

    .owl-eyelid-right {
      animation: owlBlink 5s infinite ease-in-out;
      transform-origin: 50% 50%;
    }

    .owl-head {
      animation: owlHeadRotate 7s infinite ease-in-out;
      transform-origin: 256px 240px;
    }

    .owl-body {
      animation: owlBreathing 5s infinite ease-in-out;
      transform-origin: 256px 280px;
    }

    .foliage-top {
      animation: foliageHigh 6s infinite ease-in-out;
      transform-origin: 256px 150px;
    }

    .foliage-upper-mid {
      animation: foliageMid 5.5s infinite ease-in-out;
      transform-origin: 280px 180px;
    }

    .foliage-mid {
      animation: foliageHigh 6.5s infinite ease-in-out;
      transform-origin: 240px 220px;
    }

    .foliage-lower {
      animation: foliageLow 7s infinite ease-in-out;
      transform-origin: 256px 280px;
    }

    .deer-body {
      animation: animalBreathing1 5.5s infinite ease-in-out;
      transform-origin: 100px 380px;
    }

    .squirrel-body {
      animation: animalBreathing2 6s infinite ease-in-out;
      transform-origin: 380px 390px;
    }

    .rabbit-body {
      animation: animalBreathing3 5.8s infinite ease-in-out;
      transform-origin: 130px 410px;
    }

    .star-1 { animation: starTwinkle1 4s infinite ease-in-out; }
    .star-2 { animation: starTwinkle2 5s infinite ease-in-out; }
    .star-3 { animation: starTwinkle3 4.5s infinite ease-in-out; }
    .star-4 { animation: starTwinkle4 5.5s infinite ease-in-out; }
    .star-5 { animation: starTwinkle1 6s infinite ease-in-out; }
    .star-6 { animation: starTwinkle2 4.8s infinite ease-in-out; }
    .star-7 { animation: starTwinkle3 5.2s infinite ease-in-out; }
    .star-8 { animation: starTwinkle4 6.2s infinite ease-in-out; }

    .light-ray-1 { animation: lightRayPulse 6s infinite ease-in-out; }
    .light-ray-2 { animation: lightRayPulse 6.5s infinite ease-in-out 0.5s; }
    .light-ray-3 { animation: lightRayPulse 6s infinite ease-in-out 1s; }

    .ear-tuft-left {
      animation: earTuftTwitch 4s infinite ease-in-out;
      transform-origin: 236px 220px;
    }

    .ear-tuft-right {
      animation: earTuftTwitch 4s infinite ease-in-out 0.2s;
      transform-origin: 276px 220px;
    }

    .leaf-drift-1 { animation: leafDrift1 8s infinite ease-in-out; }
    .leaf-drift-2 { animation: leafDrift2 7.5s infinite ease-in-out 0.3s; }
    .leaf-drift-3 { animation: leafDrift3 9s infinite ease-in-out 0.6s; }

    .squirrel-tail {
      animation: squirrelTailTwitch 8s infinite ease-in-out;
      transform-origin: 385px 375px;
    }
  </style>

  <!-- Main background -->
  <rect width="512" height="512" fill="url(#horizonGlow)"/>
  <rect width="512" height="512" fill="url(#duskGradient)"/>

  <!-- Light rays filtering through -->
  <g class="light-ray-1">
    <polygon points="200,100 250,400 280,400 220,100" fill="url(#lightRay)" opacity="0.06"/>
  </g>
  <g class="light-ray-2">
    <polygon points="300,80 320,420 360,420 340,80" fill="url(#lightRay)" opacity="0.06"/>
  </g>
  <g class="light-ray-3">
    <polygon points="150,120 180,450 210,450 180,120" fill="url(#lightRay)" opacity="0.05"/>
  </g>

  <!-- Ancient oak tree trunk -->
  <g id="tree-trunk">
    <!-- Main trunk -->
    <ellipse cx="256" cy="350" rx="45" ry="90" fill="#3d2817"/>

    <!-- Trunk bark texture - parallel lines -->
    <line x1="220" y1="280" x2="215" y2="380" stroke="#2c1810" stroke-width="1.5" opacity="0.6"/>
    <line x1="235" y1="275" x2="228" y2="385" stroke="#2c1810" stroke-width="1" opacity="0.4"/>
    <line x1="250" y1="270" x2="248" y2="390" stroke="#2c1810" stroke-width="1.2" opacity="0.5"/>
    <line x1="265" y1="270" x2="270" y2="388" stroke="#2c1810" stroke-width="1" opacity="0.4"/>
    <line x1="280" y1="275" x2="287" y2="385" stroke="#2c1810" stroke-width="1.5" opacity="0.6"/>
    <line x1="295" y1="280" x2="302" y2="380" stroke="#2c1810" stroke-width="1" opacity="0.5"/>

    <!-- Trunk hollow/knot -->
    <ellipse cx="256" cy="310" rx="12" ry="18" fill="#1a0f0a" opacity="0.8"/>
    <ellipse cx="256" cy="310" rx="9" ry="14" fill="#0d0704" opacity="0.6"/>
    <path d="M 250 305 Q 248 310 250 315" stroke="#2c1810" stroke-width="1" fill="none" opacity="0.5"/>
    <path d="M 262 305 Q 264 310 262 315" stroke="#2c1810" stroke-width="1" fill="none" opacity="0.5"/>
  </g>

  <!-- Tree branches - main structure -->
  <g id="tree-branches">
    <!-- Left main branch -->
    <path d="M 220 300 Q 150 280 100 240" stroke="#4a3520" stroke-width="18" fill="none" stroke-linecap="round"/>
    <path d="M 220 300 Q 150 280 100 240" stroke="#3d2817" stroke-width="14" fill="none" stroke-linecap="round"/>

    <!-- Left secondary branches -->
    <path d="M 160 280 Q 130 260 90 240" stroke="#4a3520" stroke-width="12" fill="none" stroke-linecap="round"/>
    <path d="M 160 280 Q 130 260 90 240" stroke="#3d2817" stroke-width="9" fill="none" stroke-linecap="round"/>

    <path d="M 130 270 Q 90 250 60 230" stroke="#4a3520" stroke-width="10" fill="none" stroke-linecap="round"/>
    <path d="M 130 270 Q 90 250 60 230" stroke="#3d2817" stroke-width="7" fill="none" stroke-linecap="round"/>

    <!-- Right main branch -->
    <path d="M 292 300 Q 362 280 412 240" stroke="#4a3520" stroke-width="18" fill="none" stroke-linecap="round"/>
    <path d="M 292 300 Q 362 280 412 240" stroke="#3d2817" stroke-width="14" fill="none" stroke-linecap="round"/>

    <!-- Right secondary branches -->
    <path d="M 352 280 Q 382 260 422 240" stroke="#4a3520" stroke-width="12" fill="none" stroke-linecap="round"/>
    <path d="M 352 280 Q 382 260 422 240" stroke="#3d2817" stroke-width="9" fill="none" stroke-linecap="round"/>

    <path d="M 382 270 Q 422 250 452 230" stroke="#4a3520" stroke-width="10" fill="none" stroke-linecap="round"/>
    <path d="M 382 270 Q 422 250 452 230" stroke="#3d2817" stroke-width="7" fill="none" stroke-linecap="round"/>

    <!-- Upper branches -->
    <path d="M 256 280 Q 256 180 250 100" stroke="#4a3520" stroke-width="16" fill="none" stroke-linecap="round"/>
    <path d="M 256 280 Q 256 180 250 100" stroke="#3d2817" stroke-width="12" fill="none" stroke-linecap="round"/>

    <!-- Upper left branch -->
    <path d="M 240 180 Q 190 150 140 120" stroke="#4a3520" stroke-width="12" fill="none" stroke-linecap="round"/>
    <path d="M 240 180 Q 190 150 140 120" stroke="#3d2817" stroke-width="8" fill="none" stroke-linecap="round"/>

    <!-- Upper right branch -->
    <path d="M 270 180 Q 320 150 370 120" stroke="#4a3520" stroke-width="12" fill="none" stroke-linecap="round"/>
    <path d="M 270 180 Q 320 150 370 120" stroke="#3d2817" stroke-width="8" fill="none" stroke-linecap="round"/>

    <!-- Tertiary branches from upper branches -->
    <path d="M 210 155 Q 180 140 150 130" stroke="#3d2817" stroke-width="7" fill="none" stroke-linecap="round"/>
    <path d="M 170 140 Q 140 120 110 110" stroke="#3d2817" stroke-width="5" fill="none" stroke-linecap="round"/>

    <path d="M 300 155 Q 330 140 360 130" stroke="#3d2817" stroke-width="7" fill="none" stroke-linecap="round"/>
    <path d="M 340 140 Q 370 120 400 110" stroke="#3d2817" stroke-width="5" fill="none" stroke-linecap="round"/>
  </g>

  <!-- Dense autumn foliage - layered leaf clusters -->
  <!-- Back/distant foliage (darker, less visible) -->
  <g class="foliage-top" opacity="0.85">
    <ellipse cx="256" cy="140" rx="90" ry="60" fill="#8b4513" opacity="0.6"/>
    <ellipse cx="200" cy="160" rx="70" ry="50" fill="#a0522d" opacity="0.5"/>
    <ellipse cx="310" cy="160" rx="70" ry="50" fill="#a0522d" opacity="0.5"/>
  </g>

  <!-- Mid-layer foliage -->
  <g class="foliage-upper-mid" opacity="0.9">
    <ellipse cx="256" cy="180" rx="110" ry="70" fill="#cd853f" opacity="0.7"/>
    <ellipse cx="200" cy="200" rx="85" ry="65" fill="#d2691e" opacity="0.65"/>
    <ellipse cx="310" cy="200" rx="85" ry="65" fill="#d2691e" opacity="0.65"/>

    <!-- Leaf cluster details on mid layer -->
    <circle cx="220" cy="170" r="8" fill="#ff8c00" opacity="0.8"/>
    <circle cx="240" cy="160" r="9" fill="#ffa500" opacity="0.75"/>
    <circle cx="270" cy="165" r="8" fill="#ff7f50" opacity="0.8"/>
    <circle cx="290" cy="175" r="9" fill="#ffa500" opacity="0.75"/>
    <circle cx="180" cy="195" r="7" fill="#daa520" opacity="0.7"/>
    <circle cx="330" cy="190" r="8" fill="#ffa500" opacity="0.75"/>
  </g>

  <!-- Upper main foliage mass -->
  <g class="foliage-mid" opacity="0.95">
    <ellipse cx="256" cy="220" rx="130" ry="85" fill="#ff8c00" opacity="0.75"/>
    <ellipse cx="180" cy="240" rx="100" ry="80" fill="#cd853f" opacity="0.7"/>
    <ellipse cx="330" cy="240" rx="100" ry="80" fill="#cd853f" opacity="0.7"/>
    <ellipse cx="150" cy="210" rx="75" ry="65" fill="#d2691e" opacity="0.65"/>
    <ellipse cx="360" cy="210" rx="75" ry="65" fill="#d2691e" opacity="0.65"/>

    <!-- Prominent leaf clusters -->
    <circle cx="240" cy="200" r="10" fill="#ffcc00" opacity="0.85"/>
    <circle cx="260" cy="190" r="11" fill="#ffa500" opacity="0.8"/>
    <circle cx="280" cy="205" r="10" fill="#ff8c00" opacity="0.85"/>
    <circle cx="200" cy="230" r="9" fill="#ffa500" opacity="0.8"/>
    <circle cx="220" cy="220" r="10" fill="#ffcc00" opacity="0.8"/>
    <circle cx="300" cy="215" r="9" fill="#ff8c00" opacity="0.8"/>
    <circle cx="320" cy="235" r="10" fill="#ffa500" opacity="0.8"/>

    <!-- Some golden highlights -->
    <circle cx="256" cy="210" r="8" fill="#ffed4e" opacity="0.7"/>
    <circle cx="190" cy="250" r="7" fill="#ffd700" opacity="0.65"/>
    <circle cx="330" cy="255" r="7" fill="#ffd700" opacity="0.65"/>
  </g>

  <!-- Lower foliage around owl -->
  <g class="foliage-lower" opacity="1">
    <ellipse cx="256" cy="280" rx="120" ry="90" fill="#cd853f" opacity="0.8"/>
    <ellipse cx="200" cy="300" rx="95" ry="85" fill="#d2691e" opacity="0.75"/>
    <ellipse cx="310" cy="300" rx="95" ry="85" fill="#d2691e" opacity="0.75"/>

    <!-- Leaf clusters on lower foliage -->
    <circle cx="220" cy="260" r="10" fill="#ff8c00" opacity="0.85"/>
    <circle cx="250" cy="250" r="11" fill="#ffa500" opacity="0.85"/>
    <circle cx="290" cy="265" r="10" fill="#ff8c00" opacity="0.85"/>
    <circle cx="180" cy="290" r="9" fill="#ffa500" opacity="0.8"/>
    <circle cx="270" cy="295" r="10" fill="#ffcc00" opacity="0.8"/>
    <circle cx="320" cy="285" r="9" fill="#ff8c00" opacity="0.8"/>

    <!-- Remaining green foliage hints -->
    <circle cx="240" cy="285" r="8" fill="#7cb342" opacity="0.6"/>
    <circle cx="300" cy="275" r="7" fill="#8bc34a" opacity="0.5"/>
    <circle cx="200" cy="315" r="7" fill="#7cb342" opacity="0.55"/>
  </g>

  <!-- Additional foliage depth on sides -->
  <g class="foliage-top" opacity="0.75">
    <ellipse cx="120" cy="280" rx="60" ry="70" fill="#8b4513" opacity="0.55"/>
    <circle cx="100" cy="290" r="6" fill="#ff8c00" opacity="0.6"/>
    <circle cx="135" cy="270" r="7" fill="#ffa500" opacity="0.55"/>
  </g>

  <g class="foliage-top" opacity="0.75">
    <ellipse cx="390" cy="280" rx="60" ry="70" fill="#8b4513" opacity="0.55"/>
    <circle cx="410" cy="290" r="6" fill="#ff8c00" opacity="0.6"/>
    <circle cx="375" cy="270" r="7" fill="#ffa500" opacity="0.55"/>
  </g>

  <!-- The Wise Owl - Main Character -->
  <g id="owl" class="owl-head">
    <!-- Owl body - layered feathered appearance -->
    <g class="owl-body">
      <!-- Main body ellipse -->
      <ellipse cx="256" cy="280" rx="48" ry="55" fill="#8b6f47"/>

      <!-- Feather texture on body - overlapping shapes -->
      <ellipse cx="256" cy="250" rx="38" ry="35" fill="#a0826d" opacity="0.8"/>
      <ellipse cx="256" cy="290" rx="40" ry="42" fill="#9b7d5f" opacity="0.85"/>
      <ellipse cx="256" cy="330" rx="35" ry="25" fill="#7d6549" opacity="0.9"/>

      <!-- White chest patch -->
      <ellipse cx="256" cy="310" rx="22" ry="28" fill="#f5deb3" opacity="0.9"/>

      <!-- Chest feather texture -->
      <path d="M 245 295 L 250 310 L 245 325" stroke="#e8d4a8" stroke-width="1.5" fill="none" opacity="0.7"/>
      <path d="M 256 295 L 256 330" stroke="#e8d4a8" stroke-width="1" fill="none" opacity="0.6"/>
      <path d="M 267 295 L 262 310 L 267 325" stroke="#e8d4a8" stroke-width="1.5" fill="none" opacity="0.7"/>
      <path d="M 250 305 L 262 305" stroke="#e8d4a8" stroke-width="1" fill="none" opacity="0.5"/>
      <path d="M 250 320 L 262 320" stroke="#e8d4a8" stroke-width="1" fill="none" opacity="0.5"/>
    </g>

    <!-- Left wing (darker, feathered) -->
    <g>
      <ellipse cx="220" cy="290" rx="20" ry="45" fill="#6d5844" opacity="0.85"/>
      <ellipse cx="215" cy="280" rx="12" ry="25" fill="#7d6549" opacity="0.7"/>
      <ellipse cx="215" cy="305" rx="12" ry="25" fill="#7d6549" opacity="0.7"/>
      <ellipse cx="213" cy="330" rx="10" ry="20" fill="#6d5844" opacity="0.75"/>

      <!-- Wing feather lines -->
      <path d="M 210 260 Q 205 290 208 320" stroke="#5a4936" stroke-width="1.5" fill="none" opacity="0.6"/>
      <path d="M 220 255 Q 218 290 220 325" stroke="#5a4936" stroke-width="1.2" fill="none" opacity="0.5"/>
    </g>

    <!-- Right wing -->
    <g>
      <ellipse cx="292" cy="290" rx="20" ry="45" fill="#6d5844" opacity="0.85"/>
      <ellipse cx="297" cy="280" rx="12" ry="25" fill="#7d6549" opacity="0.7"/>
      <ellipse cx="297" cy="305" rx="12" ry="25" fill="#7d6549" opacity="0.7"/>
      <ellipse cx="299" cy="330" rx="10" ry="20" fill="#6d5844" opacity="0.75"/>

      <!-- Wing feather lines -->
      <path d="M 302 260 Q 307 290 304 320" stroke="#5a4936" stroke-width="1.5" fill="none" opacity="0.6"/>
      <path d="M 292 255 Q 294 290 292 325" stroke="#5a4936" stroke-width="1.2" fill="none" opacity="0.5"/>
    </g>

    <!-- Owl head features -->
    <g>
      <!-- Facial disc -->
      <ellipse cx="256" cy="245" rx="42" ry="40" fill="#a0826d" opacity="0.95"/>

      <!-- Eye sockets (darker areas around eyes) -->
      <ellipse cx="240" cy="235" rx="18" ry="22" fill="#6d5844" opacity="0.7"/>
      <ellipse cx="272" cy="235" rx="18" ry="22" fill="#6d5844" opacity="0.7"/>

      <!-- LEFT EYE -->
      <!-- Eye white (sclera) -->
      <circle cx="240" cy="235" r="16" fill="#fffaf0" filter="url(#eyeGlow)"/>

      <!-- Iris with radial gradient -->
      <circle cx="240" cy="235" r="11" fill="url(#irisGradient)"/>

      <!-- Pupil -->
      <circle cx="242" cy="233" r="7" fill="#1a0f0a"/>

      <!-- Eye reflections (white spots) -->
      <circle cx="244" cy="229" r="2.5" fill="#ffffff" opacity="0.95"/>
      <circle cx="246" cy="231" r="1.5" fill="#ffffff" opacity="0.8"/>
      <circle cx="241" cy="226" r="1" fill="#ffffff" opacity="0.7"/>

      <!-- Eyelid overlay for blinking -->
      <ellipse class="owl-eyelid-left" cx="240" cy="235" rx="16" ry="16" fill="#a0826d"/>

      <!-- RIGHT EYE -->
      <!-- Eye white -->
      <circle cx="272" cy="235" r="16" fill="#fffaf0" filter="url(#eyeGlow)"/>

      <!-- Iris -->
      <circle cx="272" cy="235" r="11" fill="url(#irisGradient)"/>

      <!-- Pupil -->
      <circle cx="270" cy="233" r="7" fill="#1a0f0a"/>

      <!-- Eye reflections -->
      <circle cx="268" cy="229" r="2.5" fill="#ffffff" opacity="0.95"/>
      <circle cx="266" cy="231" r="1.5" fill="#ffffff" opacity="0.8"/>
      <circle cx="271" cy="226" r="1" fill="#ffffff" opacity="0.7"/>

      <!-- Eyelid overlay -->
      <ellipse class="owl-eyelid-right" cx="272" cy="235" rx="16" ry="16" fill="#a0826d"/>

      <!-- Beak -->
      <polygon points="256,250 250,262 262,262" fill="#d4692d"/>
      <polygon points="256,250 251,260 261,260" fill="#e67e22" opacity="0.8"/>
      <path d="M 256 255 L 256 260" stroke="#a0522d" stroke-width="0.8" opacity="0.6"/>

      <!-- Ear tufts - pointed shapes above head -->
      <g class="ear-tuft-left">
        <polygon points="230,210 220,190 235,215" fill="#8b6f47"/>
        <polygon points="230,210 223,195 234,213" fill="#6d5844" opacity="0.7"/>
      </g>

      <g class="ear-tuft-right">
        <polygon points="282,210 292,190 277,215" fill="#8b6f47"/>
        <polygon points="282,210 289,195 278,213" fill="#6d5844" opacity="0.7"/>
      </g>

      <!-- Facial feather details -->
      <path d="M 245 225 Q 250 230 255 228" stroke="#7d6549" stroke-width="1" fill="none" opacity="0.5"/>
      <path d="M 267 225 Q 262 230 257 228" stroke="#7d6549" stroke-width="1" fill="none" opacity="0.5"/>
    </g>

    <!-- Feet/talons gripping branch -->
    <g>
      <!-- Left foot -->
      <ellipse cx="240" cy="345" rx="8" ry="6" fill="#5a4936"/>
      <!-- Left talons -->
      <path d="M 233 345 L 225 355" stroke="#4a3520" stroke-width="2.5" stroke-linecap="round"/>
      <path d="M 237 346 L 234 356" stroke="#4a3520" stroke-width="2" stroke-linecap="round"/>
      <path d="M 245 346 L 248 356" stroke="#4a3520" stroke-width="2" stroke-linecap="round"/>
      <path d="M 249 345 L 258 355" stroke="#4a3520" stroke-width="2.5" stroke-linecap="round"/>

      <!-- Right foot -->
      <ellipse cx="272" cy="345" rx="8" ry="6" fill="#5a4936"/>
      <!-- Right talons -->
      <path d="M 265 345 L 257 355" stroke="#4a3520" stroke-width="2.5" stroke-linecap="round"/>
      <path d="M 269 346 L 272 356" stroke="#4a3520" stroke-width="2" stroke-linecap="round"/>
      <path d="M 277 346 L 274 356" stroke="#4a3520" stroke-width="2" stroke-linecap="round"/>
      <path d="M 281 345 L 290 355" stroke="#4a3520" stroke-width="2.5" stroke-linecap="round"/>
    </g>
  </g>

  <!-- Sleeping animals -->

  <!-- Sleeping Deer Fawn (left side, at base of tree) -->
  <g class="deer-body">
    <!-- Body -->
    <ellipse cx="100" cy="380" rx="35" ry="25" fill="#a0824a"/>

    <!-- Head -->
    <ellipse cx="75" cy="365" rx="18" ry="20" fill="#b89968"/>

    <!-- Ears -->
    <ellipse cx="68" cy="350" rx="6" ry="12" fill="#a0824a"/>
    <ellipse cx="82" cy="348" rx="6" ry="12" fill="#a0824a"/>

    <!-- Spots on body -->
    <circle cx="85" cy="375" r="4" fill="#f5deb3" opacity="0.8"/>
    <circle cx="105" cy="378" r="4" fill="#f5deb3" opacity="0.8"/>
    <circle cx="115" cy="385" r="3.5" fill="#f5deb3" opacity="0.75"/>
    <circle cx="92" cy="395" r="3.5" fill="#f5deb3" opacity="0.75"/>

    <!-- Closed peaceful eye -->
    <path d="M 70 362 Q 73 364 76 362" stroke="#3d2817" stroke-width="1.5" fill="none" stroke-linecap="round"/>

    <!-- Small pink nose -->
    <circle cx="72" cy="368" r="2" fill="#d4886d" opacity="0.85"/>

    <!-- Front legs folded -->
    <ellipse cx="80" cy="400" rx="6" ry="8" fill="#9b7850"/>
    <ellipse cx="90" cy="402" rx="6" ry="8" fill="#9b7850"/>
  </g>

  <!-- Sleeping Squirrel (right side, against tree) -->
  <g class="squirrel-body">
    <!-- Body curled -->
    <ellipse cx="385" cy="390" rx="28" ry="20" fill="#9b8b7e"/>

    <!-- Head -->
    <ellipse cx="370" cy="375" rx="14" ry="16" fill="#a89a8d"/>

    <!-- Ears -->
    <circle cx="365" cy="360" r="5" fill="#9b8b7e"/>
    <circle cx="375" cy="358" r="5" fill="#9b8b7e"/>

    <!-- Closed eyes -->
    <path d="M 368 373 Q 370 375 372 373" stroke="#3d2817" stroke-width="1.2" fill="none" stroke-linecap="round"/>

    <!-- Paws tucked in -->
    <ellipse cx="375" cy="395" rx="7" ry="6" fill="#8b7d70"/>
    <ellipse cx="360" cy="395" rx="7" ry="6" fill="#8b7d70"/>

    <!-- Bushy tail - curled -->
    <g class="squirrel-tail">
      <ellipse cx="410" cy="375" rx="18" ry="26" fill="#8b7d70"/>
      <ellipse cx="415" cy="360" rx="14" ry="18" fill="#9b8b7e" opacity="0.8"/>
      <ellipse cx="408" cy="355" rx="10" ry="12" fill="#a89a8d" opacity="0.7"/>
      <!-- Tail fluffy texture -->
      <circle cx="415" cy="350" r="3" fill="#b5a99c" opacity="0.6"/>
      <circle cx="408" cy="362" r="2.5" fill="#b5a99c" opacity="0.6"/>
    </g>
  </g>

  <!-- Sleeping Rabbit (near deer) -->
  <g class="rabbit-body">
    <!-- Body -->
    <ellipse cx="130" cy="410" rx="24" ry="18" fill="#e8e8e8"/>

    <!-- Head -->
    <ellipse cx="115" cy="398" rx="14" ry="15" fill="#f5f5f5"/>

    <!-- Long drooping ears -->
    <ellipse cx="110" cy="370" rx="5" ry="18" fill="#e8e8e8" opacity="0.9"/>
    <path d="M 110 370 L 108 372 L 112 372" stroke="#f5deb3" stroke-width="0.8" fill="none" opacity="0.6"/>

    <ellipse cx="120" cy="368" rx="5" ry="18" fill="#e8e8e8" opacity="0.9"/>
    <path d="M 120 368 L 118 370 L 122 370" stroke="#f5deb3" stroke-width="0.8" fill="none" opacity="0.6"/>

    <!-- Closed eyes -->
    <path d="M 112 395 Q 114 397 116 395" stroke="#3d2817" stroke-width="1" fill="none" stroke-linecap="round"/>

    <!-- Pink nose -->
    <circle cx="115" cy="402" r="2.5" fill="#ffb6c1" opacity="0.85"/>

    <!-- Front paws -->
    <ellipse cx="120" cy="420" rx="5" ry="6" fill="#e0e0e0"/>
    <ellipse cx="108" cy="421" rx="5" ry="6" fill="#e0e0e0"/>
  </g>

  <!-- Stars visible through canopy gaps -->
  <g id="stars">
    <!-- Star 1 -->
    <circle class="star-1" cx="80" cy="120" r="2.5" fill="#ffd700" opacity="0.4"/>

    <!-- Star 2 -->
    <circle class="star-2" cx="420" cy="100" r="2" fill="#ffed4e" opacity="0.35"/>

    <!-- Star 3 -->
    <circle class="star-3" cx="350" cy="140" r="2.5" fill="#ffd700" opacity="0.3"/>

    <!-- Star 4 -->
    <circle class="star-4" cx="180" cy="100" r="2" fill="#ffed4e" opacity="0.4"/>

    <!-- Star 5 -->
    <circle class="star-5" cx="460" cy="150" r="1.8" fill="#ffd700" opacity="0.35"/>

    <!-- Star 6 -->
    <circle class="star-6" cx="110" cy="180" r="2.2" fill="#ffed4e" opacity="0.3"/>

    <!-- Star 7 -->
    <circle class="star-7" cx="400" cy="180" r="2" fill="#ffd700" opacity="0.35"/>

    <!-- Star 8 -->
    <circle class="star-8" cx="290" cy="110" r="2.3" fill="#ffed4e" opacity="0.4"/>

    <!-- Star 9 -->
    <circle class="star-1" cx="150" cy="140" r="1.8" fill="#ffd700" opacity="0.3"/>

    <!-- Star 10 -->
    <circle class="star-2" cx="450" cy="130" r="2.2" fill="#ffed4e" opacity="0.35"/>
  </g>

  <!-- Ground/Forest floor -->
  <g id="ground">
    <!-- Moss patches -->
    <ellipse cx="100" cy="450" rx="60" ry="30" fill="#556b2f" opacity="0.5"/>
    <ellipse cx="380" cy="455" rx="70" ry="35" fill="#556b2f" opacity="0.4"/>
    <ellipse cx="250" cy="470" rx="80" ry="25" fill="#556b2f" opacity="0.45"/>

    <!-- Fallen leaves on ground -->
    <g class="leaf-drift-1">
      <ellipse cx="70" cy="440" rx="6" ry="4" fill="#d2691e" opacity="0.7"/>
    </g>

    <g class="leaf-drift-2">
      <ellipse cx="420" cy="445" rx="5" ry="3.5" fill="#ff8c00" opacity="0.65"/>
    </g>

    <g class="leaf-drift-3">
      <ellipse cx="160" cy="455" rx="6" ry="4" fill="#cd853f" opacity="0.6"/>
    </g>

    <!-- Additional scattered leaf shapes -->
    <ellipse cx="200" cy="460" rx="4" ry="3" fill="#d2691e" opacity="0.5"/>
    <ellipse cx="350" cy="465" rx="5" ry="3.5" fill="#ff8c00" opacity="0.55"/>
    <ellipse cx="120" cy="468" rx="4" ry="2.5" fill="#cd853f" opacity="0.45"/>
    <ellipse cx="400" cy="470" rx="4" ry="3" fill="#d2691e" opacity="0.5"/>

    <!-- Small mushrooms -->
    <circle cx="200" cy="468" r="3" fill="#a0522d" opacity="0.6"/>
    <circle cx="200" cy="465" r="5" fill="#8b4513" opacity="0.5"/>

    <circle cx="350" cy="475" r="2.5" fill="#a0522d" opacity="0.6"/>
    <circle cx="350" cy="472" r="4.5" fill="#8b4513" opacity="0.5"/>
  </g>

  <!-- Vignette/darkening at edges -->
  <rect width="512" height="512" fill="url(#vignetteGradient)"/>

</svg>
