<svg viewBox="0 0 512 512" xmlns="http://www.w3.org/2000/svg">
  <defs>
    <!-- Sky Gradient -->
    <linearGradient id="pm-skyGradient" x1="0" y1="0" x2="0" y2="1">
      <stop offset="0%" stop-color="#1a0a3e"/>
      <stop offset="40%" stop-color="#2d1a5e"/>
      <stop offset="75%" stop-color="#4a2d7e"/>
      <stop offset="100%" stop-color="#5a3d8e"/>
    </linearGradient>

    <!-- Ground Gradient -->
    <linearGradient id="pm-groundGradient" x1="0" y1="0" x2="0" y2="1">
      <stop offset="0%" stop-color="#1a3a2a"/>
      <stop offset="100%" stop-color="#0d2218"/>
    </linearGradient>

    <!-- Peacock Body Gradient -->
    <linearGradient id="pm-peacockBody" x1="0" y1="0" x2="0" y2="1">
      <stop offset="0%" stop-color="#006b3c"/>
      <stop offset="50%" stop-color="#00a86b"/>
      <stop offset="100%" stop-color="#005a32"/>
    </linearGradient>

    <!-- Peacock Neck Gradient -->
    <linearGradient id="pm-neckGradient" x1="0" y1="0" x2="0" y2="1">
      <stop offset="0%" stop-color="#00d4aa"/>
      <stop offset="50%" stop-color="#006b3c"/>
      <stop offset="100%" stop-color="#004a2a"/>
    </linearGradient>

    <!-- Feather Eye Gradient -->
    <radialGradient id="pm-featherEye" cx="50%" cy="50%" r="50%">
      <stop offset="0%" stop-color="#ffd700" stop-opacity="1"/>
      <stop offset="40%" stop-color="#4d8aff" stop-opacity="1"/>
      <stop offset="70%" stop-color="#1a5aff" stop-opacity="1"/>
      <stop offset="100%" stop-color="#006b3c" stop-opacity="1"/>
    </radialGradient>

    <!-- Feather Eye Glow -->
    <radialGradient id="pm-featherGlow" cx="50%" cy="50%" r="50%">
      <stop offset="0%" stop-color="#4d8aff" stop-opacity="0.8"/>
      <stop offset="60%" stop-color="#1a5aff" stop-opacity="0.3"/>
      <stop offset="100%" stop-color="#1a5aff" stop-opacity="0"/>
    </radialGradient>

    <!-- Magic Feather Glow -->
    <radialGradient id="pm-magicGlow" cx="50%" cy="50%" r="50%">
      <stop offset="0%" stop-color="#ffd700" stop-opacity="0.9"/>
      <stop offset="50%" stop-color="#ff69b4" stop-opacity="0.4"/>
      <stop offset="100%" stop-color="#ffd700" stop-opacity="0"/>
    </radialGradient>

    <!-- Temple Glow -->
    <radialGradient id="pm-templeGlow" cx="50%" cy="80%" r="60%">
      <stop offset="0%" stop-color="#ffd700" stop-opacity="0.15"/>
      <stop offset="100%" stop-color="#ffd700" stop-opacity="0"/>
    </radialGradient>

    <!-- Moon Glow -->
    <radialGradient id="pm-moonGlow" cx="50%" cy="50%" r="50%">
      <stop offset="0%" stop-color="#fffef0" stop-opacity="0.9"/>
      <stop offset="40%" stop-color="#ffeebb" stop-opacity="0.4"/>
      <stop offset="100%" stop-color="#ffeebb" stop-opacity="0"/>
    </radialGradient>

    <!-- Vignette -->
    <radialGradient id="pm-vignette">
      <stop offset="45%" stop-color="#000000" stop-opacity="0"/>
      <stop offset="100%" stop-color="#000000" stop-opacity="0.55"/>
    </radialGradient>

    <!-- Boy Skin -->
    <radialGradient id="pm-skinTone" cx="40%" cy="35%" r="60%">
      <stop offset="0%" stop-color="#e8b896"/>
      <stop offset="100%" stop-color="#d4a574"/>
    </radialGradient>

    <!-- Sparkle Gradient -->
    <radialGradient id="pm-sparkle" cx="50%" cy="50%" r="50%">
      <stop offset="0%" stop-color="#ffffff" stop-opacity="1"/>
      <stop offset="50%" stop-color="#ffd700" stop-opacity="0.6"/>
      <stop offset="100%" stop-color="#ffd700" stop-opacity="0"/>
    </radialGradient>

    <!-- Tail Feather Gradient -->
    <linearGradient id="pm-tailFeather" x1="0" y1="0" x2="0" y2="1">
      <stop offset="0%" stop-color="#00d4aa" stop-opacity="0.9"/>
      <stop offset="40%" stop-color="#00a86b"/>
      <stop offset="80%" stop-color="#006b3c"/>
      <stop offset="100%" stop-color="#004a2a" stop-opacity="0.7"/>
    </linearGradient>

    <!-- Filters -->
    <filter id="pm-softGlow">
      <feGaussianBlur stdDeviation="2" result="blur"/>
      <feMerge>
        <feMergeNode in="blur"/>
        <feMergeNode in="SourceGraphic"/>
      </feMerge>
    </filter>

    <filter id="pm-mediumGlow">
      <feGaussianBlur stdDeviation="4" result="blur"/>
      <feMerge>
        <feMergeNode in="blur"/>
        <feMergeNode in="SourceGraphic"/>
      </feMerge>
    </filter>

    <filter id="pm-strongGlow">
      <feGaussianBlur stdDeviation="6" result="blur"/>
      <feMerge>
        <feMergeNode in="blur"/>
        <feMergeNode in="SourceGraphic"/>
      </feMerge>
    </filter>
  </defs>

  <style>
    /* Feather Eye Shimmer - staggered per eye */
    @keyframes pm-featherShimmer {
      0%, 100% { opacity: 0.7; transform: scale(1); }
      50% { opacity: 1; transform: scale(1.12); }
    }
    .pm-eye1 { animation: pm-featherShimmer 3s ease-in-out infinite; }
    .pm-eye2 { animation: pm-featherShimmer 3.2s ease-in-out infinite 0.5s; }
    .pm-eye3 { animation: pm-featherShimmer 3.4s ease-in-out infinite 1.0s; }
    .pm-eye4 { animation: pm-featherShimmer 3.6s ease-in-out infinite 1.5s; }
    .pm-eye5 { animation: pm-featherShimmer 3.3s ease-in-out infinite 0.7s; }
    .pm-eye6 { animation: pm-featherShimmer 3.5s ease-in-out infinite 1.2s; }
    .pm-eye7 { animation: pm-featherShimmer 3.1s ease-in-out infinite 0.3s; }

    /* Floating feather spin + float */
    @keyframes pm-floatFeather {
      0% { transform: translateY(0px) rotate(-5deg); }
      25% { transform: translateY(-8px) rotate(3deg); }
      50% { transform: translateY(-14px) rotate(-3deg); }
      75% { transform: translateY(-6px) rotate(5deg); }
      100% { transform: translateY(0px) rotate(-5deg); }
    }
    .pm-floatingFeather { animation: pm-floatFeather 7s ease-in-out infinite; }

    /* Magic sparkle cascade */
    @keyframes pm-sparkleCascade {
      0% { opacity: 0; transform: translateY(-10px) scale(0.3); }
      20% { opacity: 1; transform: translateY(0px) scale(1); }
      60% { opacity: 0.8; transform: translateY(15px) scale(0.7); }
      100% { opacity: 0; transform: translateY(35px) scale(0.2); }
    }
    .pm-sparkle1 { animation: pm-sparkleCascade 5s ease-in-out infinite; }
    .pm-sparkle2 { animation: pm-sparkleCascade 5.5s ease-in-out infinite 0.8s; }
    .pm-sparkle3 { animation: pm-sparkleCascade 6s ease-in-out infinite 1.6s; }
    .pm-sparkle4 { animation: pm-sparkleCascade 5.2s ease-in-out infinite 2.4s; }
    .pm-sparkle5 { animation: pm-sparkleCascade 6.5s ease-in-out infinite 3.2s; }
    .pm-sparkle6 { animation: pm-sparkleCascade 5.8s ease-in-out infinite 0.4s; }
    .pm-sparkle7 { animation: pm-sparkleCascade 6.2s ease-in-out infinite 2.0s; }
    .pm-sparkle8 { animation: pm-sparkleCascade 5.4s ease-in-out infinite 4.0s; }

    /* Star twinkle */
    @keyframes pm-twinkle {
      0%, 100% { opacity: 0.3; transform: scale(0.8); }
      50% { opacity: 1; transform: scale(1.2); }
    }
    .pm-star1 { animation: pm-twinkle 2.5s ease-in-out infinite; }
    .pm-star2 { animation: pm-twinkle 2.3s ease-in-out infinite 0.4s; }
    .pm-star3 { animation: pm-twinkle 2.7s ease-in-out infinite 0.9s; }
    .pm-star4 { animation: pm-twinkle 2.4s ease-in-out infinite 1.3s; }
    .pm-star5 { animation: pm-twinkle 2.6s ease-in-out infinite 1.8s; }
    .pm-star6 { animation: pm-twinkle 2.8s ease-in-out infinite 0.6s; }
    .pm-star7 { animation: pm-twinkle 2.2s ease-in-out infinite 1.1s; }
    .pm-star8 { animation: pm-twinkle 2.9s ease-in-out infinite 2.0s; }

    /* Boy gentle sway */
    @keyframes pm-boySway {
      0%, 100% { transform: rotate(0deg) translateY(0px); }
      30% { transform: rotate(1.5deg) translateY(-2px); }
      70% { transform: rotate(-1.5deg) translateY(-1px); }
    }
    .pm-boy { animation: pm-boySway 5s ease-in-out infinite; }

    /* Peacock head bob */
    @keyframes pm-headBob {
      0%, 100% { transform: translateY(0px) rotate(0deg); }
      25% { transform: translateY(-3px) rotate(2deg); }
      50% { transform: translateY(-1px) rotate(0deg); }
      75% { transform: translateY(-4px) rotate(-2deg); }
    }
    .pm-peacockHead { animation: pm-headBob 4s ease-in-out infinite; }

    /* Tail fan gentle breathing */
    @keyframes pm-tailBreath {
      0%, 100% { transform: scaleX(1) scaleY(1); }
      50% { transform: scaleX(1.02) scaleY(1.01); }
    }
    .pm-tailFan { animation: pm-tailBreath 5s ease-in-out infinite; }

    /* Magic feather glow pulse */
    @keyframes pm-magicPulse {
      0%, 100% { opacity: 0.5; transform: scale(1); }
      50% { opacity: 1; transform: scale(1.15); }
    }
    .pm-magicAura { animation: pm-magicPulse 3s ease-in-out infinite; }

    /* Firefly drift for garden ambiance */
    @keyframes pm-fireflyDrift {
      0% { transform: translate(0, 0); opacity: 0.3; }
      25% { transform: translate(8px, -12px); opacity: 0.8; }
      50% { transform: translate(-5px, -20px); opacity: 0.5; }
      75% { transform: translate(10px, -8px); opacity: 0.9; }
      100% { transform: translate(0, 0); opacity: 0.3; }
    }
    .pm-firefly1 { animation: pm-fireflyDrift 7s ease-in-out infinite; }
    .pm-firefly2 { animation: pm-fireflyDrift 8s ease-in-out infinite 1.5s; }
    .pm-firefly3 { animation: pm-fireflyDrift 6.5s ease-in-out infinite 3s; }

    /* Crown feather sway */
    @keyframes pm-crownSway {
      0%, 100% { transform: rotate(-5deg); }
      50% { transform: rotate(5deg); }
    }
    .pm-crown { animation: pm-crownSway 4.5s ease-in-out infinite; }
  </style>

  <!-- LAYER 1: Background sky/atmosphere -->
  <rect width="512" height="512" fill="url(#pm-skyGradient)"/>

  <!-- Subtle sky glow at horizon -->
  <ellipse cx="256" cy="420" rx="300" ry="120" fill="#5a3d8e" opacity="0.2"/>

  <!-- LAYER 2: Far background - moon, stars, distant hills -->
  <!-- Moon -->
  <g filter="url(#pm-mediumGlow)">
    <circle cx="420" cy="75" r="35" fill="url(#pm-moonGlow)" opacity="0.9"/>
    <circle cx="420" cy="75" r="22" fill="#fffef0" opacity="0.95"/>
    <circle cx="430" cy="68" r="18" fill="#1a0a3e" opacity="0.15"/>
  </g>

  <!-- Stars -->
  <g>
    <circle cx="60" cy="40" r="1.5" fill="#ffffff" class="pm-star1"/>
    <circle cx="145" cy="65" r="1.2" fill="#ffffff" class="pm-star2"/>
    <circle cx="230" cy="30" r="1.8" fill="#ffe4b5" class="pm-star3"/>
    <circle cx="310" cy="55" r="1" fill="#ffffff" class="pm-star4"/>
    <circle cx="480" cy="35" r="1.4" fill="#ffe4b5" class="pm-star5"/>
    <circle cx="370" cy="25" r="1.2" fill="#ffffff" class="pm-star6"/>
    <circle cx="100" cy="100" r="1.6" fill="#ffffff" class="pm-star7"/>
    <circle cx="50" cy="130" r="1.1" fill="#ffe4b5" class="pm-star8"/>
    <!-- Static accent stars -->
    <circle cx="190" cy="80" r="0.8" fill="#ffffff" opacity="0.5"/>
    <circle cx="450" cy="110" r="0.9" fill="#ffffff" opacity="0.4"/>
    <circle cx="270" cy="95" r="0.7" fill="#ffe4b5" opacity="0.45"/>
    <circle cx="340" cy="120" r="1" fill="#ffffff" opacity="0.35"/>
  </g>

  <!-- Distant hills -->
  <path d="M0 380 Q80 340 160 365 Q240 330 320 355 Q400 320 512 350 L512 420 L0 420 Z" fill="#2a1a3e" opacity="0.4"/>
  <path d="M0 395 Q100 365 200 385 Q300 355 400 375 Q460 360 512 370 L512 420 L0 420 Z" fill="#1a1030" opacity="0.5"/>

  <!-- LAYER 3: Mid background - temple silhouette, garden walls -->
  <!-- Temple Silhouette -->
  <g opacity="0.3">
    <!-- Temple base -->
    <rect x="55" y="300" width="80" height="70" fill="#2a1a3e"/>
    <!-- Temple tower (shikhara) -->
    <path d="M70 300 L95 220 L120 300 Z" fill="#2a1a3e"/>
    <!-- Temple top finial -->
    <circle cx="95" cy="215" r="5" fill="#2a1a3e"/>
    <line x1="95" y1="210" x2="95" y2="200" stroke="#2a1a3e" stroke-width="2"/>
    <!-- Temple dome detail -->
    <path d="M78 300 Q95 270 112 300" fill="none" stroke="#3a2a4e" stroke-width="1" opacity="0.5"/>
    <!-- Small temple arches -->
    <path d="M68 370 Q77 355 86 370" fill="#1a0a2e" opacity="0.6"/>
    <path d="M92 370 Q101 355 110 370" fill="#1a0a2e" opacity="0.6"/>
    <!-- Temple warm glow -->
    <ellipse cx="95" cy="340" rx="50" ry="30" fill="url(#pm-templeGlow)"/>
  </g>

  <!-- Second distant temple -->
  <g opacity="0.18">
    <rect x="430" y="320" width="50" height="50" fill="#2a1a3e"/>
    <path d="M440 320 L455 270 L470 320 Z" fill="#2a1a3e"/>
    <circle cx="455" cy="266" r="4" fill="#2a1a3e"/>
  </g>

  <!-- Garden wall and trees -->
  <path d="M0 390 Q30 385 60 390 Q150 380 200 390 L200 420 L0 420 Z" fill="#0d2218" opacity="0.5"/>
  <path d="M300 385 Q380 375 430 385 Q470 378 512 388 L512 420 L300 420 Z" fill="#0d2218" opacity="0.5"/>

  <!-- Distant trees -->
  <ellipse cx="20" cy="370" rx="25" ry="35" fill="#1a3a2a" opacity="0.35"/>
  <ellipse cx="490" cy="360" rx="30" ry="40" fill="#1a3a2a" opacity="0.3"/>

  <!-- LAYER 4: Middle ground - garden floor, foliage, decorative elements -->
  <!-- Garden ground -->
  <path d="M0 400 Q128 388 256 395 Q384 388 512 400 L512 512 L0 512 Z" fill="url(#pm-groundGradient)"/>

  <!-- Garden foliage left -->
  <ellipse cx="30" cy="415" rx="45" ry="25" fill="#0d3a1e" opacity="0.7"/>
  <ellipse cx="15" cy="430" rx="35" ry="20" fill="#1a4a2a" opacity="0.6"/>

  <!-- Garden foliage right -->
  <ellipse cx="480" cy="410" rx="50" ry="28" fill="#0d3a1e" opacity="0.7"/>
  <ellipse cx="500" cy="425" rx="30" ry="18" fill="#1a4a2a" opacity="0.6"/>

  <!-- Small flowers on ground -->
  <circle cx="90" cy="420" r="3" fill="#ff69b4" opacity="0.5"/>
  <circle cx="95" cy="425" r="2.5" fill="#ff69b4" opacity="0.4"/>
  <circle cx="420" cy="415" r="3" fill="#9370db" opacity="0.5"/>
  <circle cx="430" cy="422" r="2" fill="#9370db" opacity="0.4"/>
  <circle cx="350" cy="430" r="2.5" fill="#ff69b4" opacity="0.35"/>

  <!-- Decorative Rangoli-inspired circle on ground -->
  <g opacity="0.25">
    <circle cx="256" cy="460" r="25" fill="none" stroke="#ffd700" stroke-width="0.8"/>
    <circle cx="256" cy="460" r="18" fill="none" stroke="#ff69b4" stroke-width="0.6"/>
    <circle cx="256" cy="460" r="11" fill="none" stroke="#ffd700" stroke-width="0.5"/>
    <!-- Rangoli petals -->
    <circle cx="256" cy="445" r="3" fill="#ffd700" opacity="0.4"/>
    <circle cx="270" cy="455" r="3" fill="#ff69b4" opacity="0.4"/>
    <circle cx="270" cy="468" r="3" fill="#ffd700" opacity="0.4"/>
    <circle cx="256" cy="478" r="3" fill="#ff69b4" opacity="0.4"/>
    <circle cx="242" cy="468" r="3" fill="#ffd700" opacity="0.4"/>
    <circle cx="242" cy="455" r="3" fill="#ff69b4" opacity="0.4"/>
  </g>

  <!-- Fireflies in garden -->
  <g filter="url(#pm-softGlow)">
    <circle cx="140" cy="350" r="2" fill="#ffd700" class="pm-firefly1"/>
    <circle cx="380" cy="340" r="1.8" fill="#ffd700" class="pm-firefly2"/>
    <circle cx="460" cy="370" r="1.5" fill="#ffe4b5" class="pm-firefly3"/>
  </g>

  <!-- LAYER 5: Primary characters - peacock and boy -->

  <!-- === PEACOCK === -->
  <g transform="translate(280, 300)">
    <!-- Tail Fan -->
    <g class="pm-tailFan" transform-origin="0 0">
      <!-- Tail feather spines (7 feathers fanning out) -->
      <!-- Feather 1 - far left -->
      <path d="M0 0 Q-95 -120 -110 -190" stroke="url(#pm-tailFeather)" stroke-width="2" fill="none" opacity="0.8"/>
      <ellipse cx="-110" cy="-195" rx="14" ry="18" fill="url(#pm-tailFeather)" opacity="0.7"/>
      <g class="pm-eye1" transform-origin="-110 -195">
        <ellipse cx="-110" cy="-195" rx="10" ry="12" fill="url(#pm-featherEye)"/>
        <ellipse cx="-110" cy="-195" rx="16" ry="20" fill="url(#pm-featherGlow)" opacity="0.6"/>
        <circle cx="-110" cy="-195" r="3" fill="#ffd700" opacity="0.9"/>
      </g>

      <!-- Feather 2 -->
      <path d="M0 0 Q-65 -145 -65 -220" stroke="url(#pm-tailFeather)" stroke-width="2" fill="none" opacity="0.8"/>
      <ellipse cx="-65" cy="-225" rx="14" ry="18" fill="url(#pm-tailFeather)" opacity="0.7"/>
      <g class="pm-eye2" transform-origin="-65 -225">
        <ellipse cx="-65" cy="-225" rx="10" ry="12" fill="url(#pm-featherEye)"/>
        <ellipse cx="-65" cy="-225" rx="16" ry="20" fill="url(#pm-featherGlow)" opacity="0.6"/>
        <circle cx="-65" cy="-225" r="3" fill="#ffd700" opacity="0.9"/>
      </g>

      <!-- Feather 3 -->
      <path d="M0 0 Q-25 -155 -18 -245" stroke="url(#pm-tailFeather)" stroke-width="2" fill="none" opacity="0.85"/>
      <ellipse cx="-18" cy="-250" rx="14" ry="18" fill="url(#pm-tailFeather)" opacity="0.75"/>
      <g class="pm-eye3" transform-origin="-18 -250">
        <ellipse cx="-18" cy="-250" rx="11" ry="13" fill="url(#pm-featherEye)"/>
        <ellipse cx="-18" cy="-250" rx="17" ry="21" fill="url(#pm-featherGlow)" opacity="0.6"/>
        <circle cx="-18" cy="-250" r="3.5" fill="#ffd700" opacity="0.9"/>
      </g>

      <!-- Feather 4 - center top -->
      <path d="M0 0 Q10 -160 28 -250" stroke="url(#pm-tailFeather)" stroke-width="2.5" fill="none" opacity="0.9"/>
      <ellipse cx="28" cy="-255" rx="15" ry="19" fill="url(#pm-tailFeather)" opacity="0.8"/>
      <g class="pm-eye4" transform-origin="28 -255">
        <ellipse cx="28" cy="-255" rx="12" ry="14" fill="url(#pm-featherEye)"/>
        <ellipse cx="28" cy="-255" rx="18" ry="22" fill="url(#pm-featherGlow)" opacity="0.65"/>
        <circle cx="28" cy="-255" r="4" fill="#ffd700" opacity="0.95"/>
      </g>

      <!-- Feather 5 -->
      <path d="M0 0 Q45 -150 72 -235" stroke="url(#pm-tailFeather)" stroke-width="2" fill="none" opacity="0.85"/>
      <ellipse cx="72" cy="-240" rx="14" ry="18" fill="url(#pm-tailFeather)" opacity="0.75"/>
      <g class="pm-eye5" transform-origin="72 -240">
        <ellipse cx="72" cy="-240" rx="11" ry="13" fill="url(#pm-featherEye)"/>
        <ellipse cx="72" cy="-240" rx="17" ry="21" fill="url(#pm-featherGlow)" opacity="0.6"/>
        <circle cx="72" cy="-240" r="3.5" fill="#ffd700" opacity="0.9"/>
      </g>

      <!-- Feather 6 -->
      <path d="M0 0 Q75 -130 108 -200" stroke="url(#pm-tailFeather)" stroke-width="2" fill="none" opacity="0.8"/>
      <ellipse cx="108" cy="-205" rx="14" ry="18" fill="url(#pm-tailFeather)" opacity="0.7"/>
      <g class="pm-eye6" transform-origin="108 -205">
        <ellipse cx="108" cy="-205" rx="10" ry="12" fill="url(#pm-featherEye)"/>
        <ellipse cx="108" cy="-205" rx="16" ry="20" fill="url(#pm-featherGlow)" opacity="0.6"/>
        <circle cx="108" cy="-205" r="3" fill="#ffd700" opacity="0.9"/>
      </g>

      <!-- Feather 7 - far right -->
      <path d="M0 0 Q95 -100 130 -160" stroke="url(#pm-tailFeather)" stroke-width="1.8" fill="none" opacity="0.7"/>
      <ellipse cx="130" cy="-165" rx="13" ry="16" fill="url(#pm-tailFeather)" opacity="0.65"/>
      <g class="pm-eye7" transform-origin="130 -165">
        <ellipse cx="130" cy="-165" rx="9" ry="11" fill="url(#pm-featherEye)"/>
        <ellipse cx="130" cy="-165" rx="15" ry="18" fill="url(#pm-featherGlow)" opacity="0.55"/>
        <circle cx="130" cy="-165" r="2.8" fill="#ffd700" opacity="0.85"/>
      </g>

      <!-- Fine filler feather lines between main feathers -->
      <path d="M0 0 Q-80 -130 -88 -170" stroke="#00a86b" stroke-width="0.8" fill="none" opacity="0.4"/>
      <path d="M0 0 Q-45 -150 -42 -210" stroke="#00a86b" stroke-width="0.8" fill="none" opacity="0.4"/>
      <path d="M0 0 Q-5 -158 0 -230" stroke="#00a86b" stroke-width="0.8" fill="none" opacity="0.4"/>
      <path d="M0 0 Q30 -155 50 -240" stroke="#00a86b" stroke-width="0.8" fill="none" opacity="0.4"/>
      <path d="M0 0 Q60 -140 90 -218" stroke="#00a86b" stroke-width="0.8" fill="none" opacity="0.4"/>
      <path d="M0 0 Q85 -115 120 -180" stroke="#00a86b" stroke-width="0.8" fill="none" opacity="0.4"/>
    </g>

    <!-- Peacock Body -->
    <ellipse cx="0" cy="15" rx="28" ry="38" fill="url(#pm-peacockBody)"/>
    <!-- Body highlight -->
    <ellipse cx="-5" cy="5" rx="15" ry="22" fill="#00a86b" opacity="0.3"/>

    <!-- Peacock Neck -->
    <path d="M-5 -15 Q-12 -50 -8 -75" stroke="url(#pm-neckGradient)" stroke-width="14" fill="none" stroke-linecap="round"/>

    <!-- Peacock Head -->
    <g class="pm-peacockHead" transform-origin="-8 -85">
      <circle cx="-8" cy="-85" r="12" fill="#006b3c"/>
      <!-- Head highlight -->
      <circle cx="-11" cy="-89" r="7" fill="#00a86b" opacity="0.3"/>
      <!-- Eye white -->
      <circle cx="-4" cy="-87" r="5" fill="#ffffff"/>
      <!-- Iris -->
      <circle cx="-3" cy="-87" r="3.5" fill="#1a0a3e"/>
      <!-- Pupil -->
      <circle cx="-2" cy="-87" r="2" fill="#000000"/>
      <!-- Eye highlight -->
      <circle cx="-1" cy="-89" r="1.2" fill="#ffffff" opacity="0.9"/>
      <circle cx="-4" cy="-86" r="0.6" fill="#ffffff" opacity="0.5"/>
      <!-- Beak -->
      <path d="M3 -85 L12 -83 L4 -81" fill="#8b6f47" opacity="0.9"/>
      <!-- White cheek patch -->
      <path d="M-1 -82 Q5 -80 2 -77" fill="#ffffff" opacity="0.3"/>

      <!-- Crown feathers -->
      <g class="pm-crown" transform-origin="-8 -97">
        <line x1="-12" y1="-97" x2="-16" y2="-112" stroke="#006b3c" stroke-width="1.5"/>
        <circle cx="-16" cy="-114" r="2.5" fill="#1a5aff" opacity="0.8"/>
        <line x1="-8" y1="-97" x2="-8" y2="-115" stroke="#006b3c" stroke-width="1.5"/>
        <circle cx="-8" cy="-117" r="2.5" fill="#1a5aff" opacity="0.8"/>
        <line x1="-4" y1="-97" x2="0" y2="-112" stroke="#006b3c" stroke-width="1.5"/>
        <circle cx="0" cy="-114" r="2.5" fill="#1a5aff" opacity="0.8"/>
      </g>
    </g>

    <!-- Peacock Legs -->
    <line x1="-8" y1="50" x2="-14" y2="75" stroke="#8b6f47" stroke-width="2.5"/>
    <line x1="8" y1="50" x2="12" y2="75" stroke="#8b6f47" stroke-width="2.5"/>
    <!-- Feet -->
    <path d="M-18 75 L-14 75 L-10 75" stroke="#8b6f47" stroke-width="2" fill="none"/>
    <path d="M8 75 L12 75 L16 75" stroke="#8b6f47" stroke-width="2" fill="none"/>
  </g>

  <!-- === BOY (Arjun) === -->
  <g class="pm-boy" transform-origin="160 390">
    <g transform="translate(160, 380)">
      <!-- Boy shadow -->
      <ellipse cx="0" cy="55" rx="20" ry="5" fill="#000000" opacity="0.2"/>

      <!-- Boy body (kurta - traditional Indian top) -->
      <path d="M-14 10 L-16 45 L16 45 L14 10 Q0 5 -14 10 Z" fill="#ff8c42" opacity="0.9"/>
      <!-- Kurta decoration -->
      <line x1="0" y1="12" x2="0" y2="42" stroke="#ffd700" stroke-width="0.8" opacity="0.5"/>
      <!-- Kurta collar -->
      <path d="M-8 10 Q0 6 8 10" fill="none" stroke="#ffd700" stroke-width="0.7" opacity="0.5"/>

      <!-- Legs (pajama) -->
      <rect x="-10" y="45" width="8" height="18" rx="3" fill="#ffffff" opacity="0.85"/>
      <rect x="2" y="45" width="8" height="18" rx="3" fill="#ffffff" opacity="0.85"/>

      <!-- Left arm reaching up toward feather -->
      <path d="M-14 15 L-28 -15 L-30 -22" stroke="url(#pm-skinTone)" stroke-width="6" fill="none" stroke-linecap="round"/>
      <!-- Hand (reaching) -->
      <circle cx="-30" cy="-24" r="4" fill="#d4a574"/>
      <!-- Fingers reaching -->
      <path d="M-32 -27 L-34 -32" stroke="#d4a574" stroke-width="2" stroke-linecap="round"/>
      <path d="M-30 -28 L-30 -34" stroke="#d4a574" stroke-width="2" stroke-linecap="round"/>
      <path d="M-28 -27 L-26 -32" stroke="#d4a574" stroke-width="2" stroke-linecap="round"/>

      <!-- Right arm down -->
      <path d="M14 15 L22 35" stroke="url(#pm-skinTone)" stroke-width="5.5" fill="none" stroke-linecap="round"/>
      <circle cx="22" cy="36" r="3.5" fill="#d4a574"/>

      <!-- Head -->
      <circle cx="0" cy="-5" r="16" fill="url(#pm-skinTone)"/>
      <!-- Hair (dark Indian hair) -->
      <path d="M-16 -8 Q-16 -22 -5 -22 Q5 -24 14 -20 Q18 -14 16 -8" fill="#1a0a1e"/>
      <!-- Hair tuft -->
      <path d="M-2 -22 Q5 -28 3 -22" fill="#1a0a1e"/>

      <!-- Left eye -->
      <circle cx="-6" cy="-6" r="4" fill="#ffffff"/>
      <circle cx="-5" cy="-5" r="2.8" fill="#2a1510"/>
      <circle cx="-5" cy="-5" r="1.5" fill="#000000"/>
      <circle cx="-4" cy="-7" r="1" fill="#ffffff" opacity="0.85"/>
      <!-- Right eye (looking up at feather) -->
      <circle cx="6" cy="-6" r="4" fill="#ffffff"/>
      <circle cx="7" cy="-6" r="2.8" fill="#2a1510"/>
      <circle cx="7" cy="-6" r="1.5" fill="#000000"/>
      <circle cx="8" cy="-8" r="1" fill="#ffffff" opacity="0.85"/>

      <!-- Eyebrows (wondering expression) -->
      <path d="M-10 -12 Q-6 -15 -2 -12" fill="none" stroke="#1a0a1e" stroke-width="1.2"/>
      <path d="M3 -13 Q7 -16 11 -12" fill="none" stroke="#1a0a1e" stroke-width="1.2"/>

      <!-- Mouth (small O of wonder) -->
      <ellipse cx="0" cy="4" rx="3" ry="3.5" fill="#c47a5a" opacity="0.8"/>
      <ellipse cx="0" cy="3" rx="2.5" ry="2" fill="#1a0a1e" opacity="0.3"/>

      <!-- Cheek blush -->
      <circle cx="-10" cy="0" r="3.5" fill="#ffb6c1" opacity="0.4"/>
      <circle cx="10" cy="0" r="3.5" fill="#ffb6c1" opacity="0.4"/>

      <!-- Feet/sandals -->
      <ellipse cx="-6" cy="64" rx="6" ry="2.5" fill="#8b5a3c"/>
      <ellipse cx="6" cy="64" rx="6" ry="2.5" fill="#8b5a3c"/>
    </g>
  </g>

  <!-- LAYER 6: Foreground - floating magic feather, sparkles, particles -->

  <!-- === FLOATING MAGIC FEATHER === -->
  <g class="pm-floatingFeather" transform-origin="155 320">
    <g transform="translate(155, 315)">
      <!-- Feather aura glow -->
      <ellipse cx="0" cy="0" rx="30" ry="35" fill="url(#pm-magicGlow)" class="pm-magicAura" filter="url(#pm-strongGlow)"/>

      <!-- Feather shaft -->
      <path d="M0 25 Q-1 0 2 -25" stroke="#ffd700" stroke-width="1.5" fill="none" opacity="0.9"/>
      <!-- Feather barbs left -->
      <path d="M0 20 Q-12 12 -14 8" stroke="#00d4aa" stroke-width="1" fill="none" opacity="0.7"/>
      <path d="M0 12 Q-14 4 -16 -2" stroke="#00a86b" stroke-width="1" fill="none" opacity="0.7"/>
      <path d="M1 4 Q-13 -4 -15 -10" stroke="#00d4aa" stroke-width="1" fill="none" opacity="0.7"/>
      <path d="M1 -4 Q-12 -12 -13 -18" stroke="#00a86b" stroke-width="1" fill="none" opacity="0.7"/>
      <!-- Feather barbs right -->
      <path d="M0 20 Q12 12 14 8" stroke="#00d4aa" stroke-width="1" fill="none" opacity="0.7"/>
      <path d="M0 12 Q14 4 16 -2" stroke="#00a86b" stroke-width="1" fill="none" opacity="0.7"/>
      <path d="M1 4 Q13 -4 15 -10" stroke="#00d4aa" stroke-width="1" fill="none" opacity="0.7"/>
      <path d="M1 -4 Q12 -12 13 -18" stroke="#00a86b" stroke-width="1" fill="none" opacity="0.7"/>

      <!-- Feather eye at top -->
      <ellipse cx="2" cy="-22" rx="8" ry="10" fill="url(#pm-featherEye)" filter="url(#pm-softGlow)"/>
      <circle cx="2" cy="-22" r="3.5" fill="#ffd700" filter="url(#pm-softGlow)"/>
      <circle cx="2" cy="-22" r="1.5" fill="#ffffff" opacity="0.9"/>
    </g>
  </g>

  <!-- Magic sparkle cascade from feather -->
  <g filter="url(#pm-softGlow)">
    <circle cx="148" cy="330" r="2.5" fill="#ffd700" class="pm-sparkle1"/>
    <circle cx="162" cy="335" r="2" fill="#ffffff" class="pm-sparkle2"/>
    <circle cx="145" cy="325" r="1.8" fill="#ff69b4" class="pm-sparkle3"/>
    <circle cx="158" cy="340" r="2.2" fill="#ffd700" class="pm-sparkle4"/>
    <circle cx="140" cy="332" r="1.5" fill="#4d8aff" class="pm-sparkle5"/>
    <circle cx="165" cy="328" r="1.8" fill="#ffd700" class="pm-sparkle6"/>
    <circle cx="152" cy="345" r="2" fill="#ff69b4" class="pm-sparkle7"/>
    <circle cx="143" cy="338" r="1.6" fill="#ffffff" class="pm-sparkle8"/>
  </g>

  <!-- Additional ambient sparkles near boy's hand -->
  <g filter="url(#pm-softGlow)" opacity="0.7">
    <circle cx="130" cy="348" r="1.2" fill="#ffd700" class="pm-sparkle3"/>
    <circle cx="138" cy="355" r="1" fill="#ff69b4" class="pm-sparkle5"/>
    <circle cx="125" cy="352" r="1.5" fill="#4d8aff" class="pm-sparkle1"/>
  </g>

  <!-- Foreground foliage (nearest) -->
  <ellipse cx="-10" cy="470" rx="55" ry="30" fill="#0d3a1e" opacity="0.6"/>
  <ellipse cx="520" cy="465" rx="50" ry="28" fill="#0d3a1e" opacity="0.6"/>

  <!-- Ground flowers foreground -->
  <circle cx="45" cy="480" r="3.5" fill="#ff69b4" opacity="0.4"/>
  <circle cx="55" cy="485" r="2.5" fill="#ffd700" opacity="0.35"/>
  <circle cx="460" cy="478" r="3" fill="#9370db" opacity="0.4"/>
  <circle cx="470" cy="483" r="2" fill="#ff69b4" opacity="0.35"/>

  <!-- LAYER 7: Vignette overlay -->
  <rect width="512" height="512" fill="url(#pm-vignette)" opacity="0.45"/>
</svg>