<svg viewBox="0 0 512 512" xmlns="http://www.w3.org/2000/svg">
  <defs>
    <!-- Sky gradient (tropical night) -->
    <linearGradient id="sd2-skyGradient" x1="0" y1="0" x2="0" y2="1">
      <stop offset="0%" stop-color="#0a1530"/>
      <stop offset="40%" stop-color="#152545"/>
      <stop offset="70%" stop-color="#203560"/>
      <stop offset="100%" stop-color="#0d3050"/>
    </linearGradient>

    <!-- Ocean gradient -->
    <linearGradient id="sd2-oceanGradient" x1="0" y1="0" x2="0" y2="1">
      <stop offset="0%" stop-color="#1a4a6a" stop-opacity="0.9"/>
      <stop offset="50%" stop-color="#0d3050"/>
      <stop offset="100%" stop-color="#0a2040"/>
    </linearGradient>

    <!-- Sand gradient -->
    <linearGradient id="sd2-sandGradient" x1="0" y1="0" x2="0" y2="1">
      <stop offset="0%" stop-color="#d4b896"/>
      <stop offset="60%" stop-color="#c4a87a"/>
      <stop offset="100%" stop-color="#b09068"/>
    </linearGradient>

    <!-- Wet sand gradient (near water) -->
    <linearGradient id="sd2-wetSandGradient" x1="0" y1="0" x2="0" y2="1">
      <stop offset="0%" stop-color="#a08a6a"/>
      <stop offset="100%" stop-color="#c4a87a"/>
    </linearGradient>

    <!-- Moon glow -->
    <radialGradient id="sd2-moonGlow" cx="50%" cy="50%" r="50%">
      <stop offset="0%" stop-color="#fef5d9" stop-opacity="0.7"/>
      <stop offset="40%" stop-color="#fef5d9" stop-opacity="0.25"/>
      <stop offset="100%" stop-color="#fef5d9" stop-opacity="0"/>
    </radialGradient>

    <!-- Moon surface gradient -->
    <radialGradient id="sd2-moonSurface" cx="40%" cy="35%" r="55%">
      <stop offset="0%" stop-color="#fffef5"/>
      <stop offset="60%" stop-color="#fef5d9"/>
      <stop offset="100%" stop-color="#f0e5c0"/>
    </radialGradient>

    <!-- Moonlight on water -->
    <linearGradient id="sd2-moonReflection" x1="0.5" y1="0" x2="0.5" y2="1">
      <stop offset="0%" stop-color="#fef5d9" stop-opacity="0.25"/>
      <stop offset="100%" stop-color="#fef5d9" stop-opacity="0"/>
    </linearGradient>

    <!-- Wave character glow -->
    <radialGradient id="sd2-waveGlow" cx="50%" cy="50%" r="50%">
      <stop offset="0%" stop-color="#44ddff" stop-opacity="0.5"/>
      <stop offset="100%" stop-color="#44ddff" stop-opacity="0"/>
    </radialGradient>

    <!-- Wave body gradient -->
    <radialGradient id="sd2-waveBody" cx="40%" cy="35%" r="60%">
      <stop offset="0%" stop-color="#88eeff"/>
      <stop offset="50%" stop-color="#44ddff"/>
      <stop offset="100%" stop-color="#2a9abb"/>
    </radialGradient>

    <!-- Rabbit body glow -->
    <radialGradient id="sd2-rabbitGlow" cx="50%" cy="50%" r="50%">
      <stop offset="0%" stop-color="#ffffff" stop-opacity="0.15"/>
      <stop offset="100%" stop-color="#ffffff" stop-opacity="0"/>
    </radialGradient>

    <!-- Palm frond gradient -->
    <linearGradient id="sd2-palmGradient" x1="0" y1="0" x2="0" y2="1">
      <stop offset="0%" stop-color="#1a5a35"/>
      <stop offset="100%" stop-color="#1a4a2a"/>
    </linearGradient>

    <!-- Foam sparkle gradient -->
    <radialGradient id="sd2-foamGlow" cx="50%" cy="50%" r="50%">
      <stop offset="0%" stop-color="#ffffff" stop-opacity="0.6"/>
      <stop offset="100%" stop-color="#88eeff" stop-opacity="0"/>
    </radialGradient>

    <!-- Vignette -->
    <radialGradient id="sd2-vignette">
      <stop offset="45%" stop-color="#000000" stop-opacity="0"/>
      <stop offset="100%" stop-color="#000000" stop-opacity="0.55"/>
    </radialGradient>

    <!-- Soft glow filter -->
    <filter id="sd2-softGlow">
      <feGaussianBlur stdDeviation="2" result="blur"/>
      <feMerge>
        <feMergeNode in="blur"/>
        <feMergeNode in="SourceGraphic"/>
      </feMerge>
    </filter>

    <!-- Medium glow filter -->
    <filter id="sd2-mediumGlow">
      <feGaussianBlur stdDeviation="4" result="blur"/>
      <feMerge>
        <feMergeNode in="blur"/>
        <feMergeNode in="SourceGraphic"/>
      </feMerge>
    </filter>

    <!-- Strong glow filter -->
    <filter id="sd2-strongGlow">
      <feGaussianBlur stdDeviation="6" result="blur"/>
      <feMerge>
        <feMergeNode in="blur"/>
        <feMergeNode in="SourceGraphic"/>
      </feMerge>
    </filter>

    <!-- Shadow filter -->
    <filter id="sd2-shadow">
      <feGaussianBlur in="SourceAlpha" stdDeviation="3" result="blur"/>
      <feOffset in="blur" dy="2" result="offset"/>
      <feMerge>
        <feMergeNode in="offset"/>
        <feMergeNode in="SourceGraphic"/>
      </feMerge>
    </filter>
  </defs>

  <style>
    /* === ANIMATION KEYFRAMES === */

    /* 1. Wave rolling in/out (6s) */
    @keyframes sd2-waveRoll {
      0%, 100% { transform: translateX(0) translateY(0); }
      30% { transform: translateX(-18px) translateY(-6px); }
      60% { transform: translateX(-8px) translateY(-2px); }
    }
    @keyframes sd2-waveBgRoll1 {
      0%, 100% { transform: translateX(0) translateY(0); }
      50% { transform: translateX(12px) translateY(-4px); }
    }
    @keyframes sd2-waveBgRoll2 {
      0%, 100% { transform: translateX(0) translateY(0); }
      50% { transform: translateX(-10px) translateY(-3px); }
    }
    @keyframes sd2-waterShimmer {
      0%, 100% { opacity: 0.15; }
      50% { opacity: 0.3; }
    }

    /* 2. Rabbit ear twitch (3s) */
    @keyframes sd2-earTwitchL {
      0%, 85%, 100% { transform: rotate(0deg); }
      88% { transform: rotate(-6deg); }
      92% { transform: rotate(3deg); }
      95% { transform: rotate(-2deg); }
    }
    @keyframes sd2-earTwitchR {
      0%, 82%, 100% { transform: rotate(0deg); }
      85% { transform: rotate(5deg); }
      89% { transform: rotate(-3deg); }
      93% { transform: rotate(2deg); }
    }

    /* Rabbit blink */
    @keyframes sd2-rabbitBlink {
      0%, 42%, 48%, 100% { transform: scaleY(1); }
      45% { transform: scaleY(0.05); }
    }

    /* Rabbit gentle breathing */
    @keyframes sd2-rabbitBreathe {
      0%, 100% { transform: translateY(0); }
      50% { transform: translateY(-2px); }
    }

    /* 3. Palm tree sway (7s) */
    @keyframes sd2-palmSway1 {
      0%, 100% { transform: rotate(0deg); }
      50% { transform: rotate(3deg); }
    }
    @keyframes sd2-palmSway2 {
      0%, 100% { transform: rotate(0deg); }
      50% { transform: rotate(-2.5deg); }
    }

    /* 4. Moon glow pulse (4s) */
    @keyframes sd2-moonPulse {
      0%, 100% { opacity: 0.35; transform: scale(1); }
      50% { opacity: 0.55; transform: scale(1.04); }
    }

    /* 5. Star twinkle (2.5s staggered) */
    @keyframes sd2-starTwinkle {
      0%, 100% { opacity: 0.2; transform: scale(0.8); }
      50% { opacity: 1; transform: scale(1.2); }
    }

    /* 6. Foam/bubbles sparkle (3s) */
    @keyframes sd2-foamSparkle {
      0%, 100% { opacity: 0.3; transform: scale(0.9); }
      50% { opacity: 0.8; transform: scale(1.1); }
    }
    @keyframes sd2-bubbleFloat {
      0% { transform: translateY(0) translateX(0); opacity: 0.6; }
      50% { transform: translateY(-15px) translateX(4px); opacity: 0.3; }
      100% { transform: translateY(-30px) translateX(-2px); opacity: 0; }
    }

    /* Wave friend face blink */
    @keyframes sd2-waveBlink {
      0%, 38%, 44%, 100% { transform: scaleY(1); }
      41% { transform: scaleY(0.05); }
    }

    /* Moonlight reflection shimmer on water */
    @keyframes sd2-reflectionShimmer {
      0%, 100% { opacity: 0.12; transform: scaleX(1); }
      50% { opacity: 0.22; transform: scaleX(1.05); }
    }

    /* === ANIMATION ASSIGNMENTS === */

    /* Wave character rolling */
    .sd2-wave-friend {
      animation: sd2-waveRoll 6s ease-in-out infinite;
    }
    .sd2-wave-bg-1 {
      animation: sd2-waveBgRoll1 5.5s ease-in-out infinite;
    }
    .sd2-wave-bg-2 {
      animation: sd2-waveBgRoll2 7s ease-in-out 0.5s infinite;
    }
    .sd2-wave-bg-3 {
      animation: sd2-waveBgRoll1 6.5s ease-in-out 1s infinite;
    }
    .sd2-water-shimmer-1 {
      animation: sd2-waterShimmer 4s ease-in-out infinite;
    }
    .sd2-water-shimmer-2 {
      animation: sd2-waterShimmer 4.5s ease-in-out 1s infinite;
    }

    /* Rabbit ear twitch */
    .sd2-ear-left {
      transform-origin: 208px 285px;
      animation: sd2-earTwitchL 3s ease-in-out infinite;
    }
    .sd2-ear-right {
      transform-origin: 232px 285px;
      animation: sd2-earTwitchR 3s ease-in-out 0.3s infinite;
    }

    /* Rabbit eyelids */
    .sd2-rabbit-eyelid-left {
      transform-origin: 213px 315px;
      animation: sd2-rabbitBlink 5s ease-in-out infinite;
    }
    .sd2-rabbit-eyelid-right {
      transform-origin: 237px 315px;
      animation: sd2-rabbitBlink 5s ease-in-out infinite;
    }

    /* Rabbit body breathing */
    .sd2-rabbit-group {
      animation: sd2-rabbitBreathe 4.5s ease-in-out infinite;
    }

    /* Palm tree sway */
    .sd2-palm-1 {
      transform-origin: 75px 380px;
      animation: sd2-palmSway1 7s ease-in-out infinite;
    }
    .sd2-palm-2 {
      transform-origin: 460px 350px;
      animation: sd2-palmSway2 7.5s ease-in-out 0.5s infinite;
    }
    .sd2-palm-3 {
      transform-origin: 25px 340px;
      animation: sd2-palmSway1 8s ease-in-out 1s infinite;
    }

    /* Moon glow pulse */
    .sd2-moon-glow {
      transform-origin: 400px 80px;
      animation: sd2-moonPulse 4s ease-in-out infinite;
    }

    /* Star twinkle */
    .sd2-star-1 { animation: sd2-starTwinkle 2.5s ease-in-out infinite; }
    .sd2-star-2 { animation: sd2-starTwinkle 2.3s ease-in-out 0.4s infinite; }
    .sd2-star-3 { animation: sd2-starTwinkle 2.7s ease-in-out 0.9s infinite; }
    .sd2-star-4 { animation: sd2-starTwinkle 2.4s ease-in-out 1.4s infinite; }
    .sd2-star-5 { animation: sd2-starTwinkle 2.6s ease-in-out 1.8s infinite; }
    .sd2-star-6 { animation: sd2-starTwinkle 2.2s ease-in-out 0.6s infinite; }
    .sd2-star-7 { animation: sd2-starTwinkle 2.8s ease-in-out 2.1s infinite; }
    .sd2-star-8 { animation: sd2-starTwinkle 2.5s ease-in-out 1.1s infinite; }
    .sd2-star-9 { animation: sd2-starTwinkle 2.3s ease-in-out 0.2s infinite; }
    .sd2-star-10 { animation: sd2-starTwinkle 2.6s ease-in-out 1.6s infinite; }

    /* Foam/bubble sparkle */
    .sd2-foam-1 { animation: sd2-foamSparkle 3s ease-in-out infinite; }
    .sd2-foam-2 { animation: sd2-foamSparkle 2.8s ease-in-out 0.5s infinite; }
    .sd2-foam-3 { animation: sd2-foamSparkle 3.2s ease-in-out 1s infinite; }
    .sd2-foam-4 { animation: sd2-foamSparkle 2.6s ease-in-out 1.5s infinite; }
    .sd2-foam-5 { animation: sd2-foamSparkle 3.1s ease-in-out 0.8s infinite; }
    .sd2-foam-6 { animation: sd2-foamSparkle 2.9s ease-in-out 2s infinite; }

    .sd2-bubble-1 { animation: sd2-bubbleFloat 4s ease-in-out infinite; }
    .sd2-bubble-2 { animation: sd2-bubbleFloat 4.5s ease-in-out 0.8s infinite; }
    .sd2-bubble-3 { animation: sd2-bubbleFloat 3.8s ease-in-out 1.6s infinite; }
    .sd2-bubble-4 { animation: sd2-bubbleFloat 4.2s ease-in-out 2.4s infinite; }

    /* Wave friend eyelids */
    .sd2-wave-eyelid-left {
      transform-origin: 330px 358px;
      animation: sd2-waveBlink 5.5s ease-in-out infinite;
    }
    .sd2-wave-eyelid-right {
      transform-origin: 352px 358px;
      animation: sd2-waveBlink 5.5s ease-in-out infinite;
    }

    /* Moon reflection */
    .sd2-moon-reflection {
      transform-origin: 400px 290px;
      animation: sd2-reflectionShimmer 5s ease-in-out infinite;
    }
  </style>

  <!-- ============================================ -->
  <!-- LAYER 1: Background — tropical night sky     -->
  <!-- ============================================ -->
  <rect width="512" height="512" fill="url(#sd2-skyGradient)"/>

  <!-- Subtle sky atmospheric layers -->
  <ellipse cx="256" cy="120" rx="320" ry="150" fill="#152545" opacity="0.2"/>
  <ellipse cx="350" cy="80" rx="180" ry="80" fill="#203560" opacity="0.15"/>

  <!-- ============================================ -->
  <!-- LAYER 2: Far background — moon, stars        -->
  <!-- ============================================ -->

  <!-- Moon outer glow -->
  <circle class="sd2-moon-glow" cx="400" cy="80" r="70" fill="url(#sd2-moonGlow)" filter="url(#sd2-strongGlow)"/>

  <!-- Moon body -->
  <circle cx="400" cy="80" r="32" fill="url(#sd2-moonSurface)" filter="url(#sd2-softGlow)"/>
  <!-- Moon craters (subtle) -->
  <circle cx="390" cy="72" r="5" fill="#f0e5c0" opacity="0.3"/>
  <circle cx="408" cy="85" r="3.5" fill="#f0e5c0" opacity="0.25"/>
  <circle cx="395" cy="92" r="4" fill="#f0e5c0" opacity="0.2"/>
  <circle cx="412" cy="70" r="2.5" fill="#f0e5c0" opacity="0.2"/>

  <!-- Stars (scattered across sky) -->
  <circle class="sd2-star-1" cx="50" cy="40" r="1.5" fill="#fef5d9" filter="url(#sd2-softGlow)"/>
  <circle class="sd2-star-2" cx="130" cy="25" r="1.2" fill="#ffffff" filter="url(#sd2-softGlow)"/>
  <circle class="sd2-star-3" cx="200" cy="55" r="1.3" fill="#fef5d9" filter="url(#sd2-softGlow)"/>
  <circle class="sd2-star-4" cx="280" cy="30" r="1.5" fill="#ffffff" filter="url(#sd2-softGlow)"/>
  <circle class="sd2-star-5" cx="320" cy="65" r="1.0" fill="#fef5d9" filter="url(#sd2-softGlow)"/>
  <circle class="sd2-star-6" cx="470" cy="45" r="1.4" fill="#ffffff" filter="url(#sd2-softGlow)"/>
  <circle class="sd2-star-7" cx="90" cy="100" r="1.1" fill="#fef5d9" filter="url(#sd2-softGlow)"/>
  <circle class="sd2-star-8" cx="170" cy="120" r="1.3" fill="#ffffff" filter="url(#sd2-softGlow)"/>
  <circle class="sd2-star-9" cx="490" cy="110" r="1.0" fill="#fef5d9" filter="url(#sd2-softGlow)"/>
  <circle class="sd2-star-10" cx="350" cy="15" r="1.2" fill="#ffffff" filter="url(#sd2-softGlow)"/>

  <!-- 4-pointed star shapes -->
  <g class="sd2-star-1">
    <line x1="250" y1="10" x2="250" y2="20" stroke="#fef5d9" stroke-width="0.7" opacity="0.7"/>
    <line x1="245" y1="15" x2="255" y2="15" stroke="#fef5d9" stroke-width="0.7" opacity="0.7"/>
  </g>
  <g class="sd2-star-4">
    <line x1="440" y1="130" x2="440" y2="140" stroke="#ffffff" stroke-width="0.6" opacity="0.6"/>
    <line x1="435" y1="135" x2="445" y2="135" stroke="#ffffff" stroke-width="0.6" opacity="0.6"/>
  </g>
  <g class="sd2-star-7">
    <line x1="30" y1="75" x2="30" y2="83" stroke="#fef5d9" stroke-width="0.6" opacity="0.6"/>
    <line x1="26" y1="79" x2="34" y2="79" stroke="#fef5d9" stroke-width="0.6" opacity="0.6"/>
  </g>

  <!-- Distant clouds (faint) -->
  <ellipse cx="120" cy="155" rx="60" ry="12" fill="#203560" opacity="0.2"/>
  <ellipse cx="380" cy="140" rx="50" ry="10" fill="#203560" opacity="0.15"/>

  <!-- ============================================ -->
  <!-- LAYER 3: Mid background — ocean, palm trees  -->
  <!-- ============================================ -->

  <!-- Ocean body -->
  <rect x="0" y="270" width="512" height="110" fill="url(#sd2-oceanGradient)"/>

  <!-- Ocean wave lines (background, subtle) -->
  <g class="sd2-wave-bg-1" opacity="0.2">
    <path d="M 0 285 Q 60 278 120 285 Q 180 292 240 284 Q 300 276 360 284 Q 420 292 512 282" stroke="#2a6a8a" stroke-width="1.5" fill="none"/>
  </g>
  <g class="sd2-wave-bg-2" opacity="0.15">
    <path d="M 0 300 Q 70 294 140 302 Q 210 310 280 300 Q 350 290 420 298 Q 480 306 512 298" stroke="#44ddff" stroke-width="1" fill="none"/>
  </g>
  <g class="sd2-wave-bg-3" opacity="0.12">
    <path d="M 0 315 Q 80 308 160 316 Q 240 324 320 314 Q 400 304 480 312 L 512 310" stroke="#2a6a8a" stroke-width="1" fill="none"/>
  </g>

  <!-- Moonlight reflection on water -->
  <g class="sd2-moon-reflection">
    <ellipse cx="400" cy="290" rx="45" ry="8" fill="#fef5d9" opacity="0.15" filter="url(#sd2-mediumGlow)"/>
    <ellipse cx="400" cy="300" rx="30" ry="5" fill="#fef5d9" opacity="0.1"/>
    <ellipse cx="400" cy="310" rx="20" ry="3" fill="#fef5d9" opacity="0.06"/>
  </g>

  <!-- Water shimmer patches -->
  <ellipse class="sd2-water-shimmer-1" cx="180" cy="295" rx="40" ry="4" fill="#44ddff" opacity="0.15"/>
  <ellipse class="sd2-water-shimmer-2" cx="320" cy="308" rx="35" ry="3" fill="#88eeff" opacity="0.1"/>

  <!-- Shoreline/waterline -->
  <path d="M 0 340 Q 60 332 120 338 Q 180 344 250 336 Q 320 328 400 335 Q 460 340 512 334 L 512 380 L 0 380 Z" fill="url(#sd2-wetSandGradient)" opacity="0.7"/>

  <!-- Sand beach -->
  <path d="M 0 360 Q 100 350 200 358 Q 300 366 400 356 Q 480 348 512 355 L 512 512 L 0 512 Z" fill="url(#sd2-sandGradient)"/>

  <!-- Wet sand near water -->
  <path d="M 0 355 Q 80 348 160 354 Q 240 360 330 352 Q 410 346 512 352 L 512 375 Q 400 370 300 376 Q 200 382 100 376 Q 50 372 0 375 Z" fill="#a08a6a" opacity="0.4"/>

  <!-- Sand texture dots -->
  <circle cx="100" cy="400" r="1" fill="#e8d4b0" opacity="0.4"/>
  <circle cx="180" cy="420" r="0.8" fill="#e8d4b0" opacity="0.35"/>
  <circle cx="250" cy="440" r="1.2" fill="#e8d4b0" opacity="0.3"/>
  <circle cx="350" cy="410" r="0.9" fill="#e8d4b0" opacity="0.4"/>
  <circle cx="420" cy="430" r="1" fill="#e8d4b0" opacity="0.35"/>
  <circle cx="300" cy="460" r="1.1" fill="#e8d4b0" opacity="0.3"/>
  <circle cx="150" cy="470" r="0.8" fill="#e8d4b0" opacity="0.35"/>

  <!-- Palm tree 3 (far left, distant) -->
  <g class="sd2-palm-3" opacity="0.35">
    <!-- Trunk -->
    <path d="M 25 340 Q 28 280 20 220 Q 15 190 22 170" stroke="#4a3520" stroke-width="5" fill="none" stroke-linecap="round"/>
    <!-- Fronds -->
    <path d="M 22 170 Q 0 150 -15 165" stroke="#1a4a2a" stroke-width="3" fill="none" stroke-linecap="round"/>
    <path d="M 22 170 Q 10 145 -5 148" stroke="#1a5a35" stroke-width="2.5" fill="none" stroke-linecap="round"/>
    <path d="M 22 170 Q 38 148 55 158" stroke="#1a4a2a" stroke-width="3" fill="none" stroke-linecap="round"/>
    <path d="M 22 170 Q 40 155 50 142" stroke="#1a5a35" stroke-width="2.5" fill="none" stroke-linecap="round"/>
    <path d="M 22 170 Q 15 155 5 130" stroke="#1a4a2a" stroke-width="2" fill="none" stroke-linecap="round"/>
  </g>

  <!-- Palm tree 1 (left) -->
  <g class="sd2-palm-1">
    <!-- Trunk -->
    <path d="M 75 380 Q 80 320 72 260 Q 65 220 70 195" stroke="#5a4530" stroke-width="8" fill="none" stroke-linecap="round"/>
    <path d="M 75 380 Q 80 320 72 260 Q 65 220 70 195" stroke="#6a5540" stroke-width="6" fill="none" stroke-linecap="round"/>
    <!-- Trunk texture lines -->
    <path d="M 68 350 Q 78 348 82 350" stroke="#4a3520" stroke-width="0.8" fill="none" opacity="0.4"/>
    <path d="M 67 320 Q 77 318 81 320" stroke="#4a3520" stroke-width="0.8" fill="none" opacity="0.4"/>
    <path d="M 66 290 Q 74 288 78 290" stroke="#4a3520" stroke-width="0.8" fill="none" opacity="0.4"/>
    <!-- Fronds -->
    <path d="M 70 195 Q 35 170 10 185" stroke="url(#sd2-palmGradient)" stroke-width="4" fill="none" stroke-linecap="round"/>
    <path d="M 70 195 Q 40 160 15 158" stroke="#1a5a35" stroke-width="3.5" fill="none" stroke-linecap="round"/>
    <path d="M 70 195 Q 55 162 30 140" stroke="#1a4a2a" stroke-width="3" fill="none" stroke-linecap="round"/>
    <path d="M 70 195 Q 95 168 120 178" stroke="url(#sd2-palmGradient)" stroke-width="4" fill="none" stroke-linecap="round"/>
    <path d="M 70 195 Q 100 158 125 152" stroke="#1a5a35" stroke-width="3.5" fill="none" stroke-linecap="round"/>
    <path d="M 70 195 Q 85 155 95 135" stroke="#1a4a2a" stroke-width="3" fill="none" stroke-linecap="round"/>
    <path d="M 70 195 Q 60 160 55 135" stroke="#1a5a35" stroke-width="2.5" fill="none" stroke-linecap="round"/>
    <!-- Coconuts -->
    <circle cx="68" cy="198" r="4" fill="#5a4530"/>
    <circle cx="75" cy="200" r="3.5" fill="#4a3520"/>
  </g>

  <!-- Palm tree 2 (right) -->
  <g class="sd2-palm-2">
    <!-- Trunk -->
    <path d="M 460 350 Q 455 290 462 230 Q 468 200 465 175" stroke="#5a4530" stroke-width="7" fill="none" stroke-linecap="round"/>
    <path d="M 460 350 Q 455 290 462 230 Q 468 200 465 175" stroke="#6a5540" stroke-width="5" fill="none" stroke-linecap="round"/>
    <!-- Fronds -->
    <path d="M 465 175 Q 435 155 415 168" stroke="url(#sd2-palmGradient)" stroke-width="3.5" fill="none" stroke-linecap="round"/>
    <path d="M 465 175 Q 440 145 420 142" stroke="#1a5a35" stroke-width="3" fill="none" stroke-linecap="round"/>
    <path d="M 465 175 Q 450 140 440 120" stroke="#1a4a2a" stroke-width="2.5" fill="none" stroke-linecap="round"/>
    <path d="M 465 175 Q 490 152 510 160" stroke="url(#sd2-palmGradient)" stroke-width="3.5" fill="none" stroke-linecap="round"/>
    <path d="M 465 175 Q 495 140 512 135" stroke="#1a5a35" stroke-width="3" fill="none" stroke-linecap="round"/>
    <path d="M 465 175 Q 475 140 480 120" stroke="#1a4a2a" stroke-width="2.5" fill="none" stroke-linecap="round"/>
    <!-- Coconuts -->
    <circle cx="463" cy="178" r="3.5" fill="#5a4530"/>
    <circle cx="468" cy="180" r="3" fill="#4a3520"/>
  </g>

  <!-- ============================================ -->
  <!-- LAYER 4: Middle ground — seashells, wave friend -->
  <!-- ============================================ -->

  <!-- Seashells on sand -->
  <!-- Shell 1 (spiral) -->
  <g transform="translate(140, 395)">
    <ellipse cx="0" cy="0" rx="8" ry="6" fill="#e8d4b0"/>
    <path d="M -4 0 Q -2 -4 2 -2 Q 5 0 3 3 Q 0 5 -2 2" stroke="#c4a87a" stroke-width="0.8" fill="none"/>
    <ellipse cx="0" cy="0" rx="8" ry="6" fill="none" stroke="#c4a87a" stroke-width="0.5" opacity="0.5"/>
  </g>
  <!-- Shell 2 (scallop) -->
  <g transform="translate(320, 388)">
    <path d="M -7 3 Q -5 -4 0 -6 Q 5 -4 7 3 Z" fill="#d4b896"/>
    <line x1="0" y1="-5" x2="-4" y2="2" stroke="#c4a87a" stroke-width="0.5" opacity="0.5"/>
    <line x1="0" y1="-5" x2="0" y2="3" stroke="#c4a87a" stroke-width="0.5" opacity="0.5"/>
    <line x1="0" y1="-5" x2="4" y2="2" stroke="#c4a87a" stroke-width="0.5" opacity="0.5"/>
  </g>
  <!-- Shell 3 (small spiral) -->
  <g transform="translate(270, 405)">
    <ellipse cx="0" cy="0" rx="5" ry="4" fill="#e8d4b0"/>
    <path d="M -2 0 Q 0 -2 2 0 Q 1 2 -1 1" stroke="#c4a87a" stroke-width="0.6" fill="none"/>
  </g>
  <!-- Starfish -->
  <g transform="translate(380, 400)" opacity="0.7">
    <path d="M 0 -8 L 2 -2 L 8 -3 L 3 2 L 5 8 L 0 4 L -5 8 L -3 2 L -8 -3 L -2 -2 Z" fill="#d4896a" opacity="0.6"/>
    <circle cx="0" cy="0" r="2" fill="#c47a5a" opacity="0.5"/>
  </g>

  <!-- Friendly wave character -->
  <g class="sd2-wave-friend">
    <!-- Wave glow -->
    <circle cx="340" cy="350" r="40" fill="url(#sd2-waveGlow)" filter="url(#sd2-mediumGlow)" opacity="0.4"/>

    <!-- Wave body (curling shape) -->
    <path d="M 310 340 Q 315 320 330 315 Q 350 310 365 318 Q 380 328 375 345 Q 370 358 360 368 Q 345 380 325 375 Q 310 368 308 355 Q 307 348 310 340 Z" fill="url(#sd2-waveBody)" filter="url(#sd2-softGlow)"/>

    <!-- Wave curl top -->
    <path d="M 365 318 Q 372 310 370 300 Q 368 295 360 298" stroke="#88eeff" stroke-width="3" fill="none" stroke-linecap="round" opacity="0.6"/>

    <!-- Inner shimmer -->
    <path d="M 320 338 Q 330 325 345 322 Q 358 320 362 330 Q 365 340 358 352 Q 348 362 335 358 Q 322 352 320 338 Z" fill="#88eeff" opacity="0.2"/>

    <!-- Wave face - left eye -->
    <circle cx="330" cy="340" r="6" fill="#ffffff"/>
    <circle cx="330" cy="341" r="4.2" fill="#1a4a6a"/>
    <circle cx="330" cy="342" r="2.8" fill="#0d3050"/>
    <circle cx="332" cy="339" r="1.5" fill="#ffffff" opacity="0.9"/>
    <circle cx="328" cy="343" r="0.7" fill="#ffffff" opacity="0.5"/>

    <!-- Wave face - right eye -->
    <circle cx="352" cy="340" r="6" fill="#ffffff"/>
    <circle cx="352" cy="341" r="4.2" fill="#1a4a6a"/>
    <circle cx="352" cy="342" r="2.8" fill="#0d3050"/>
    <circle cx="354" cy="339" r="1.5" fill="#ffffff" opacity="0.9"/>
    <circle cx="350" cy="343" r="0.7" fill="#ffffff" opacity="0.5"/>

    <!-- Wave eyelids -->
    <ellipse class="sd2-wave-eyelid-left" cx="330" cy="338" rx="7" ry="4" fill="#44ddff"/>
    <ellipse class="sd2-wave-eyelid-right" cx="352" cy="338" rx="7" ry="4" fill="#44ddff"/>

    <!-- Wave smile -->
    <path d="M 334 352 Q 341 358 348 352" stroke="#1a4a6a" stroke-width="1.5" fill="none" stroke-linecap="round"/>

    <!-- Rosy cheeks -->
    <ellipse cx="324" cy="349" rx="4.5" ry="2.5" fill="#88eeff" opacity="0.35"/>
    <ellipse cx="358" cy="349" rx="4.5" ry="2.5" fill="#88eeff" opacity="0.35"/>

    <!-- Foam frills on wave edge -->
    <circle cx="312" cy="348" r="3" fill="#ffffff" opacity="0.3"/>
    <circle cx="316" cy="355" r="2.5" fill="#ffffff" opacity="0.25"/>
    <circle cx="310" cy="360" r="2" fill="#ffffff" opacity="0.2"/>
    <circle cx="370" cy="338" r="2.5" fill="#ffffff" opacity="0.25"/>
    <circle cx="373" cy="345" r="2" fill="#ffffff" opacity="0.2"/>
  </g>

  <!-- ============================================ -->
  <!-- LAYER 5: Primary character — cute rabbit      -->
  <!-- ============================================ -->
  <g class="sd2-rabbit-group">
    <!-- Rabbit shadow on sand -->
    <ellipse cx="225" cy="405" rx="30" ry="6" fill="#000000" opacity="0.12" filter="url(#sd2-mediumGlow)"/>

    <!-- Rabbit soft glow -->
    <circle cx="225" cy="345" r="50" fill="url(#sd2-rabbitGlow)" opacity="0.5"/>

    <!-- Back paw (behind body) -->
    <ellipse cx="245" cy="395" rx="10" ry="6" fill="#f0f0f0"/>
    <ellipse cx="205" cy="395" rx="10" ry="6" fill="#f0f0f0"/>

    <!-- Tail -->
    <circle cx="195" cy="375" r="8" fill="#ffffff" opacity="0.9"/>
    <circle cx="193" cy="373" r="4" fill="#ffffff" opacity="0.5"/>

    <!-- Body -->
    <ellipse cx="225" cy="370" rx="32" ry="28" fill="#ffffff"/>
    <ellipse cx="225" cy="368" rx="28" ry="24" fill="#f8f8f8" opacity="0.5"/>

    <!-- Belly highlight -->
    <ellipse cx="225" cy="375" rx="18" ry="16" fill="#ffffff" opacity="0.4"/>

    <!-- Front paws -->
    <ellipse cx="210" cy="392" rx="7" ry="5" fill="#f0f0f0"/>
    <ellipse cx="240" cy="392" rx="7" ry="5" fill="#f0f0f0"/>
    <!-- Paw pads -->
    <circle cx="208" cy="394" r="2" fill="#ffb6c1" opacity="0.4"/>
    <circle cx="242" cy="394" r="2" fill="#ffb6c1" opacity="0.4"/>

    <!-- Head -->
    <circle cx="225" cy="325" r="28" fill="#ffffff" filter="url(#sd2-softGlow)"/>
    <circle cx="225" cy="323" r="24" fill="#f8f8f8" opacity="0.3"/>

    <!-- Left ear -->
    <g class="sd2-ear-left">
      <ellipse cx="208" cy="285" rx="8" ry="24" fill="#ffffff" transform="rotate(-10, 208, 285)"/>
      <ellipse cx="208" cy="285" rx="5" ry="18" fill="#ffb6c1" opacity="0.35" transform="rotate(-10, 208, 285)"/>
    </g>

    <!-- Right ear -->
    <g class="sd2-ear-right">
      <ellipse cx="242" cy="285" rx="8" ry="24" fill="#ffffff" transform="rotate(10, 242, 285)"/>
      <ellipse cx="242" cy="285" rx="5" ry="18" fill="#ffb6c1" opacity="0.35" transform="rotate(10, 242, 285)"/>
    </g>

    <!-- Face — Left eye -->
    <circle cx="213" cy="322" r="9" fill="#ffffff"/>
    <circle cx="213" cy="324" r="6.5" fill="#3a2510"/>
    <circle cx="213" cy="325" r="4.5" fill="#2C3E6E"/>
    <circle cx="216" cy="321" r="2" fill="#ffffff" opacity="0.95"/>
    <circle cx="211" cy="326" r="1" fill="#ffffff" opacity="0.6"/>

    <!-- Face — Right eye -->
    <circle cx="237" cy="322" r="9" fill="#ffffff"/>
    <circle cx="237" cy="324" r="6.5" fill="#3a2510"/>
    <circle cx="237" cy="325" r="4.5" fill="#2C3E6E"/>
    <circle cx="240" cy="321" r="2" fill="#ffffff" opacity="0.95"/>
    <circle cx="235" cy="326" r="1" fill="#ffffff" opacity="0.6"/>

    <!-- Eyelids for blink -->
    <ellipse class="sd2-rabbit-eyelid-left" cx="213" cy="320" rx="10" ry="5" fill="#ffffff"/>
    <ellipse class="sd2-rabbit-eyelid-right" cx="237" cy="320" rx="10" ry="5" fill="#ffffff"/>

    <!-- Nose (tiny pink) -->
    <ellipse cx="225" cy="334" rx="3" ry="2.2" fill="#ffb6c1"/>
    <!-- Nose highlight -->
    <circle cx="224" cy="333" r="1" fill="#ffffff" opacity="0.4"/>

    <!-- Mouth -->
    <path d="M 225 336 L 222 340" stroke="#c4a87a" stroke-width="0.8" fill="none" stroke-linecap="round"/>
    <path d="M 225 336 L 228 340" stroke="#c4a87a" stroke-width="0.8" fill="none" stroke-linecap="round"/>

    <!-- Whiskers -->
    <line x1="195" y1="330" x2="208" y2="333" stroke="#d0d0d0" stroke-width="0.6" opacity="0.5"/>
    <line x1="196" y1="336" x2="208" y2="336" stroke="#d0d0d0" stroke-width="0.6" opacity="0.5"/>
    <line x1="242" y1="333" x2="255" y2="330" stroke="#d0d0d0" stroke-width="0.6" opacity="0.5"/>
    <line x1="242" y1="336" x2="254" y2="336" stroke="#d0d0d0" stroke-width="0.6" opacity="0.5"/>

    <!-- Rosy cheeks -->
    <ellipse cx="203" cy="332" rx="5" ry="3" fill="#ffb6c1" opacity="0.3"/>
    <ellipse cx="247" cy="332" rx="5" ry="3" fill="#ffb6c1" opacity="0.3"/>
  </g>

  <!-- ============================================ -->
  <!-- LAYER 6: Foreground — foam, bubbles, sparkles -->
  <!-- ============================================ -->

  <!-- Foam dots along shoreline -->
  <circle class="sd2-foam-1" cx="130" cy="345" r="2.5" fill="#ffffff" opacity="0.5" filter="url(#sd2-softGlow)"/>
  <circle class="sd2-foam-2" cx="165" cy="340" r="2" fill="#ffffff" opacity="0.45"/>
  <circle class="sd2-foam-3" cx="200" cy="348" r="3" fill="#ffffff" opacity="0.5" filter="url(#sd2-softGlow)"/>
  <circle class="sd2-foam-4" cx="260" cy="342" r="2" fill="#88eeff" opacity="0.4"/>
  <circle class="sd2-foam-5" cx="295" cy="346" r="2.5" fill="#ffffff" opacity="0.5" filter="url(#sd2-softGlow)"/>
  <circle class="sd2-foam-6" cx="400" cy="344" r="2" fill="#88eeff" opacity="0.4"/>

  <!-- Foam sparkle dots (glowing at water edge) -->
  <circle class="sd2-foam-1" cx="110" cy="350" r="1.5" fill="url(#sd2-foamGlow)" filter="url(#sd2-softGlow)"/>
  <circle class="sd2-foam-3" cx="180" cy="343" r="1.8" fill="url(#sd2-foamGlow)" filter="url(#sd2-softGlow)"/>
  <circle class="sd2-foam-5" cx="350" cy="340" r="1.5" fill="url(#sd2-foamGlow)" filter="url(#sd2-softGlow)"/>
  <circle class="sd2-foam-2" cx="430" cy="348" r="1.3" fill="url(#sd2-foamGlow)" filter="url(#sd2-softGlow)"/>
  <circle class="sd2-foam-4" cx="480" cy="345" r="1.6" fill="url(#sd2-foamGlow)" filter="url(#sd2-softGlow)"/>

  <!-- Bubbles rising from wave friend -->
  <circle class="sd2-bubble-1" cx="340" cy="320" r="3" fill="none" stroke="#88eeff" stroke-width="0.7" opacity="0.5"/>
  <circle class="sd2-bubble-2" cx="355" cy="310" r="2.5" fill="none" stroke="#44ddff" stroke-width="0.6" opacity="0.4"/>
  <circle class="sd2-bubble-3" cx="328" cy="315" r="2" fill="none" stroke="#88eeff" stroke-width="0.6" opacity="0.45"/>
  <circle class="sd2-bubble-4" cx="348" cy="305" r="1.8" fill="none" stroke="#44ddff" stroke-width="0.5" opacity="0.35"/>

  <!-- Bubble inner highlights -->
  <circle class="sd2-bubble-1" cx="339" cy="319" r="0.8" fill="#ffffff" opacity="0.3"/>
  <circle class="sd2-bubble-2" cx="354" cy="309" r="0.7" fill="#ffffff" opacity="0.25"/>

  <!-- Foreground sparkle particles (magical) -->
  <circle class="sd2-star-1" cx="280" cy="360" r="1.2" fill="#fef5d9" filter="url(#sd2-softGlow)"/>
  <circle class="sd2-star-3" cx="170" cy="365" r="1" fill="#88eeff" filter="url(#sd2-softGlow)"/>
  <circle class="sd2-star-5" cx="360" cy="370" r="1.3" fill="#fef5d9" filter="url(#sd2-softGlow)"/>
  <circle class="sd2-star-8" cx="440" cy="362" r="1" fill="#88eeff" filter="url(#sd2-softGlow)"/>
  <circle class="sd2-star-2" cx="80" cy="358" r="0.9" fill="#fef5d9" filter="url(#sd2-softGlow)"/>

  <!-- Small foreground foam line -->
  <path d="M 90 352 Q 130 347 170 350 Q 210 353 250 349 Q 290 345 330 348 Q 370 351 420 347 Q 460 344 500 348" stroke="#ffffff" stroke-width="0.8" fill="none" opacity="0.15"/>

  <!-- ============================================ -->
  <!-- LAYER 7: Vignette overlay                     -->
  <!-- ============================================ -->
  <rect width="512" height="512" fill="url(#sd2-vignette)" opacity="0.45"/>

</svg>