<svg viewBox="0 0 512 512" xmlns="http://www.w3.org/2000/svg">
  <defs>
    <!-- Sky Gradients - Multi-layered for depth -->
    <linearGradient id="skyGradient" x1="0%" y1="100%" x2="0%" y2="0%">
      <stop offset="0%" style="stop-color:#FF6B35;stop-opacity:1" />
      <stop offset="25%" style="stop-color:#FFB347;stop-opacity:1" />
      <stop offset="45%" style="stop-color:#FF69B4;stop-opacity:1" />
      <stop offset="65%" style="stop-color:#DDA0DD;stop-opacity:1" />
      <stop offset="85%" style="stop-color:#8A60A0;stop-opacity:1" />
      <stop offset="100%" style="stop-color:#2C3E6E;stop-opacity:1" />
    </linearGradient>

    <!-- Additional Sky Depth Layer -->
    <radialGradient id="skyRadial" cx="50%" cy="50%" r="70%">
      <stop offset="0%" style="stop-color:#FF8C42;stop-opacity:0.3" />
      <stop offset="100%" style="stop-color:#2C3E6E;stop-opacity:0" />
    </radialGradient>

    <!-- Sky Overlay Gradient -->
    <linearGradient id="skyOverlay" x1="0%" y1="0%" x2="100%" y2="100%">
      <stop offset="0%" style="stop-color:#FFD700;stop-opacity:0.08" />
      <stop offset="100%" style="stop-color:#8A60A0;stop-opacity:0.05" />
    </linearGradient>

    <!-- Cloud Gradient -->
    <linearGradient id="cloudGradient" x1="0%" y1="0%" x2="0%" y2="100%">
      <stop offset="0%" style="stop-color:#FFFFFF;stop-opacity:1" />
      <stop offset="100%" style="stop-color:#F0F0F0;stop-opacity:0.9" />
    </linearGradient>

    <!-- Cloud Shadow -->
    <linearGradient id="cloudShadow" x1="0%" y1="100%" x2="0%" y2="0%">
      <stop offset="0%" style="stop-color:#A9A9A9;stop-opacity:0.6" />
      <stop offset="100%" style="stop-color:#D3D3D3;stop-opacity:0" />
    </linearGradient>

    <!-- Moon Gradient -->
    <radialGradient id="moonGradient" cx="35%" cy="35%" r="65%">
      <stop offset="0%" style="stop-color:#FFF8DC;stop-opacity:1" />
      <stop offset="60%" style="stop-color:#FFD700;stop-opacity:1" />
      <stop offset="100%" style="stop-color:#FFA500;stop-opacity:0.8" />
    </radialGradient>

    <!-- Moon Glow -->
    <radialGradient id="moonGlow" cx="50%" cy="50%" r="100%">
      <stop offset="0%" style="stop-color:#FFD700;stop-opacity:0.4" />
      <stop offset="100%" style="stop-color:#FFD700;stop-opacity:0" />
    </radialGradient>

    <!-- Dream Dust Glow -->
    <radialGradient id="dustGlow" cx="50%" cy="50%" r="100%">
      <stop offset="0%" style="stop-color:#FFD700;stop-opacity:0.8" />
      <stop offset="100%" style="stop-color:#FFA500;stop-opacity:0" />
    </radialGradient>

    <!-- Window Glow -->
    <radialGradient id="windowGlow" cx="50%" cy="50%" r="150%">
      <stop offset="0%" style="stop-color:#FFD700;stop-opacity:0.6" />
      <stop offset="100%" style="stop-color:#FFA500;stop-opacity:0" />
    </radialGradient>

    <!-- Blush Gradient -->
    <radialGradient id="blushGradient" cx="30%" cy="30%" r="70%">
      <stop offset="0%" style="stop-color:#FFB6C1;stop-opacity:1" />
      <stop offset="100%" style="stop-color:#FFC0CB;stop-opacity:0.3" />
    </radialGradient>

    <!-- Filters -->
    <filter id="softGlow">
      <feGaussianBlur in="SourceGraphic" stdDeviation="2" />
    </filter>

    <filter id="mediumGlow">
      <feGaussianBlur in="SourceGraphic" stdDeviation="4" />
    </filter>

    <filter id="strongGlow">
      <feGaussianBlur in="SourceGraphic" stdDeviation="6" />
    </filter>

    <filter id="shadowFilter">
      <feGaussianBlur in="SourceGraphic" stdDeviation="3" />
      <feOffset dy="2" />
    </filter>

    <filter id="windowGlowFilter">
      <feGaussianBlur in="SourceGraphic" stdDeviation="2" />
    </filter>

    <filter id="dustGlowFilter">
      <feGaussianBlur in="SourceGraphic" stdDeviation="3" />
    </filter>

    <!-- Star Glow Filter -->
    <filter id="starGlow">
      <feGaussianBlur in="SourceGraphic" stdDeviation="1" />
    </filter>
  </defs>

  <style>
    /* Base animations timing and easing - all slow and gentle for bedtime */
    @keyframes cloudFloat {
      0% { transform: translateY(0px); }
      50% { transform: translateY(-8px); }
      100% { transform: translateY(0px); }
    }

    @keyframes eyeBlinkLeft {
      0% { transform: scaleY(1); }
      80% { transform: scaleY(1); }
      85% { transform: scaleY(0.1); }
      90% { transform: scaleY(1); }
      100% { transform: scaleY(1); }
    }

    @keyframes eyeBlinkRight {
      0% { transform: scaleY(1); }
      82% { transform: scaleY(1); }
      87% { transform: scaleY(0.1); }
      92% { transform: scaleY(1); }
      100% { transform: scaleY(1); }
    }

    @keyframes starTwinkle {
      0% { opacity: 0.3; }
      50% { opacity: 1; }
      100% { opacity: 0.3; }
    }

    @keyframes dreamDustFall {
      0% { transform: translateY(0px); opacity: 1; }
      100% { transform: translateY(60px); opacity: 0; }
    }

    @keyframes moonPulse {
      0% { opacity: 0.3; }
      50% { opacity: 0.6; }
      100% { opacity: 0.3; }
    }

    @keyframes windowFlicker {
      0% { opacity: 0.7; }
      50% { opacity: 1; }
      100% { opacity: 0.7; }
    }

    @keyframes smokeRise {
      0% { transform: translateY(0px); opacity: 0.6; }
      50% { transform: translateX(8px) translateY(-10px); opacity: 0.4; }
      100% { transform: translateX(-3px) translateY(-20px); opacity: 0; }
    }

    @keyframes miniCloudDrift {
      0% { transform: translateX(0px); }
      50% { transform: translateX(30px); }
      100% { transform: translateX(0px); }
    }

    @keyframes blushGlow {
      0% { opacity: 0.5; }
      50% { opacity: 0.8; }
      100% { opacity: 0.5; }
    }

    /* Element Classes */
    .cloud-main {
      animation: cloudFloat 5s ease-in-out infinite;
      transform-origin: center center;
    }

    .eye-lid-left {
      animation: eyeBlinkLeft 4s ease-in-out infinite;
      transform-origin: center 50%;
    }

    .eye-lid-right {
      animation: eyeBlinkRight 4s ease-in-out infinite;
      transform-origin: center 50%;
    }

    .star-twinkle {
      animation: starTwinkle 2.5s ease-in-out infinite;
    }

    .star-twinkle:nth-of-type(2) { animation-delay: 0.5s; }
    .star-twinkle:nth-of-type(3) { animation-delay: 1s; }
    .star-twinkle:nth-of-type(4) { animation-delay: 1.5s; }
    .star-twinkle:nth-of-type(5) { animation-delay: 2s; }
    .star-twinkle:nth-of-type(6) { animation-delay: 2.5s; }
    .star-twinkle:nth-of-type(7) { animation-delay: 3s; }
    .star-twinkle:nth-of-type(8) { animation-delay: 3.5s; }
    .star-twinkle:nth-of-type(9) { animation-delay: 4s; }
    .star-twinkle:nth-of-type(10) { animation-delay: 4.5s; }
    .star-twinkle:nth-of-type(11) { animation-delay: 5s; }
    .star-twinkle:nth-of-type(12) { animation-delay: 5.5s; }

    .dream-dust {
      animation: dreamDustFall 7s ease-in infinite;
    }

    .dust-particle-1 { animation-delay: 0.2s; }
    .dust-particle-2 { animation-delay: 0.5s; }
    .dust-particle-3 { animation-delay: 0.8s; }
    .dust-particle-4 { animation-delay: 1.1s; }
    .dust-particle-5 { animation-delay: 1.4s; }
    .dust-particle-6 { animation-delay: 1.7s; }
    .dust-particle-7 { animation-delay: 2s; }
    .dust-particle-8 { animation-delay: 2.3s; }
    .dust-particle-9 { animation-delay: 2.6s; }
    .dust-particle-10 { animation-delay: 2.9s; }

    .moon-glow-aura {
      animation: moonPulse 4s ease-in-out infinite;
    }

    .window-light {
      animation: windowFlicker 2.5s ease-in-out infinite;
    }

    .window-glow-1 { animation-delay: 0s; }
    .window-glow-2 { animation-delay: 0.4s; }
    .window-glow-3 { animation-delay: 0.8s; }
    .window-glow-4 { animation-delay: 1.2s; }
    .window-glow-5 { animation-delay: 1.6s; }
    .window-glow-6 { animation-delay: 2s; }

    .smoke-wisp {
      animation: smokeRise 5s ease-out infinite;
    }

    .smoke-1 { animation-delay: 0s; }
    .smoke-2 { animation-delay: 1.5s; }
    .smoke-3 { animation-delay: 3s; }

    .mini-cloud {
      animation: miniCloudDrift 14s ease-in-out infinite;
    }

    .mini-cloud-1 { animation-delay: 0s; }
    .mini-cloud-2 { animation-delay: 4s; }
    .mini-cloud-3 { animation-delay: 8s; }

    .blush-glow {
      animation: blushGlow 3s ease-in-out infinite;
    }

    .blush-left { animation-delay: 0s; }
    .blush-right { animation-delay: 0.5s; }
  </style>

  <!-- Background Sky -->
  <rect width="512" height="512" fill="url(#skyGradient)" />
  <rect width="512" height="512" fill="url(#skyRadial)" />
  <rect width="512" height="512" fill="url(#skyOverlay)" />

  <!-- Foreground Hills -->
  <ellipse cx="50" cy="420" rx="80" ry="60" fill="#1a1a2e" opacity="0.7" />
  <ellipse cx="150" cy="430" rx="100" ry="50" fill="#16213e" opacity="0.6" />
  <ellipse cx="280" cy="440" rx="120" ry="40" fill="#0f3460" opacity="0.65" />
  <ellipse cx="420" cy="425" rx="110" ry="55" fill="#16213e" opacity="0.6" />
  <ellipse cx="490" cy="435" rx="70" ry="45" fill="#1a1a2e" opacity="0.7" />

  <!-- Floating Mini Clouds -->
  <g class="mini-cloud mini-cloud-1">
    <ellipse cx="80" cy="140" rx="30" ry="18" fill="#FFFFFF" opacity="0.6" />
    <ellipse cx="100" cy="135" rx="25" ry="16" fill="#FFFFFF" opacity="0.6" />
    <ellipse cx="55" cy="138" rx="20" ry="14" fill="#FFFFFF" opacity="0.6" />
  </g>

  <g class="mini-cloud mini-cloud-2">
    <ellipse cx="350" cy="180" rx="35" ry="20" fill="#FFFFFF" opacity="0.5" />
    <ellipse cx="375" cy="175" rx="28" ry="18" fill="#FFFFFF" opacity="0.5" />
    <ellipse cx="320" cy="178" rx="22" ry="15" fill="#FFFFFF" opacity="0.5" />
  </g>

  <g class="mini-cloud mini-cloud-3">
    <ellipse cx="200" cy="110" rx="28" ry="16" fill="#FFFFFF" opacity="0.55" />
    <ellipse cx="220" cy="105" rx="24" ry="14" fill="#FFFFFF" opacity="0.55" />
    <ellipse cx="175" cy="108" rx="18" ry="12" fill="#FFFFFF" opacity="0.55" />
  </g>

  <!-- Stars in Upper Sky -->
  <g id="stars">
    <!-- Star 1 - Sparkle -->
    <g class="star-twinkle">
      <polygon points="430,60 434,68 443,70 436,77 438,86 430,82 422,86 424,77 417,70 426,68" fill="#FFD700" filter="url(#softGlow)" />
    </g>

    <!-- Star 2 - Simple Circle -->
    <circle cx="460" cy="85" r="2.5" fill="#FFE4B5" class="star-twinkle" filter="url(#softGlow)" />

    <!-- Star 3 - Small Sparkle -->
    <g class="star-twinkle">
      <polygon points="390,50 393,56 400,57 395,62 396,69 390,66 384,69 385,62 380,57 387,56" fill="#FFD700" filter="url(#softGlow)" />
    </g>

    <!-- Star 4 - Circle -->
    <circle cx="350" cy="75" r="2" fill="#FFE4B5" class="star-twinkle" filter="url(#softGlow)" />

    <!-- Star 5 - Sparkle -->
    <g class="star-twinkle">
      <polygon points="310,45 313,51 320,52 315,57 316,64 310,61 304,64 305,57 300,52 307,51" fill="#FFD700" filter="url(#softGlow)" />
    </g>

    <!-- Star 6 - Tiny Circle -->
    <circle cx="280" cy="90" r="1.5" fill="#FFE4B5" class="star-twinkle" filter="url(#softGlow)" />

    <!-- Star 7 - Sparkle -->
    <g class="star-twinkle">
      <polygon points="240,55 243,61 250,62 245,67 246,74 240,71 234,74 235,67 230,62 237,61" fill="#FFD700" filter="url(#softGlow)" />
    </g>

    <!-- Star 8 - Circle -->
    <circle cx="200" cy="70" r="2" fill="#FFE4B5" class="star-twinkle" filter="url(#softGlow)" />

    <!-- Star 9 - Sparkle -->
    <g class="star-twinkle">
      <polygon points="150,40 153,46 160,47 155,52 156,59 150,56 144,59 145,52 140,47 147,46" fill="#FFD700" filter="url(#softGlow)" />
    </g>

    <!-- Star 10 - Circle -->
    <circle cx="110" cy="95" r="2.5" fill="#FFE4B5" class="star-twinkle" filter="url(#softGlow)" />

    <!-- Star 11 - Sparkle -->
    <g class="star-twinkle">
      <polygon points="70,65 73,71 80,72 75,77 76,84 70,81 64,84 65,77 60,72 67,71" fill="#FFD700" filter="url(#softGlow)" />
    </g>

    <!-- Star 12 - Circle -->
    <circle cx="40" cy="85" r="2" fill="#FFE4B5" class="star-twinkle" filter="url(#softGlow)" />
  </g>

  <!-- Crescent Moon (Upper Right) -->
  <g id="moon">
    <!-- Moon Glow Aura -->
    <circle cx="450" cy="80" r="48" fill="url(#moonGlow)" class="moon-glow-aura" />

    <!-- Moon Glow Secondary -->
    <circle cx="450" cy="80" r="40" fill="url(#moonGlow)" class="moon-glow-aura" opacity="0.6" />

    <!-- Moon Body (Crescent) -->
    <circle cx="450" cy="80" r="32" fill="url(#moonGradient)" />

    <!-- Crescent Shadow (creates moon shape) -->
    <circle cx="458" cy="80" r="32" fill="#2C3E6E" opacity="0.85" />

    <!-- Moon Craters/Texture -->
    <circle cx="440" cy="75" r="1.5" fill="#E6B800" opacity="0.5" />
    <circle cx="450" cy="85" r="1" fill="#E6B800" opacity="0.4" />
    <circle cx="455" cy="75" r="0.8" fill="#E6B800" opacity="0.5" />
    <circle cx="445" cy="90" r="1.2" fill="#E6B800" opacity="0.3" />
  </g>

  <!-- Village Silhouette Group -->
  <g id="village">
    <!-- House 1 (Left) -->
    <rect x="20" y="380" width="35" height="50" fill="#0d0d1a" />
    <polygon points="20,380 37.5,355 55,380" fill="#1a1a2e" />
    <rect x="28" y="390" width="6" height="8" fill="#FFD700" opacity="0.8" class="window-light window-glow-1" />
    <rect x="42" y="390" width="6" height="8" fill="#FFD700" opacity="0.8" class="window-light window-glow-2" />
    <rect x="30" y="405" width="6" height="8" fill="#FFD700" opacity="0.8" class="window-light window-glow-3" />

    <!-- House 2 (Lower-Mid Left) -->
    <rect x="70" y="390" width="38" height="40" fill="#0d0d1a" />
    <polygon points="70,390 89,370 108,390" fill="#1a1a2e" />
    <rect x="78" y="398" width="7" height="8" fill="#FFD700" opacity="0.8" class="window-light window-glow-4" />
    <rect x="92" y="398" width="7" height="8" fill="#FFD700" opacity="0.8" class="window-light window-glow-5" />

    <!-- Chimney 1 -->
    <rect x="48" y="355" width="5" height="30" fill="#8B4513" />
    <path d="M 50 355 Q 52 350 51 340" stroke="#C0C0C0" stroke-width="1.5" fill="none" class="smoke-wisp smoke-1" opacity="0.7" filter="url(#mediumGlow)" />
    <path d="M 50 355 Q 48 348 49 338" stroke="#C0C0C0" stroke-width="1.5" fill="none" class="smoke-wisp smoke-2" opacity="0.6" filter="url(#mediumGlow)" style="animation-delay: 1.5s;" />

    <!-- House 3 (Center) -->
    <rect x="130" y="375" width="42" height="55" fill="#0d0d1a" />
    <polygon points="130,375 151,350 172,375" fill="#1a1a2e" />
    <circle cx="151" cy="365" r="3" fill="#8B4513" />
    <rect x="138" y="388" width="8" height="10" fill="#FFD700" opacity="0.8" class="window-light window-glow-1" />
    <rect x="156" y="388" width="8" height="10" fill="#FFD700" opacity="0.8" class="window-light window-glow-2" />
    <rect x="140" y="408" width="8" height="10" fill="#FFD700" opacity="0.8" class="window-light window-glow-3" />
    <rect x="158" y="408" width="8" height="10" fill="#FFD700" opacity="0.8" class="window-light window-glow-4" />

    <!-- Chimney 2 -->
    <rect x="165" y="350" width="5" height="25" fill="#8B4513" />
    <path d="M 167 350 Q 169 345 168 335" stroke="#C0C0C0" stroke-width="1.5" fill="none" class="smoke-wisp smoke-2" opacity="0.7" filter="url(#mediumGlow)" />
    <path d="M 167 350 Q 165 343 166 333" stroke="#C0C0C0" stroke-width="1.5" fill="none" class="smoke-wisp smoke-3" opacity="0.6" filter="url(#mediumGlow)" style="animation-delay: 3s;" />

    <!-- Church/Tower (Tall Center) -->
    <rect x="230" y="340" width="25" height="90" fill="#0d0d1a" />
    <polygon points="230,340 242.5,310 255,340" fill="#1a1a2e" />
    <circle cx="242.5" cy="305" r="2.5" fill="#FFD700" />
    <rect x="236" y="355" width="6" height="8" fill="#FFD700" opacity="0.8" class="window-light window-glow-5" />
    <rect x="244" y="355" width="6" height="8" fill="#FFD700" opacity="0.8" class="window-light window-glow-6" />
    <rect x="236" y="370" width="6" height="8" fill="#FFD700" opacity="0.8" class="window-light window-glow-1" />
    <rect x="244" y="370" width="6" height="8" fill="#FFD700" opacity="0.8" class="window-light window-glow-2" />

    <!-- House 4 (Right of Center) -->
    <rect x="290" y="390" width="38" height="40" fill="#0d0d1a" />
    <polygon points="290,390 309,370 328,390" fill="#1a1a2e" />
    <rect x="298" y="398" width="7" height="8" fill="#FFD700" opacity="0.8" class="window-light window-glow-3" />
    <rect x="312" y="398" width="7" height="8" fill="#FFD700" opacity="0.8" class="window-light window-glow-4" />

    <!-- House 5 (Right) -->
    <rect x="370" y="385" width="40" height="45" fill="#0d0d1a" />
    <polygon points="370,385 390,360 410,385" fill="#1a1a2e" />
    <rect x="378" y="395" width="7" height="8" fill="#FFD700" opacity="0.8" class="window-light window-glow-5" />
    <rect x="393" y="395" width="7" height="8" fill="#FFD700" opacity="0.8" class="window-light window-glow-6" />
    <rect x="380" y="410" width="7" height="8" fill="#FFD700" opacity="0.8" class="window-light window-glow-1" />

    <!-- House 6 (Far Right) -->
    <rect x="440" y="390" width="35" height="40" fill="#0d0d1a" />
    <polygon points="440,390 457.5,365 475,390" fill="#1a1a2e" />
    <rect x="448" y="398" width="6" height="8" fill="#FFD700" opacity="0.8" class="window-light window-glow-2" />
    <rect x="462" y="398" width="6" height="8" fill="#FFD700" opacity="0.8" class="window-light window-glow-3" />
  </g>

  <!-- Main Sleepy Cloud Character -->
  <g class="cloud-main" id="sleepy-cloud">
    <!-- Cloud Shadow Underneath -->
    <ellipse cx="256" cy="290" rx="85" ry="15" fill="#A9A9A9" opacity="0.4" filter="url(#shadowFilter)" />

    <!-- Cloud Body - Multiple Overlapping Ellipses -->
    <!-- Bottom-left bulge -->
    <ellipse cx="210" cy="260" rx="50" ry="48" fill="url(#cloudGradient)" stroke="#E8E8E8" stroke-width="1" opacity="0.95" />

    <!-- Bottom-center bulge -->
    <ellipse cx="256" cy="268" rx="65" ry="52" fill="url(#cloudGradient)" stroke="#E8E8E8" stroke-width="1" opacity="0.98" />

    <!-- Bottom-right bulge -->
    <ellipse cx="302" cy="260" rx="50" ry="48" fill="url(#cloudGradient)" stroke="#E8E8E8" stroke-width="1" opacity="0.95" />

    <!-- Top-left curve -->
    <ellipse cx="220" cy="220" rx="45" ry="42" fill="#FFFFFF" opacity="0.9" />

    <!-- Top-center -->
    <ellipse cx="256" cy="210" rx="60" ry="50" fill="#FFFFFF" opacity="0.95" />

    <!-- Top-right curve -->
    <ellipse cx="292" cy="220" rx="45" ry="42" fill="#FFFFFF" opacity="0.9" />

    <!-- Left side puff -->
    <ellipse cx="185" cy="240" rx="35" ry="38" fill="#FFFFFF" opacity="0.85" />

    <!-- Right side puff -->
    <ellipse cx="327" cy="240" rx="35" ry="38" fill="#FFFFFF" opacity="0.85" />

    <!-- Cloud Face Group -->
    <g id="cloud-face">
      <!-- Left Eye -->
      <g id="left-eye">
        <!-- Eye white -->
        <ellipse cx="240" cy="235" rx="12" ry="16" fill="#FFFFFF" stroke="#E0E0E0" stroke-width="0.5" />

        <!-- Eye pupil -->
        <circle cx="240" cy="240" r="7" fill="#2C3E6E" />

        <!-- Eye shine -->
        <circle cx="242" cy="237" r="2.5" fill="#FFFFFF" opacity="0.8" />

        <!-- Upper eyelid -->
        <ellipse cx="240" cy="224" rx="13" ry="8" fill="#F0F0F0" class="eye-lid-left" />

        <!-- Lower lid shadow -->
        <ellipse cx="240" cy="252" rx="13" ry="4" fill="#D3D3D3" opacity="0.5" />
      </g>

      <!-- Right Eye -->
      <g id="right-eye">
        <!-- Eye white -->
        <ellipse cx="272" cy="235" rx="12" ry="16" fill="#FFFFFF" stroke="#E0E0E0" stroke-width="0.5" />

        <!-- Eye pupil -->
        <circle cx="272" cy="240" r="7" fill="#2C3E6E" />

        <!-- Eye shine -->
        <circle cx="274" cy="237" r="2.5" fill="#FFFFFF" opacity="0.8" />

        <!-- Upper eyelid -->
        <ellipse cx="272" cy="224" rx="13" ry="8" fill="#F0F0F0" class="eye-lid-right" />

        <!-- Lower lid shadow -->
        <ellipse cx="272" cy="252" rx="13" ry="4" fill="#D3D3D3" opacity="0.5" />
      </g>

      <!-- Left Blush -->
      <g id="left-blush" class="blush-glow blush-left">
        <circle cx="215" cy="252" r="14" fill="url(#blushGradient)" filter="url(#softGlow)" opacity="0.65" />
      </g>

      <!-- Right Blush -->
      <g id="right-blush" class="blush-glow blush-right">
        <circle cx="297" cy="252" r="14" fill="url(#blushGradient)" filter="url(#softGlow)" opacity="0.65" />
      </g>

      <!-- Gentle Smile (curved line) -->
      <path d="M 235 260 Q 256 270 277 260" stroke="#FFB6C1" stroke-width="2.5" fill="none" stroke-linecap="round" filter="url(#softGlow)" />

      <!-- Small nose (optional, subtle) -->
      <circle cx="256" cy="245" r="2" fill="#FFB6C1" opacity="0.5" />
    </g>

    <!-- Left Arm (rounded stub) -->
    <g id="left-arm">
      <ellipse cx="195" cy="250" rx="18" ry="25" fill="url(#cloudGradient)" stroke="#E8E8E8" stroke-width="0.5" opacity="0.9" />
      <!-- Hand -->
      <circle cx="190" cy="275" r="12" fill="url(#cloudGradient)" stroke="#E8E8E8" stroke-width="0.5" opacity="0.9" />
    </g>

    <!-- Right Arm (rounded stub) -->
    <g id="right-arm">
      <ellipse cx="317" cy="250" rx="18" ry="25" fill="url(#cloudGradient)" stroke="#E8E8E8" stroke-width="0.5" opacity="0.9" />
      <!-- Hand -->
      <circle cx="322" cy="275" r="12" fill="url(#cloudGradient)" stroke="#E8E8E8" stroke-width="0.5" opacity="0.9" />
    </g>
  </g>

  <!-- Dream Dust Particles Falling -->
  <g id="dream-dust">
    <!-- Dust Particle 1 -->
    <g class="dream-dust dust-particle-1">
      <g class="dust-glow">
        <circle cx="240" cy="180" r="4" fill="url(#dustGlow)" filter="url(#strongGlow)" />
        <polygon points="240,175 242,180 240,185 238,180" fill="#FFD700" opacity="0.8" filter="url(#softGlow)" />
      </g>
    </g>

    <!-- Dust Particle 2 -->
    <g class="dream-dust dust-particle-2">
      <circle cx="245" cy="185" r="3" fill="url(#dustGlow)" filter="url(#strongGlow)" />
      <circle cx="245" cy="185" r="2.5" fill="#FFD700" opacity="0.9" />
    </g>

    <!-- Dust Particle 3 -->
    <g class="dream-dust dust-particle-3">
      <g>
        <circle cx="230" cy="190" r="4" fill="url(#dustGlow)" filter="url(#strongGlow)" />
        <polygon points="230,185 232,190 230,195 228,190" fill="#FFD700" opacity="0.8" filter="url(#softGlow)" />
      </g>
    </g>

    <!-- Dust Particle 4 -->
    <g class="dream-dust dust-particle-4">
      <circle cx="255" cy="192" r="3" fill="url(#dustGlow)" filter="url(#strongGlow)" />
      <circle cx="255" cy="192" r="2.5" fill="#FFD700" opacity="0.9" />
    </g>

    <!-- Dust Particle 5 -->
    <g class="dream-dust dust-particle-5">
      <g>
        <circle cx="250" cy="195" r="3.5" fill="url(#dustGlow)" filter="url(#strongGlow)" />
        <polygon points="250,191 251.5,195 250,199 248.5,195" fill="#FFD700" opacity="0.8" filter="url(#softGlow)" />
      </g>
    </g>

    <!-- Dust Particle 6 -->
    <g class="dream-dust dust-particle-6">
      <circle cx="235" cy="197" r="2.5" fill="url(#dustGlow)" filter="url(#strongGlow)" />
      <circle cx="235" cy="197" r="2" fill="#FFD700" opacity="0.9" />
    </g>

    <!-- Dust Particle 7 -->
    <g class="dream-dust dust-particle-7">
      <g>
        <circle cx="260" cy="200" r="3" fill="url(#dustGlow)" filter="url(#strongGlow)" />
        <polygon points="260,196 261.5,200 260,204 258.5,200" fill="#FFD700" opacity="0.8" filter="url(#softGlow)" />
      </g>
    </g>

    <!-- Dust Particle 8 -->
    <g class="dream-dust dust-particle-8">
      <circle cx="245" cy="202" r="3" fill="url(#dustGlow)" filter="url(#strongGlow)" />
      <circle cx="245" cy="202" r="2.5" fill="#FFD700" opacity="0.9" />
    </g>

    <!-- Dust Particle 9 -->
    <g class="dream-dust dust-particle-9">
      <g>
        <circle cx="240" cy="205" r="3.5" fill="url(#dustGlow)" filter="url(#strongGlow)" />
        <polygon points="240,201 241.5,205 240,209 238.5,205" fill="#FFD700" opacity="0.8" filter="url(#softGlow)" />
      </g>
    </g>

    <!-- Dust Particle 10 -->
    <g class="dream-dust dust-particle-10">
      <circle cx="250" cy="207" r="2.5" fill="url(#dustGlow)" filter="url(#strongGlow)" />
      <circle cx="250" cy="207" r="2" fill="#FFD700" opacity="0.9" />
    </g>
  </g>
</svg>
