<?xml version="1.0" encoding="UTF-8"?>
<svg viewBox="0 0 512 512" xmlns="http://www.w3.org/2000/svg">
  <defs>
    <!-- Gradient Definitions -->
    <radialGradient id="bgGradient" cx="50%" cy="50%" r="60%">
      <stop offset="0%" style="stop-color:#3a2a5f;stop-opacity:1" />
      <stop offset="50%" style="stop-color:#2a1a4f;stop-opacity:1" />
      <stop offset="100%" style="stop-color:#0f0a1f;stop-opacity:1" />
    </radialGradient>

    <radialGradient id="moonGlow" cx="50%" cy="50%" r="80%">
      <stop offset="0%" style="stop-color:#ffd700;stop-opacity:0.5" />
      <stop offset="60%" style="stop-color:#ffed4e;stop-opacity:0.2" />
      <stop offset="100%" style="stop-color:#ffd700;stop-opacity:0" />
    </radialGradient>

    <radialGradient id="protectiveGlow" cx="50%" cy="50%" r="70%">
      <stop offset="0%" style="stop-color:#ffc0cb;stop-opacity:0.35" />
      <stop offset="50%" style="stop-color:#ffd700;stop-opacity:0.15" />
      <stop offset="100%" style="stop-color:#ffb6c1;stop-opacity:0" />
    </radialGradient>

    <radialGradient id="nebulaPurple" cx="45%" cy="40%">
      <stop offset="0%" style="stop-color:#7d4fb4;stop-opacity:0.08" />
      <stop offset="100%" style="stop-color:#4a2775;stop-opacity:0" />
    </radialGradient>

    <radialGradient id="nebulaBlue" cx="55%" cy="60%">
      <stop offset="0%" style="stop-color:#5a4fa5;stop-opacity:0.06" />
      <stop offset="100%" style="stop-color:#2a1a4f;stop-opacity:0" />
    </radialGradient>

    <!-- Blur Filter for Nebula -->
    <filter id="nebulaSoftBlur">
      <feGaussianBlur in="SourceGraphic" stdDeviation="8" />
    </filter>

    <!-- Glow Filter for Moon Face -->
    <filter id="moonFaceGlow">
      <feGaussianBlur in="SourceGraphic" stdDeviation="2" result="coloredBlur" />
      <feMerge>
        <feMergeNode in="coloredBlur" />
        <feMergeNode in="SourceGraphic" />
      </feMerge>
    </filter>

    <!-- Soft Glow for Child -->
    <filter id="childGlow">
      <feGaussianBlur in="SourceGraphic" stdDeviation="1.5" result="coloredBlur" />
      <feMerge>
        <feMergeNode in="coloredBlur" />
        <feMergeNode in="SourceGraphic" />
      </feMerge>
    </filter>

    <!-- Sparkle Glow -->
    <filter id="sparkleGlow">
      <feGaussianBlur in="SourceGraphic" stdDeviation="1" result="coloredBlur" />
      <feMerge>
        <feMergeNode in="coloredBlur" />
        <feMergeNode in="SourceGraphic" />
      </feMerge>
    </filter>

    <style>
      /* ============ ANIMATION KEYFRAMES ============ */

      @keyframes cloudNestRocking {
        0% {
          transform: rotate(-2.5deg);
        }
        50% {
          transform: rotate(2.5deg);
        }
        100% {
          transform: rotate(-2.5deg);
        }
      }

      @keyframes childBreathing {
        0% {
          transform: scale(1);
        }
        50% {
          transform: scale(1.015);
        }
        100% {
          transform: scale(1);
        }
      }

      @keyframes sparkleParticleFall1 {
        0% {
          transform: translateY(0);
          opacity: 1;
        }
        100% {
          transform: translateY(70px);
          opacity: 0;
        }
      }

      @keyframes sparkleParticleFall2 {
        0% {
          transform: translateY(0);
          opacity: 1;
        }
        100% {
          transform: translateY(70px);
          opacity: 0;
        }
      }

      @keyframes sparkleParticleFall3 {
        0% {
          transform: translateY(0);
          opacity: 1;
        }
        100% {
          transform: translateY(70px);
          opacity: 0;
        }
      }

      @keyframes sparkleParticleFall4 {
        0% {
          transform: translateY(0);
          opacity: 1;
        }
        100% {
          transform: translateY(70px);
          opacity: 0;
        }
      }

      @keyframes sparkleParticleFall5 {
        0% {
          transform: translateY(0);
          opacity: 1;
        }
        100% {
          transform: translateY(70px);
          opacity: 0;
        }
      }

      @keyframes sparkleParticleFall6 {
        0% {
          transform: translateY(0);
          opacity: 1;
        }
        100% {
          transform: translateY(70px);
          opacity: 0;
        }
      }

      @keyframes sparkleParticleFall7 {
        0% {
          transform: translateY(0);
          opacity: 1;
        }
        100% {
          transform: translateY(70px);
          opacity: 0;
        }
      }

      @keyframes sparkleParticleFall8 {
        0% {
          transform: translateY(0);
          opacity: 1;
        }
        100% {
          transform: translateY(70px);
          opacity: 0;
        }
      }

      @keyframes sparkleParticleFall9 {
        0% {
          transform: translateY(0);
          opacity: 1;
        }
        100% {
          transform: translateY(70px);
          opacity: 0;
        }
      }

      @keyframes sparkleParticleFall10 {
        0% {
          transform: translateY(0);
          opacity: 1;
        }
        100% {
          transform: translateY(70px);
          opacity: 0;
        }
      }

      @keyframes sparkleParticleFall11 {
        0% {
          transform: translateY(0);
          opacity: 1;
        }
        100% {
          transform: translateY(70px);
          opacity: 0;
        }
      }

      @keyframes sparkleParticleFall12 {
        0% {
          transform: translateY(0);
          opacity: 1;
        }
        100% {
          transform: translateY(70px);
          opacity: 0;
        }
      }

      @keyframes moonGlowPulse {
        0% {
          opacity: 0.2;
        }
        50% {
          opacity: 0.5;
        }
        100% {
          opacity: 0.2;
        }
      }

      @keyframes moonFaceBlinking {
        0%, 10%, 100% {
          transform: scaleY(1);
        }
        5% {
          transform: scaleY(0.1);
        }
      }

      @keyframes starTwinkle1 {
        0% {
          opacity: 0.3;
        }
        50% {
          opacity: 1;
        }
        100% {
          opacity: 0.3;
        }
      }

      @keyframes starTwinkle2 {
        0% {
          opacity: 0.3;
        }
        50% {
          opacity: 1;
        }
        100% {
          opacity: 0.3;
        }
      }

      @keyframes starTwinkle3 {
        0% {
          opacity: 0.3;
        }
        50% {
          opacity: 1;
        }
        100% {
          opacity: 0.3;
        }
      }

      @keyframes starTwinkle4 {
        0% {
          opacity: 0.3;
        }
        50% {
          opacity: 1;
        }
        100% {
          opacity: 0.3;
        }
      }

      @keyframes starTwinkle5 {
        0% {
          opacity: 0.3;
        }
        50% {
          opacity: 1;
        }
        100% {
          opacity: 0.3;
        }
      }

      @keyframes starTwinkle6 {
        0% {
          opacity: 0.3;
        }
        50% {
          opacity: 1;
        }
        100% {
          opacity: 0.3;
        }
      }

      @keyframes protectiveGlowBreathing {
        0% {
          opacity: 0.15;
        }
        50% {
          opacity: 0.35;
        }
        100% {
          opacity: 0.15;
        }
      }

      @keyframes dreamStarBob1 {
        0%, 100% {
          transform: translateY(-5px);
        }
        50% {
          transform: translateY(5px);
        }
      }

      @keyframes dreamStarBob2 {
        0%, 100% {
          transform: translateY(-5px);
        }
        50% {
          transform: translateY(5px);
        }
      }

      @keyframes dreamStarBob3 {
        0%, 100% {
          transform: translateY(-5px);
        }
        50% {
          transform: translateY(5px);
        }
      }

      @keyframes dreamStarBob4 {
        0%, 100% {
          transform: translateY(-5px);
        }
        50% {
          transform: translateY(5px);
        }
      }

      @keyframes constellationPulse {
        0% {
          opacity: 0.1;
        }
        50% {
          opacity: 0.3;
        }
        100% {
          opacity: 0.1;
        }
      }

      @keyframes teddyNuzzle {
        0% {
          transform: rotate(-1deg);
        }
        50% {
          transform: rotate(1deg);
        }
        100% {
          transform: rotate(-1deg);
        }
      }

      /* ============ ELEMENT ANIMATION CLASSES ============ */

      .cloud-nest-group {
        animation: cloudNestRocking 6s ease-in-out infinite;
        transform-origin: 256px 240px;
      }

      .sleeping-child {
        animation: childBreathing 4.5s ease-in-out infinite;
        transform-origin: 240px 240px;
      }

      .sparkle-particle-1 {
        animation: sparkleParticleFall1 8s ease-in 1s infinite;
      }

      .sparkle-particle-2 {
        animation: sparkleParticleFall2 7.5s ease-in 1.2s infinite;
      }

      .sparkle-particle-3 {
        animation: sparkleParticleFall3 8.5s ease-in 0.5s infinite;
      }

      .sparkle-particle-4 {
        animation: sparkleParticleFall4 7s ease-in 1.5s infinite;
      }

      .sparkle-particle-5 {
        animation: sparkleParticleFall5 8s ease-in 0.8s infinite;
      }

      .sparkle-particle-6 {
        animation: sparkleParticleFall6 7.8s ease-in 1.3s infinite;
      }

      .sparkle-particle-7 {
        animation: sparkleParticleFall7 8.2s ease-in 0.3s infinite;
      }

      .sparkle-particle-8 {
        animation: sparkleParticleFall8 7.5s ease-in 1.6s infinite;
      }

      .sparkle-particle-9 {
        animation: sparkleParticleFall9 8.1s ease-in 0.6s infinite;
      }

      .sparkle-particle-10 {
        animation: sparkleParticleFall10 7.9s ease-in 1.1s infinite;
      }

      .sparkle-particle-11 {
        animation: sparkleParticleFall11 8.3s ease-in 0.4s infinite;
      }

      .sparkle-particle-12 {
        animation: sparkleParticleFall12 7.7s ease-in 1.4s infinite;
      }

      .moon-glow-aura {
        animation: moonGlowPulse 5s ease-in-out infinite;
      }

      .moon-face-eyelids {
        animation: moonFaceBlinking 5s ease-in-out infinite;
        transform-origin: 420px 80px;
      }

      .background-star-1 {
        animation: starTwinkle1 2.5s ease-in-out 0s infinite;
      }

      .background-star-2 {
        animation: starTwinkle2 2.5s ease-in-out 0.3s infinite;
      }

      .background-star-3 {
        animation: starTwinkle3 2.5s ease-in-out 0.6s infinite;
      }

      .background-star-4 {
        animation: starTwinkle4 2.5s ease-in-out 0.9s infinite;
      }

      .background-star-5 {
        animation: starTwinkle5 2.5s ease-in-out 1.2s infinite;
      }

      .background-star-6 {
        animation: starTwinkle6 2.5s ease-in-out 1.5s infinite;
      }

      .protective-glow-circle {
        animation: protectiveGlowBreathing 5s ease-in-out infinite;
      }

      .dream-star-1 {
        animation: dreamStarBob1 3s ease-in-out 0s infinite;
      }

      .dream-star-2 {
        animation: dreamStarBob2 3s ease-in-out 0.5s infinite;
      }

      .dream-star-3 {
        animation: dreamStarBob3 3s ease-in-out 1s infinite;
      }

      .dream-star-4 {
        animation: dreamStarBob4 3s ease-in-out 1.5s infinite;
      }

      .constellation-lines {
        animation: constellationPulse 6s ease-in-out infinite;
      }

      .teddy-bear {
        animation: teddyNuzzle 5s ease-in-out infinite;
        transform-origin: 235px 265px;
      }
    </style>
  </defs>

  <!-- ============ BACKGROUND ============ -->
  <rect width="512" height="512" fill="url(#bgGradient)" />

  <!-- Nebula Clouds for Cosmic Depth -->
  <ellipse cx="150" cy="100" rx="120" ry="80" fill="url(#nebulaPurple)" filter="url(#nebulaSoftBlur)" />
  <ellipse cx="400" cy="150" rx="100" ry="90" fill="url(#nebulaBlue)" filter="url(#nebulaSoftBlur)" />
  <ellipse cx="100" cy="380" rx="110" ry="70" fill="url(#nebulaPurple)" filter="url(#nebulaSoftBlur)" />
  <ellipse cx="420" cy="380" rx="95" ry="85" fill="url(#nebulaBlue)" filter="url(#nebulaSoftBlur)" />

  <!-- ============ BACKGROUND STAR FIELD (Tiny dots, low opacity) ============ -->
  <circle cx="80" cy="60" r="0.8" fill="#ffffff" opacity="0.4" />
  <circle cx="150" cy="40" r="0.6" fill="#ffffff" opacity="0.35" />
  <circle cx="220" cy="75" r="0.7" fill="#ffffff" opacity="0.4" />
  <circle cx="310" cy="50" r="0.9" fill="#ffffff" opacity="0.45" />
  <circle cx="380" cy="90" r="0.65" fill="#ffffff" opacity="0.38" />
  <circle cx="470" cy="65" r="0.8" fill="#ffffff" opacity="0.4" />
  <circle cx="50" cy="150" r="0.7" fill="#ffffff" opacity="0.35" />
  <circle cx="480" cy="200" r="0.85" fill="#ffffff" opacity="0.42" />
  <circle cx="60" cy="300" r="0.6" fill="#ffffff" opacity="0.3" />
  <circle cx="450" cy="340" r="0.8" fill="#ffffff" opacity="0.38" />
  <circle cx="120" cy="420" r="0.75" fill="#ffffff" opacity="0.37" />
  <circle cx="380" cy="450" r="0.7" fill="#ffffff" opacity="0.35" />

  <!-- ============ CONSTELLATION PATTERN ============ -->
  <g class="constellation-lines">
    <!-- Musical note-like constellation -->
    <line x1="80" y1="120" x2="130" y2="160" stroke="#b8a8ff" stroke-width="0.8" opacity="0.3" />
    <line x1="130" y1="160" x2="110" y2="210" stroke="#b8a8ff" stroke-width="0.8" opacity="0.3" />
    <line x1="110" y1="210" x2="160" y2="250" stroke="#b8a8ff" stroke-width="0.8" opacity="0.3" />
    <line x1="160" y1="250" x2="140" y2="300" stroke="#b8a8ff" stroke-width="0.8" opacity="0.3" />
  </g>

  <!-- ============ MIDDLE LAYER STARS (Medium circles, moderate opacity) ============ -->
  <circle cx="80" cy="120" r="1.2" fill="#ffeb99" opacity="0.65" class="background-star-1" />
  <circle cx="130" cy="160" r="1.1" fill="#ffed4e" opacity="0.6" class="background-star-2" />
  <circle cx="110" cy="210" r="1.3" fill="#ffeb99" opacity="0.68" class="background-star-3" />
  <circle cx="160" cy="250" r="1.0" fill="#fff5cc" opacity="0.58" class="background-star-4" />
  <circle cx="140" cy="300" r="1.2" fill="#ffed4e" opacity="0.62" class="background-star-5" />
  <circle cx="420" cy="140" r="1.15" fill="#ffeb99" opacity="0.65" class="background-star-6" />

  <!-- ============ MOON (Upper Right) ============ -->
  <!-- Moon Glow Aura -->
  <circle cx="420" cy="80" r="55" fill="url(#moonGlow)" class="moon-glow-aura" filter="url(#sparkleGlow)" />

  <!-- Moon Crescent (Golden) -->
  <g>
    <!-- Outer crescent shape using two circles -->
    <circle cx="420" cy="80" r="35" fill="#ffd700" />
    <circle cx="435" cy="80" r="35" fill="#0f0a1f" />
  </g>

  <!-- Moon Face -->
  <g filter="url(#moonFaceGlow)">
    <!-- Left Eye (closed, serene) -->
    <ellipse cx="410" cy="72" rx="4" ry="3" fill="#1a0f2e" opacity="0.8" />
    <path d="M 406 72 Q 410 74 414 72" stroke="#1a0f2e" stroke-width="0.8" fill="none" opacity="0.7" />

    <!-- Right Eye (closed, serene) -->
    <ellipse cx="425" cy="72" rx="4" ry="3" fill="#1a0f2e" opacity="0.8" />
    <path d="M 421 72 Q 425 74 429 72" stroke="#1a0f2e" stroke-width="0.8" fill="none" opacity="0.7" />

    <!-- Smile -->
    <path d="M 412 80 Q 420 83 428 80" stroke="#1a0f2e" stroke-width="1.2" fill="none" opacity="0.8" />

    <!-- Rosy Cheeks -->
    <circle cx="400" cy="78" r="5" fill="#ff69b4" opacity="0.5" />
    <circle cx="440" cy="78" r="5" fill="#ff69b4" opacity="0.5" />
  </g>

  <!-- ============ PROTECTIVE GLOW CIRCLE (Around sleeping child) ============ -->
  <circle cx="256" cy="240" r="110" fill="url(#protectiveGlow)" class="protective-glow-circle" />

  <!-- ============ CLOUD NEST & SLEEPING CHILD GROUP ============ -->
  <g class="cloud-nest-group">

    <!-- ============ CLOUD NEST (Fluffy Pink/Lavender Ellipses) ============ -->
    <!-- Base cloud layer -->
    <ellipse cx="256" cy="260" rx="90" ry="50" fill="#e8d5f2" opacity="0.9" />
    <ellipse cx="220" cy="245" rx="55" ry="45" fill="#f0e1f5" opacity="0.85" />
    <ellipse cx="295" cy="245" rx="60" ry="42" fill="#f0e1f5" opacity="0.85" />
    <ellipse cx="200" cy="270" rx="40" ry="35" fill="#e8d5f2" opacity="0.88" />
    <ellipse cx="315" cy="270" rx="45" ry="38" fill="#e8d5f2" opacity="0.88" />

    <!-- Secondary cloud puffs for depth -->
    <ellipse cx="240" cy="225" rx="50" ry="38" fill="#f5ebf8" opacity="0.8" />
    <ellipse cx="280" cy="225" rx="48" ry="36" fill="#f5ebf8" opacity="0.8" />

    <!-- ============ SLEEPING CHILD ============ -->
    <g class="sleeping-child" filter="url(#childGlow)">
      <!-- Child's Head -->
      <circle cx="240" cy="230" r="18" fill="#f4b5a0" />

      <!-- Hair (Brown/Auburn, messy spread on cloud) -->
      <ellipse cx="240" cy="215" rx="22" ry="14" fill="#8b6f47" />
      <path d="M 220 220 Q 215 215 218 225 Q 220 228 228 225" fill="#8b6f47" opacity="0.9" />
      <path d="M 260 220 Q 268 212 265 223 Q 263 228 255 226" fill="#8b6f47" opacity="0.9" />
      <ellipse cx="222" cy="233" rx="12" ry="8" fill="#8b6f47" opacity="0.85" />

      <!-- Face Details -->
      <!-- Closed Eyes with curved lashes -->
      <ellipse cx="233" cy="228" rx="3" ry="2.5" fill="#2c1810" />
      <path d="M 230 227 Q 233 225 236 227" stroke="#2c1810" stroke-width="0.6" fill="none" opacity="0.8" />
      <path d="M 230 230 Q 233 232 236 230" stroke="#2c1810" stroke-width="0.6" fill="none" opacity="0.6" />

      <ellipse cx="247" cy="228" rx="3" ry="2.5" fill="#2c1810" />
      <path d="M 244 227 Q 247 225 250 227" stroke="#2c1810" stroke-width="0.6" fill="none" opacity="0.8" />
      <path d="M 244 230 Q 247 232 250 230" stroke="#2c1810" stroke-width="0.6" fill="none" opacity="0.6" />

      <!-- Small Nose -->
      <ellipse cx="240" cy="234" rx="2" ry="1.5" fill="#f0a090" opacity="0.7" />

      <!-- Gentle Smile -->
      <path d="M 235 238 Q 240 240 245 238" stroke="#d4886b" stroke-width="0.8" fill="none" opacity="0.7" />

      <!-- Rosy Cheeks -->
      <circle cx="225" cy="233" r="4" fill="#ffb3a0" opacity="0.6" />
      <circle cx="255" cy="233" r="4" fill="#ffb3a0" opacity="0.6" />

      <!-- Child's Body (Pajamas - soft blue/white) -->
      <ellipse cx="240" cy="260" rx="22" ry="28" fill="#b3d9f0" opacity="0.9" />
      <ellipse cx="228" cy="265" rx="8" ry="20" fill="#d0e8f5" opacity="0.85" />

      <!-- Arms -->
      <ellipse cx="218" cy="250" rx="7" ry="18" fill="#f4b5a0" opacity="0.85" transform="rotate(-25 218 250)" />
      <ellipse cx="262" cy="255" rx="6" ry="16" fill="#f4b5a0" opacity="0.8" transform="rotate(35 262 255)" />

      <!-- Star-patterned Blanket -->
      <ellipse cx="245" cy="280" rx="28" ry="22" fill="#4a6fa5" opacity="0.85" />

      <!-- Stars on Blanket -->
      <polygon points="235,270 237,276 243,276 238,280 240,286 235,282 230,286 232,280 227,276 233,276" fill="#ffd700" opacity="0.8" />
      <polygon points="255,275 257,281 263,281 258,285 260,291 255,287 250,291 252,285 247,281 253,281" fill="#ffed4e" opacity="0.75" />
      <polygon points="245,290 246,295 251,295 247,299 248,304 245,300 242,304 243,299 239,295 244,295" fill="#fff5cc" opacity="0.7" />

      <!-- One Arm Hugging Teddy -->
      <!-- (Teddy position will be next) -->

    </g>

    <!-- ============ TEDDY BEAR ============ -->
    <g class="teddy-bear" filter="url(#childGlow)">
      <!-- Body -->
      <ellipse cx="235" cy="268" rx="9" ry="13" fill="#8b6914" />

      <!-- Head -->
      <circle cx="235" cy="250" r="8" fill="#8b6914" />

      <!-- Ears -->
      <circle cx="225" cy="242" r="5" fill="#8b6914" />
      <circle cx="245" cy="242" r="5" fill="#8b6914" />

      <!-- Inner Ears -->
      <circle cx="225" cy="243" r="2" fill="#a0792e" opacity="0.8" />
      <circle cx="245" cy="243" r="2" fill="#a0792e" opacity="0.8" />

      <!-- Snout -->
      <ellipse cx="235" cy="255" rx="5" ry="4" fill="#a0792e" />

      <!-- Eyes -->
      <circle cx="230" cy="248" r="1.5" fill="#2c1810" />
      <circle cx="240" cy="248" r="1.5" fill="#2c1810" />

      <!-- Nose -->
      <circle cx="235" cy="257" r="1.2" fill="#2c1810" />

      <!-- Smile -->
      <path d="M 233 259 Q 235 260 237 259" stroke="#2c1810" stroke-width="0.5" fill="none" />

      <!-- Arms -->
      <ellipse cx="220" cy="265" rx="4" ry="8" fill="#8b6914" transform="rotate(-30 220 265)" />
      <ellipse cx="250" cy="265" rx="4" ry="8" fill="#8b6914" transform="rotate(30 250 265)" />

      <!-- Legs -->
      <ellipse cx="228" cy="280" rx="4" ry="7" fill="#8b6914" />
      <ellipse cx="242" cy="280" rx="4" ry="7" fill="#8b6914" />
    </g>

  </g>

  <!-- ============ FLOATING DREAM STARS (Near Child) ============ -->
  <!-- Star 1 - Upper left of child -->
  <g class="dream-star-1">
    <polygon points="190,200 193,208 201,208 195,213 198,221 190,216 182,221 185,213 179,208 187,208" fill="#ffd700" opacity="0.85" filter="url(#sparkleGlow)" />
  </g>

  <!-- Star 2 - Upper right of child -->
  <g class="dream-star-2">
    <polygon points="310,200 313,208 321,208 315,213 318,221 310,216 302,221 305,213 299,208 307,208" fill="#ffed4e" opacity="0.8" filter="url(#sparkleGlow)" />
  </g>

  <!-- Star 3 - Right side -->
  <g class="dream-star-3">
    <polygon points="330,240 333,248 341,248 335,253 338,261 330,256 322,261 325,253 319,248 327,248" fill="#fff5cc" opacity="0.75" filter="url(#sparkleGlow)" />
  </g>

  <!-- Star 4 - Left side -->
  <g class="dream-star-4">
    <polygon points="170,240 173,248 181,248 175,253 178,261 170,256 162,261 165,253 159,248 167,248" fill="#ffd700" opacity="0.78" filter="url(#sparkleGlow)" />
  </g>

  <!-- ============ LARGE SPARKLE STARS (Foreground, 4-pointed) ============ -->
  <g filter="url(#sparkleGlow)">
    <!-- Top left large sparkle -->
    <g opacity="0.8">
      <polygon points="120,140 125,150 135,155 125,160 120,170 115,160 105,155 115,150" fill="#ffeb99" />
      <polygon points="120,140 125,142 120,145 115,142" fill="#ffff99" opacity="0.9" />
    </g>

    <!-- Right side large sparkle -->
    <g opacity="0.75">
      <polygon points="380,120 385,130 395,135 385,140 380,150 375,140 365,135 375,130" fill="#ffed4e" />
      <polygon points="380,120 385,122 380,125 375,122" fill="#ffff99" opacity="0.9" />
    </g>

    <!-- Bottom right large sparkle -->
    <g opacity="0.72">
      <polygon points="350,350 355,360 365,365 355,370 350,380 345,370 335,365 345,360" fill="#fff5cc" />
      <polygon points="350,350 355,352 350,355 345,352" fill="#ffff99" opacity="0.85" />
    </g>

    <!-- Bottom left large sparkle -->
    <g opacity="0.7">
      <polygon points="150,340 155,350 165,355 155,360 150,370 145,360 135,355 145,350" fill="#ffeb99" />
      <polygon points="150,340 155,342 150,345 145,342" fill="#ffff99" opacity="0.85" />
    </g>

    <!-- Center-top large sparkle -->
    <g opacity="0.76">
      <polygon points="256,160 261,170 271,175 261,180 256,190 251,180 241,175 251,170" fill="#ffed4e" />
      <polygon points="256,160 261,162 256,165 251,162" fill="#ffff99" opacity="0.9" />
    </g>

    <!-- Far left large sparkle -->
    <g opacity="0.68">
      <polygon points="90,280 95,290 105,295 95,300 90,310 85,300 75,295 85,290" fill="#fff5cc" />
      <polygon points="90,280 95,282 90,285 85,282" fill="#ffff99" opacity="0.8" />
    </g>
  </g>

  <!-- ============ FALLING SPARKLE DUST PARTICLES ============ -->
  <!-- Particle 1 -->
  <circle cx="100" cy="100" r="1.5" fill="#ffd700" opacity="0.9" class="sparkle-particle-1" filter="url(#sparkleGlow)" />

  <!-- Particle 2 -->
  <circle cx="200" cy="80" r="1.2" fill="#ffed4e" opacity="0.85" class="sparkle-particle-2" filter="url(#sparkleGlow)" />

  <!-- Particle 3 -->
  <circle cx="320" cy="110" r="1.3" fill="#fff5cc" opacity="0.8" class="sparkle-particle-3" filter="url(#sparkleGlow)" />

  <!-- Particle 4 -->
  <circle cx="380" cy="70" r="1.1" fill="#ffd700" opacity="0.82" class="sparkle-particle-4" filter="url(#sparkleGlow)" />

  <!-- Particle 5 -->
  <circle cx="150" cy="130" r="1.4" fill="#ffeb99" opacity="0.87" class="sparkle-particle-5" filter="url(#sparkleGlow)" />

  <!-- Particle 6 -->
  <circle cx="450" cy="90" r="1.2" fill="#ffed4e" opacity="0.79" class="sparkle-particle-6" filter="url(#sparkleGlow)" />

  <!-- Particle 7 -->
  <circle cx="280" cy="60" r="1.5" fill="#fff5cc" opacity="0.88" class="sparkle-particle-7" filter="url(#sparkleGlow)" />

  <!-- Particle 8 -->
  <circle cx="70" cy="200" r="1.3" fill="#ffd700" opacity="0.81" class="sparkle-particle-8" filter="url(#sparkleGlow)" />

  <!-- Particle 9 -->
  <circle cx="420" cy="160" r="1.1" fill="#ffeb99" opacity="0.76" class="sparkle-particle-9" filter="url(#sparkleGlow)" />

  <!-- Particle 10 -->
  <circle cx="180" cy="320" r="1.2" fill="#ffed4e" opacity="0.84" class="sparkle-particle-10" filter="url(#sparkleGlow)" />

  <!-- Particle 11 -->
  <circle cx="360" cy="290" r="1.4" fill="#fff5cc" opacity="0.83" class="sparkle-particle-11" filter="url(#sparkleGlow)" />

  <!-- Particle 12 -->
  <circle cx="240" cy="350" r="1.3" fill="#ffd700" opacity="0.86" class="sparkle-particle-12" filter="url(#sparkleGlow)" />

</svg>
