<svg viewBox="0 0 512 512" xmlns="http://www.w3.org/2000/svg">
  <defs>
    <!-- Sky Gradient -->
    <linearGradient id="vd-skyGradient" x1="0" y1="0" x2="0" y2="1">
      <stop offset="0%" stop-color="#0a0a2e"/>
      <stop offset="35%" stop-color="#1a1050"/>
      <stop offset="70%" stop-color="#2a1a6e"/>
      <stop offset="100%" stop-color="#1a1050"/>
    </linearGradient>

    <!-- Temple Stone Gradient -->
    <linearGradient id="vd-templeGrad" x1="0" y1="0" x2="0" y2="1">
      <stop offset="0%" stop-color="#c4a060"/>
      <stop offset="50%" stop-color="#a08050"/>
      <stop offset="100%" stop-color="#8b6a3a"/>
    </linearGradient>

    <!-- Temple Pillar Gradient -->
    <linearGradient id="vd-pillarGrad" x1="0" y1="0" x2="1" y2="0">
      <stop offset="0%" stop-color="#8b6a3a"/>
      <stop offset="40%" stop-color="#c4a060"/>
      <stop offset="100%" stop-color="#8b6a3a"/>
    </linearGradient>

    <!-- Goddess Glow Gradient -->
    <radialGradient id="vd-goddessGlow" cx="50%" cy="50%" r="50%">
      <stop offset="0%" stop-color="#ffd700" stop-opacity="0.7"/>
      <stop offset="40%" stop-color="#ffee88" stop-opacity="0.35"/>
      <stop offset="100%" stop-color="#fff5cc" stop-opacity="0"/>
    </radialGradient>

    <!-- Goddess Body Gradient -->
    <linearGradient id="vd-goddessBody" x1="0" y1="0" x2="0" y2="1">
      <stop offset="0%" stop-color="#ffd700"/>
      <stop offset="50%" stop-color="#ffcc00"/>
      <stop offset="100%" stop-color="#e6a800"/>
    </linearGradient>

    <!-- Goddess Sari Gradient -->
    <linearGradient id="vd-sariGrad" x1="0" y1="0" x2="1" y2="1">
      <stop offset="0%" stop-color="#fff5cc"/>
      <stop offset="50%" stop-color="#ffd700"/>
      <stop offset="100%" stop-color="#ffaa44"/>
    </linearGradient>

    <!-- Girl Skin Gradient -->
    <radialGradient id="vd-skinGrad" cx="45%" cy="40%" r="55%">
      <stop offset="0%" stop-color="#f4b5a0"/>
      <stop offset="100%" stop-color="#d4a574"/>
    </radialGradient>

    <!-- Girl Hair Gradient -->
    <linearGradient id="vd-hairGrad" x1="0" y1="0" x2="0" y2="1">
      <stop offset="0%" stop-color="#1a0a00"/>
      <stop offset="100%" stop-color="#3d1f00"/>
    </linearGradient>

    <!-- Girl Dress Gradient -->
    <linearGradient id="vd-dressGrad" x1="0" y1="0" x2="0" y2="1">
      <stop offset="0%" stop-color="#ff8c42"/>
      <stop offset="100%" stop-color="#e06020"/>
    </linearGradient>

    <!-- Iris Gradient -->
    <radialGradient id="vd-irisGrad" cx="45%" cy="40%" r="55%">
      <stop offset="0%" stop-color="#5a3010"/>
      <stop offset="100%" stop-color="#3d1f00"/>
    </radialGradient>

    <!-- Book Gradient -->
    <linearGradient id="vd-bookGrad1" x1="0" y1="0" x2="1" y2="1">
      <stop offset="0%" stop-color="#8b4513"/>
      <stop offset="100%" stop-color="#6b3010"/>
    </linearGradient>

    <!-- Book 2 Gradient -->
    <linearGradient id="vd-bookGrad2" x1="0" y1="0" x2="0" y2="1">
      <stop offset="0%" stop-color="#a0522d"/>
      <stop offset="100%" stop-color="#8b4513"/>
    </linearGradient>

    <!-- Lamp Flame Gradient -->
    <radialGradient id="vd-flameGrad" cx="50%" cy="60%" r="50%">
      <stop offset="0%" stop-color="#fff5cc"/>
      <stop offset="40%" stop-color="#ffd700"/>
      <stop offset="100%" stop-color="#ff8c42" stop-opacity="0"/>
    </radialGradient>

    <!-- Ground Gradient -->
    <linearGradient id="vd-groundGrad" x1="0" y1="0" x2="0" y2="1">
      <stop offset="0%" stop-color="#2a1a6e" stop-opacity="0.6"/>
      <stop offset="100%" stop-color="#0a0a2e"/>
    </linearGradient>

    <!-- Magic Dust Gradient -->
    <radialGradient id="vd-dustGrad" cx="50%" cy="50%" r="50%">
      <stop offset="0%" stop-color="#ffd700" stop-opacity="0.9"/>
      <stop offset="100%" stop-color="#ffd700" stop-opacity="0"/>
    </radialGradient>

    <!-- Vignette -->
    <radialGradient id="vd-vignette">
      <stop offset="50%" stop-color="#000000" stop-opacity="0"/>
      <stop offset="100%" stop-color="#000000" stop-opacity="0.55"/>
    </radialGradient>

    <!-- Soft Glow Filter -->
    <filter id="vd-softGlow">
      <feGaussianBlur stdDeviation="2" result="blur"/>
      <feMerge>
        <feMergeNode in="blur"/>
        <feMergeNode in="SourceGraphic"/>
      </feMerge>
    </filter>

    <!-- Medium Glow Filter -->
    <filter id="vd-mediumGlow">
      <feGaussianBlur stdDeviation="4" result="blur"/>
      <feMerge>
        <feMergeNode in="blur"/>
        <feMergeNode in="SourceGraphic"/>
      </feMerge>
    </filter>

    <!-- Strong Glow Filter -->
    <filter id="vd-strongGlow">
      <feGaussianBlur stdDeviation="6" result="blur"/>
      <feMerge>
        <feMergeNode in="blur"/>
        <feMergeNode in="SourceGraphic"/>
      </feMerge>
    </filter>

    <!-- Shadow Filter -->
    <filter id="vd-shadow">
      <feGaussianBlur in="SourceAlpha" stdDeviation="3" result="blur"/>
      <feOffset in="blur" dy="2" result="offset"/>
      <feMerge>
        <feMergeNode in="offset"/>
        <feMergeNode in="SourceGraphic"/>
      </feMerge>
    </filter>
  </defs>

  <style>
    /* 1. Goddess Glow Pulse */
    @keyframes vd-goddessPulse {
      0%, 100% { opacity: 0.55; transform: scale(1); }
      50% { opacity: 0.85; transform: scale(1.06); }
    }
    .vd-goddess-glow {
      animation: vd-goddessPulse 3.5s ease-in-out infinite;
      transform-origin: 310px 240px;
    }

    /* 2. Floating Books Orbit */
    @keyframes vd-bookFloat1 {
      0% { transform: translate(0px, 0px) rotate(0deg); }
      25% { transform: translate(12px, -8px) rotate(5deg); }
      50% { transform: translate(0px, -14px) rotate(0deg); }
      75% { transform: translate(-12px, -6px) rotate(-5deg); }
      100% { transform: translate(0px, 0px) rotate(0deg); }
    }
    @keyframes vd-bookFloat2 {
      0% { transform: translate(0px, 0px) rotate(0deg); }
      25% { transform: translate(-10px, -10px) rotate(-4deg); }
      50% { transform: translate(0px, -16px) rotate(0deg); }
      75% { transform: translate(10px, -5px) rotate(4deg); }
      100% { transform: translate(0px, 0px) rotate(0deg); }
    }
    @keyframes vd-bookFloat3 {
      0% { transform: translate(0px, 0px) rotate(0deg); }
      25% { transform: translate(8px, -12px) rotate(3deg); }
      50% { transform: translate(-5px, -8px) rotate(-3deg); }
      75% { transform: translate(-8px, -15px) rotate(2deg); }
      100% { transform: translate(0px, 0px) rotate(0deg); }
    }
    .vd-book-1 { animation: vd-bookFloat1 8s ease-in-out infinite; }
    .vd-book-2 { animation: vd-bookFloat2 9s ease-in-out infinite 0.8s; }
    .vd-book-3 { animation: vd-bookFloat3 8.5s ease-in-out infinite 1.6s; }
    .vd-book-4 { animation: vd-bookFloat1 9.5s ease-in-out infinite 2.4s; }

    /* 3. Math Symbols Twinkle */
    @keyframes vd-symbolTwinkle {
      0%, 100% { opacity: 0.2; transform: scale(0.85); }
      50% { opacity: 0.95; transform: scale(1.1); }
    }
    .vd-symbol-1 { animation: vd-symbolTwinkle 2.5s ease-in-out infinite; }
    .vd-symbol-2 { animation: vd-symbolTwinkle 2.3s ease-in-out infinite 0.4s; }
    .vd-symbol-3 { animation: vd-symbolTwinkle 2.7s ease-in-out infinite 0.9s; }
    .vd-symbol-4 { animation: vd-symbolTwinkle 2.4s ease-in-out infinite 1.3s; }
    .vd-symbol-5 { animation: vd-symbolTwinkle 2.6s ease-in-out infinite 1.8s; }
    .vd-symbol-6 { animation: vd-symbolTwinkle 2.2s ease-in-out infinite 0.6s; }

    /* 4. Temple Lamp Flame */
    @keyframes vd-flameDance {
      0%, 100% { transform: scaleX(1) scaleY(1); opacity: 0.9; }
      25% { transform: scaleX(0.85) scaleY(1.1); opacity: 1; }
      50% { transform: scaleX(1.1) scaleY(0.9); opacity: 0.85; }
      75% { transform: scaleX(0.9) scaleY(1.05); opacity: 0.95; }
    }
    .vd-flame-1 { animation: vd-flameDance 2s ease-in-out infinite; transform-origin: 95px 358px; }
    .vd-flame-2 { animation: vd-flameDance 2.2s ease-in-out infinite 0.3s; transform-origin: 430px 358px; }

    /* 5. Stars Twinkle */
    @keyframes vd-starTwinkle {
      0%, 100% { opacity: 0.3; }
      50% { opacity: 1; }
    }
    .vd-star-1 { animation: vd-starTwinkle 2.5s ease-in-out infinite; }
    .vd-star-2 { animation: vd-starTwinkle 2.8s ease-in-out infinite 0.5s; }
    .vd-star-3 { animation: vd-starTwinkle 2.3s ease-in-out infinite 1.0s; }
    .vd-star-4 { animation: vd-starTwinkle 2.6s ease-in-out infinite 1.5s; }
    .vd-star-5 { animation: vd-starTwinkle 3.0s ease-in-out infinite 0.3s; }
    .vd-star-6 { animation: vd-starTwinkle 2.4s ease-in-out infinite 1.8s; }
    .vd-star-7 { animation: vd-starTwinkle 2.7s ease-in-out infinite 0.7s; }
    .vd-star-8 { animation: vd-starTwinkle 2.9s ease-in-out infinite 1.2s; }

    /* 6. Magic Dust Trail from Goddess */
    @keyframes vd-dustTrail {
      0% { opacity: 0; transform: translate(0px, 0px) scale(0.3); }
      20% { opacity: 0.9; transform: translate(-8px, -12px) scale(1); }
      60% { opacity: 0.5; transform: translate(-20px, -30px) scale(0.7); }
      100% { opacity: 0; transform: translate(-35px, -50px) scale(0.2); }
    }
    .vd-dust-1 { animation: vd-dustTrail 5s ease-in-out infinite; }
    .vd-dust-2 { animation: vd-dustTrail 5.5s ease-in-out infinite 0.8s; }
    .vd-dust-3 { animation: vd-dustTrail 6s ease-in-out infinite 1.6s; }
    .vd-dust-4 { animation: vd-dustTrail 5.2s ease-in-out infinite 2.4s; }
    .vd-dust-5 { animation: vd-dustTrail 6.5s ease-in-out infinite 3.2s; }
    .vd-dust-6 { animation: vd-dustTrail 5.8s ease-in-out infinite 4.0s; }
    .vd-dust-7 { animation: vd-dustTrail 5.3s ease-in-out infinite 4.8s; }

    /* 7. Girl Breathing */
    @keyframes vd-girlBreathe {
      0%, 100% { transform: scaleY(1); }
      50% { transform: scaleY(1.015); }
    }
    .vd-girl-body {
      animation: vd-girlBreathe 4.5s ease-in-out infinite;
      transform-origin: 200px 380px;
    }

    /* 8. Constellation Lines Pulse */
    @keyframes vd-constellPulse {
      0%, 100% { opacity: 0.15; stroke-width: 0.5; }
      50% { opacity: 0.45; stroke-width: 1; }
    }
    .vd-constell { animation: vd-constellPulse 3.5s ease-in-out infinite; }
    .vd-constell-2 { animation: vd-constellPulse 3.8s ease-in-out infinite 0.6s; }

    /* 9. Scroll Unroll */
    @keyframes vd-scrollFloat {
      0%, 100% { transform: translateY(0px) rotate(0deg); }
      50% { transform: translateY(-10px) rotate(3deg); }
    }
    .vd-scroll-1 { animation: vd-scrollFloat 6s ease-in-out infinite; }
    .vd-scroll-2 { animation: vd-scrollFloat 5.5s ease-in-out infinite 1s; }

    /* 10. Eye Blink */
    @keyframes vd-eyeBlink {
      0%, 42%, 48%, 100% { transform: scaleY(1); }
      45% { transform: scaleY(0.05); }
    }
    .vd-eyelid-girl {
      animation: vd-eyeBlink 5s ease-in-out infinite;
      transform-origin: 200px 318px;
    }
  </style>

  <!-- ============ LAYER 1: Background Sky ============ -->
  <rect width="512" height="512" fill="url(#vd-skyGradient)"/>

  <!-- ============ LAYER 2: Far Background — Stars & Constellations ============ -->
  <g opacity="0.8">
    <!-- Stars -->
    <circle cx="45" cy="35" r="1.5" fill="#fff5cc" class="vd-star-1"/>
    <circle cx="120" cy="55" r="1" fill="#ffee88" class="vd-star-2"/>
    <circle cx="200" cy="28" r="1.8" fill="#ffffff" class="vd-star-3"/>
    <circle cx="280" cy="42" r="1.2" fill="#fff5cc" class="vd-star-4"/>
    <circle cx="350" cy="22" r="1.5" fill="#ffee88" class="vd-star-5"/>
    <circle cx="420" cy="60" r="1" fill="#ffffff" class="vd-star-6"/>
    <circle cx="470" cy="30" r="1.8" fill="#fff5cc" class="vd-star-7"/>
    <circle cx="80" cy="90" r="1.3" fill="#ffee88" class="vd-star-8"/>
    <circle cx="310" cy="75" r="1" fill="#fff5cc" class="vd-star-1"/>
    <circle cx="160" cy="100" r="1.4" fill="#ffffff" class="vd-star-4"/>
    <circle cx="450" cy="95" r="0.9" fill="#ffee88" class="vd-star-6"/>
    <circle cx="380" cy="110" r="1.1" fill="#fff5cc" class="vd-star-2"/>
    <circle cx="55" cy="140" r="1.2" fill="#ffffff" class="vd-star-5"/>
    <circle cx="490" cy="140" r="1" fill="#ffee88" class="vd-star-3"/>

    <!-- Constellation 1 — Triangle (knowledge symbol) -->
    <g class="vd-constell">
      <line x1="60" y1="45" x2="100" y2="70" stroke="#00ccff" stroke-width="0.6" opacity="0.3"/>
      <line x1="100" y1="70" x2="75" y2="95" stroke="#00ccff" stroke-width="0.6" opacity="0.3"/>
      <line x1="75" y1="95" x2="60" y2="45" stroke="#00ccff" stroke-width="0.6" opacity="0.3"/>
      <circle cx="60" cy="45" r="2" fill="#00ccff" opacity="0.6" filter="url(#vd-softGlow)"/>
      <circle cx="100" cy="70" r="2" fill="#00ccff" opacity="0.6" filter="url(#vd-softGlow)"/>
      <circle cx="75" cy="95" r="2" fill="#00ccff" opacity="0.6" filter="url(#vd-softGlow)"/>
    </g>

    <!-- Constellation 2 — Book shape -->
    <g class="vd-constell-2">
      <line x1="400" y1="40" x2="440" y2="38" stroke="#ff69b4" stroke-width="0.6" opacity="0.3"/>
      <line x1="440" y1="38" x2="445" y2="70" stroke="#ff69b4" stroke-width="0.6" opacity="0.3"/>
      <line x1="445" y1="70" x2="395" y2="72" stroke="#ff69b4" stroke-width="0.6" opacity="0.3"/>
      <line x1="395" y1="72" x2="400" y2="40" stroke="#ff69b4" stroke-width="0.6" opacity="0.3"/>
      <line x1="420" y1="38" x2="420" y2="72" stroke="#ff69b4" stroke-width="0.6" opacity="0.3"/>
      <circle cx="400" cy="40" r="1.5" fill="#ff69b4" opacity="0.5" filter="url(#vd-softGlow)"/>
      <circle cx="440" cy="38" r="1.5" fill="#ff69b4" opacity="0.5" filter="url(#vd-softGlow)"/>
      <circle cx="445" cy="70" r="1.5" fill="#ff69b4" opacity="0.5" filter="url(#vd-softGlow)"/>
      <circle cx="395" cy="72" r="1.5" fill="#ff69b4" opacity="0.5" filter="url(#vd-softGlow)"/>
    </g>
  </g>

  <!-- ============ LAYER 3: Mid Background — Temple Structure ============ -->
  <g opacity="0.75">
    <!-- Temple base platform -->
    <rect x="110" y="380" width="292" height="132" fill="#8b6a3a" rx="2"/>
    <rect x="120" y="375" width="272" height="10" fill="#c4a060" rx="1"/>

    <!-- Temple back wall -->
    <rect x="135" y="180" width="242" height="200" fill="url(#vd-templeGrad)" opacity="0.5"/>

    <!-- Temple dome (shikhara shape) -->
    <path d="M256 100 Q220 140 220 180 L292 180 Q292 140 256 100Z" fill="#c4a060" opacity="0.6"/>
    <path d="M256 90 Q235 110 232 140 L280 140 Q277 110 256 90Z" fill="#a08050" opacity="0.5"/>
    <!-- Kalash (finial) on top -->
    <ellipse cx="256" cy="92" rx="6" ry="4" fill="#ffd700" opacity="0.7"/>
    <line x1="256" y1="78" x2="256" y2="88" stroke="#ffd700" stroke-width="2" opacity="0.7"/>
    <circle cx="256" cy="76" r="3" fill="#ffd700" opacity="0.7"/>

    <!-- Temple arch (entrance) -->
    <path d="M220 380 L220 250 Q256 210 292 250 L292 380Z" fill="#1a1050" opacity="0.5"/>
    <path d="M218 380 L218 248 Q256 206 294 248 L294 380Z" fill="none" stroke="#c4a060" stroke-width="2.5" opacity="0.7"/>

    <!-- Decorative carvings on temple -->
    <circle cx="200" cy="230" r="5" fill="none" stroke="#c4a060" stroke-width="1" opacity="0.4"/>
    <circle cx="200" cy="230" r="2.5" fill="#ffd700" opacity="0.3"/>
    <circle cx="312" cy="230" r="5" fill="none" stroke="#c4a060" stroke-width="1" opacity="0.4"/>
    <circle cx="312" cy="230" r="2.5" fill="#ffd700" opacity="0.3"/>

    <!-- Left pillar -->
    <rect x="140" y="210" width="22" height="170" fill="url(#vd-pillarGrad)" opacity="0.7"/>
    <rect x="138" y="205" width="26" height="10" fill="#c4a060" opacity="0.7" rx="1"/>
    <rect x="138" y="375" width="26" height="8" fill="#c4a060" opacity="0.7" rx="1"/>

    <!-- Right pillar -->
    <rect x="350" y="210" width="22" height="170" fill="url(#vd-pillarGrad)" opacity="0.7"/>
    <rect x="348" y="205" width="26" height="10" fill="#c4a060" opacity="0.7" rx="1"/>
    <rect x="348" y="375" width="26" height="8" fill="#c4a060" opacity="0.7" rx="1"/>

    <!-- Temple steps -->
    <rect x="200" y="383" width="112" height="8" fill="#a08050" rx="1"/>
    <rect x="190" y="393" width="132" height="8" fill="#8b6a3a" rx="1"/>
    <rect x="180" y="403" width="152" height="8" fill="#7a5a30" rx="1"/>
  </g>

  <!-- ============ LAYER 4: Middle Ground — Temple Lamps & Ground ============ -->
  <g>
    <!-- Ground surface -->
    <ellipse cx="256" cy="420" rx="250" ry="30" fill="url(#vd-groundGrad)" opacity="0.5"/>

    <!-- Left Diya (oil lamp) -->
    <g>
      <path d="M85 370 Q90 360 95 370 Q100 360 105 370 L102 375 Q95 378 88 375Z" fill="#c4a060"/>
      <ellipse cx="95" cy="370" rx="10" ry="3" fill="#a08050"/>
      <!-- Flame -->
      <g class="vd-flame-1">
        <ellipse cx="95" cy="355" rx="5" ry="10" fill="url(#vd-flameGrad)" filter="url(#vd-mediumGlow)"/>
        <ellipse cx="95" cy="358" rx="3" ry="6" fill="#fff5cc" opacity="0.8"/>
      </g>
      <!-- Lamp glow on ground -->
      <ellipse cx="95" cy="380" rx="25" ry="8" fill="#ffd700" opacity="0.12"/>
    </g>

    <!-- Right Diya -->
    <g>
      <path d="M420 370 Q425 360 430 370 Q435 360 440 370 L437 375 Q430 378 423 375Z" fill="#c4a060"/>
      <ellipse cx="430" cy="370" rx="10" ry="3" fill="#a08050"/>
      <!-- Flame -->
      <g class="vd-flame-2">
        <ellipse cx="430" cy="355" rx="5" ry="10" fill="url(#vd-flameGrad)" filter="url(#vd-mediumGlow)"/>
        <ellipse cx="430" cy="358" rx="3" ry="6" fill="#fff5cc" opacity="0.8"/>
      </g>
      <ellipse cx="430" cy="380" rx="25" ry="8" fill="#ffd700" opacity="0.12"/>
    </g>

    <!-- Floating Scrolls -->
    <g class="vd-scroll-1" filter="url(#vd-softGlow)">
      <rect x="125" y="160" width="35" height="12" rx="6" fill="#d4a574" opacity="0.7"/>
      <rect x="128" y="162" width="29" height="8" rx="4" fill="#f0dcc0" opacity="0.6"/>
      <line x1="132" y1="165" x2="152" y2="165" stroke="#8b6a3a" stroke-width="0.5" opacity="0.5"/>
      <line x1="132" y1="168" x2="148" y2="168" stroke="#8b6a3a" stroke-width="0.5" opacity="0.5"/>
    </g>
    <g class="vd-scroll-2" filter="url(#vd-softGlow)">
      <rect x="355" y="175" width="30" height="10" rx="5" fill="#d4a574" opacity="0.65"/>
      <rect x="358" y="177" width="24" height="6" rx="3" fill="#f0dcc0" opacity="0.55"/>
      <line x1="361" y1="179.5" x2="378" y2="179.5" stroke="#8b6a3a" stroke-width="0.5" opacity="0.5"/>
    </g>
  </g>

  <!-- ============ LAYER 5: Primary Characters ============ -->
  <g>
    <!-- === Goddess Vidya Devi === -->
    <!-- Glow aura behind goddess -->
    <ellipse cx="310" cy="280" rx="80" ry="110" fill="url(#vd-goddessGlow)" class="vd-goddess-glow" filter="url(#vd-strongGlow)"/>
    <ellipse cx="310" cy="280" rx="50" ry="80" fill="url(#vd-goddessGlow)" class="vd-goddess-glow" opacity="0.4"/>

    <!-- Goddess body (tall, elegant silhouette) -->
    <g filter="url(#vd-softGlow)">
      <!-- Sari/flowing garment -->
      <path d="M295 240 Q280 290 278 350 Q290 380 310 385 Q330 380 342 350 Q340 290 325 240Z" fill="url(#vd-sariGrad)" opacity="0.85"/>
      <!-- Sari pallu (drape) -->
      <path d="M325 260 Q335 270 340 300 Q345 320 338 345 Q330 350 325 340 Q330 310 328 280Z" fill="#fff5cc" opacity="0.5"/>

      <!-- Neck -->
      <rect x="304" y="225" width="12" height="18" fill="#f4deb0" rx="3"/>

      <!-- Head -->
      <ellipse cx="310" cy="215" rx="18" ry="20" fill="#f4deb0"/>

      <!-- Crown (mukut) -->
      <path d="M292 205 L298 185 L304 195 L310 178 L316 195 L322 185 L328 205Z" fill="#ffd700" opacity="0.9"/>
      <path d="M295 205 L300 188 L306 197 L310 182 L314 197 L320 188 L325 205Z" fill="#ffee88" opacity="0.7"/>
      <circle cx="310" cy="190" r="3" fill="#ff8c42" opacity="0.8"/>

      <!-- Face features -->
      <!-- Eyes (serene, slightly downcast) -->
      <ellipse cx="303" cy="214" rx="4" ry="3" fill="#ffffff"/>
      <ellipse cx="303" cy="215" rx="2.5" ry="2.5" fill="#3d1f00"/>
      <circle cx="304" cy="213.5" r="1" fill="#ffffff" opacity="0.8"/>
      <ellipse cx="317" cy="214" rx="4" ry="3" fill="#ffffff"/>
      <ellipse cx="317" cy="215" rx="2.5" ry="2.5" fill="#3d1f00"/>
      <circle cx="318" cy="213.5" r="1" fill="#ffffff" opacity="0.8"/>

      <!-- Bindi (tilak) -->
      <circle cx="310" cy="207" r="1.8" fill="#ff3333"/>

      <!-- Gentle smile -->
      <path d="M304 222 Q310 226 316 222" fill="none" stroke="#a07050" stroke-width="1" stroke-linecap="round"/>

      <!-- Nose -->
      <path d="M310 215 Q312 218 310 220" fill="none" stroke="#c49070" stroke-width="0.8"/>

      <!-- Hair (dark, flowing) -->
      <path d="M292 210 Q290 195 296 185 Q302 195 310 178 Q318 195 324 185 Q330 195 328 210 Q320 202 310 200 Q300 202 292 210Z" fill="#1a0a00" opacity="0.8"/>

      <!-- Earrings -->
      <ellipse cx="291" cy="218" rx="2" ry="4" fill="#ffd700" opacity="0.8"/>
      <ellipse cx="329" cy="218" rx="2" ry="4" fill="#ffd700" opacity="0.8"/>

      <!-- Necklace -->
      <path d="M300 235 Q305 240 310 241 Q315 240 320 235" fill="none" stroke="#ffd700" stroke-width="1.5" opacity="0.8"/>
      <circle cx="310" cy="242" r="2" fill="#ffd700" opacity="0.9"/>

      <!-- Arms (one raised holding lotus/book) -->
      <!-- Right arm raised -->
      <path d="M325 252 Q340 240 345 225 Q348 218 345 215" fill="none" stroke="#f4deb0" stroke-width="6" stroke-linecap="round"/>
      <!-- Hand holding a small glowing book -->
      <rect x="340" y="208" width="14" height="10" rx="1" fill="#ffd700" opacity="0.8" filter="url(#vd-softGlow)"/>
      <line x1="347" y1="209" x2="347" y2="217" stroke="#ffee88" stroke-width="0.5"/>

      <!-- Left arm in blessing gesture (abhaya mudra) -->
      <path d="M295 252 Q280 245 270 235 Q265 228 268 222" fill="none" stroke="#f4deb0" stroke-width="6" stroke-linecap="round"/>
      <!-- Open hand -->
      <ellipse cx="266" cy="218" rx="6" ry="8" fill="#f4deb0"/>
      <line x1="262" y1="212" x2="261" y2="207" stroke="#f4deb0" stroke-width="2" stroke-linecap="round"/>
      <line x1="265" y1="211" x2="264" y2="205" stroke="#f4deb0" stroke-width="2" stroke-linecap="round"/>
      <line x1="268" y1="211" x2="268" y2="205" stroke="#f4deb0" stroke-width="2" stroke-linecap="round"/>
      <line x1="271" y1="212" x2="272" y2="207" stroke="#f4deb0" stroke-width="2" stroke-linecap="round"/>

      <!-- Feet (simple) -->
      <ellipse cx="300" cy="387" rx="7" ry="3" fill="#f4deb0" opacity="0.7"/>
      <ellipse cx="320" cy="387" rx="7" ry="3" fill="#f4deb0" opacity="0.7"/>
    </g>

    <!-- === Girl Priya === -->
    <g class="vd-girl-body" filter="url(#vd-shadow)">
      <!-- Body / Salwar Kameez -->
      <path d="M188 335 Q178 360 175 400 Q190 410 200 410 Q210 410 225 400 Q222 360 212 335Z" fill="url(#vd-dressGrad)"/>
      <!-- Dupatta (scarf) -->
      <path d="M212 335 Q218 345 222 360 Q225 355 220 340 Q215 330 212 335Z" fill="#ffaa44" opacity="0.6"/>

      <!-- Legs -->
      <line x1="190" y1="400" x2="188" y2="420" stroke="#f4b5a0" stroke-width="5" stroke-linecap="round"/>
      <line x1="210" y1="400" x2="212" y2="420" stroke="#f4b5a0" stroke-width="5" stroke-linecap="round"/>

      <!-- Shoes -->
      <ellipse cx="187" cy="422" rx="6" ry="3" fill="#8b4513"/>
      <ellipse cx="213" cy="422" rx="6" ry="3" fill="#8b4513"/>

      <!-- Neck -->
      <rect x="196" y="312" width="8" height="10" fill="url(#vd-skinGrad)" rx="2"/>

      <!-- Head -->
      <circle cx="200" cy="302" r="18" fill="url(#vd-skinGrad)"/>

      <!-- Hair -->
      <path d="M182 298 Q180 280 190 275 Q198 270 205 272 Q215 275 220 280 Q222 298 218 302 Q210 290 200 288 Q190 290 182 298Z" fill="url(#vd-hairGrad)"/>
      <!-- Braid -->
      <path d="M182 300 Q178 320 180 345 Q182 348 185 345 Q183 320 185 302Z" fill="#1a0a00" opacity="0.8"/>
      <!-- Braid tie -->
      <circle cx="181" cy="347" r="2.5" fill="#ff8c42"/>

      <!-- Hair ribbon / clip -->
      <circle cx="185" cy="290" r="3" fill="#ff8c42" opacity="0.8"/>

      <!-- Face -->
      <!-- Eyes -->
      <circle cx="194" cy="300" r="5" fill="#ffffff"/>
      <circle cx="194" cy="301" r="3.5" fill="url(#vd-irisGrad)"/>
      <circle cx="194" cy="302" r="2" fill="#2C3E6E"/>
      <circle cx="195.5" cy="299.5" r="1.2" fill="#ffffff" opacity="0.9"/>
      <circle cx="192.5" cy="303" r="0.7" fill="#ffffff" opacity="0.5"/>

      <circle cx="206" cy="300" r="5" fill="#ffffff"/>
      <circle cx="206" cy="301" r="3.5" fill="url(#vd-irisGrad)"/>
      <circle cx="206" cy="302" r="2" fill="#2C3E6E"/>
      <circle cx="207.5" cy="299.5" r="1.2" fill="#ffffff" opacity="0.9"/>
      <circle cx="204.5" cy="303" r="0.7" fill="#ffffff" opacity="0.5"/>

      <!-- Eyelids for blink -->
      <ellipse cx="194" cy="298" rx="6" ry="4" fill="url(#vd-skinGrad)" class="vd-eyelid-girl"/>
      <ellipse cx="206" cy="298" rx="6" ry="4" fill="url(#vd-skinGrad)" class="vd-eyelid-girl"/>

      <!-- Bindi -->
      <circle cx="200" cy="293" r="1.2" fill="#ff3333"/>

      <!-- Cheeks (blush) -->
      <circle cx="189" cy="306" r="3.5" fill="#FFB6C1" opacity="0.35"/>
      <circle cx="211" cy="306" r="3.5" fill="#FFB6C1" opacity="0.35"/>

      <!-- Nose -->
      <path d="M200 300 Q201.5 304 200 306" fill="none" stroke="#c49070" stroke-width="0.7"/>

      <!-- Mouth (happy, wondering) -->
      <path d="M195 310 Q200 314 205 310" fill="none" stroke="#c07060" stroke-width="1" stroke-linecap="round"/>

      <!-- Arms -->
      <!-- Right arm (reaching toward goddess) -->
      <path d="M212 340 Q225 330 240 320" fill="none" stroke="url(#vd-skinGrad)" stroke-width="5" stroke-linecap="round"/>
      <!-- Hand -->
      <circle cx="242" cy="318" r="4" fill="#f4b5a0"/>

      <!-- Left arm (holding a small book) -->
      <path d="M188 340 Q178 338 172 345" fill="none" stroke="url(#vd-skinGrad)" stroke-width="5" stroke-linecap="round"/>
      <circle cx="170" cy="347" r="4" fill="#f4b5a0"/>
      <!-- Small book in hand -->
      <rect x="164" y="342" width="12" height="9" rx="1" fill="#6b3010"/>
      <line x1="170" y1="343" x2="170" y2="350" stroke="#8b4513" stroke-width="0.5"/>
    </g>
  </g>

  <!-- ============ LAYER 6: Foreground — Floating Books, Math Symbols, Magic Dust ============ -->
  <g>
    <!-- Floating Books -->
    <g class="vd-book-1" filter="url(#vd-softGlow)">
      <rect x="130" y="200" width="22" height="16" rx="2" fill="url(#vd-bookGrad1)" opacity="0.8"/>
      <line x1="141" y1="201" x2="141" y2="215" stroke="#a08050" stroke-width="1"/>
      <line x1="134" y1="205" x2="148" y2="205" stroke="#c4a060" stroke-width="0.4" opacity="0.6"/>
      <line x1="134" y1="208" x2="146" y2="208" stroke="#c4a060" stroke-width="0.4" opacity="0.6"/>
      <line x1="134" y1="211" x2="144" y2="211" stroke="#c4a060" stroke-width="0.4" opacity="0.6"/>
    </g>

    <g class="vd-book-2" filter="url(#vd-softGlow)">
      <rect x="370" y="240" width="20" height="14" rx="2" fill="url(#vd-bookGrad2)" opacity="0.75" transform="rotate(-8 380 247)"/>
      <line x1="380" y1="241" x2="380" y2="253" stroke="#6b3010" stroke-width="1" transform="rotate(-8 380 247)"/>
    </g>

    <g class="vd-book-3" filter="url(#vd-softGlow)">
      <rect x="240" y="145" width="18" height="13" rx="2" fill="#8b4513" opacity="0.7" transform="rotate(12 249 151)"/>
      <line x1="249" y1="146" x2="249" y2="157" stroke="#a08050" stroke-width="0.8" transform="rotate(12 249 151)"/>
    </g>

    <g class="vd-book-4" filter="url(#vd-softGlow)">
      <rect x="95" y="265" width="17" height="12" rx="2" fill="#6b3010" opacity="0.65" transform="rotate(-5 103 271)"/>
      <line x1="103" y1="266" x2="103" y2="276" stroke="#8b4513" stroke-width="0.8" transform="rotate(-5 103 271)"/>
    </g>

    <!-- Mathematical Symbols & Characters -->
    <text x="155" y="140" font-family="serif" font-size="14" fill="#00ccff" class="vd-symbol-1" filter="url(#vd-softGlow)" opacity="0.7">&#x03C0;</text>
    <text x="365" y="160" font-family="serif" font-size="12" fill="#ff69b4" class="vd-symbol-2" filter="url(#vd-softGlow)" opacity="0.7">&#x221E;</text>
    <text x="110" y="180" font-family="serif" font-size="11" fill="#44ff88" class="vd-symbol-3" filter="url(#vd-softGlow)" opacity="0.7">&#x2211;</text>
    <text x="405" y="195" font-family="serif" font-size="13" fill="#00ccff" class="vd-symbol-4" filter="url(#vd-softGlow)" opacity="0.7">&#x2206;</text>
    <text x="80" y="230" font-family="serif" font-size="10" fill="#ff69b4" class="vd-symbol-5" filter="url(#vd-softGlow)" opacity="0.6">&#x03A9;</text>
    <text x="435" y="130" font-family="serif" font-size="11" fill="#44ff88" class="vd-symbol-6" filter="url(#vd-softGlow)" opacity="0.6">&#x222B;</text>

    <!-- Devanagari characters floating -->
    <text x="460" y="220" font-family="serif" font-size="12" fill="#ffd700" class="vd-symbol-3" filter="url(#vd-softGlow)" opacity="0.5">&#x0905;</text>
    <text x="50" y="170" font-family="serif" font-size="11" fill="#ffd700" class="vd-symbol-5" filter="url(#vd-softGlow)" opacity="0.5">&#x0913;</text>

    <!-- Magic Dust Trail from Goddess -->
    <circle cx="320" cy="230" r="2.5" fill="url(#vd-dustGrad)" class="vd-dust-1" filter="url(#vd-mediumGlow)"/>
    <circle cx="330" cy="245" r="2" fill="url(#vd-dustGrad)" class="vd-dust-2" filter="url(#vd-mediumGlow)"/>
    <circle cx="315" cy="255" r="1.8" fill="url(#vd-dustGrad)" class="vd-dust-3" filter="url(#vd-mediumGlow)"/>
    <circle cx="325" cy="220" r="2.2" fill="url(#vd-dustGrad)" class="vd-dust-4" filter="url(#vd-mediumGlow)"/>
    <circle cx="305" cy="240" r="1.5" fill="url(#vd-dustGrad)" class="vd-dust-5" filter="url(#vd-mediumGlow)"/>
    <circle cx="335" cy="260" r="2" fill="url(#vd-dustGrad)" class="vd-dust-6" filter="url(#vd-mediumGlow)"/>
    <circle cx="300" cy="225" r="1.8" fill="url(#vd-dustGrad)" class="vd-dust-7" filter="url(#vd-mediumGlow)"/>

    <!-- Additional sparkle dust between girl and goddess -->
    <circle cx="250" cy="300" r="1.5" fill="#ffd700" class="vd-dust-2" opacity="0.6" filter="url(#vd-softGlow)"/>
    <circle cx="260" cy="290" r="1.2" fill="#ffee88" class="vd-dust-4" opacity="0.5" filter="url(#vd-softGlow)"/>
    <circle cx="245" cy="310" r="1" fill="#ffd700" class="vd-dust-6" opacity="0.5" filter="url(#vd-softGlow)"/>
    <circle cx="255" cy="280" r="1.3" fill="#ffee88" class="vd-dust-1" opacity="0.4" filter="url(#vd-softGlow)"/>

    <!-- Small decorative rangoli pattern on ground -->
    <g opacity="0.3">
      <circle cx="256" cy="430" r="12" fill="none" stroke="#ffd700" stroke-width="0.6"/>
      <circle cx="256" cy="430" r="8" fill="none" stroke="#ff8c42" stroke-width="0.5"/>
      <circle cx="256" cy="430" r="4" fill="#ffd700" opacity="0.3"/>
      <!-- Petals -->
      <ellipse cx="256" cy="418" rx="3" ry="5" fill="#ff8c42" opacity="0.2"/>
      <ellipse cx="268" cy="430" rx="5" ry="3" fill="#ff8c42" opacity="0.2"/>
      <ellipse cx="256" cy="442" rx="3" ry="5" fill="#ff8c42" opacity="0.2"/>
      <ellipse cx="244" cy="430" rx="5" ry="3" fill="#ff8c42" opacity="0.2"/>
    </g>
  </g>

  <!-- ============ LAYER 7: Vignette Overlay ============ -->
  <rect width="512" height="512" fill="url(#vd-vignette)" opacity="0.4"/>
</svg>